G04 Layer_Color=8388736*
%FSLAX44Y44*%
%MOMM*%
G71*
G01*
G75*
%ADD34C,0.5000*%
%ADD49C,0.2540*%
%ADD86C,1.0160*%
%ADD87C,0.1524*%
%ADD88C,0.7000*%
D34*
X-317070Y-72007D02*
X-317012Y-88668D01*
X-313668Y-91988D01*
X-307003Y-91965D01*
X-303683Y-88621D01*
X-303741Y-71960D01*
X-297007Y-91930D02*
X-297053Y-78601D01*
X-287056Y-78566D01*
X-283713Y-81887D01*
X-283678Y-91884D01*
X-277013Y-91860D02*
X-270349Y-91837D01*
X-273681Y-91849D01*
X-273727Y-78520D01*
X-277060Y-78531D01*
X-257078Y-75129D02*
X-257066Y-78462D01*
X-260399Y-78473D01*
X-253734Y-78450D01*
X-257066Y-78462D01*
X-257031Y-88458D01*
X-253687Y-91779D01*
X-243691Y-91744D02*
X-233694Y-91709D01*
X-230373Y-88365D01*
X-233717Y-85045D01*
X-240382Y-85068D01*
X-243726Y-81747D01*
X-240405Y-78404D01*
X-230408Y-78369D01*
X-223744Y-78345D02*
X-220412Y-78334D01*
X-220400Y-81666D01*
X-223732Y-81678D01*
X-223744Y-78345D01*
X-223709Y-88342D02*
X-220377Y-88330D01*
X-220365Y-91663D01*
X-223697Y-91674D01*
X-223709Y-88342D01*
X-187043Y-91546D02*
X-187089Y-78217D01*
X-183757Y-78206D01*
X-180413Y-81526D01*
X-180378Y-91523D01*
X-180413Y-81526D01*
X-177092Y-78183D01*
X-173749Y-81503D01*
X-173714Y-91500D01*
X-167049Y-91477D02*
X-160385Y-91453D01*
X-163717Y-91465D01*
X-163764Y-78136D01*
X-167096Y-78148D01*
X-150388Y-91418D02*
X-143724Y-91395D01*
X-147056Y-91407D01*
X-147126Y-71413D01*
X-150458Y-71425D01*
X-133727Y-91360D02*
X-123730Y-91325D01*
X-120410Y-87982D01*
X-123753Y-84661D01*
X-130418Y-84684D01*
X-133762Y-81363D01*
X-130441Y-78020D01*
X-120444Y-77985D01*
X-301729Y-122292D02*
X-305073Y-118972D01*
X-311738Y-118995D01*
X-315058Y-122339D01*
X-315047Y-125671D01*
X-311703Y-128992D01*
X-305038Y-128968D01*
X-301694Y-132289D01*
X-301683Y-135621D01*
X-305003Y-138965D01*
X-311668Y-138988D01*
X-315012Y-135668D01*
X-281724Y-125555D02*
X-291721Y-125590D01*
X-295042Y-128933D01*
X-295018Y-135598D01*
X-291674Y-138919D01*
X-281678Y-138884D01*
X-271727Y-125520D02*
X-265063Y-125497D01*
X-261719Y-128817D01*
X-261684Y-138814D01*
X-271681Y-138849D01*
X-275025Y-135528D01*
X-271704Y-132184D01*
X-261707Y-132149D01*
X-255020Y-138791D02*
X-248355Y-138767D01*
X-251688Y-138779D01*
X-251757Y-118786D01*
X-255089Y-118797D01*
X-228362Y-138698D02*
X-235026Y-138721D01*
X-238370Y-135400D01*
X-238393Y-128736D01*
X-235073Y-125392D01*
X-228408Y-125369D01*
X-225064Y-128689D01*
X-225053Y-132022D01*
X-238382Y-132068D01*
X-218412Y-125334D02*
X-215079Y-125322D01*
X-215068Y-128654D01*
X-218400Y-128666D01*
X-218412Y-125334D01*
X-218377Y-135330D02*
X-215044Y-135319D01*
X-215033Y-138651D01*
X-218365Y-138663D01*
X-218377Y-135330D01*
X-181710Y-138535D02*
X-175046Y-138511D01*
X-178378Y-138523D01*
X-178448Y-118530D01*
X-181769Y-121874D01*
X-165096Y-125148D02*
X-161764Y-125136D01*
X-161752Y-128468D01*
X-165084Y-128480D01*
X-165096Y-125148D01*
X-165061Y-135144D02*
X-161729Y-135133D01*
X-161717Y-138465D01*
X-165049Y-138477D01*
X-165061Y-135144D01*
X-148388Y-138418D02*
X-141724Y-138395D01*
X-145056Y-138407D01*
X-145126Y-118413D01*
X-148446Y-121757D01*
D49*
X-324540Y532400D02*
X-7620D01*
X-324540Y-1000D02*
X-7620D01*
X-322000Y292361D02*
Y532400D01*
Y-1000D02*
Y230911D01*
X-327080Y517160D02*
X-322000Y532400D01*
X-316920Y517160D01*
X-322000Y-1000D02*
X-316920Y14240D01*
X-327080D02*
X-322000Y-1000D01*
X685800Y-343540D02*
Y-8620D01*
X0Y-343540D02*
Y-8620D01*
X370831Y-341000D02*
X685800D01*
X0D02*
X306841D01*
X670560Y-335920D02*
X685800Y-341000D01*
X670560Y-346080D02*
X685800Y-341000D01*
X0D02*
X15240Y-346080D01*
X0Y-341000D02*
X15240Y-335920D01*
X-93540Y167000D02*
X22000D01*
X-93540Y-1000D02*
X-7620D01*
X-91000Y100774D02*
Y167000D01*
Y-1000D02*
Y57098D01*
X-96080Y151760D02*
X-91000Y167000D01*
X-85920Y151760D01*
X-91000Y-1000D02*
X-85920Y14240D01*
X-96080D02*
X-91000Y-1000D01*
X-51540Y132000D02*
X22000D01*
X-51540Y-1000D02*
X-7620D01*
X-49000Y85813D02*
Y132000D01*
Y-1000D02*
Y37059D01*
X-54080Y116760D02*
X-49000Y132000D01*
X-43920Y116760D01*
X-49000Y-1000D02*
X-43920Y14240D01*
X-54080D02*
X-49000Y-1000D01*
X140000Y-47540D02*
Y24000D01*
X0Y-47540D02*
Y-8620D01*
X87774Y-45000D02*
X140000D01*
X0D02*
X44098D01*
X124760Y-39920D02*
X140000Y-45000D01*
X124760Y-50080D02*
X140000Y-45000D01*
X0D02*
X15240Y-50080D01*
X0Y-45000D02*
X15240Y-39920D01*
X-150540Y344000D02*
X50000D01*
X-150540Y-1000D02*
X-7620D01*
X-148000Y198161D02*
Y344000D01*
Y-1000D02*
Y136711D01*
X-153080Y328760D02*
X-148000Y344000D01*
X-142920Y328760D01*
X-148000Y-1000D02*
X-142920Y14240D01*
X-153080D02*
X-148000Y-1000D01*
X-203540Y472000D02*
X24000D01*
X-203540Y-1000D02*
X-7620D01*
X-201000Y262161D02*
Y472000D01*
Y-1000D02*
Y200711D01*
X-206080Y456760D02*
X-201000Y472000D01*
X-195920Y456760D01*
X-201000Y-1000D02*
X-195920Y14240D01*
X-206080D02*
X-201000Y-1000D01*
X249000Y-88540D02*
Y19000D01*
X0Y-88540D02*
Y-8620D01*
X144813Y-86000D02*
X249000D01*
X0D02*
X96059D01*
X233760Y-80920D02*
X249000Y-86000D01*
X233760Y-91080D02*
X249000Y-86000D01*
X0D02*
X15240Y-91080D01*
X0Y-86000D02*
X15240Y-80920D01*
X278000Y-126540D02*
Y26000D01*
X0Y-126540D02*
Y-8620D01*
X165661Y-124000D02*
X278000D01*
X0D02*
X104211D01*
X262760Y-118920D02*
X278000Y-124000D01*
X262760Y-129080D02*
X278000Y-124000D01*
X0D02*
X15240Y-129080D01*
X0Y-124000D02*
X15240Y-118920D01*
X508000Y-201540D02*
Y26000D01*
X0Y-201540D02*
Y-8620D01*
X281931Y-199000D02*
X508000D01*
X0D02*
X217941D01*
X492760Y-193920D02*
X508000Y-199000D01*
X492760Y-204080D02*
X508000Y-199000D01*
X0D02*
X15240Y-204080D01*
X0Y-199000D02*
X15240Y-193920D01*
X621000Y-245540D02*
Y201000D01*
X0Y-245540D02*
Y-8620D01*
X338431Y-243000D02*
X621000D01*
X0D02*
X274441D01*
X605760Y-237920D02*
X621000Y-243000D01*
X605760Y-248080D02*
X621000Y-243000D01*
X0D02*
X15240Y-248080D01*
X0Y-243000D02*
X15240Y-237920D01*
X636000Y-294540D02*
Y507000D01*
X0Y-294540D02*
Y-8620D01*
X345931Y-292000D02*
X636000D01*
X0D02*
X281941D01*
X620760Y-286920D02*
X636000Y-292000D01*
X620760Y-297080D02*
X636000Y-292000D01*
X0D02*
X15240Y-297080D01*
X0Y-292000D02*
X15240Y-286920D01*
X418000Y-162540D02*
Y508000D01*
X0Y-162540D02*
Y-8620D01*
X235661Y-160000D02*
X418000D01*
X0D02*
X174211D01*
X402760Y-154920D02*
X418000Y-160000D01*
X402760Y-165080D02*
X418000Y-160000D01*
X0D02*
X15240Y-165080D01*
X0Y-160000D02*
X15240Y-154920D01*
X-258540Y508000D02*
X162157D01*
X-258540Y-1000D02*
X-7620D01*
X-256000Y281431D02*
Y508000D01*
Y-1000D02*
Y217441D01*
X-261080Y492760D02*
X-256000Y508000D01*
X-250920Y492760D01*
X-256000Y-1000D02*
X-250920Y14240D01*
X-261080D02*
X-256000Y-1000D01*
D86*
X169777Y508000D02*
G03*
X169777Y508000I-17377J0D01*
G01*
X157077Y25400D02*
G03*
X157077Y25400I-17377J0D01*
G01*
X703177Y76200D02*
G03*
X703177Y76200I-17377J0D01*
G01*
Y355600D02*
G03*
X703177Y355600I-17377J0D01*
G01*
X0Y-1000D02*
Y532400D01*
X685800D01*
Y-1000D02*
Y532400D01*
X0Y-1000D02*
X685800D01*
D87*
X-312859Y245131D02*
Y234975D01*
X-323015Y245131D01*
X-325554D01*
X-328093Y242592D01*
Y237514D01*
X-325554Y234975D01*
X-312859Y250210D02*
Y255288D01*
Y252749D01*
X-328093D01*
X-325554Y250210D01*
Y262906D02*
X-328093Y265445D01*
Y270523D01*
X-325554Y273062D01*
X-315398D01*
X-312859Y270523D01*
Y265445D01*
X-315398Y262906D01*
X-325554D01*
Y278141D02*
X-328093Y280680D01*
Y285758D01*
X-325554Y288297D01*
X-315398D01*
X-312859Y285758D01*
Y280680D01*
X-315398Y278141D01*
X-325554D01*
X321062Y-350141D02*
X310905D01*
X321062Y-339985D01*
Y-337446D01*
X318523Y-334907D01*
X313444D01*
X310905Y-337446D01*
X326140Y-334907D02*
X336297D01*
Y-337446D01*
X326140Y-347602D01*
Y-350141D01*
X341375Y-337446D02*
X343914Y-334907D01*
X348993D01*
X351532Y-337446D01*
Y-347602D01*
X348993Y-350141D01*
X343914D01*
X341375Y-347602D01*
Y-337446D01*
X356610D02*
X359149Y-334907D01*
X364228D01*
X366767Y-337446D01*
Y-347602D01*
X364228Y-350141D01*
X359149D01*
X356610Y-347602D01*
Y-337446D01*
X-97093Y71318D02*
X-94554Y66240D01*
X-89476Y61162D01*
X-84398D01*
X-81859Y63701D01*
Y68779D01*
X-84398Y71318D01*
X-86937D01*
X-89476Y68779D01*
Y61162D01*
X-97093Y86553D02*
X-94554Y81475D01*
X-89476Y76397D01*
X-84398D01*
X-81859Y78936D01*
Y84014D01*
X-84398Y86553D01*
X-86937D01*
X-89476Y84014D01*
Y76397D01*
X-81859Y91632D02*
Y96710D01*
Y94171D01*
X-97093D01*
X-94554Y91632D01*
X-55093Y51279D02*
Y41122D01*
X-47476D01*
X-50015Y46201D01*
Y48740D01*
X-47476Y51279D01*
X-42398D01*
X-39859Y48740D01*
Y43662D01*
X-42398Y41122D01*
X-39859Y66514D02*
Y56358D01*
X-50015Y66514D01*
X-52554D01*
X-55093Y63975D01*
Y58897D01*
X-52554Y56358D01*
X-39859Y79210D02*
X-55093D01*
X-47476Y71593D01*
Y81749D01*
X58319Y-38907D02*
X48162D01*
Y-46524D01*
X53240Y-43985D01*
X55779D01*
X58319Y-46524D01*
Y-51602D01*
X55779Y-54142D01*
X50701D01*
X48162Y-51602D01*
X73554Y-38907D02*
X63397D01*
Y-46524D01*
X68475Y-43985D01*
X71014D01*
X73554Y-46524D01*
Y-51602D01*
X71014Y-54142D01*
X65936D01*
X63397Y-51602D01*
X78632Y-54142D02*
X83710D01*
X81171D01*
Y-38907D01*
X78632Y-41446D01*
X-138858Y140775D02*
Y145853D01*
Y143314D01*
X-154094D01*
X-151554Y140775D01*
Y153470D02*
X-154094Y156010D01*
Y161088D01*
X-151554Y163627D01*
X-149015D01*
X-146476Y161088D01*
Y158549D01*
Y161088D01*
X-143937Y163627D01*
X-141398D01*
X-138858Y161088D01*
Y156010D01*
X-141398Y153470D01*
X-154094Y178862D02*
Y168706D01*
X-146476D01*
X-149015Y173784D01*
Y176323D01*
X-146476Y178862D01*
X-141398D01*
X-138858Y176323D01*
Y171245D01*
X-141398Y168706D01*
X-151554Y183941D02*
X-154094Y186480D01*
Y191558D01*
X-151554Y194097D01*
X-149015D01*
X-146476Y191558D01*
X-143937Y194097D01*
X-141398D01*
X-138858Y191558D01*
Y186480D01*
X-141398Y183941D01*
X-143937D01*
X-146476Y186480D01*
X-149015Y183941D01*
X-151554D01*
X-146476Y186480D02*
Y191558D01*
X-191859Y204775D02*
Y209853D01*
Y207314D01*
X-207094D01*
X-204554Y204775D01*
Y217470D02*
X-207094Y220010D01*
Y225088D01*
X-204554Y227627D01*
X-202015D01*
X-199476Y225088D01*
X-196937Y227627D01*
X-194398D01*
X-191859Y225088D01*
Y220010D01*
X-194398Y217470D01*
X-196937D01*
X-199476Y220010D01*
X-202015Y217470D01*
X-204554D01*
X-199476Y220010D02*
Y225088D01*
X-207094Y242862D02*
X-204554Y237784D01*
X-199476Y232706D01*
X-194398D01*
X-191859Y235245D01*
Y240323D01*
X-194398Y242862D01*
X-196937D01*
X-199476Y240323D01*
Y232706D01*
X-191859Y258097D02*
Y247941D01*
X-202015Y258097D01*
X-204554D01*
X-207094Y255558D01*
Y250480D01*
X-204554Y247941D01*
X100123Y-92602D02*
X102662Y-95141D01*
X107740D01*
X110279Y-92602D01*
Y-82446D01*
X107740Y-79907D01*
X102662D01*
X100123Y-82446D01*
Y-84985D01*
X102662Y-87524D01*
X110279D01*
X115358Y-82446D02*
X117897Y-79907D01*
X122975D01*
X125514Y-82446D01*
Y-84985D01*
X122975Y-87524D01*
X125514Y-90063D01*
Y-92602D01*
X122975Y-95141D01*
X117897D01*
X115358Y-92602D01*
Y-90063D01*
X117897Y-87524D01*
X115358Y-84985D01*
Y-82446D01*
X117897Y-87524D02*
X122975D01*
X130593Y-82446D02*
X133132Y-79907D01*
X138210D01*
X140749Y-82446D01*
Y-92602D01*
X138210Y-95141D01*
X133132D01*
X130593Y-92602D01*
Y-82446D01*
X108275Y-133141D02*
X113353D01*
X110814D01*
Y-117907D01*
X108275Y-120446D01*
X120970D02*
X123510Y-117907D01*
X128588D01*
X131127Y-120446D01*
Y-130602D01*
X128588Y-133141D01*
X123510D01*
X120970Y-130602D01*
Y-120446D01*
X136206Y-130602D02*
X138745Y-133141D01*
X143823D01*
X146362Y-130602D01*
Y-120446D01*
X143823Y-117907D01*
X138745D01*
X136206Y-120446D01*
Y-122985D01*
X138745Y-125524D01*
X146362D01*
X159058Y-133141D02*
Y-117907D01*
X151441Y-125524D01*
X161597D01*
X232162Y-208141D02*
X222005D01*
X232162Y-197985D01*
Y-195446D01*
X229623Y-192906D01*
X224544D01*
X222005Y-195446D01*
X237240D02*
X239779Y-192906D01*
X244858D01*
X247397Y-195446D01*
Y-205602D01*
X244858Y-208141D01*
X239779D01*
X237240Y-205602D01*
Y-195446D01*
X252475D02*
X255014Y-192906D01*
X260093D01*
X262632Y-195446D01*
Y-205602D01*
X260093Y-208141D01*
X255014D01*
X252475Y-205602D01*
Y-195446D01*
X267710D02*
X270249Y-192906D01*
X275328D01*
X277867Y-195446D01*
Y-205602D01*
X275328Y-208141D01*
X270249D01*
X267710Y-205602D01*
Y-195446D01*
X288662Y-252141D02*
X278505D01*
X288662Y-241985D01*
Y-239446D01*
X286123Y-236907D01*
X281044D01*
X278505Y-239446D01*
X301358Y-252141D02*
Y-236907D01*
X293740Y-244524D01*
X303897D01*
X316593Y-252141D02*
Y-236907D01*
X308975Y-244524D01*
X319132D01*
X334367Y-236907D02*
X324210D01*
Y-244524D01*
X329289Y-241985D01*
X331828D01*
X334367Y-244524D01*
Y-249602D01*
X331828Y-252141D01*
X326749D01*
X324210Y-249602D01*
X296162Y-301141D02*
X286005D01*
X296162Y-290985D01*
Y-288446D01*
X293623Y-285907D01*
X288544D01*
X286005Y-288446D01*
X311397Y-285907D02*
X301240D01*
Y-293524D01*
X306318Y-290985D01*
X308858D01*
X311397Y-293524D01*
Y-298602D01*
X308858Y-301141D01*
X303779D01*
X301240Y-298602D01*
X316475Y-288446D02*
X319014Y-285907D01*
X324093D01*
X326632Y-288446D01*
Y-298602D01*
X324093Y-301141D01*
X319014D01*
X316475Y-298602D01*
Y-288446D01*
X339328Y-301141D02*
Y-285907D01*
X331710Y-293524D01*
X341867D01*
X178275Y-169142D02*
X183353D01*
X180814D01*
Y-153906D01*
X178275Y-156446D01*
X201127Y-153906D02*
X196049Y-156446D01*
X190970Y-161524D01*
Y-166602D01*
X193510Y-169142D01*
X198588D01*
X201127Y-166602D01*
Y-164063D01*
X198588Y-161524D01*
X190970D01*
X213823Y-169142D02*
Y-153906D01*
X206206Y-161524D01*
X216362D01*
X231597Y-153906D02*
X226519Y-156446D01*
X221441Y-161524D01*
Y-166602D01*
X223980Y-169142D01*
X229058D01*
X231597Y-166602D01*
Y-164063D01*
X229058Y-161524D01*
X221441D01*
X-246859Y231662D02*
Y221505D01*
X-257015Y231662D01*
X-259554D01*
X-262094Y229123D01*
Y224044D01*
X-259554Y221505D01*
Y236740D02*
X-262094Y239279D01*
Y244358D01*
X-259554Y246897D01*
X-249398D01*
X-246859Y244358D01*
Y239279D01*
X-249398Y236740D01*
X-259554D01*
Y251975D02*
X-262094Y254514D01*
Y259593D01*
X-259554Y262132D01*
X-249398D01*
X-246859Y259593D01*
Y254514D01*
X-249398Y251975D01*
X-259554D01*
X-246859Y274828D02*
X-262094D01*
X-254476Y267210D01*
Y277367D01*
D88*
X53000Y728000D02*
X52878Y762989D01*
X64581Y751366D01*
X76203Y763070D01*
X76326Y728081D01*
X105483Y728183D02*
X93820Y728142D01*
X87968Y733954D01*
X87927Y745616D01*
X93738Y751468D01*
X105401Y751509D01*
X111253Y745698D01*
X111273Y739866D01*
X87948Y739785D01*
X146221Y751651D02*
X128727Y751590D01*
X122916Y745739D01*
X122957Y734076D01*
X128808Y728265D01*
X146303Y728326D01*
X157843Y763355D02*
X157965Y728366D01*
X157904Y745861D01*
X163715Y751712D01*
X175378Y751753D01*
X181230Y745942D01*
X181291Y728448D01*
X198704Y751834D02*
X210367Y751875D01*
X216218Y746064D01*
X216280Y728570D01*
X198785Y728509D01*
X192934Y734320D01*
X198745Y740172D01*
X216239Y740233D01*
X227942Y728611D02*
X227861Y751936D01*
X245355Y751997D01*
X251207Y746186D01*
X251268Y728692D01*
X262931Y728733D02*
X274594Y728773D01*
X268762Y728753D01*
X268681Y752079D01*
X262850Y752058D01*
X315332Y752242D02*
X297838Y752181D01*
X292027Y746329D01*
X292068Y734666D01*
X297919Y728855D01*
X315414Y728916D01*
X332826Y752303D02*
X344489Y752343D01*
X350341Y746532D01*
X350402Y729038D01*
X332908Y728977D01*
X327056Y734788D01*
X332867Y740640D01*
X350361Y740701D01*
X362065Y729079D02*
X373728Y729120D01*
X367896Y729099D01*
X367774Y764088D01*
X361943Y764067D01*
X426088Y764291D02*
X426211Y729303D01*
X443705Y729364D01*
X449516Y735216D01*
X449434Y758541D01*
X443583Y764352D01*
X426088Y764291D01*
X461118Y752750D02*
X461199Y729425D01*
X461158Y741088D01*
X466969Y746939D01*
X472780Y752791D01*
X478612Y752812D01*
X501937Y752893D02*
X513600Y752934D01*
X519452Y747123D01*
X519513Y729629D01*
X502019Y729567D01*
X496167Y735378D01*
X501978Y741230D01*
X519472Y741291D01*
X531095Y752995D02*
X531156Y735501D01*
X537007Y729689D01*
X542818Y735541D01*
X548670Y729730D01*
X554481Y735582D01*
X554420Y753076D01*
X566165Y729791D02*
X577827Y729832D01*
X571996Y729812D01*
X571914Y753137D01*
X566083Y753117D01*
X595322Y729893D02*
X595240Y753219D01*
X612734Y753280D01*
X618586Y747469D01*
X618647Y729975D01*
X642014Y718393D02*
X647845Y718413D01*
X653656Y724265D01*
X653554Y753422D01*
X636060Y753361D01*
X630249Y747510D01*
X630290Y735847D01*
X636142Y730036D01*
X653636Y730097D01*
X85831Y647020D02*
X97494Y647061D01*
X103305Y652913D01*
X103265Y664576D01*
X97413Y670387D01*
X85750Y670346D01*
X79939Y664494D01*
X79980Y652831D01*
X85831Y647020D01*
X120820Y647142D02*
X120718Y676300D01*
X120759Y664637D01*
X114927Y664616D01*
X126590Y664657D01*
X120759Y664637D01*
X120718Y676300D01*
X126529Y682151D01*
X202460Y647428D02*
X179134Y647346D01*
X202378Y670753D01*
X202358Y676584D01*
X196506Y682396D01*
X184843Y682355D01*
X179032Y676503D01*
X214021Y676625D02*
X219832Y682477D01*
X231495Y682518D01*
X237346Y676707D01*
X237367Y670875D01*
X231556Y665023D01*
X237407Y659212D01*
X237428Y653381D01*
X231617Y647529D01*
X219954Y647489D01*
X214102Y653300D01*
X214082Y659131D01*
X219893Y664983D01*
X214041Y670794D01*
X214021Y676625D01*
X219893Y664983D02*
X231556Y665023D01*
X284100Y647712D02*
X283977Y682701D01*
X301472Y682762D01*
X307323Y676951D01*
X307364Y665288D01*
X301553Y659436D01*
X284059Y659375D01*
X319088Y647835D02*
X330751Y647875D01*
X324919Y647855D01*
X324838Y671181D01*
X319007Y671160D01*
X348245Y647936D02*
X348164Y671262D01*
X365658Y671323D01*
X371510Y665512D01*
X371571Y648018D01*
X383233Y648058D02*
X400728Y648120D01*
X406539Y653971D01*
X400687Y659782D01*
X389024Y659742D01*
X383172Y665553D01*
X388984Y671404D01*
X406478Y671466D01*
X454878Y679988D02*
X454959Y656663D01*
X466663Y645041D01*
X478285Y656744D01*
X478204Y680070D01*
X489989Y645122D02*
X501651Y645163D01*
X495820Y645143D01*
X495698Y680131D01*
X489887Y674279D01*
X519023Y680212D02*
X530686Y680253D01*
X524855Y680233D01*
X524977Y645244D01*
X519146Y645224D01*
X530808Y645265D01*
X548303Y645326D02*
X559966Y645366D01*
X554134Y645346D01*
X554012Y680334D01*
X548201Y674483D01*
M02*
