G04 Layer_Physical_Order=2*
G04 Layer_Color=16711680*
%FSLAX44Y44*%
%MOMM*%
G71*
G01*
G75*
%ADD31R,1.9000X1.9000*%
%ADD32C,0.3000*%
%ADD33C,0.4000*%
%ADD36O,1.6000X2.0000*%
%ADD37R,1.6000X2.0000*%
%ADD38C,1.9000*%
%ADD39R,1.9000X1.9000*%
%ADD40C,3.2000*%
%ADD41C,4.0000*%
%ADD42R,2.0000X1.6000*%
%ADD43O,2.0000X1.6000*%
%ADD44C,1.7000*%
%ADD45R,1.7000X1.7000*%
G04:AMPARAMS|DCode=46|XSize=2mm|YSize=1.25mm|CornerRadius=0.3125mm|HoleSize=0mm|Usage=FLASHONLY|Rotation=0.000|XOffset=0mm|YOffset=0mm|HoleType=Round|Shape=RoundedRectangle|*
%AMROUNDEDRECTD46*
21,1,2.0000,0.6250,0,0,0.0*
21,1,1.3750,1.2500,0,0,0.0*
1,1,0.6250,0.6875,-0.3125*
1,1,0.6250,-0.6875,-0.3125*
1,1,0.6250,-0.6875,0.3125*
1,1,0.6250,0.6875,0.3125*
%
%ADD46ROUNDEDRECTD46*%
G04:AMPARAMS|DCode=47|XSize=2mm|YSize=1.2mm|CornerRadius=0.3mm|HoleSize=0mm|Usage=FLASHONLY|Rotation=0.000|XOffset=0mm|YOffset=0mm|HoleType=Round|Shape=RoundedRectangle|*
%AMROUNDEDRECTD47*
21,1,2.0000,0.6000,0,0,0.0*
21,1,1.4000,1.2000,0,0,0.0*
1,1,0.6000,0.7000,-0.3000*
1,1,0.6000,-0.7000,-0.3000*
1,1,0.6000,-0.7000,0.3000*
1,1,0.6000,0.7000,0.3000*
%
%ADD47ROUNDEDRECTD47*%
%ADD48C,0.6000*%
G36*
X289000Y521021D02*
X286688Y520717D01*
X284013Y519608D01*
X281715Y517845D01*
X279951Y515547D01*
X278843Y512872D01*
X278465Y510000D01*
Y506000D01*
X278843Y503128D01*
X279951Y500452D01*
X281715Y498155D01*
X284013Y496391D01*
X286688Y495283D01*
X289000Y494979D01*
X289000Y482000D01*
X257489D01*
X257000Y482489D01*
Y499000D01*
Y525000D01*
X247612D01*
X246506Y525739D01*
X244750Y526088D01*
X200000D01*
X198244Y525739D01*
X197138Y525000D01*
X177000D01*
Y511025D01*
X176865Y510000D01*
Y506000D01*
X177000Y504975D01*
Y484000D01*
X176000Y483000D01*
X77619D01*
X76402Y483504D01*
X73400Y483899D01*
X70398Y483504D01*
X69181Y483000D01*
X65000D01*
X65000Y480244D01*
X63355Y478100D01*
X62196Y475302D01*
X61801Y472300D01*
X62196Y469298D01*
X63355Y466500D01*
X65000Y464356D01*
Y464000D01*
X83000Y446000D01*
X93211D01*
X93456Y445756D01*
X94944Y444761D01*
X96700Y444412D01*
X134000D01*
Y438000D01*
X160000D01*
Y446000D01*
X206000Y446000D01*
X223365Y428635D01*
X224174Y427424D01*
X225385Y426615D01*
X238000Y414000D01*
X556512Y414000D01*
X557725Y412787D01*
X558098Y410909D01*
X559424Y408924D01*
X561409Y407598D01*
X563750Y407132D01*
X566091Y407598D01*
X568076Y408924D01*
X569402Y410909D01*
X569868Y413250D01*
X570483Y414000D01*
X595000Y414000D01*
X607000D01*
Y402000D01*
Y353000D01*
X603000Y349000D01*
X569000Y315000D01*
X569000Y236000D01*
X569000Y220000D01*
X456000D01*
Y162000D01*
X475000Y143000D01*
Y81059D01*
X398793D01*
X398498Y81000D01*
X398197Y81000D01*
X398197Y81000D01*
X390303D01*
X390303Y81000D01*
X390002Y81000D01*
X389707Y81059D01*
X385942D01*
X385647Y81000D01*
X380353D01*
X380057Y81059D01*
X354591D01*
X354295Y81000D01*
X353705D01*
X353409Y81059D01*
X332295D01*
X332000Y81117D01*
X331704Y81059D01*
X310815D01*
X310520Y81000D01*
X305000D01*
X303914Y81683D01*
X303798Y81961D01*
X303740Y82257D01*
X303572Y82507D01*
X303457Y82786D01*
X303244Y82999D01*
X303076Y83249D01*
X287163Y99163D01*
X287163Y99163D01*
X252163Y134163D01*
X252163Y134163D01*
X251170Y134826D01*
X250000Y135059D01*
X250000Y135059D01*
X239065D01*
X238770Y135000D01*
X231230D01*
X230935Y135059D01*
X159000Y135059D01*
X159000Y152001D01*
X155292Y152001D01*
X155000Y152059D01*
X114270D01*
X114270Y152059D01*
X114270Y152059D01*
X113974Y152000D01*
X110238Y152000D01*
X109941Y152059D01*
X109941Y152059D01*
X97059D01*
X97059Y191000D01*
X96826Y192171D01*
X96163Y193163D01*
X72059Y217267D01*
X72059Y225000D01*
Y231000D01*
X72000Y231295D01*
Y234000D01*
X69296D01*
X69000Y234059D01*
X55000D01*
X46059Y234059D01*
X46059Y272994D01*
X47826Y274174D01*
X49152Y276159D01*
X49618Y278500D01*
X49152Y280841D01*
X47826Y282826D01*
X46059Y284006D01*
X46059Y306632D01*
X47115Y307337D01*
X47698Y307096D01*
X50700Y306701D01*
X53702Y307096D01*
X56500Y308255D01*
X58902Y310098D01*
X60745Y312500D01*
X61904Y315298D01*
X62299Y318300D01*
X61904Y321302D01*
X60745Y324100D01*
X58902Y326502D01*
X56500Y328345D01*
X53702Y329504D01*
X50700Y329899D01*
X47698Y329504D01*
X47115Y329263D01*
X46059Y329968D01*
Y332200D01*
X62200D01*
Y355200D01*
X46059D01*
X46059Y369125D01*
X47014Y369962D01*
X49000Y369701D01*
X52002Y370096D01*
X54800Y371255D01*
X57202Y373098D01*
X59045Y375500D01*
X60204Y378298D01*
X60599Y381300D01*
X60204Y384302D01*
X59045Y387100D01*
X57202Y389502D01*
X54800Y391345D01*
X52002Y392504D01*
X49000Y392899D01*
X47204Y392663D01*
X46214Y393531D01*
Y394469D01*
X47204Y395337D01*
X49000Y395101D01*
X52002Y395496D01*
X54800Y396655D01*
X57202Y398498D01*
X59045Y400900D01*
X60204Y403698D01*
X60599Y406700D01*
X60204Y409702D01*
X59045Y412500D01*
X57202Y414902D01*
X54800Y416745D01*
X52002Y417904D01*
X49000Y418299D01*
X47014Y418038D01*
X46059Y418875D01*
X46059Y459993D01*
X47014Y460831D01*
X48000Y460701D01*
X51002Y461096D01*
X53800Y462255D01*
X56202Y464098D01*
X58045Y466500D01*
X59204Y469298D01*
X59599Y472300D01*
X59204Y475302D01*
X58045Y478100D01*
X56202Y480502D01*
X53800Y482345D01*
X51002Y483504D01*
X48000Y483899D01*
X47516Y483835D01*
X46431Y484788D01*
Y485212D01*
X47516Y486165D01*
X48000Y486101D01*
X51002Y486496D01*
X53800Y487655D01*
X56202Y489498D01*
X58045Y491900D01*
X59204Y494698D01*
X59599Y497700D01*
X59204Y500702D01*
X58045Y503500D01*
X56202Y505902D01*
X53800Y507745D01*
X51002Y508904D01*
X48000Y509299D01*
X47013Y509169D01*
X46059Y510007D01*
X46058Y530000D01*
X47328Y530000D01*
X289000Y530000D01*
X289000Y521021D01*
D02*
G37*
G36*
X69000Y225000D02*
X69000Y216000D01*
X94000Y191000D01*
X94000Y149000D01*
X109941D01*
X109941Y149000D01*
X109941Y122267D01*
X97674Y110000D01*
X78126D01*
X78127Y165914D01*
X63515Y182530D01*
X46059Y203439D01*
X46059Y231000D01*
X55000Y231000D01*
X69000D01*
Y225000D01*
D02*
G37*
G36*
X43000Y530000D02*
X43000Y508076D01*
X42200Y507745D01*
X39798Y505902D01*
X37955Y503500D01*
X36796Y500702D01*
X36401Y497700D01*
X36796Y494698D01*
X37955Y491900D01*
X39798Y489498D01*
X42200Y487655D01*
X43000Y487324D01*
X43000Y482676D01*
X42200Y482345D01*
X39798Y480502D01*
X37955Y478100D01*
X36796Y475302D01*
X36401Y472300D01*
X36796Y469298D01*
X37955Y466500D01*
X39798Y464098D01*
X42200Y462255D01*
X43000Y461924D01*
X43000Y416591D01*
X40798Y414902D01*
X38955Y412500D01*
X37796Y409702D01*
X37401Y406700D01*
X37796Y403698D01*
X38955Y400900D01*
X40798Y398498D01*
X43000Y396809D01*
X43000Y391191D01*
X40798Y389502D01*
X38955Y387100D01*
X37796Y384302D01*
X37401Y381300D01*
X37796Y378298D01*
X38955Y375500D01*
X40798Y373098D01*
X43000Y371409D01*
X43000Y355200D01*
X39200D01*
Y332200D01*
X43000D01*
X43000Y326887D01*
X42498Y326502D01*
X40655Y324100D01*
X39496Y321302D01*
X39101Y318300D01*
X39496Y315298D01*
X40655Y312500D01*
X42498Y310098D01*
X43000Y309713D01*
X43001Y231000D01*
X43000Y231000D01*
X43001Y209310D01*
X43001Y202330D01*
X75000Y164000D01*
X75000Y106000D01*
X98000Y106000D01*
X105971Y113971D01*
X112104Y120104D01*
X112104Y120104D01*
X113000Y121000D01*
Y122267D01*
X113000Y122267D01*
X113000Y122267D01*
X113000Y147730D01*
X114270Y149000D01*
X155000D01*
X155000Y132000D01*
X230935Y132000D01*
X232659Y130848D01*
X235000Y130382D01*
X237341Y130848D01*
X239065Y132000D01*
X250000D01*
X285000Y97000D01*
X300914Y81086D01*
X301098Y80159D01*
X302424Y78174D01*
X304409Y76848D01*
X306750Y76382D01*
X309091Y76848D01*
X310815Y78000D01*
X353409D01*
X354000Y77882D01*
X354591Y78000D01*
X380057D01*
X380659Y77598D01*
X383000Y77133D01*
X385341Y77598D01*
X385942Y78000D01*
X389707D01*
X389924Y77674D01*
X391909Y76348D01*
X394250Y75882D01*
X396591Y76348D01*
X398576Y77674D01*
X398793Y78000D01*
X630000D01*
X640000Y78000D01*
Y41000D01*
X482000D01*
X392296Y41000D01*
X392000Y41059D01*
X373000D01*
X373000Y56000D01*
X367296D01*
X367000Y56059D01*
X313598D01*
X313302Y56000D01*
X313001D01*
X313001Y56000D01*
X310499D01*
X310499Y56000D01*
X310198D01*
X309902Y56059D01*
X304941D01*
X261000Y100000D01*
X238000Y123000D01*
X235296D01*
X235000Y123059D01*
X235000Y123059D01*
X173000D01*
X172704Y123000D01*
X172000D01*
X171819Y122819D01*
X170837Y122163D01*
X168837Y120163D01*
X168837Y120163D01*
X157837Y109163D01*
X157181Y108181D01*
X157000Y108000D01*
Y107295D01*
X156941Y107000D01*
X156941Y107000D01*
Y99000D01*
Y80000D01*
X157000Y79705D01*
Y78059D01*
X146121D01*
X145923Y78019D01*
X145722Y78033D01*
X145474Y78000D01*
X145326D01*
X145078Y78033D01*
X144877Y78019D01*
X144679Y78059D01*
X131059D01*
Y88000D01*
Y98000D01*
X131000Y98296D01*
Y101000D01*
X128295D01*
X128000Y101059D01*
X112000D01*
X111705Y101000D01*
X109000D01*
Y101000D01*
X107000D01*
X107000Y99000D01*
Y73000D01*
X85000Y51000D01*
X22130D01*
X21000Y51111D01*
X19870Y51000D01*
X3000D01*
Y115793D01*
X4196Y116221D01*
X4658Y115658D01*
X8160Y112784D01*
X12156Y110648D01*
X16491Y109333D01*
X21000Y108889D01*
X25509Y109333D01*
X29844Y110648D01*
X33840Y112784D01*
X37342Y115658D01*
X40216Y119160D01*
X42352Y123156D01*
X43667Y127491D01*
X44111Y132000D01*
X43667Y136509D01*
X42352Y140844D01*
X40216Y144840D01*
X37342Y148342D01*
X33840Y151216D01*
X29844Y153352D01*
X25509Y154667D01*
X21000Y155111D01*
X16491Y154667D01*
X12156Y153352D01*
X8160Y151216D01*
X4658Y148342D01*
X4196Y147779D01*
X3000Y148207D01*
X3000Y530000D01*
X43000Y530000D01*
D02*
G37*
G36*
X252000Y103000D02*
X302000Y53000D01*
X309902D01*
X311750Y52632D01*
X313598Y53000D01*
X367000D01*
X367000Y38000D01*
Y12059D01*
X344000D01*
Y40000D01*
X235000D01*
X202780Y70648D01*
X203216Y71986D01*
X205763Y72322D01*
X208804Y73581D01*
X211415Y75585D01*
X213419Y78196D01*
X214678Y81237D01*
X215108Y84500D01*
X214678Y87763D01*
X213419Y90804D01*
X211415Y93415D01*
X208804Y95419D01*
X205763Y96678D01*
X202500Y97108D01*
X199237Y96678D01*
X196196Y95419D01*
X193585Y93415D01*
X191581Y90804D01*
X190322Y87763D01*
X189892Y84500D01*
X190322Y81237D01*
X190350Y81168D01*
X189600Y79660D01*
X189394Y79606D01*
X189000Y80000D01*
X160000D01*
Y99000D01*
Y107000D01*
X171000Y118000D01*
X173000Y120000D01*
X235000D01*
X252000Y103000D01*
D02*
G37*
G36*
X128000Y88000D02*
Y75000D01*
X144679D01*
X145400Y74905D01*
X146121Y75000D01*
X170079D01*
X170800Y74905D01*
X171521Y75000D01*
X192000D01*
X206000Y61000D01*
X235000Y34000D01*
X265000D01*
Y9000D01*
X371000D01*
Y38000D01*
X392000D01*
Y3000D01*
X3000D01*
Y47000D01*
X87000D01*
X88000Y48000D01*
X112000Y72000D01*
Y98000D01*
X128000D01*
Y88000D01*
D02*
G37*
%LPC*%
G36*
X152400Y527092D02*
X148675Y526725D01*
X145094Y525639D01*
X141793Y523874D01*
X138900Y521500D01*
X136526Y518607D01*
X134761Y515306D01*
X133675Y511725D01*
X133308Y508000D01*
X133675Y504275D01*
X134761Y500694D01*
X136526Y497393D01*
X138900Y494500D01*
X141793Y492126D01*
X145094Y490361D01*
X148675Y489275D01*
X152400Y488908D01*
X156125Y489275D01*
X159706Y490361D01*
X163007Y492126D01*
X165900Y494500D01*
X168274Y497393D01*
X170039Y500694D01*
X171125Y504275D01*
X171492Y508000D01*
X171125Y511725D01*
X170039Y515306D01*
X168274Y518607D01*
X165900Y521500D01*
X163007Y523874D01*
X159706Y525639D01*
X156125Y526725D01*
X152400Y527092D01*
D02*
G37*
G36*
X200102Y442059D02*
X200102Y442059D01*
X181000Y442059D01*
X179829Y441826D01*
X178837Y441163D01*
X178174Y440170D01*
X177941Y439000D01*
X177941Y418059D01*
X159754Y418059D01*
X159048Y419115D01*
X159717Y420728D01*
X160095Y423600D01*
X159717Y426472D01*
X158609Y429147D01*
X156845Y431445D01*
X154548Y433209D01*
X151872Y434317D01*
X149000Y434695D01*
X145000D01*
X142128Y434317D01*
X139452Y433209D01*
X137155Y431445D01*
X135392Y429147D01*
X134283Y426472D01*
X133905Y423600D01*
X134283Y420728D01*
X134952Y419115D01*
X134246Y418059D01*
X120000Y418059D01*
X118829Y417826D01*
X117837Y417163D01*
X117174Y416170D01*
X116941Y415000D01*
X116941Y385000D01*
X117174Y383829D01*
X117837Y382837D01*
X118829Y382174D01*
X120000Y381941D01*
X136868Y381941D01*
X137276Y380739D01*
X137155Y380645D01*
X135392Y378348D01*
X134283Y375672D01*
X133905Y372800D01*
X134283Y369928D01*
X135392Y367253D01*
X137155Y364955D01*
X139452Y363191D01*
X142128Y362083D01*
X145000Y361705D01*
X149000D01*
X151872Y362083D01*
X154548Y363191D01*
X156845Y364955D01*
X158609Y367253D01*
X159717Y369928D01*
X160095Y372800D01*
X159717Y375672D01*
X158609Y378348D01*
X156845Y380645D01*
X156723Y380739D01*
X157132Y381941D01*
X176733Y381941D01*
X186837Y371837D01*
X186837Y371837D01*
X187829Y371174D01*
X189000Y370941D01*
X189000Y370941D01*
X311000D01*
X312171Y371174D01*
X313163Y371837D01*
X313826Y372830D01*
X314059Y374000D01*
Y395000D01*
X313826Y396171D01*
X313163Y397163D01*
X305163Y405163D01*
X304170Y405826D01*
X303000Y406059D01*
X303000Y406059D01*
X214267D01*
X204059Y416267D01*
Y438102D01*
X204059Y438102D01*
X203826Y439272D01*
X203163Y440265D01*
X202265Y441163D01*
X201273Y441826D01*
X200102Y442059D01*
D02*
G37*
G36*
X74400Y392899D02*
X71398Y392504D01*
X68600Y391345D01*
X66198Y389502D01*
X64355Y387100D01*
X63196Y384302D01*
X62801Y381300D01*
X63196Y378298D01*
X64355Y375500D01*
X66198Y373098D01*
X68600Y371255D01*
X71398Y370096D01*
X74400Y369701D01*
X76893Y370029D01*
X77593Y369871D01*
X78266Y369079D01*
X78598Y367409D01*
X79662Y365817D01*
Y323685D01*
X79098Y322841D01*
X78632Y320500D01*
X79098Y318159D01*
X80424Y316174D01*
X82409Y314848D01*
X84750Y314382D01*
X87091Y314848D01*
X89076Y316174D01*
X89392Y316647D01*
X90662Y316262D01*
Y291750D01*
X91011Y289994D01*
X92006Y288506D01*
X92662Y287850D01*
Y278933D01*
X91598Y277341D01*
X91132Y275000D01*
X91598Y272659D01*
X92924Y270674D01*
X94909Y269348D01*
X97250Y268883D01*
X99591Y269348D01*
X101576Y270674D01*
X102902Y272659D01*
X103368Y275000D01*
X102902Y277341D01*
X101838Y278933D01*
Y289750D01*
X101489Y291506D01*
X100494Y292994D01*
X99838Y293650D01*
Y362817D01*
X100902Y364409D01*
X101368Y366750D01*
X100902Y369091D01*
X99576Y371076D01*
X97591Y372402D01*
X95250Y372868D01*
X92909Y372402D01*
X91343Y371356D01*
X89968Y371757D01*
X89902Y372091D01*
X88576Y374076D01*
X86591Y375402D01*
X85553Y375608D01*
X84954Y376729D01*
X85604Y378298D01*
X85999Y381300D01*
X85604Y384302D01*
X84445Y387100D01*
X82602Y389502D01*
X80200Y391345D01*
X77402Y392504D01*
X74400Y392899D01*
D02*
G37*
G36*
X88250Y261868D02*
X85909Y261402D01*
X83924Y260076D01*
X82598Y258091D01*
X82132Y255750D01*
X82598Y253409D01*
X83924Y251424D01*
X85909Y250098D01*
X88250Y249632D01*
X90591Y250098D01*
X92576Y251424D01*
X93902Y253409D01*
X94368Y255750D01*
X93902Y258091D01*
X92576Y260076D01*
X90591Y261402D01*
X88250Y261868D01*
D02*
G37*
G36*
X328500Y254867D02*
X326159Y254402D01*
X324174Y253076D01*
X322848Y251091D01*
X322383Y248750D01*
X322848Y246409D01*
X323912Y244817D01*
Y212280D01*
X322642Y211654D01*
X321397Y212609D01*
X318722Y213717D01*
X315850Y214095D01*
X312978Y213717D01*
X310303Y212609D01*
X309727Y212167D01*
X308588Y212729D01*
Y217067D01*
X309652Y218659D01*
X310117Y221000D01*
X309652Y223341D01*
X308326Y225326D01*
X306341Y226652D01*
X304000Y227118D01*
X301659Y226652D01*
X299674Y225326D01*
X298348Y223341D01*
X297882Y221000D01*
X298348Y218659D01*
X299412Y217067D01*
Y211258D01*
X298142Y210963D01*
X295997Y212609D01*
X293322Y213717D01*
X290450Y214095D01*
X287578Y213717D01*
X284903Y212609D01*
X282605Y210845D01*
X280842Y208547D01*
X279733Y205872D01*
X279696Y205588D01*
X254933D01*
X253341Y206652D01*
X251000Y207118D01*
X248659Y206652D01*
X246674Y205326D01*
X245348Y203341D01*
X244883Y201000D01*
X245348Y198659D01*
X246674Y196674D01*
X248659Y195348D01*
X251000Y194883D01*
X253341Y195348D01*
X254933Y196412D01*
X279696D01*
X279733Y196128D01*
X280842Y193452D01*
X282605Y191155D01*
X284903Y189391D01*
X287578Y188283D01*
X290450Y187905D01*
X293322Y188283D01*
X295997Y189391D01*
X298142Y191037D01*
X299412Y190742D01*
Y172569D01*
X298674Y172076D01*
X297348Y170091D01*
X296882Y167750D01*
X297348Y165409D01*
X298674Y163424D01*
X300659Y162098D01*
X303000Y161632D01*
X305341Y162098D01*
X307326Y163424D01*
X308652Y165409D01*
X309118Y167750D01*
X308801Y169340D01*
X309788Y170502D01*
X321273D01*
X321658Y169232D01*
X321424Y169076D01*
X320098Y167091D01*
X319632Y164750D01*
X320098Y162409D01*
X321424Y160424D01*
X323409Y159098D01*
X325750Y158632D01*
X328091Y159098D01*
X330076Y160424D01*
X331402Y162409D01*
X331780Y164309D01*
X332739Y165744D01*
X333088Y167500D01*
Y189797D01*
X334358Y190423D01*
X335703Y189391D01*
X338378Y188283D01*
X341250Y187905D01*
X344122Y188283D01*
X346797Y189391D01*
X349095Y191155D01*
X350858Y193452D01*
X351967Y196128D01*
X352345Y199000D01*
Y203000D01*
X351967Y205872D01*
X350858Y208547D01*
X349095Y210845D01*
X346797Y212609D01*
X344122Y213717D01*
X341250Y214095D01*
X338378Y213717D01*
X335703Y212609D01*
X334358Y211577D01*
X333088Y212203D01*
Y244817D01*
X334152Y246409D01*
X334618Y248750D01*
X334152Y251091D01*
X332826Y253076D01*
X330841Y254402D01*
X328500Y254867D01*
D02*
G37*
G36*
X207750Y216118D02*
X205409Y215652D01*
X203424Y214326D01*
X202098Y212341D01*
X201842Y211051D01*
X196638Y205848D01*
X176920D01*
X176091Y206402D01*
X173750Y206868D01*
X171409Y206402D01*
X169424Y205076D01*
X168098Y203091D01*
X167633Y200750D01*
X168098Y198409D01*
X169424Y196424D01*
X171409Y195098D01*
X173750Y194632D01*
X176091Y195098D01*
X176920Y195652D01*
X198750D01*
X200701Y196040D01*
X202355Y197145D01*
X209425Y204216D01*
X210091Y204348D01*
X212076Y205674D01*
X213402Y207659D01*
X213867Y210000D01*
X213402Y212341D01*
X212076Y214326D01*
X210091Y215652D01*
X207750Y216118D01*
D02*
G37*
G36*
X113500Y222868D02*
X111159Y222402D01*
X109174Y221076D01*
X107848Y219091D01*
X107382Y216750D01*
X107848Y214409D01*
X109174Y212424D01*
X110000Y211873D01*
Y198000D01*
X110000D01*
X110266Y197676D01*
X109882Y195750D01*
X110348Y193409D01*
X111674Y191424D01*
X113659Y190098D01*
X116000Y189632D01*
X118341Y190098D01*
X119933Y191162D01*
X131500D01*
X133256Y191511D01*
X134744Y192506D01*
X140400Y198162D01*
X148567D01*
X150159Y197098D01*
X152500Y196632D01*
X154841Y197098D01*
X156826Y198424D01*
X158152Y200409D01*
X158617Y202750D01*
X158329Y204202D01*
X158266Y205142D01*
X159251Y205581D01*
X160591Y205848D01*
X162576Y207174D01*
X163902Y209159D01*
X164368Y211500D01*
X163902Y213841D01*
X162576Y215826D01*
X160591Y217152D01*
X158250Y217617D01*
X155909Y217152D01*
X154317Y216088D01*
X132650D01*
X128744Y219994D01*
X127256Y220989D01*
X125500Y221338D01*
X117433D01*
X115841Y222402D01*
X113500Y222868D01*
D02*
G37*
G36*
X417450Y214095D02*
X414578Y213717D01*
X411903Y212609D01*
X409605Y210845D01*
X407841Y208547D01*
X406733Y205872D01*
X406355Y203000D01*
Y199000D01*
X406733Y196128D01*
X407841Y193452D01*
X409605Y191155D01*
X411903Y189391D01*
X414578Y188283D01*
X417450Y187905D01*
X420322Y188283D01*
X422997Y189391D01*
X425295Y191155D01*
X427058Y193452D01*
X428167Y196128D01*
X428545Y199000D01*
Y203000D01*
X428167Y205872D01*
X427058Y208547D01*
X425295Y210845D01*
X422997Y212609D01*
X420322Y213717D01*
X417450Y214095D01*
D02*
G37*
G36*
X392050D02*
X389178Y213717D01*
X386503Y212609D01*
X384205Y210845D01*
X382441Y208547D01*
X381333Y205872D01*
X380955Y203000D01*
Y199000D01*
X381333Y196128D01*
X382441Y193452D01*
X384205Y191155D01*
X386503Y189391D01*
X389178Y188283D01*
X392050Y187905D01*
X394922Y188283D01*
X397597Y189391D01*
X399895Y191155D01*
X401659Y193452D01*
X402767Y196128D01*
X403145Y199000D01*
Y203000D01*
X402767Y205872D01*
X401659Y208547D01*
X399895Y210845D01*
X397597Y212609D01*
X394922Y213717D01*
X392050Y214095D01*
D02*
G37*
G36*
X366650D02*
X363778Y213717D01*
X361103Y212609D01*
X358805Y210845D01*
X357042Y208547D01*
X355933Y205872D01*
X355555Y203000D01*
Y199000D01*
X355933Y196128D01*
X357042Y193452D01*
X358805Y191155D01*
X361103Y189391D01*
X363778Y188283D01*
X366650Y187905D01*
X369522Y188283D01*
X372197Y189391D01*
X374495Y191155D01*
X376259Y193452D01*
X377367Y196128D01*
X377745Y199000D01*
Y203000D01*
X377367Y205872D01*
X376259Y208547D01*
X374495Y210845D01*
X372197Y212609D01*
X369522Y213717D01*
X366650Y214095D01*
D02*
G37*
G36*
X442850Y137895D02*
X439978Y137517D01*
X437303Y136409D01*
X435005Y134645D01*
X433242Y132347D01*
X432133Y129672D01*
X431755Y126800D01*
Y122800D01*
X432133Y119928D01*
X433242Y117253D01*
X435005Y114955D01*
X437303Y113191D01*
X439978Y112083D01*
X442850Y111705D01*
X445722Y112083D01*
X448397Y113191D01*
X450695Y114955D01*
X452458Y117253D01*
X453567Y119928D01*
X453945Y122800D01*
Y126800D01*
X453567Y129672D01*
X452458Y132347D01*
X450695Y134645D01*
X448397Y136409D01*
X445722Y137517D01*
X442850Y137895D01*
D02*
G37*
G36*
X417450D02*
X414578Y137517D01*
X411903Y136409D01*
X409605Y134645D01*
X407841Y132347D01*
X406733Y129672D01*
X406355Y126800D01*
Y122800D01*
X406733Y119928D01*
X407841Y117253D01*
X409605Y114955D01*
X411903Y113191D01*
X414578Y112083D01*
X417450Y111705D01*
X420322Y112083D01*
X422997Y113191D01*
X425295Y114955D01*
X427058Y117253D01*
X428167Y119928D01*
X428545Y122800D01*
Y126800D01*
X428167Y129672D01*
X427058Y132347D01*
X425295Y134645D01*
X422997Y136409D01*
X420322Y137517D01*
X417450Y137895D01*
D02*
G37*
G36*
X392050D02*
X389178Y137517D01*
X386503Y136409D01*
X384205Y134645D01*
X382441Y132347D01*
X381333Y129672D01*
X380955Y126800D01*
Y122800D01*
X381333Y119928D01*
X382441Y117253D01*
X384205Y114955D01*
X386503Y113191D01*
X389178Y112083D01*
X392050Y111705D01*
X394922Y112083D01*
X397597Y113191D01*
X399895Y114955D01*
X401659Y117253D01*
X402767Y119928D01*
X403145Y122800D01*
Y126800D01*
X402767Y129672D01*
X401659Y132347D01*
X399895Y134645D01*
X397597Y136409D01*
X394922Y137517D01*
X392050Y137895D01*
D02*
G37*
G36*
X366650D02*
X363778Y137517D01*
X361103Y136409D01*
X358805Y134645D01*
X357042Y132347D01*
X355933Y129672D01*
X355555Y126800D01*
Y122800D01*
X355933Y119928D01*
X357042Y117253D01*
X358805Y114955D01*
X361103Y113191D01*
X363778Y112083D01*
X366650Y111705D01*
X369522Y112083D01*
X372197Y113191D01*
X374495Y114955D01*
X376259Y117253D01*
X377367Y119928D01*
X377745Y122800D01*
Y126800D01*
X377367Y129672D01*
X376259Y132347D01*
X374495Y134645D01*
X372197Y136409D01*
X369522Y137517D01*
X366650Y137895D01*
D02*
G37*
G36*
X341250D02*
X338378Y137517D01*
X335703Y136409D01*
X333405Y134645D01*
X331642Y132347D01*
X330533Y129672D01*
X330155Y126800D01*
Y122800D01*
X330533Y119928D01*
X331642Y117253D01*
X333405Y114955D01*
X335703Y113191D01*
X338378Y112083D01*
X341250Y111705D01*
X344122Y112083D01*
X346797Y113191D01*
X349095Y114955D01*
X350858Y117253D01*
X351967Y119928D01*
X352345Y122800D01*
Y126800D01*
X351967Y129672D01*
X350858Y132347D01*
X349095Y134645D01*
X346797Y136409D01*
X344122Y137517D01*
X341250Y137895D01*
D02*
G37*
G36*
X315850D02*
X312978Y137517D01*
X310303Y136409D01*
X308005Y134645D01*
X306241Y132347D01*
X305133Y129672D01*
X304755Y126800D01*
Y122800D01*
X305133Y119928D01*
X306241Y117253D01*
X308005Y114955D01*
X310303Y113191D01*
X312978Y112083D01*
X315850Y111705D01*
X318722Y112083D01*
X321397Y113191D01*
X323695Y114955D01*
X325458Y117253D01*
X326567Y119928D01*
X326945Y122800D01*
Y126800D01*
X326567Y129672D01*
X325458Y132347D01*
X323695Y134645D01*
X321397Y136409D01*
X318722Y137517D01*
X315850Y137895D01*
D02*
G37*
G36*
X290450D02*
X287578Y137517D01*
X284903Y136409D01*
X282605Y134645D01*
X280842Y132347D01*
X279733Y129672D01*
X279355Y126800D01*
Y122800D01*
X279733Y119928D01*
X280842Y117253D01*
X282605Y114955D01*
X284903Y113191D01*
X287578Y112083D01*
X290450Y111705D01*
X293322Y112083D01*
X295997Y113191D01*
X298295Y114955D01*
X300058Y117253D01*
X301167Y119928D01*
X301545Y122800D01*
Y126800D01*
X301167Y129672D01*
X300058Y132347D01*
X298295Y134645D01*
X295997Y136409D01*
X293322Y137517D01*
X290450Y137895D01*
D02*
G37*
%LPD*%
G36*
X201000Y438102D02*
Y415000D01*
X213000Y403000D01*
X303000D01*
X311000Y395000D01*
Y374000D01*
X189000D01*
X178000Y385000D01*
X120000Y385000D01*
X120000Y415000D01*
X138138Y415000D01*
X139452Y413992D01*
X142128Y412883D01*
X145000Y412505D01*
X149000D01*
X151872Y412883D01*
X154548Y413992D01*
X155862Y415000D01*
X181000Y415000D01*
X181000Y439000D01*
X200102Y439000D01*
X201000Y438102D01*
D02*
G37*
%LPC*%
G36*
X190000Y417617D02*
X187659Y417152D01*
X185674Y415826D01*
X184348Y413841D01*
X183883Y411500D01*
X184348Y409159D01*
X185674Y407174D01*
X187659Y405848D01*
X190000Y405382D01*
X192341Y405848D01*
X194326Y407174D01*
X195652Y409159D01*
X196117Y411500D01*
X195652Y413841D01*
X194326Y415826D01*
X192341Y417152D01*
X190000Y417617D01*
D02*
G37*
G36*
X149000Y409295D02*
X145000D01*
X142128Y408917D01*
X139452Y407808D01*
X137155Y406045D01*
X135392Y403747D01*
X134283Y401072D01*
X133905Y398200D01*
X134283Y395328D01*
X135392Y392653D01*
X137155Y390355D01*
X139452Y388591D01*
X142128Y387483D01*
X145000Y387105D01*
X149000D01*
X151872Y387483D01*
X154548Y388591D01*
X156845Y390355D01*
X158609Y392653D01*
X159717Y395328D01*
X160095Y398200D01*
X159717Y401072D01*
X158609Y403747D01*
X156845Y406045D01*
X154548Y407808D01*
X151872Y408917D01*
X149000Y409295D01*
D02*
G37*
G36*
X34100Y483800D02*
X11100D01*
Y460800D01*
X34100D01*
Y483800D01*
D02*
G37*
G36*
X35100Y392800D02*
X12100D01*
Y369800D01*
X35100D01*
Y392800D01*
D02*
G37*
G36*
X25300Y355299D02*
X22298Y354904D01*
X19500Y353745D01*
X17098Y351902D01*
X15255Y349500D01*
X14096Y346702D01*
X13701Y343700D01*
X14096Y340698D01*
X15255Y337900D01*
X17098Y335498D01*
X19500Y333655D01*
X22298Y332496D01*
X25300Y332101D01*
X28302Y332496D01*
X31100Y333655D01*
X33502Y335498D01*
X35345Y337900D01*
X36504Y340698D01*
X36899Y343700D01*
X36504Y346702D01*
X35345Y349500D01*
X33502Y351902D01*
X31100Y353745D01*
X28302Y354904D01*
X25300Y355299D01*
D02*
G37*
G36*
Y329899D02*
X22298Y329504D01*
X19500Y328345D01*
X17098Y326502D01*
X15255Y324100D01*
X14096Y321302D01*
X13701Y318300D01*
X14096Y315298D01*
X15255Y312500D01*
X17098Y310098D01*
X19500Y308255D01*
X22298Y307096D01*
X25300Y306701D01*
X28302Y307096D01*
X31100Y308255D01*
X33502Y310098D01*
X35345Y312500D01*
X36504Y315298D01*
X36899Y318300D01*
X36504Y321302D01*
X35345Y324100D01*
X33502Y326502D01*
X31100Y328345D01*
X28302Y329504D01*
X25300Y329899D01*
D02*
G37*
G36*
X28995Y243118D02*
X14995D01*
X12654Y242652D01*
X10669Y241326D01*
X9343Y239341D01*
X8878Y237000D01*
Y231000D01*
X9343Y228659D01*
X10669Y226674D01*
X12654Y225348D01*
X14995Y224883D01*
X28995D01*
X31336Y225348D01*
X33321Y226674D01*
X34647Y228659D01*
X35113Y231000D01*
Y237000D01*
X34647Y239341D01*
X33321Y241326D01*
X31336Y242652D01*
X28995Y243118D01*
D02*
G37*
G36*
X28870Y177370D02*
X15120D01*
X12730Y176895D01*
X10704Y175541D01*
X9350Y173515D01*
X8875Y171125D01*
Y164875D01*
X9350Y162485D01*
X10704Y160459D01*
X12730Y159105D01*
X15120Y158630D01*
X28870D01*
X31260Y159105D01*
X33286Y160459D01*
X34640Y162485D01*
X34723Y162902D01*
X42888D01*
X53902Y151888D01*
Y99000D01*
X54290Y97049D01*
X55395Y95395D01*
X70395Y80395D01*
X72049Y79290D01*
X74000Y78902D01*
X89830D01*
X90659Y78348D01*
X93000Y77882D01*
X95341Y78348D01*
X97326Y79674D01*
X98652Y81659D01*
X99117Y84000D01*
X98652Y86341D01*
X97326Y88326D01*
X95341Y89652D01*
X93000Y90118D01*
X90659Y89652D01*
X89830Y89098D01*
X76112D01*
X64098Y101112D01*
Y154000D01*
X63710Y155951D01*
X62605Y157605D01*
X48605Y171605D01*
X46951Y172710D01*
X45000Y173098D01*
X34723D01*
X34640Y173515D01*
X33286Y175541D01*
X31260Y176895D01*
X28870Y177370D01*
D02*
G37*
G36*
X247500Y97108D02*
X244237Y96678D01*
X241196Y95419D01*
X238585Y93415D01*
X236581Y90804D01*
X235322Y87763D01*
X234892Y84500D01*
X235322Y81237D01*
X236581Y78196D01*
X238585Y75585D01*
X241196Y73581D01*
X244237Y72322D01*
X247500Y71892D01*
X250763Y72322D01*
X253804Y73581D01*
X256415Y75585D01*
X258419Y78196D01*
X259678Y81237D01*
X260108Y84500D01*
X259678Y87763D01*
X258419Y90804D01*
X256415Y93415D01*
X253804Y95419D01*
X250763Y96678D01*
X247500Y97108D01*
D02*
G37*
G36*
X215000Y32000D02*
X190000D01*
Y7000D01*
X215000D01*
Y32000D01*
D02*
G37*
G36*
X247500Y32108D02*
X244237Y31678D01*
X241196Y30419D01*
X238585Y28415D01*
X236581Y25804D01*
X235322Y22763D01*
X234892Y19500D01*
X235322Y16237D01*
X236581Y13196D01*
X238585Y10585D01*
X241196Y8581D01*
X244237Y7322D01*
X247500Y6892D01*
X250763Y7322D01*
X253804Y8581D01*
X256415Y10585D01*
X258419Y13196D01*
X259678Y16237D01*
X260108Y19500D01*
X259678Y22763D01*
X258419Y25804D01*
X256415Y28415D01*
X253804Y30419D01*
X250763Y31678D01*
X247500Y32108D01*
D02*
G37*
G36*
X139700Y44492D02*
X135975Y44125D01*
X132394Y43039D01*
X129093Y41274D01*
X126200Y38900D01*
X123826Y36007D01*
X122061Y32706D01*
X120975Y29125D01*
X120608Y25400D01*
X120975Y21675D01*
X122061Y18094D01*
X123826Y14793D01*
X126200Y11900D01*
X129093Y9526D01*
X132394Y7761D01*
X135975Y6675D01*
X139700Y6308D01*
X143425Y6675D01*
X147006Y7761D01*
X150307Y9526D01*
X153200Y11900D01*
X155574Y14793D01*
X157339Y18094D01*
X158425Y21675D01*
X158792Y25400D01*
X158425Y29125D01*
X157339Y32706D01*
X155574Y36007D01*
X153200Y38900D01*
X150307Y41274D01*
X147006Y43039D01*
X143425Y44125D01*
X139700Y44492D01*
D02*
G37*
%LPD*%
D31*
X202500Y19500D02*
D03*
D32*
X304000Y168750D02*
Y221000D01*
X303000Y167750D02*
X304000Y168750D01*
X328500Y167500D02*
Y248750D01*
X325750Y164750D02*
X328500Y167500D01*
X669500Y161000D02*
Y240750D01*
X620650Y124800D02*
X622800D01*
X661250Y163250D01*
Y232500D01*
X590000Y244500D02*
X628500D01*
X187960Y508000D02*
Y509460D01*
X612250Y351000D02*
Y417500D01*
X575500Y314250D02*
X612250Y351000D01*
X575500Y244000D02*
Y314250D01*
Y244000D02*
X583000Y236500D01*
Y172500D02*
Y236500D01*
X295750Y481750D02*
Y488790D01*
X314960Y508000D01*
X138500Y202750D02*
X152500D01*
X131500Y195750D02*
X138500Y202750D01*
X116000Y195750D02*
X131500D01*
X113500Y216750D02*
X125500D01*
X130750Y211500D02*
X158250D01*
X125500Y216750D02*
X130750Y211500D01*
X251000Y201000D02*
X290450D01*
X95250Y291750D02*
Y366750D01*
Y291750D02*
X97250Y289750D01*
Y275000D02*
Y289750D01*
X84250Y321000D02*
Y369750D01*
Y321000D02*
X84750Y320500D01*
X628500Y244500D02*
X649750Y223250D01*
X187960Y509460D02*
X200000Y521500D01*
X244750D01*
X250500Y515750D01*
X73400Y472300D02*
X96700Y449000D01*
X147000D01*
X595250Y124800D02*
X635450Y165000D01*
X645942D01*
X649750Y168808D01*
Y223250D01*
X563500Y424250D02*
Y426750D01*
Y449750D02*
Y452500D01*
X552000Y464000D02*
X563500Y452500D01*
X556750Y473000D02*
X612250Y417500D01*
X315037Y490000D02*
X573000D01*
X590500Y318250D02*
Y318450D01*
X152000Y454000D02*
X209000D01*
X147000Y449000D02*
X152000Y454000D01*
X585000Y249500D02*
X590000Y244500D01*
X585000Y249500D02*
Y312750D01*
X590500Y318250D01*
X233250Y427000D02*
X550000D01*
X228500Y431750D02*
X233250Y427000D01*
X550000D02*
X563750Y413250D01*
X552250Y438000D02*
X563500Y426750D01*
X331250Y443250D02*
X336500Y438000D01*
X552250D01*
X331250Y450250D02*
X552000D01*
X327000Y454500D02*
X331250Y450250D01*
X552000D02*
X567750Y434500D01*
X326000Y464000D02*
X552000D01*
X321000Y473000D02*
X556750D01*
X311679Y486750D02*
X311787D01*
X315037Y490000D01*
X317750Y481750D02*
X567250D01*
X301000Y439000D02*
X326000Y464000D01*
X209000Y454000D02*
X224000Y439000D01*
X301000D01*
X230250Y471750D02*
Y480500D01*
Y471750D02*
X254000Y448000D01*
X296000D01*
X321000Y473000D01*
X293000Y457000D02*
X317750Y481750D01*
X213360Y508000D02*
X264360Y457000D01*
X293000D01*
X292929Y468000D02*
X311679Y486750D01*
X250500Y482500D02*
Y515750D01*
Y482500D02*
X265000Y468000D01*
X292929D01*
X621000Y453500D02*
X629500D01*
X651000Y432000D01*
Y388000D02*
Y432000D01*
X642000Y379000D02*
X651000Y388000D01*
X642000Y331000D02*
Y379000D01*
Y331000D02*
X650125Y322875D01*
Y260125D02*
Y322875D01*
Y260125D02*
X669500Y240750D01*
X631000Y384000D02*
X639000Y392000D01*
X631000Y325000D02*
Y384000D01*
Y325000D02*
X641000Y315000D01*
Y252750D02*
Y315000D01*
Y252750D02*
X661250Y232500D01*
X573000Y490000D02*
X621000Y442000D01*
X639000Y392000D02*
Y425000D01*
X621000Y442000D02*
X622000D01*
X639000Y425000D01*
X590500Y318450D02*
X621000Y348950D01*
Y428000D01*
X567250Y481750D02*
X621000Y428000D01*
D33*
X198750Y200750D02*
X207750Y209750D01*
Y210000D01*
X173750Y200750D02*
X198750D01*
X468250Y159750D02*
X480750Y147250D01*
Y103250D02*
Y147250D01*
Y103250D02*
X487250Y96750D01*
Y93250D02*
Y96750D01*
X662500Y154000D02*
X667750Y148750D01*
Y140500D02*
Y148750D01*
Y140500D02*
X673250Y135000D01*
X678750D01*
Y83250D02*
X685800Y76200D01*
X196750Y25250D02*
X202500Y19500D01*
X633750Y181000D02*
X643250Y171500D01*
X633750Y181000D02*
Y186500D01*
X668500Y281592D02*
Y307500D01*
Y281592D02*
X682000Y268092D01*
Y256658D02*
Y268092D01*
X681750Y256408D02*
X682000Y256658D01*
X681750Y146500D02*
Y256408D01*
X678750Y143500D02*
X681750Y146500D01*
X678750Y135000D02*
Y143500D01*
X21995Y168000D02*
X45000D01*
X59000Y154000D01*
Y99000D02*
Y154000D01*
Y99000D02*
X74000Y84000D01*
X93000D01*
D36*
X290450Y124800D02*
D03*
X315850D02*
D03*
X341250D02*
D03*
X366650D02*
D03*
X392050D02*
D03*
X417450D02*
D03*
X442850D02*
D03*
X468250D02*
D03*
X493650D02*
D03*
X519050D02*
D03*
X544450D02*
D03*
X569850D02*
D03*
X595250D02*
D03*
X620650D02*
D03*
X290450Y201000D02*
D03*
X315850D02*
D03*
X341250D02*
D03*
X366650D02*
D03*
X392050D02*
D03*
X417450D02*
D03*
X442850D02*
D03*
X468250D02*
D03*
X493650D02*
D03*
X519050D02*
D03*
X544450D02*
D03*
X569850D02*
D03*
X595250D02*
D03*
X457200Y508000D02*
D03*
X482600D02*
D03*
X508000D02*
D03*
X533400D02*
D03*
X558800D02*
D03*
X584200D02*
D03*
X609600D02*
D03*
X391160D02*
D03*
X365760D02*
D03*
X340360D02*
D03*
X314960D02*
D03*
X289560D02*
D03*
X264160D02*
D03*
X238760D02*
D03*
X213360D02*
D03*
X187960D02*
D03*
X170800Y88000D02*
D03*
X145400D02*
D03*
X533400Y25400D02*
D03*
X558800D02*
D03*
X584200D02*
D03*
X609600D02*
D03*
X635000D02*
D03*
X457200D02*
D03*
X431800D02*
D03*
X406400D02*
D03*
X381000D02*
D03*
X355600D02*
D03*
X330200D02*
D03*
X304800D02*
D03*
D37*
X620650Y201000D02*
D03*
X635000Y508000D02*
D03*
X416560D02*
D03*
X120000Y88000D02*
D03*
X508000Y25400D02*
D03*
X279400D02*
D03*
D38*
X202500Y84500D02*
D03*
X247500D02*
D03*
Y19500D02*
D03*
X668500Y307500D02*
D03*
Y262500D02*
D03*
X603500D02*
D03*
D39*
Y307500D02*
D03*
D40*
X152400Y508000D02*
D03*
X685800Y355600D02*
D03*
Y76200D02*
D03*
X139700Y25400D02*
D03*
D41*
X21000Y132000D02*
D03*
Y28000D02*
D03*
D42*
X665000Y470000D02*
D03*
X147000Y449000D02*
D03*
D43*
X665000Y444600D02*
D03*
Y419200D02*
D03*
X147000Y423600D02*
D03*
Y398200D02*
D03*
Y372800D02*
D03*
D44*
X73400Y497700D02*
D03*
X48000D02*
D03*
X22600D02*
D03*
X73400Y472300D02*
D03*
X48000D02*
D03*
X74400Y406700D02*
D03*
X49000D02*
D03*
X23600D02*
D03*
X74400Y381300D02*
D03*
X49000D02*
D03*
X25300Y343700D02*
D03*
X50700Y318300D02*
D03*
X25300D02*
D03*
D45*
X22600Y472300D02*
D03*
X23600Y381300D02*
D03*
X50700Y343700D02*
D03*
D46*
X21995Y168000D02*
D03*
D47*
Y234000D02*
D03*
D48*
X304000Y221000D02*
D03*
X303000Y167750D02*
D03*
X328500Y248750D02*
D03*
X325750Y164750D02*
D03*
X621000Y453500D02*
D03*
X669500Y161000D02*
D03*
X567750Y434500D02*
D03*
X327000Y454500D02*
D03*
X331250Y443250D02*
D03*
X563500Y424250D02*
D03*
X563750Y413250D02*
D03*
X230250Y480500D02*
D03*
X583000Y172500D02*
D03*
X563500Y449750D02*
D03*
X295750Y481750D02*
D03*
X152500Y202750D02*
D03*
X116000Y195750D02*
D03*
X113500Y216750D02*
D03*
X158250Y211500D02*
D03*
X58500Y226000D02*
D03*
Y218750D02*
D03*
X87750Y124000D02*
D03*
Y114250D02*
D03*
X173750Y200750D02*
D03*
X207750Y210000D02*
D03*
X468250Y159750D02*
D03*
X487250Y93250D02*
D03*
X251000Y201000D02*
D03*
X95250Y366750D02*
D03*
X97250Y275000D02*
D03*
X84250Y369750D02*
D03*
X84750Y320500D02*
D03*
X612250Y67250D02*
D03*
X477250Y51750D02*
D03*
X448000D02*
D03*
X332000Y75000D02*
D03*
X311750Y58750D02*
D03*
X151750Y140000D02*
D03*
X88250Y255750D02*
D03*
X172750Y411000D02*
D03*
X306000Y383500D02*
D03*
X12000Y289500D02*
D03*
X43500Y278500D02*
D03*
X20000Y441250D02*
D03*
X76000Y249500D02*
D03*
X76500Y229000D02*
D03*
X77250Y294250D02*
D03*
X194250Y145500D02*
D03*
X235000Y136500D02*
D03*
X306750Y82500D02*
D03*
X354000Y84000D02*
D03*
X394250Y82000D02*
D03*
X405750Y113500D02*
D03*
X461250Y99000D02*
D03*
X678750Y135000D02*
D03*
X633750Y186500D02*
D03*
X586500Y399000D02*
D03*
X605250Y358750D02*
D03*
X395250Y247750D02*
D03*
X479000Y250750D02*
D03*
X52000Y523250D02*
D03*
X214750Y413750D02*
D03*
X276000Y488500D02*
D03*
Y345250D02*
D03*
X219250Y331750D02*
D03*
X207500Y287750D02*
D03*
X150000Y271000D02*
D03*
X104750Y253250D02*
D03*
X173500Y209500D02*
D03*
X279500Y250500D02*
D03*
X231000Y227750D02*
D03*
X234000Y212250D02*
D03*
X196250Y227250D02*
D03*
X131500Y180000D02*
D03*
X383000Y83250D02*
D03*
X662500Y154000D02*
D03*
X117500Y179500D02*
D03*
X190000Y411500D02*
D03*
X228500Y431750D02*
D03*
X643250Y171500D02*
D03*
X132000Y160000D02*
D03*
X93000Y84000D02*
D03*
X217000Y141000D02*
D03*
X125000Y411000D02*
D03*
X186500Y434750D02*
D03*
X161000Y138000D02*
D03*
X55000Y429000D02*
D03*
X48000Y39000D02*
D03*
Y31000D02*
D03*
Y23000D02*
D03*
X172500Y422500D02*
D03*
M02*
