G04 Layer_Color=65535*
%FSLAX44Y44*%
%MOMM*%
G71*
G01*
G75*
%ADD49C,0.2540*%
%ADD50C,0.2000*%
%ADD51C,0.2600*%
%ADD52C,0.1000*%
%ADD53C,0.1270*%
D49*
X198000Y264000D02*
G03*
X198000Y264000I-1000J0D01*
G01*
X665000Y482700D02*
X679000D01*
Y405000D02*
Y482700D01*
X651000Y405000D02*
Y482700D01*
X665000D01*
X651000Y405000D02*
X679000D01*
X441960Y492760D02*
Y523240D01*
X647700Y508000D02*
Y523240D01*
X441960D02*
X647700D01*
X441960Y492760D02*
X647700D01*
Y508000D01*
X429260Y492760D02*
Y508000D01*
X177060Y492760D02*
X429260D01*
X177060D02*
Y523240D01*
X429260D01*
Y508000D02*
Y523240D01*
X147000Y461700D02*
X161000D01*
Y360000D02*
Y461700D01*
X133000Y360000D02*
Y461700D01*
X147000D01*
X133000Y360000D02*
X161000D01*
X185000Y74000D02*
Y102000D01*
X107300Y74000D02*
Y88000D01*
Y74000D02*
X185000D01*
X107300Y102000D02*
X185000D01*
X107300Y88000D02*
Y102000D01*
X495300Y25400D02*
Y40640D01*
X647700D01*
X495300Y10160D02*
X647700D01*
X495300D02*
Y25400D01*
X647700Y10160D02*
Y40640D01*
X472440Y10160D02*
Y40640D01*
X266700Y10160D02*
Y25400D01*
Y10160D02*
X472440D01*
X266700Y40640D02*
X472440D01*
X266700Y25400D02*
Y40640D01*
X423000Y527000D02*
Y531998D01*
Y529499D01*
X408005D01*
X410504Y527000D01*
X588000Y266000D02*
X578003Y265965D01*
X577986Y270963D01*
X579646Y272635D01*
X582978Y272647D01*
X584650Y270987D01*
X584668Y265988D01*
X584656Y269321D02*
X587977Y272665D01*
X577945Y282626D02*
X577968Y275962D01*
X587965Y275997D01*
X587942Y282661D01*
X582967Y275979D02*
X582955Y279312D01*
X579576Y292629D02*
X577916Y290957D01*
X577928Y287625D01*
X579600Y285964D01*
X581266Y285970D01*
X582926Y287642D01*
X582914Y290974D01*
X584575Y292646D01*
X586241Y292652D01*
X587913Y290992D01*
X587924Y287660D01*
X586264Y285988D01*
X577875Y302620D02*
X577899Y295955D01*
X587895Y295990D01*
X587872Y302655D01*
X582897Y295973D02*
X582885Y299305D01*
X577864Y305952D02*
X577840Y312616D01*
X577852Y309284D01*
X587849Y309319D01*
X47965Y525997D02*
X51297Y526008D01*
X49631Y526003D01*
X49666Y516006D01*
X48000Y516000D01*
X51332Y516012D01*
X62966Y524383D02*
X61294Y526043D01*
X57962Y526032D01*
X56301Y524360D01*
X56325Y517695D01*
X57997Y516035D01*
X61329Y516046D01*
X62989Y517719D01*
X72963Y524418D02*
X71291Y526078D01*
X67958Y526067D01*
X66298Y524395D01*
X66304Y522728D01*
X67976Y521068D01*
X71308Y521080D01*
X72980Y519420D01*
X72986Y517753D01*
X71326Y516081D01*
X67993Y516070D01*
X66322Y517730D01*
X76324Y516099D02*
X76289Y526096D01*
X81287Y526113D01*
X82959Y524453D01*
X82971Y521120D01*
X81311Y519449D01*
X76312Y519431D01*
X43965Y434997D02*
X47297Y435008D01*
X45631Y435003D01*
X45666Y425006D01*
X44000Y425000D01*
X47332Y425012D01*
X58966Y433383D02*
X57294Y435043D01*
X53962Y435032D01*
X52302Y433360D01*
X52325Y426695D01*
X53997Y425035D01*
X57329Y425047D01*
X58989Y426718D01*
X68963Y433418D02*
X67291Y435078D01*
X63959Y435066D01*
X62298Y433395D01*
X62304Y431728D01*
X63976Y430068D01*
X67308Y430080D01*
X68980Y428419D01*
X68986Y426753D01*
X67326Y425081D01*
X63993Y425070D01*
X62322Y426730D01*
X72324Y425099D02*
X72289Y435096D01*
X77288Y435113D01*
X78959Y433453D01*
X78971Y430121D01*
X77311Y428448D01*
X72312Y428431D01*
X82321Y425134D02*
X85653Y425145D01*
X83987Y425140D01*
X83952Y435136D01*
X82292Y433464D01*
D50*
X633550Y169250D02*
G03*
X633550Y156550I0J-6350D01*
G01*
X117260Y496415D02*
G03*
X186148Y492832I35140J11585D01*
G01*
X722800Y355600D02*
G03*
X722800Y355600I-37000J0D01*
G01*
Y76200D02*
G03*
X722800Y76200I-37000J0D01*
G01*
X176700Y25400D02*
G03*
X176700Y25400I-37000J0D01*
G01*
X60380Y207530D02*
Y235470D01*
Y207530D02*
X75620D01*
Y235470D01*
X60380D02*
X75620D01*
Y177280D02*
Y205220D01*
X60380D02*
X75620D01*
X60380Y177280D02*
Y205220D01*
Y177280D02*
X75620D01*
X232000Y251750D02*
X268000D01*
X232000D02*
Y333750D01*
X268000D01*
Y251750D02*
Y333750D01*
X393750Y263000D02*
Y299000D01*
X475750D01*
Y263000D02*
Y299000D01*
X393750Y263000D02*
X475750D01*
X210000Y171000D02*
X228000D01*
X211000Y139000D02*
X228000D01*
Y152000D02*
Y159000D01*
X678000Y149000D02*
Y167000D01*
X646000Y149000D02*
Y166000D01*
X659000Y149000D02*
X666000D01*
X44000Y254000D02*
Y272000D01*
X76000Y255000D02*
Y272000D01*
X56000D02*
X63000D01*
X177000Y448000D02*
X195000D01*
X178000Y416000D02*
X195000D01*
Y429000D02*
Y436000D01*
X124250Y129000D02*
X126250D01*
X190250D02*
X192250D01*
Y167000D01*
X179250D02*
X192250D01*
X124250D02*
X138250D01*
X124250Y129000D02*
Y167000D01*
X188000Y264000D02*
X191000Y267000D01*
X119000Y333250D02*
Y335000D01*
X120750D01*
X188250Y333500D02*
Y335250D01*
X186750D02*
X188250D01*
X118750Y264750D02*
Y266500D01*
Y264750D02*
X120500D01*
X277550Y214900D02*
X633350D01*
X277550Y110900D02*
Y214900D01*
Y110900D02*
X633350D01*
X633550D02*
Y156550D01*
Y169250D02*
Y214900D01*
X215000Y22000D02*
X235000D01*
X195000Y33000D02*
Y72000D01*
X215000Y82000D02*
X235000D01*
X255000Y32000D02*
Y72000D01*
X606000Y275000D02*
Y295000D01*
X617000Y315000D02*
X656000D01*
X666000Y275000D02*
Y295000D01*
X616000Y255000D02*
X656000D01*
X9000Y246500D02*
Y265250D01*
X41250D01*
Y246500D02*
Y265250D01*
X9000Y246500D02*
X41250D01*
X298000Y77750D02*
Y96500D01*
X265750Y77750D02*
X298000D01*
X265750D02*
Y96500D01*
X298000D01*
X638500Y250000D02*
X657250D01*
Y217750D02*
Y250000D01*
X638500Y217750D02*
X657250D01*
X638500D02*
Y250000D01*
X241500Y172000D02*
X260250D01*
Y139750D02*
Y172000D01*
X241500Y139750D02*
X260250D01*
X241500D02*
Y172000D01*
X20750Y272000D02*
X39500D01*
X20750D02*
Y304250D01*
X39500D01*
Y272000D02*
Y304250D01*
X266500Y76000D02*
X285250D01*
Y43750D02*
Y76000D01*
X266500Y43750D02*
X285250D01*
X266500D02*
Y76000D01*
X659500Y250000D02*
X678250D01*
Y217750D02*
Y250000D01*
X659500Y217750D02*
X678250D01*
X659500D02*
Y250000D01*
X660500Y183250D02*
X679250D01*
X660500D02*
Y215500D01*
X679250D01*
Y183250D02*
Y215500D01*
X402000Y217500D02*
Y236250D01*
X434250D01*
Y217500D02*
Y236250D01*
X402000Y217500D02*
X434250D01*
X621000Y354250D02*
Y373000D01*
X588750Y354250D02*
X621000D01*
X588750D02*
Y373000D01*
X621000D01*
X263000Y432750D02*
Y451500D01*
X230750Y432750D02*
X263000D01*
X230750D02*
Y451500D01*
X263000D01*
X602000Y215500D02*
Y234250D01*
X634250D01*
Y215500D02*
Y234250D01*
X602000Y215500D02*
X634250D01*
X398000Y89750D02*
Y108500D01*
X365750Y89750D02*
X398000D01*
X365750D02*
Y108500D01*
X398000D01*
X322500Y75000D02*
X341250D01*
Y42750D02*
Y75000D01*
X322500Y42750D02*
X341250D01*
X322500D02*
Y75000D01*
Y95000D02*
X341250D01*
Y62750D02*
Y95000D01*
X322500Y62750D02*
X341250D01*
X322500D02*
Y95000D01*
X627750Y411000D02*
X646500D01*
X627750D02*
Y443250D01*
X646500D01*
Y411000D02*
Y443250D01*
X595750Y448000D02*
X614500D01*
X595750D02*
Y480250D01*
X614500D01*
Y448000D02*
Y480250D01*
X570750Y448000D02*
X589500D01*
X570750D02*
Y480250D01*
X589500D01*
Y448000D02*
Y480250D01*
X209750Y255000D02*
X228500D01*
X209750D02*
Y287250D01*
X228500D01*
Y255000D02*
Y287250D01*
X79000Y165250D02*
Y184000D01*
X111250D01*
Y165250D02*
Y184000D01*
X79000Y165250D02*
X111250D01*
X79000Y186250D02*
Y205000D01*
X111250D01*
Y186250D02*
Y205000D01*
X79000Y186250D02*
X111250D01*
X79000Y207250D02*
Y226000D01*
X111250D01*
Y207250D02*
Y226000D01*
X79000Y207250D02*
X111250D01*
X101000Y339750D02*
Y358500D01*
X68750Y339750D02*
X101000D01*
X68750D02*
Y358500D01*
X101000D01*
X78500Y291000D02*
X97250D01*
Y258750D02*
Y291000D01*
X78500Y258750D02*
X97250D01*
X78500D02*
Y291000D01*
X117000Y205000D02*
Y223750D01*
X149250D01*
Y205000D02*
Y223750D01*
X117000Y205000D02*
X149250D01*
X267000Y374500D02*
Y393250D01*
X299250D01*
Y374500D02*
Y393250D01*
X267000Y374500D02*
X299250D01*
X267000Y396500D02*
Y415250D01*
X299250D01*
Y396500D02*
Y415250D01*
X267000Y396500D02*
X299250D01*
X163750Y374000D02*
X182500D01*
X163750D02*
Y406250D01*
X182500D01*
Y374000D02*
Y406250D01*
X6500Y108250D02*
X37500D01*
Y51750D02*
Y108250D01*
X6500Y51750D02*
X37500D01*
X6500D02*
Y108250D01*
X457750Y52500D02*
Y87500D01*
X437750D02*
X457750D01*
X437750Y52500D02*
Y87500D01*
Y52500D02*
X457750D01*
X460250Y45000D02*
X495250D01*
Y65000D01*
X460250D02*
X495250D01*
X460250Y45000D02*
Y65000D01*
X206000Y175000D02*
Y210000D01*
X186000D02*
X206000D01*
X186000Y175000D02*
Y210000D01*
Y175000D02*
X206000D01*
X635000Y236500D02*
Y250500D01*
X599000Y236500D02*
X635000D01*
X599000Y250500D02*
X635000D01*
X5000Y268000D02*
X19000D01*
X5000D02*
Y304000D01*
X19000Y268000D02*
Y304000D01*
X233750Y377500D02*
Y392500D01*
Y377500D02*
X264000D01*
Y392500D01*
X233750D02*
X264000D01*
X230750Y377500D02*
Y392500D01*
X233750Y395500D02*
Y410500D01*
Y395500D02*
X264000D01*
Y410500D01*
X233750D02*
X264000D01*
X230750Y395500D02*
Y410500D01*
X233750Y414500D02*
Y429500D01*
Y414500D02*
X264000D01*
Y429500D01*
X233750D02*
X264000D01*
X230750Y414500D02*
Y429500D01*
X590750Y375250D02*
Y390250D01*
Y375250D02*
X621000D01*
Y390250D01*
X590750D02*
X621000D01*
X587750Y375250D02*
Y390250D01*
X77500Y250000D02*
X112500D01*
X77500Y230000D02*
Y250000D01*
Y230000D02*
X112500D01*
Y250000D01*
X658000Y180500D02*
Y215500D01*
X638000D02*
X658000D01*
X638000Y180500D02*
Y215500D01*
Y180500D02*
X658000D01*
X225000Y100500D02*
Y135500D01*
Y100500D02*
X245000D01*
Y135500D01*
X225000D02*
X245000D01*
X208000Y174750D02*
Y209750D01*
Y174750D02*
X228000D01*
Y209750D01*
X208000D02*
X228000D01*
X41500Y304000D02*
X76500D01*
X41500Y284000D02*
Y304000D01*
Y284000D02*
X76500D01*
Y304000D01*
X643500Y136000D02*
X678500D01*
X643500Y116000D02*
Y136000D01*
Y116000D02*
X678500D01*
Y136000D01*
X399500Y239750D02*
X434500D01*
Y259750D01*
X399500D02*
X434500D01*
X399500Y239750D02*
Y259750D01*
X438250Y260250D02*
X473250D01*
X438250Y240250D02*
Y260250D01*
Y240250D02*
X473250D01*
Y260250D01*
X228000Y414500D02*
Y449500D01*
X208000D02*
X228000D01*
X208000Y414500D02*
Y449500D01*
Y414500D02*
X228000D01*
X400500Y89000D02*
X435500D01*
Y109000D01*
X400500D02*
X435500D01*
X400500Y89000D02*
Y109000D01*
Y67000D02*
X435500D01*
Y87000D01*
X400500D02*
X435500D01*
X400500Y67000D02*
Y87000D01*
X236500Y490000D02*
X271500D01*
X236500Y470000D02*
Y490000D01*
Y470000D02*
X271500D01*
Y490000D01*
X438500Y217000D02*
X473500D01*
Y237000D01*
X438500D02*
X473500D01*
X438500Y217000D02*
Y237000D01*
X460250Y67250D02*
X495250D01*
Y87250D01*
X460250D02*
X495250D01*
X460250Y67250D02*
Y87250D01*
X9500Y532000D02*
X44500D01*
X9500Y512000D02*
Y532000D01*
Y512000D02*
X44500D01*
Y532000D01*
X202000Y100500D02*
Y135500D01*
Y100500D02*
X222000D01*
Y135500D01*
X202000D02*
X222000D01*
X102000Y113500D02*
Y148500D01*
Y113500D02*
X122000D01*
Y148500D01*
X102000D02*
X122000D01*
X588500Y352000D02*
X623500D01*
X588500Y332000D02*
Y352000D01*
Y332000D02*
X623500D01*
Y352000D01*
X344000Y41500D02*
Y76500D01*
Y41500D02*
X364000D01*
Y76500D01*
X344000D02*
X364000D01*
X297000Y41500D02*
Y76500D01*
Y41500D02*
X317000D01*
Y76500D01*
X297000D02*
X317000D01*
X373500Y43000D02*
X408500D01*
Y63000D01*
X373500D02*
X408500D01*
X373500Y43000D02*
Y63000D01*
X627000Y445500D02*
Y480500D01*
Y445500D02*
X647000D01*
Y480500D01*
X627000D02*
X647000D01*
X236500Y249000D02*
X271500D01*
X236500Y229000D02*
Y249000D01*
Y229000D02*
X271500D01*
Y249000D01*
X232500Y355000D02*
X267500D01*
X232500Y335000D02*
Y355000D01*
Y335000D02*
X267500D01*
Y355000D01*
X30000Y421500D02*
Y456500D01*
X10000D02*
X30000D01*
X10000Y421500D02*
Y456500D01*
Y421500D02*
X30000D01*
X114750Y245250D02*
X149750D01*
X114750Y225250D02*
Y245250D01*
Y225250D02*
X149750D01*
Y245250D01*
X44500Y69500D02*
X59500D01*
X44500Y24500D02*
Y69500D01*
Y24500D02*
X54500Y14500D01*
X59500D01*
X84500Y69500D02*
X99500D01*
Y27000D02*
Y69500D01*
Y24500D02*
Y27000D01*
X89500Y14500D02*
X99500Y24500D01*
X84500Y14500D02*
X89500D01*
X44500Y151500D02*
X59500D01*
X44500Y106500D02*
Y151500D01*
Y106500D02*
X54500Y96500D01*
X59500D01*
X84500Y151500D02*
X99500D01*
Y109000D02*
Y151500D01*
Y106500D02*
Y109000D01*
X89500Y96500D02*
X99500Y106500D01*
X84500Y96500D02*
X89500D01*
X183750Y211500D02*
Y246500D01*
X163750D02*
X183750D01*
X163750Y211500D02*
Y246500D01*
Y211500D02*
X183750D01*
X209000Y289500D02*
Y324500D01*
Y289500D02*
X229000D01*
Y324500D01*
X209000D02*
X229000D01*
X208250Y211750D02*
Y246750D01*
Y211750D02*
X228250D01*
Y246750D01*
X208250D02*
X228250D01*
X206250Y211000D02*
Y246000D01*
X186250D02*
X206250D01*
X186250Y211000D02*
Y246000D01*
Y211000D02*
X206250D01*
X9900Y509600D02*
X86100D01*
Y459600D02*
Y509600D01*
X9900Y459600D02*
X86100D01*
X9900D02*
Y509600D01*
X10900Y418600D02*
X87100D01*
Y368600D02*
Y418600D01*
X10900Y368600D02*
X87100D01*
X10900D02*
Y418600D01*
X-19630Y253000D02*
X-14630D01*
Y150000D02*
Y253000D01*
X-19630Y150000D02*
X-14630D01*
X-24630Y203000D02*
X-21630Y200000D01*
Y199000D02*
Y200000D01*
X-24630Y195000D02*
X-21630Y198000D01*
Y199000D01*
X-36630D02*
X-19630D01*
X-28630Y253000D02*
X-19630D01*
X-28630Y150000D02*
X-19630D01*
Y253000D01*
X52370Y180000D02*
Y184000D01*
Y218000D02*
Y222000D01*
X33370Y241000D02*
X36370D01*
X-6630D02*
X10370D01*
X-6630Y161000D02*
Y241000D01*
Y161000D02*
X10370D01*
X33370D02*
X36370D01*
X-630D02*
Y241000D01*
X7370Y161000D02*
Y241000D01*
X64000Y306400D02*
Y356400D01*
X12000D02*
X64000D01*
X12000Y306400D02*
X64000D01*
X12000D02*
Y356400D01*
X385993Y438007D02*
X385970Y444671D01*
X389290Y448015D01*
X392634Y444695D01*
X392658Y438030D01*
X392640Y443029D01*
X385976Y443005D01*
X395990Y438042D02*
X395955Y448039D01*
X400953Y448056D01*
X402625Y446396D01*
X402637Y443064D01*
X400976Y441391D01*
X395978Y441374D01*
X399310Y441386D02*
X402654Y438065D01*
X405951Y448073D02*
X405986Y438077D01*
X410985Y438094D01*
X412645Y439766D01*
X412622Y446431D01*
X410950Y448091D01*
X405951Y448073D01*
X415948Y448108D02*
X415977Y439778D01*
X417649Y438117D01*
X420981Y438129D01*
X422642Y439801D01*
X422613Y448132D01*
X425945Y448143D02*
X429277Y448155D01*
X427611Y448149D01*
X427646Y438152D01*
X425980Y438147D01*
X429312Y438158D01*
X434310Y438176D02*
X434276Y448172D01*
X440975Y438199D01*
X440940Y448196D01*
X449271Y448225D02*
X445938Y448213D01*
X444278Y446541D01*
X444301Y439877D01*
X445973Y438216D01*
X449306Y438228D01*
X450966Y439900D01*
X450943Y446564D01*
X449271Y448225D01*
X464266Y448277D02*
X464295Y439946D01*
X465967Y438286D01*
X469299Y438298D01*
X470959Y439970D01*
X470930Y448300D01*
X474297Y438315D02*
X474263Y448312D01*
X480962Y438338D01*
X480927Y448335D01*
X489258Y448364D02*
X485925Y448353D01*
X484265Y446681D01*
X484288Y440016D01*
X485960Y438356D01*
X489292Y438368D01*
X490953Y440039D01*
X490929Y446704D01*
X489258Y448364D01*
X316665Y485997D02*
X313332D01*
X314998D01*
Y477666D01*
X313332Y476000D01*
X311666D01*
X310000Y477666D01*
X324995Y476000D02*
Y485997D01*
X319997Y480998D01*
X326661D01*
X424664Y54997D02*
X421332D01*
X422998D01*
Y46666D01*
X421332Y45000D01*
X419666D01*
X418000Y46666D01*
X427997Y45000D02*
X431329D01*
X429663D01*
Y54997D01*
X427997Y53331D01*
X530664Y485997D02*
X527332D01*
X528998D01*
Y477666D01*
X527332Y476000D01*
X525666D01*
X524000Y477666D01*
X533997Y484331D02*
X535663Y485997D01*
X538995D01*
X540661Y484331D01*
Y482664D01*
X538995Y480998D01*
X537329D01*
X538995D01*
X540661Y479332D01*
Y477666D01*
X538995Y476000D01*
X535663D01*
X533997Y477666D01*
X637664Y55997D02*
X634332D01*
X635998D01*
Y47666D01*
X634332Y46000D01*
X632666D01*
X631000Y47666D01*
X647661Y46000D02*
X640997D01*
X647661Y52664D01*
Y54331D01*
X645995Y55997D01*
X642663D01*
X640997Y54331D01*
X161332Y68998D02*
X159666D01*
X160499D01*
Y64833D01*
X159666Y64000D01*
X158833D01*
X158000Y64833D01*
X162998Y64000D02*
Y68998D01*
X165497D01*
X166331Y68165D01*
Y66499D01*
X165497Y65666D01*
X162998D01*
X170496Y64000D02*
Y68998D01*
X167997Y66499D01*
X171329D01*
X108665Y428997D02*
X105332D01*
X106998D01*
Y420666D01*
X105332Y419000D01*
X103666D01*
X102000Y420666D01*
X111997Y419000D02*
Y428997D01*
X116995D01*
X118661Y427331D01*
Y423998D01*
X116995Y422332D01*
X111997D01*
X121994Y427331D02*
X123660Y428997D01*
X126992D01*
X128658Y427331D01*
Y425664D01*
X126992Y423998D01*
X125326D01*
X126992D01*
X128658Y422332D01*
Y420666D01*
X126992Y419000D01*
X123660D01*
X121994Y420666D01*
X81997Y329336D02*
Y332668D01*
Y331002D01*
X73666D01*
X72000Y332668D01*
Y334334D01*
X73666Y336000D01*
X72000Y326003D02*
X81997D01*
Y321005D01*
X80331Y319339D01*
X76998D01*
X75332Y321005D01*
Y326003D01*
X72000Y309342D02*
Y316006D01*
X78664Y309342D01*
X80331D01*
X81997Y311008D01*
Y314340D01*
X80331Y316006D01*
X658420Y507575D02*
X655088D01*
X656754D01*
Y499244D01*
X655088Y497578D01*
X653422D01*
X651756Y499244D01*
X661753Y497578D02*
Y507575D01*
X666751D01*
X668417Y505909D01*
Y502576D01*
X666751Y500910D01*
X661753D01*
X671750Y497578D02*
X675082D01*
X673416D01*
Y507575D01*
X671750Y505909D01*
X64665Y173997D02*
X61332D01*
X62998D01*
Y165666D01*
X61332Y164000D01*
X59666D01*
X58000Y165666D01*
X67997Y173997D02*
X74661D01*
Y172331D01*
X67997Y165666D01*
Y164000D01*
X97664Y399997D02*
X94332D01*
X95998D01*
Y391666D01*
X94332Y390000D01*
X92666D01*
X91000Y391666D01*
X107661Y399997D02*
X104329Y398331D01*
X100997Y394998D01*
Y391666D01*
X102663Y390000D01*
X105995D01*
X107661Y391666D01*
Y393332D01*
X105995Y394998D01*
X100997D01*
X98665Y489997D02*
X95332D01*
X96998D01*
Y481666D01*
X95332Y480000D01*
X93666D01*
X92000Y481666D01*
X108661Y489997D02*
X101997D01*
Y484998D01*
X105329Y486665D01*
X106995D01*
X108661Y484998D01*
Y481666D01*
X106995Y480000D01*
X103663D01*
X101997Y481666D01*
X4000Y464000D02*
X6666D01*
X5333D01*
Y471997D01*
X4000Y470664D01*
Y377000D02*
X6666D01*
X5333D01*
Y384997D01*
X4000Y383665D01*
X180003Y23965D02*
X188334Y23994D01*
X189994Y25666D01*
X189983Y28998D01*
X188311Y30659D01*
X179980Y30630D01*
X181611Y40632D02*
X179951Y38960D01*
X179963Y35628D01*
X181635Y33968D01*
X183301Y33974D01*
X184961Y35645D01*
X184949Y38978D01*
X186610Y40650D01*
X188276Y40655D01*
X189948Y38995D01*
X189959Y35663D01*
X188299Y33991D01*
X179910Y50623D02*
X179933Y43959D01*
X189930Y43993D01*
X189907Y50658D01*
X184932Y43976D02*
X184920Y47308D01*
X189895Y53990D02*
X179899Y53955D01*
X179881Y58954D01*
X181542Y60626D01*
X184874Y60637D01*
X186546Y58977D01*
X186563Y53979D01*
X186551Y57311D02*
X189872Y60655D01*
X53000Y361000D02*
Y363666D01*
Y362333D01*
X45003D01*
X46336Y361000D01*
X337000Y417000D02*
X336965Y426997D01*
X340309Y423676D01*
X343630Y427020D01*
X343665Y417023D01*
X348640Y423705D02*
X351972Y423717D01*
X353644Y422057D01*
X353661Y417058D01*
X348663Y417041D01*
X346991Y418701D01*
X348651Y420373D01*
X353650Y420390D01*
X356993Y417070D02*
X356970Y423734D01*
X361968Y423752D01*
X363641Y422091D01*
X363658Y417093D01*
X366967Y423769D02*
X366984Y418771D01*
X368656Y417110D01*
X373655Y417128D01*
X373631Y423792D01*
X378630Y423810D02*
X381962Y423821D01*
X383634Y422161D01*
X383651Y417163D01*
X378653Y417145D01*
X376981Y418806D01*
X378641Y420478D01*
X383640Y420495D01*
X386984Y417174D02*
X390316Y417186D01*
X388650Y417180D01*
X388615Y427177D01*
X386949Y427171D01*
X395314Y417204D02*
X398646Y417215D01*
X396980Y417209D01*
X396945Y427206D01*
X395279Y427200D01*
X403621Y423897D02*
X403639Y418899D01*
X405311Y417239D01*
X410309Y417256D01*
X410315Y415590D01*
X408655Y413918D01*
X406989Y413912D01*
X410309Y417256D02*
X410286Y423920D01*
X423965Y425997D02*
X424000Y416000D01*
X428998Y416017D01*
X430659Y417689D01*
X430635Y424354D01*
X428964Y426014D01*
X423965Y425997D01*
X438995Y416052D02*
X435663Y416041D01*
X433991Y417701D01*
X433979Y421033D01*
X435640Y422705D01*
X438972Y422717D01*
X440644Y421057D01*
X440649Y419390D01*
X433985Y419367D01*
X443993Y416070D02*
X448992Y416087D01*
X450652Y417759D01*
X448980Y419420D01*
X445648Y419408D01*
X443976Y421068D01*
X445636Y422740D01*
X450635Y422757D01*
X453990Y416105D02*
X457322Y416116D01*
X455656Y416110D01*
X455633Y422775D01*
X453967Y422769D01*
X465665Y412813D02*
X467331Y412819D01*
X468991Y414491D01*
X468962Y422822D01*
X463964Y422804D01*
X462303Y421132D01*
X462315Y417800D01*
X463987Y416140D01*
X468985Y416157D01*
X472317Y416169D02*
X472294Y422833D01*
X477293Y422851D01*
X478965Y421190D01*
X478982Y416192D01*
X487313Y416221D02*
X483980Y416209D01*
X482308Y417870D01*
X482297Y421202D01*
X483957Y422874D01*
X487289Y422886D01*
X488961Y421225D01*
X488967Y419559D01*
X482303Y419536D01*
X498941Y426258D02*
X498975Y416262D01*
X493977Y416244D01*
X492305Y417905D01*
X492294Y421237D01*
X493954Y422909D01*
X498952Y422926D01*
X512269Y426305D02*
X512304Y416308D01*
X517303Y416326D01*
X518963Y417998D01*
X518957Y419664D01*
X517285Y421324D01*
X512287Y421307D01*
X517285Y421324D01*
X518946Y422996D01*
X518940Y424662D01*
X517268Y426322D01*
X512269Y426305D01*
X522278Y423008D02*
X522295Y418009D01*
X523967Y416349D01*
X528965Y416366D01*
X528971Y414700D01*
X527311Y413028D01*
X525645Y413022D01*
X528965Y416366D02*
X528942Y423031D01*
X377000Y394000D02*
X376977Y400664D01*
X380297Y404008D01*
X383641Y400688D01*
X383665Y394023D01*
X383647Y399022D01*
X376983Y398998D01*
X386962Y404032D02*
X386997Y394035D01*
X391995Y394052D01*
X393655Y395724D01*
X393650Y397390D01*
X393644Y399057D01*
X391972Y400717D01*
X386973Y400699D01*
X403623Y404090D02*
X403658Y394093D01*
X398660Y394076D01*
X396988Y395736D01*
X396976Y399068D01*
X398636Y400740D01*
X403635Y400757D01*
X406967Y400769D02*
X406984Y395771D01*
X408656Y394110D01*
X413655Y394128D01*
X413631Y400792D01*
X416987Y394140D02*
X420319Y394151D01*
X418653Y394145D01*
X418618Y404142D01*
X416952Y404136D01*
X425317Y394169D02*
X425294Y400833D01*
X426960Y400839D01*
X428632Y399179D01*
X428650Y394180D01*
X428632Y399179D01*
X430293Y400851D01*
X431964Y399190D01*
X431982Y394192D01*
X436957Y400874D02*
X440289Y400886D01*
X441961Y399225D01*
X441979Y394227D01*
X436980Y394209D01*
X435308Y395870D01*
X436969Y397542D01*
X441967Y397559D01*
X448655Y390918D02*
X450321Y390924D01*
X451981Y392596D01*
X451952Y400926D01*
X446954Y400909D01*
X445294Y399237D01*
X445305Y395905D01*
X446977Y394244D01*
X451975Y394262D01*
X455284Y400938D02*
X455302Y395939D01*
X456974Y394279D01*
X461972Y394297D01*
X461949Y400961D01*
X465304Y394308D02*
X468637Y394320D01*
X466970Y394314D01*
X466947Y400979D01*
X465281Y400973D01*
X480265Y404357D02*
X480299Y394361D01*
X475301Y394343D01*
X473629Y396003D01*
X473618Y399336D01*
X475278Y401008D01*
X480276Y401025D01*
X359344Y367679D02*
X361010Y367685D01*
X362670Y369357D01*
X362641Y377688D01*
X357643Y377670D01*
X355983Y375998D01*
X355994Y372666D01*
X357666Y371006D01*
X362664Y371023D01*
X365997Y371035D02*
X369329Y371046D01*
X367663Y371041D01*
X367640Y377705D01*
X365974Y377699D01*
X375964Y379400D02*
X375970Y377734D01*
X374304Y377728D01*
X377636Y377740D01*
X375970Y377734D01*
X375988Y372736D01*
X377659Y371076D01*
X382623Y381090D02*
X382658Y371093D01*
X382640Y376091D01*
X384301Y377763D01*
X387633Y377775D01*
X389305Y376115D01*
X389322Y371116D01*
X392631Y377792D02*
X392649Y372794D01*
X394321Y371134D01*
X399319Y371151D01*
X399296Y377816D01*
X402616Y381160D02*
X402651Y371163D01*
X407650Y371180D01*
X409310Y372852D01*
X409304Y374518D01*
X409298Y376185D01*
X407626Y377845D01*
X402628Y377827D01*
X412625Y377862D02*
X414291Y377868D01*
X414297Y376202D01*
X412631Y376196D01*
X412625Y377862D01*
X412642Y372864D02*
X414308Y372870D01*
X414314Y371204D01*
X412648Y371198D01*
X412642Y372864D01*
X405643Y358670D02*
X408975Y358682D01*
X410647Y357022D01*
X410664Y352023D01*
X405666Y352006D01*
X403994Y353666D01*
X405654Y355338D01*
X410653Y355355D01*
X413962Y362032D02*
X413997Y352035D01*
X418995Y352052D01*
X420655Y353724D01*
X420650Y355390D01*
X420644Y357057D01*
X418972Y358717D01*
X413974Y358699D01*
X430623Y362090D02*
X430658Y352093D01*
X425660Y352076D01*
X423988Y353736D01*
X423976Y357068D01*
X425636Y358740D01*
X430635Y358758D01*
X433967Y358769D02*
X433984Y353771D01*
X435656Y352110D01*
X440655Y352128D01*
X440631Y358792D01*
X443987Y352140D02*
X447319Y352151D01*
X445653Y352145D01*
X445618Y362142D01*
X443952Y362136D01*
X452318Y352169D02*
X452294Y358833D01*
X453960Y358839D01*
X455632Y357179D01*
X455650Y352180D01*
X455632Y357179D01*
X457293Y358851D01*
X458965Y357190D01*
X458982Y352192D01*
X463957Y358874D02*
X467289Y358885D01*
X468961Y357225D01*
X468979Y352227D01*
X463980Y352209D01*
X462308Y353870D01*
X463969Y355542D01*
X468967Y355559D01*
X475655Y348918D02*
X477321Y348924D01*
X478981Y350596D01*
X478952Y358926D01*
X473954Y358909D01*
X472294Y357237D01*
X472305Y353905D01*
X473977Y352244D01*
X478975Y352262D01*
X482284Y358938D02*
X482302Y353940D01*
X483974Y352279D01*
X488972Y352297D01*
X488949Y358961D01*
X492304Y352308D02*
X495637Y352320D01*
X493970Y352314D01*
X493947Y358979D01*
X492281Y358973D01*
X507265Y362357D02*
X507299Y352361D01*
X502301Y352343D01*
X500629Y354003D01*
X500617Y357336D01*
X502278Y359008D01*
X507276Y359025D01*
X515630Y352390D02*
X512298Y352378D01*
X510626Y354038D01*
X510614Y357371D01*
X512275Y359043D01*
X515607Y359054D01*
X517279Y357394D01*
X517285Y355728D01*
X510620Y355704D01*
X520628Y352407D02*
X523961Y352419D01*
X522295Y352413D01*
X522271Y359077D01*
X520605Y359072D01*
X528959Y352436D02*
X533957Y352454D01*
X535618Y354126D01*
X533946Y355786D01*
X530614Y355774D01*
X528941Y357435D01*
X530602Y359106D01*
X535600Y359124D01*
X538956Y352471D02*
X543954Y352489D01*
X545614Y354160D01*
X543942Y355821D01*
X540610Y355809D01*
X538938Y357469D01*
X540598Y359141D01*
X545597Y359159D01*
X550595Y359176D02*
X553927Y359188D01*
X555599Y357528D01*
X555617Y352529D01*
X550619Y352512D01*
X548947Y354172D01*
X550607Y355844D01*
X555605Y355862D01*
D51*
X598250Y240250D02*
Y246750D01*
X8750Y304750D02*
X15250D01*
D52*
X207000Y4000D02*
Y6666D01*
Y5333D01*
X199003D01*
X200336Y4000D01*
X615000Y319500D02*
Y322166D01*
Y320833D01*
X607003D01*
X608335Y319500D01*
X294000Y218000D02*
X293993Y219999D01*
X293997Y219000D01*
X287999Y218979D01*
X289002Y217983D01*
X293972Y225997D02*
X287974Y225976D01*
X290984Y222988D01*
X290970Y226987D01*
X627986Y99999D02*
X628000Y96000D01*
X623987Y99985D01*
X622988Y99981D01*
X621992Y98978D01*
X621998Y96979D01*
X623002Y95983D01*
X622981Y101981D02*
X621978Y102977D01*
X621971Y104976D01*
X622967Y105979D01*
X623966Y105983D01*
X624970Y104987D01*
X625966Y105990D01*
X626965Y105993D01*
X627969Y104997D01*
X627976Y102998D01*
X626979Y101994D01*
X625980Y101991D01*
X624977Y102987D01*
X623980Y101984D01*
X622981Y101981D01*
X624977Y102987D02*
X624970Y104987D01*
X7999Y404014D02*
X4000Y404000D01*
X7985Y408013D01*
X7981Y409012D01*
X6978Y410009D01*
X4979Y410001D01*
X3983Y408998D01*
X4983Y346998D02*
X5979Y348002D01*
X7978Y348008D01*
X8981Y347012D01*
X8985Y346013D01*
X7988Y345009D01*
X6989Y345006D01*
X7988Y345009D01*
X8992Y344013D01*
X8995Y343014D01*
X7999Y342010D01*
X6000Y342004D01*
X4997Y343000D01*
X7999Y315011D02*
X7978Y321008D01*
X4990Y317999D01*
X8988Y318013D01*
X93978Y381012D02*
X89979Y380998D01*
X89990Y377999D01*
X91985Y379006D01*
X92985Y379009D01*
X93988Y378013D01*
X93995Y376014D01*
X92999Y375010D01*
X91000Y375004D01*
X89997Y376000D01*
X93978Y413012D02*
X91982Y412005D01*
X89990Y409999D01*
X89997Y408000D01*
X91000Y407004D01*
X92999Y407010D01*
X93995Y408014D01*
X93992Y409013D01*
X92989Y410009D01*
X89990Y409999D01*
X71988Y455978D02*
X72002Y451979D01*
X75001Y451990D01*
X73994Y453985D01*
X73991Y454985D01*
X74987Y455988D01*
X76986Y455995D01*
X77990Y454999D01*
X77997Y453000D01*
X77000Y451996D01*
X45002Y450983D02*
X43998Y451979D01*
X43991Y453978D01*
X44988Y454981D01*
X45987Y454985D01*
X46990Y453989D01*
X46994Y452989D01*
X46990Y453989D01*
X47987Y454992D01*
X48986Y454995D01*
X49990Y453999D01*
X49997Y452000D01*
X49000Y450997D01*
X6999Y495014D02*
X3000Y495000D01*
X6985Y499013D01*
X6981Y500012D01*
X5978Y501008D01*
X3979Y501002D01*
X2982Y499998D01*
X472986Y101999D02*
X473000Y98000D01*
X468987Y101985D01*
X467988Y101981D01*
X466992Y100978D01*
X466998Y98979D01*
X468002Y97983D01*
X472965Y107997D02*
X472979Y103998D01*
X468966Y107983D01*
X467967Y107979D01*
X466971Y106976D01*
X466978Y104977D01*
X467981Y103981D01*
X216979Y387998D02*
X220978Y388012D01*
X218978Y388005D01*
X218999Y382007D01*
X222977Y388019D02*
X226997Y382035D01*
X226976Y388033D02*
X222998Y382021D01*
X217000Y397000D02*
X216979Y402998D01*
X219978Y403008D01*
X220981Y402012D01*
X220988Y400013D01*
X219992Y399010D01*
X216993Y398999D01*
X218992Y399006D02*
X220999Y397014D01*
X222977Y403019D02*
X226997Y397035D01*
X226976Y403033D02*
X222998Y397021D01*
D53*
X669000Y487000D02*
Y490386D01*
Y488693D01*
X658843D01*
X660536Y487000D01*
X639000Y529000D02*
Y532386D01*
Y530693D01*
X628843D01*
X630536Y529000D01*
X126250Y444000D02*
X129636D01*
X127943D01*
Y454157D01*
X126250Y452464D01*
X99000Y86000D02*
X102386D01*
X100693D01*
Y96157D01*
X99000Y94464D01*
X513080Y2540D02*
Y5926D01*
Y4233D01*
X502923D01*
X504616Y2540D01*
X284480D02*
Y5926D01*
Y4233D01*
X274323D01*
X276016Y2540D01*
M02*
