G04 Layer_Color=32896*
%FSLAX44Y44*%
%MOMM*%
G71*
G01*
G75*
%ADD50C,0.2000*%
D50*
X260693Y481306D02*
X259021Y482967D01*
X259009Y486299D01*
X260669Y487971D01*
X267334Y487994D01*
X269006Y486334D01*
X269017Y483002D01*
X267357Y481330D01*
X264025Y481318D01*
X264013Y484650D01*
X269035Y478003D02*
X259038Y477968D01*
X269058Y471339D01*
X259061Y471304D01*
X259073Y467972D02*
X269070Y468007D01*
X269087Y463008D01*
X267427Y461336D01*
X260762Y461313D01*
X259090Y462973D01*
X259073Y467972D01*
X285693Y482307D02*
X284021Y483967D01*
X284009Y487299D01*
X285669Y488971D01*
X287335Y488977D01*
X289007Y487316D01*
X289019Y483984D01*
X290691Y482324D01*
X292357Y482330D01*
X294017Y484002D01*
X294006Y487334D01*
X292334Y488994D01*
X285728Y472310D02*
X284056Y473970D01*
X284044Y477302D01*
X285704Y478974D01*
X292369Y478997D01*
X294041Y477337D01*
X294052Y474005D01*
X292392Y472333D01*
X284073Y468972D02*
X294070Y469007D01*
X290737Y468995D01*
X284096Y462307D01*
X289077Y467323D01*
X294093Y462342D01*
X319000Y489000D02*
X309003Y488965D01*
X312347Y485644D01*
X309027Y482301D01*
X319023Y482336D01*
X309038Y478968D02*
X309050Y475636D01*
X309044Y477302D01*
X319041Y477337D01*
X319035Y479003D01*
X319046Y475671D01*
X310757Y463979D02*
X309085Y465639D01*
X309073Y468972D01*
X310733Y470644D01*
X312400Y470649D01*
X314071Y468989D01*
X314083Y465657D01*
X315755Y463997D01*
X317421Y464002D01*
X319081Y465674D01*
X319070Y469007D01*
X317398Y470667D01*
X309120Y455643D02*
X309108Y458975D01*
X310768Y460647D01*
X317433Y460670D01*
X319105Y459010D01*
X319116Y455678D01*
X317456Y454006D01*
X310791Y453983D01*
X309120Y455643D01*
X345000Y490000D02*
X335003Y489965D01*
X338347Y486645D01*
X335027Y483301D01*
X345023Y483336D01*
X335056Y474970D02*
X335044Y478302D01*
X336704Y479974D01*
X343369Y479997D01*
X345041Y478337D01*
X345052Y475005D01*
X343392Y473333D01*
X336728Y473310D01*
X335056Y474970D01*
X336762Y463313D02*
X335090Y464973D01*
X335079Y468306D01*
X336739Y469977D01*
X338405Y469983D01*
X340077Y468323D01*
X340089Y464991D01*
X341761Y463330D01*
X343427Y463336D01*
X345087Y465008D01*
X345076Y468340D01*
X343404Y470001D01*
X335108Y459975D02*
X335120Y456643D01*
X335114Y458309D01*
X345111Y458344D01*
X345105Y460010D01*
X345116Y456678D01*
X361693Y484306D02*
X360021Y485967D01*
X360009Y489299D01*
X361669Y490971D01*
X363335Y490977D01*
X365007Y489316D01*
X365019Y485984D01*
X366691Y484324D01*
X368357Y484330D01*
X370017Y486002D01*
X370006Y489334D01*
X368334Y490994D01*
X361728Y474310D02*
X360056Y475970D01*
X360044Y479302D01*
X361704Y480974D01*
X363370Y480980D01*
X365042Y479320D01*
X365054Y475988D01*
X366726Y474327D01*
X368392Y474333D01*
X370052Y476005D01*
X370041Y479337D01*
X368369Y480998D01*
X243000Y488000D02*
X236336Y487977D01*
X233015Y484633D01*
X236359Y481312D01*
X243023Y481335D01*
X238025Y481318D01*
X238002Y487982D01*
X243035Y478003D02*
X233038Y477968D01*
X233056Y472970D01*
X234728Y471310D01*
X238060Y471321D01*
X239720Y472993D01*
X239703Y477992D01*
X239714Y474659D02*
X243058Y471339D01*
X233096Y461307D02*
X233073Y467972D01*
X243070Y468007D01*
X243093Y461342D01*
X238071Y467989D02*
X238083Y464657D01*
X233131Y451311D02*
X233108Y457975D01*
X238106Y457992D01*
X238118Y454660D01*
X238106Y457992D01*
X243105Y458010D01*
X217000Y488000D02*
X210336Y487977D01*
X207015Y484633D01*
X210359Y481312D01*
X217023Y481335D01*
X212025Y481318D01*
X212002Y487982D01*
X207038Y477968D02*
X217035Y478003D01*
X217052Y473005D01*
X215392Y471333D01*
X208728Y471310D01*
X207056Y472970D01*
X207038Y477968D01*
X217087Y463008D02*
X207090Y462973D01*
X212071Y467989D01*
X212095Y461325D01*
X217105Y458010D02*
X210464Y451322D01*
X208832Y441320D02*
X207160Y442980D01*
X207149Y446312D01*
X208809Y447984D01*
X210475Y447990D01*
X212147Y446329D01*
X212159Y442997D01*
X213831Y441337D01*
X215497Y441343D01*
X217157Y443015D01*
X217145Y446347D01*
X215473Y448007D01*
X207178Y437981D02*
X217174Y438016D01*
X217192Y433018D01*
X215532Y431346D01*
X208867Y431323D01*
X207195Y432983D01*
X207178Y437981D01*
X217209Y428020D02*
X210545Y427996D01*
X207224Y424652D01*
X210568Y421332D01*
X217233Y421355D01*
X212234Y421338D01*
X212211Y428002D01*
X191000Y488000D02*
X184335Y487977D01*
X181015Y484633D01*
X184359Y481312D01*
X191023Y481335D01*
X186025Y481318D01*
X186002Y487982D01*
X181038Y477968D02*
X191035Y478003D01*
X191052Y473005D01*
X189392Y471333D01*
X182728Y471310D01*
X181056Y472970D01*
X181038Y477968D01*
X181096Y461307D02*
X181073Y467972D01*
X186071Y467989D01*
X184417Y464651D01*
X184423Y462985D01*
X186095Y461325D01*
X189427Y461336D01*
X191087Y463008D01*
X191076Y466340D01*
X189404Y468001D01*
X191105Y458010D02*
X184464Y451322D01*
X182832Y441320D02*
X181160Y442980D01*
X181149Y446312D01*
X182809Y447984D01*
X184475Y447990D01*
X186147Y446329D01*
X186159Y442997D01*
X187831Y441337D01*
X189497Y441343D01*
X191157Y443015D01*
X191145Y446347D01*
X189473Y448007D01*
X182867Y431323D02*
X181195Y432983D01*
X181184Y436315D01*
X182844Y437987D01*
X189508Y438011D01*
X191180Y436350D01*
X191192Y433018D01*
X189532Y431346D01*
X181213Y427985D02*
X191209Y428020D01*
X191233Y421355D01*
X630003Y488965D02*
X630015Y485633D01*
X630009Y487299D01*
X640006Y487334D01*
X640000Y489000D01*
X640012Y485668D01*
X630050Y475636D02*
X630038Y478968D01*
X631698Y480640D01*
X638363Y480664D01*
X640035Y479003D01*
X640046Y475671D01*
X638386Y473999D01*
X631722Y473976D01*
X630050Y475636D01*
X631733Y470644D02*
X630073Y468972D01*
X630085Y465639D01*
X631757Y463979D01*
X638421Y464002D01*
X640081Y465674D01*
X640070Y469007D01*
X638398Y470667D01*
X631733Y470644D01*
X606003Y488965D02*
X606015Y485633D01*
X606009Y487299D01*
X616006Y487334D01*
X616000Y489000D01*
X616012Y485668D01*
X606050Y475636D02*
X606038Y478968D01*
X607699Y480640D01*
X614363Y480664D01*
X616035Y479003D01*
X616046Y475671D01*
X614386Y473999D01*
X607722Y473976D01*
X606050Y475636D01*
X616064Y470673D02*
X616076Y467341D01*
X616070Y469007D01*
X606073Y468972D01*
X607733Y470644D01*
X580003Y489965D02*
X580015Y486633D01*
X580009Y488299D01*
X590006Y488334D01*
X590000Y490000D01*
X590012Y486668D01*
X580050Y476636D02*
X580038Y479968D01*
X581698Y481640D01*
X588363Y481664D01*
X590035Y480003D01*
X590047Y476671D01*
X588386Y474999D01*
X581722Y474976D01*
X580050Y476636D01*
X590087Y465008D02*
X590064Y471673D01*
X583423Y464985D01*
X581757Y464979D01*
X580085Y466640D01*
X580073Y469972D01*
X581733Y471644D01*
X554003Y490965D02*
X554015Y487633D01*
X554009Y489299D01*
X564006Y489334D01*
X564000Y491000D01*
X564012Y487668D01*
X554050Y477636D02*
X554038Y480968D01*
X555699Y482640D01*
X562363Y482664D01*
X564035Y481003D01*
X564047Y477671D01*
X562386Y475999D01*
X555722Y475976D01*
X554050Y477636D01*
X555733Y472644D02*
X554073Y470972D01*
X554085Y467640D01*
X555757Y465979D01*
X557423Y465985D01*
X559083Y467657D01*
X559077Y469323D01*
X559083Y467657D01*
X560755Y465997D01*
X562421Y466002D01*
X564081Y467674D01*
X564070Y471007D01*
X562398Y472667D01*
X529003Y491965D02*
X529015Y488633D01*
X529009Y490299D01*
X539006Y490334D01*
X539000Y492000D01*
X539012Y488668D01*
X529050Y478636D02*
X529038Y481968D01*
X530699Y483640D01*
X537363Y483664D01*
X539035Y482003D01*
X539047Y478671D01*
X537386Y476999D01*
X530722Y476976D01*
X529050Y478636D01*
X539081Y468674D02*
X529085Y468639D01*
X534066Y473655D01*
X534089Y466991D01*
X503003Y491965D02*
X503015Y488633D01*
X503009Y490299D01*
X513006Y490334D01*
X513000Y492000D01*
X513012Y488668D01*
X503050Y478636D02*
X503038Y481968D01*
X504698Y483640D01*
X511363Y483664D01*
X513035Y482003D01*
X513046Y478671D01*
X511386Y476999D01*
X504722Y476976D01*
X503050Y478636D01*
X503091Y466973D02*
X503067Y473638D01*
X508066Y473655D01*
X506411Y470317D01*
X506417Y468651D01*
X508089Y466991D01*
X511421Y467002D01*
X513081Y468674D01*
X513070Y472007D01*
X511398Y473667D01*
X477003Y491965D02*
X477015Y488633D01*
X477009Y490299D01*
X487006Y490334D01*
X487000Y492000D01*
X487012Y488668D01*
X477050Y478636D02*
X477038Y481968D01*
X478699Y483640D01*
X485363Y483664D01*
X487035Y482003D01*
X487047Y478671D01*
X485386Y476999D01*
X478722Y476976D01*
X477050Y478636D01*
X477090Y466973D02*
X478745Y470311D01*
X482066Y473655D01*
X485398Y473667D01*
X487070Y472007D01*
X487081Y468674D01*
X485421Y467002D01*
X483755Y466997D01*
X482083Y468657D01*
X482066Y473655D01*
X453003Y491965D02*
X453015Y488633D01*
X453009Y490299D01*
X463006Y490334D01*
X463000Y492000D01*
X463012Y488668D01*
X453050Y478636D02*
X453038Y481968D01*
X454698Y483640D01*
X461363Y483664D01*
X463035Y482003D01*
X463046Y478671D01*
X461386Y476999D01*
X454722Y476976D01*
X453050Y478636D01*
X453067Y473638D02*
X453091Y466973D01*
X454757Y466979D01*
X461398Y473667D01*
X463064Y473673D01*
X411003Y491965D02*
X411015Y488633D01*
X411009Y490299D01*
X421006Y490334D01*
X421000Y492000D01*
X421012Y488668D01*
X411050Y478636D02*
X411038Y481968D01*
X412699Y483640D01*
X419363Y483664D01*
X421035Y482003D01*
X421046Y478671D01*
X419386Y476999D01*
X412722Y476976D01*
X411050Y478636D01*
X412733Y473644D02*
X411073Y471972D01*
X411085Y468639D01*
X412757Y466979D01*
X414423Y466985D01*
X416083Y468657D01*
X417755Y466997D01*
X419421Y467002D01*
X421081Y468674D01*
X421070Y472007D01*
X419398Y473667D01*
X417732Y473661D01*
X416071Y471989D01*
X414399Y473649D01*
X412733Y473644D01*
X416071Y471989D02*
X416083Y468657D01*
X386003Y492965D02*
X386015Y489633D01*
X386009Y491299D01*
X396006Y491334D01*
X396000Y493000D01*
X396012Y489668D01*
X386050Y479636D02*
X386038Y482968D01*
X387699Y484640D01*
X394363Y484664D01*
X396035Y483003D01*
X396046Y479671D01*
X394386Y477999D01*
X387722Y477976D01*
X386050Y479636D01*
X394398Y474667D02*
X396070Y473007D01*
X396081Y469674D01*
X394421Y468002D01*
X387757Y467979D01*
X386085Y469639D01*
X386073Y472972D01*
X387733Y474644D01*
X389399Y474649D01*
X391071Y472989D01*
X391089Y467991D01*
X512000Y71000D02*
X505336Y70977D01*
X502015Y67633D01*
X505359Y64312D01*
X512023Y64336D01*
X507025Y64318D01*
X507002Y70983D01*
X502038Y60968D02*
X512035Y61003D01*
X512052Y56005D01*
X510392Y54333D01*
X503728Y54310D01*
X502056Y55970D01*
X502038Y60968D01*
X503739Y50978D02*
X502079Y49306D01*
X502090Y45973D01*
X503762Y44313D01*
X510427Y44336D01*
X512087Y46008D01*
X512076Y49340D01*
X510404Y51001D01*
X503739Y50978D01*
X537000Y67000D02*
X530336Y66977D01*
X527015Y63633D01*
X530359Y60312D01*
X537023Y60335D01*
X532025Y60318D01*
X532002Y66982D01*
X527038Y56968D02*
X537035Y57003D01*
X537052Y52005D01*
X535392Y50333D01*
X528728Y50310D01*
X527056Y51970D01*
X527038Y56968D01*
X537070Y47007D02*
X537081Y43674D01*
X537076Y45340D01*
X527079Y45306D01*
X528739Y46978D01*
X562000Y71000D02*
X555336Y70977D01*
X552015Y67633D01*
X555359Y64312D01*
X562023Y64336D01*
X557025Y64318D01*
X557002Y70983D01*
X552038Y60968D02*
X562035Y61003D01*
X562052Y56005D01*
X560392Y54333D01*
X553728Y54310D01*
X552056Y55970D01*
X552038Y60968D01*
X562093Y44342D02*
X562070Y51007D01*
X555429Y44319D01*
X553762Y44313D01*
X552090Y45973D01*
X552079Y49306D01*
X553739Y50978D01*
X588000Y71000D02*
X581335Y70977D01*
X578015Y67633D01*
X581359Y64312D01*
X588023Y64336D01*
X583025Y64318D01*
X583002Y70983D01*
X578038Y60968D02*
X588035Y61003D01*
X588052Y56005D01*
X586392Y54333D01*
X579728Y54310D01*
X578056Y55970D01*
X578038Y60968D01*
X579739Y50978D02*
X578079Y49306D01*
X578091Y45973D01*
X579762Y44313D01*
X581429Y44319D01*
X583089Y45991D01*
X583083Y47657D01*
X583089Y45991D01*
X584761Y44331D01*
X586427Y44336D01*
X588087Y46008D01*
X588076Y49340D01*
X586404Y51001D01*
X613000Y109000D02*
X606335Y108977D01*
X603015Y105633D01*
X606359Y102312D01*
X613023Y102336D01*
X608025Y102318D01*
X608002Y108983D01*
X603038Y98968D02*
X613035Y99003D01*
X613052Y94005D01*
X611392Y92333D01*
X604728Y92310D01*
X603056Y93970D01*
X603038Y98968D01*
X613087Y84008D02*
X603091Y83973D01*
X608071Y88989D01*
X608095Y82325D01*
X613105Y79010D02*
X606464Y72322D01*
X604832Y62320D02*
X603160Y63980D01*
X603149Y67312D01*
X604809Y68984D01*
X606475Y68990D01*
X608147Y67330D01*
X608159Y63997D01*
X609831Y62337D01*
X611497Y62343D01*
X613157Y64015D01*
X613145Y67347D01*
X611474Y69007D01*
X603178Y58981D02*
X613175Y59016D01*
X613192Y54018D01*
X611532Y52346D01*
X604867Y52323D01*
X603195Y53983D01*
X603178Y58981D01*
X613209Y49020D02*
X606545Y48996D01*
X603224Y45653D01*
X606568Y42332D01*
X613233Y42355D01*
X608234Y42338D01*
X608211Y49002D01*
X635000Y109000D02*
X628335Y108977D01*
X625015Y105633D01*
X628359Y102312D01*
X635023Y102336D01*
X630025Y102318D01*
X630002Y108983D01*
X625038Y98968D02*
X635035Y99003D01*
X635052Y94005D01*
X633392Y92333D01*
X626728Y92310D01*
X625056Y93970D01*
X625038Y98968D01*
X625096Y82307D02*
X625073Y88972D01*
X630071Y88989D01*
X628417Y85651D01*
X628423Y83985D01*
X630095Y82325D01*
X633427Y82336D01*
X635087Y84008D01*
X635076Y87340D01*
X633404Y89001D01*
X635105Y79010D02*
X628464Y72322D01*
X626832Y62320D02*
X625160Y63980D01*
X625149Y67312D01*
X626809Y68984D01*
X628475Y68990D01*
X630147Y67330D01*
X630159Y63997D01*
X631831Y62337D01*
X633497Y62343D01*
X635157Y64015D01*
X635145Y67347D01*
X633474Y69007D01*
X626867Y52323D02*
X625195Y53983D01*
X625184Y57315D01*
X626844Y58987D01*
X633508Y59011D01*
X635180Y57350D01*
X635192Y54018D01*
X633532Y52346D01*
X625213Y48985D02*
X635209Y49020D01*
X635233Y42355D01*
X426693Y65307D02*
X425021Y66967D01*
X425009Y70299D01*
X426669Y71971D01*
X433334Y71994D01*
X435006Y70334D01*
X435017Y67002D01*
X433357Y65330D01*
X430025Y65318D01*
X430013Y68650D01*
X435035Y62003D02*
X425038Y61968D01*
X435058Y55339D01*
X425061Y55304D01*
X425073Y51972D02*
X435070Y52007D01*
X435087Y47008D01*
X433427Y45336D01*
X426762Y45313D01*
X425090Y46973D01*
X425073Y51972D01*
X403693Y65307D02*
X402021Y66967D01*
X402009Y70299D01*
X403669Y71971D01*
X410334Y71994D01*
X412006Y70334D01*
X412017Y67002D01*
X410357Y65330D01*
X407025Y65318D01*
X407013Y68650D01*
X412035Y62003D02*
X402038Y61968D01*
X412058Y55339D01*
X402061Y55304D01*
X402073Y51972D02*
X412070Y52007D01*
X412087Y47008D01*
X410427Y45336D01*
X403762Y45313D01*
X402090Y46973D01*
X402073Y51972D01*
X381002Y71983D02*
X381025Y65318D01*
X377681Y68639D02*
X384346Y68662D01*
X376061Y55304D02*
X376038Y61968D01*
X381036Y61986D01*
X379382Y58648D01*
X379388Y56982D01*
X381060Y55321D01*
X384392Y55333D01*
X386052Y57005D01*
X386041Y60337D01*
X384369Y61997D01*
X376073Y51972D02*
X382738Y51995D01*
X386081Y48674D01*
X382761Y45331D01*
X376096Y45307D01*
X355002Y89983D02*
X355025Y83318D01*
X351681Y86639D02*
X358345Y86662D01*
X351704Y79974D02*
X350044Y78302D01*
X350056Y74970D01*
X351728Y73310D01*
X353394Y73316D01*
X355054Y74988D01*
X355048Y76654D01*
X355054Y74988D01*
X356726Y73327D01*
X358392Y73333D01*
X360052Y75005D01*
X360041Y78337D01*
X358369Y79998D01*
X360070Y70007D02*
X358404Y70001D01*
X358410Y68335D01*
X360076Y68340D01*
X360070Y70007D01*
X351768Y61647D02*
X350108Y59975D01*
X350120Y56643D01*
X351791Y54982D01*
X353458Y54988D01*
X355118Y56660D01*
X355112Y58326D01*
X355118Y56660D01*
X356790Y55000D01*
X358456Y55006D01*
X360116Y56678D01*
X360105Y60010D01*
X358433Y61670D01*
X350137Y51644D02*
X356801Y51668D01*
X360145Y48347D01*
X356825Y45003D01*
X350160Y44980D01*
X336000Y102000D02*
X326003Y101965D01*
X326021Y96967D01*
X327693Y95307D01*
X331025Y95318D01*
X332685Y96990D01*
X332668Y101988D01*
X332679Y98656D02*
X336023Y95336D01*
X326061Y85304D02*
X326038Y91968D01*
X336035Y92003D01*
X336058Y85339D01*
X331036Y91986D02*
X331048Y88654D01*
X327762Y75313D02*
X326091Y76973D01*
X326079Y80306D01*
X327739Y81978D01*
X329405Y81983D01*
X331077Y80323D01*
X331089Y76991D01*
X332761Y75331D01*
X334427Y75336D01*
X336087Y77008D01*
X336076Y80340D01*
X334404Y82001D01*
X326131Y65311D02*
X326108Y71975D01*
X336105Y72010D01*
X336128Y65345D01*
X331106Y71992D02*
X331118Y68660D01*
X326143Y61978D02*
X326166Y55314D01*
X326155Y58646D01*
X336151Y58681D01*
X336175Y52016D02*
X326178Y51982D01*
X336198Y45352D01*
X326201Y45317D01*
X299027Y101301D02*
X299003Y107965D01*
X304002Y107983D01*
X302347Y104644D01*
X302353Y102978D01*
X304025Y101318D01*
X307357Y101330D01*
X309017Y103002D01*
X309006Y106334D01*
X307334Y107994D01*
X299038Y97968D02*
X305703Y97992D01*
X309046Y94671D01*
X305726Y91327D01*
X299061Y91304D01*
X309070Y88007D02*
X302429Y81319D01*
X300774Y77981D02*
X299114Y76309D01*
X299125Y72977D01*
X300797Y71316D01*
X302463Y71322D01*
X304124Y72994D01*
X304118Y74660D01*
X304124Y72994D01*
X305796Y71334D01*
X307462Y71340D01*
X309122Y73011D01*
X309111Y76344D01*
X307439Y78004D01*
X309140Y68013D02*
X307474Y68007D01*
X307479Y66341D01*
X309145Y66347D01*
X309140Y68013D01*
X300838Y59654D02*
X299178Y57982D01*
X299189Y54649D01*
X300861Y52989D01*
X302528Y52995D01*
X304188Y54667D01*
X304182Y56333D01*
X304188Y54667D01*
X305860Y53006D01*
X307526Y53012D01*
X309186Y54684D01*
X309174Y58016D01*
X307502Y59677D01*
X299207Y49651D02*
X305871Y49674D01*
X309215Y46354D01*
X305895Y43010D01*
X299230Y42986D01*
X59002Y155983D02*
X59025Y149318D01*
X55681Y152639D02*
X62345Y152662D01*
X54061Y139304D02*
X54038Y145968D01*
X59036Y145986D01*
X57382Y142648D01*
X57388Y140982D01*
X59060Y139321D01*
X62392Y139333D01*
X64052Y141005D01*
X64041Y144337D01*
X62369Y145997D01*
X54073Y135972D02*
X60738Y135995D01*
X64081Y132674D01*
X60761Y129330D01*
X54096Y129307D01*
X54143Y115978D02*
X54155Y112646D01*
X54149Y114312D01*
X64145Y114347D01*
X64140Y116013D01*
X64151Y112681D01*
X64169Y107683D02*
X54172Y107648D01*
X64192Y101018D01*
X54195Y100983D01*
X64204Y97686D02*
X54207Y97651D01*
X54224Y92653D01*
X55896Y90992D01*
X59229Y91004D01*
X60889Y92676D01*
X60871Y97674D01*
X54242Y87654D02*
X62572Y87683D01*
X64244Y86023D01*
X64256Y82691D01*
X62596Y81019D01*
X54265Y80990D01*
X54277Y77657D02*
X54300Y70993D01*
X54288Y74325D01*
X64285Y74360D01*
X64343Y57699D02*
X54346Y57664D01*
X54364Y52666D01*
X56036Y51005D01*
X59368Y51017D01*
X61028Y52689D01*
X61011Y57687D01*
X54399Y42669D02*
X54387Y46001D01*
X56047Y47673D01*
X62712Y47696D01*
X64384Y46036D01*
X64395Y42704D01*
X62735Y41032D01*
X56071Y41009D01*
X54399Y42669D01*
X54416Y37671D02*
X64413Y37706D01*
X61092Y34362D01*
X64436Y31041D01*
X54440Y31006D01*
X54474Y21009D02*
X54451Y27674D01*
X64448Y27709D01*
X64471Y21044D01*
X59450Y27691D02*
X59461Y24359D01*
X64483Y17712D02*
X54486Y17677D01*
X54503Y12679D01*
X56175Y11019D01*
X59508Y11030D01*
X61168Y12702D01*
X61150Y17700D01*
X61162Y14368D02*
X64506Y11048D01*
X172002Y148983D02*
X172025Y142318D01*
X168681Y145639D02*
X175345Y145662D01*
X168704Y138974D02*
X167044Y137302D01*
X167056Y133970D01*
X168728Y132310D01*
X170394Y132316D01*
X172054Y133988D01*
X172048Y135654D01*
X172054Y133988D01*
X173726Y132327D01*
X175392Y132333D01*
X177052Y134005D01*
X177041Y137337D01*
X175369Y138997D01*
X177070Y129007D02*
X175404Y129001D01*
X175410Y127335D01*
X177076Y127340D01*
X177070Y129007D01*
X168768Y120647D02*
X167108Y118975D01*
X167120Y115643D01*
X168792Y113982D01*
X170458Y113988D01*
X172118Y115660D01*
X172112Y117326D01*
X172118Y115660D01*
X173790Y114000D01*
X175456Y114006D01*
X177116Y115678D01*
X177105Y119010D01*
X175433Y120670D01*
X167137Y110644D02*
X173801Y110668D01*
X177145Y107347D01*
X173825Y104003D01*
X167160Y103980D01*
X145002Y178983D02*
X145025Y172318D01*
X141681Y175639D02*
X148345Y175662D01*
X140061Y162304D02*
X140038Y168968D01*
X145036Y168986D01*
X143382Y165648D01*
X143388Y163982D01*
X145060Y162321D01*
X148392Y162333D01*
X150052Y164005D01*
X150041Y167337D01*
X148369Y168997D01*
X140073Y158972D02*
X146738Y158995D01*
X150081Y155674D01*
X146761Y152331D01*
X140096Y152307D01*
X150105Y149010D02*
X143463Y142322D01*
X141809Y138984D02*
X140149Y137312D01*
X140160Y133980D01*
X141832Y132320D01*
X143498Y132325D01*
X145159Y133997D01*
X145153Y135663D01*
X145159Y133997D01*
X146831Y132337D01*
X148497Y132343D01*
X150157Y134015D01*
X150145Y137347D01*
X148474Y139007D01*
X150175Y129016D02*
X148508Y129011D01*
X148514Y127344D01*
X150180Y127350D01*
X150175Y129016D01*
X141873Y120657D02*
X140213Y118985D01*
X140224Y115653D01*
X141896Y113992D01*
X143562Y113998D01*
X145223Y115670D01*
X145217Y117336D01*
X145223Y115670D01*
X146895Y114010D01*
X148561Y114016D01*
X150221Y115687D01*
X150209Y119020D01*
X148537Y120680D01*
X140242Y110654D02*
X146906Y110677D01*
X150250Y107357D01*
X146930Y104013D01*
X140265Y103990D01*
X119002Y132983D02*
X119025Y126318D01*
X115681Y129639D02*
X122346Y129662D01*
X114061Y116304D02*
X114038Y122968D01*
X119037Y122986D01*
X117382Y119648D01*
X117388Y117982D01*
X119060Y116321D01*
X122392Y116333D01*
X124052Y118005D01*
X124041Y121337D01*
X122369Y122997D01*
X114073Y112972D02*
X120738Y112995D01*
X124081Y109674D01*
X120761Y106330D01*
X114096Y106307D01*
X198693Y124306D02*
X197021Y125967D01*
X197009Y129299D01*
X198669Y130971D01*
X205334Y130994D01*
X207006Y129334D01*
X207017Y126002D01*
X205357Y124330D01*
X202025Y124318D01*
X202013Y127650D01*
X207035Y121003D02*
X197038Y120968D01*
X207058Y114339D01*
X197061Y114304D01*
X197073Y110972D02*
X207070Y111007D01*
X207087Y106008D01*
X205427Y104336D01*
X198762Y104313D01*
X197090Y105973D01*
X197073Y110972D01*
M02*
