G04 Layer_Color=32768*
%FSLAX44Y44*%
%MOMM*%
G71*
G01*
G75*
%ADD34C,0.5000*%
%ADD49C,0.2540*%
D34*
X57994Y-304000D02*
X38000D01*
X57994Y-284007D01*
Y-279008D01*
X52995Y-274010D01*
X42998D01*
X38000Y-279008D01*
X67990D02*
X72989Y-274010D01*
X82985D01*
X87984Y-279008D01*
Y-284007D01*
X82985Y-289005D01*
X87984Y-294003D01*
Y-299002D01*
X82985Y-304000D01*
X72989D01*
X67990Y-299002D01*
Y-294003D01*
X72989Y-289005D01*
X67990Y-284007D01*
Y-279008D01*
X72989Y-289005D02*
X82985D01*
X127971Y-304000D02*
Y-274010D01*
X142966D01*
X147964Y-279008D01*
Y-289005D01*
X142966Y-294003D01*
X127971D01*
X157961Y-304000D02*
X167958D01*
X162960D01*
Y-284007D01*
X157961D01*
X182953Y-304000D02*
Y-284007D01*
X197948D01*
X202947Y-289005D01*
Y-304000D01*
X212943D02*
X227938D01*
X232937Y-299002D01*
X227938Y-294003D01*
X217942D01*
X212943Y-289005D01*
X217942Y-284007D01*
X232937D01*
X758000Y-274010D02*
Y-294003D01*
X767997Y-304000D01*
X777994Y-294003D01*
Y-274010D01*
X787990Y-304000D02*
X797987D01*
X792989D01*
Y-274010D01*
X787990Y-279008D01*
X812982Y-274010D02*
X822979D01*
X817981D01*
Y-304000D01*
X812982D01*
X822979D01*
X837974D02*
X847971D01*
X842973D01*
Y-274010D01*
X837974Y-279008D01*
D49*
X-17000Y-254000D02*
X908000D01*
Y-429000D02*
Y-254000D01*
X-17000Y-329000D02*
X908000D01*
X733000D02*
Y-254000D01*
X383000Y-429000D02*
Y-329000D01*
X-17000Y-429000D02*
Y-254000D01*
Y-429000D02*
X908000D01*
X-17000Y-528250D02*
Y-428250D01*
X908000Y-528250D02*
Y-428250D01*
X-17000Y-529000D02*
X908000D01*
X1070618Y821000D02*
Y836235D01*
X1063000Y828618D01*
X1073157D01*
X1078235Y821000D02*
Y823539D01*
X1080774D01*
Y821000D01*
X1078235D01*
X1116323Y833696D02*
X1113784Y836235D01*
X1108705D01*
X1106166Y833696D01*
Y823539D01*
X1108705Y821000D01*
X1113784D01*
X1116323Y823539D01*
X1129019Y836235D02*
X1123940D01*
X1121401Y833696D01*
Y823539D01*
X1123940Y821000D01*
X1129019D01*
X1131558Y823539D01*
Y833696D01*
X1129019Y836235D01*
X1136636Y821000D02*
Y836235D01*
X1141715Y831157D01*
X1146793Y836235D01*
Y821000D01*
X1151871D02*
Y836235D01*
X1159489D01*
X1162028Y833696D01*
Y828618D01*
X1159489Y826078D01*
X1151871D01*
X1174724Y836235D02*
X1169645D01*
X1167106Y833696D01*
Y823539D01*
X1169645Y821000D01*
X1174724D01*
X1177263Y823539D01*
Y833696D01*
X1174724Y836235D01*
X1182341Y821000D02*
Y836235D01*
X1192498Y821000D01*
Y836235D01*
X1207733D02*
X1197577D01*
Y821000D01*
X1207733D01*
X1197577Y828618D02*
X1202655D01*
X1212812Y821000D02*
Y836235D01*
X1222968Y821000D01*
Y836235D01*
X1228047D02*
X1238203D01*
X1233125D01*
Y821000D01*
X1258517Y836235D02*
X1263595D01*
X1261056D01*
Y821000D01*
X1258517D01*
X1263595D01*
X1271213Y836235D02*
Y821000D01*
X1278830D01*
X1281369Y823539D01*
Y833696D01*
X1278830Y836235D01*
X1271213D01*
X1296604D02*
X1286448D01*
Y821000D01*
X1296604D01*
X1286448Y828618D02*
X1291526D01*
X1301683Y821000D02*
Y836235D01*
X1311839Y821000D01*
Y836235D01*
X1316918D02*
X1327075D01*
X1321996D01*
Y821000D01*
X1332153Y831157D02*
X1334692D01*
Y828618D01*
X1332153D01*
Y831157D01*
Y823539D02*
X1334692D01*
Y821000D01*
X1332153D01*
Y823539D01*
X1370241Y833696D02*
X1367702Y836235D01*
X1362623D01*
X1360084Y833696D01*
Y823539D01*
X1362623Y821000D01*
X1367702D01*
X1370241Y823539D01*
X1382937Y836235D02*
X1377858D01*
X1375319Y833696D01*
Y823539D01*
X1377858Y821000D01*
X1382937D01*
X1385476Y823539D01*
Y833696D01*
X1382937Y836235D01*
X1390554D02*
Y821000D01*
X1400711D01*
X1413407Y836235D02*
X1408328D01*
X1405789Y833696D01*
Y823539D01*
X1408328Y821000D01*
X1413407D01*
X1415946Y823539D01*
Y833696D01*
X1413407Y836235D01*
X1421024D02*
Y823539D01*
X1423563Y821000D01*
X1428642D01*
X1431181Y823539D01*
Y836235D01*
X1436259Y821000D02*
Y836235D01*
X1443877D01*
X1446416Y833696D01*
Y828618D01*
X1443877Y826078D01*
X1436259D01*
X1441338D02*
X1446416Y821000D01*
X1466729Y836235D02*
X1476886D01*
X1471808D01*
Y821000D01*
X1489582Y836235D02*
X1484504D01*
X1481965Y833696D01*
Y823539D01*
X1484504Y821000D01*
X1489582D01*
X1492121Y823539D01*
Y833696D01*
X1489582Y836235D01*
X1512435D02*
Y821000D01*
X1520052D01*
X1522591Y823539D01*
Y826078D01*
X1520052Y828618D01*
X1512435D01*
X1520052D01*
X1522591Y831157D01*
Y833696D01*
X1520052Y836235D01*
X1512435D01*
X1537826D02*
X1527670D01*
Y821000D01*
X1537826D01*
X1527670Y828618D02*
X1532748D01*
X1558140Y836235D02*
Y821000D01*
X1563218Y826078D01*
X1568297Y821000D01*
Y836235D01*
X1573375D02*
Y821000D01*
Y828618D01*
X1583532D01*
Y836235D01*
Y821000D01*
X1588610Y836235D02*
X1593688D01*
X1591149D01*
Y821000D01*
X1588610D01*
X1593688D01*
X1601306Y836235D02*
X1611463D01*
X1606384D01*
Y821000D01*
X1626698Y836235D02*
X1616541D01*
Y821000D01*
X1626698D01*
X1616541Y828618D02*
X1621619D01*
X1063000Y883696D02*
X1065539Y886235D01*
X1070618D01*
X1073157Y883696D01*
Y881157D01*
X1070618Y878617D01*
X1068078D01*
X1070618D01*
X1073157Y876078D01*
Y873539D01*
X1070618Y871000D01*
X1065539D01*
X1063000Y873539D01*
X1078235Y871000D02*
Y873539D01*
X1080774D01*
Y871000D01*
X1078235D01*
X1116323Y883696D02*
X1113784Y886235D01*
X1108705D01*
X1106166Y883696D01*
Y881157D01*
X1108705Y878617D01*
X1113784D01*
X1116323Y876078D01*
Y873539D01*
X1113784Y871000D01*
X1108705D01*
X1106166Y873539D01*
X1129019Y886235D02*
X1123940D01*
X1121401Y883696D01*
Y873539D01*
X1123940Y871000D01*
X1129019D01*
X1131558Y873539D01*
Y883696D01*
X1129019Y886235D01*
X1136636D02*
Y871000D01*
X1146793D01*
X1151871Y886235D02*
Y871000D01*
X1159489D01*
X1162028Y873539D01*
Y883696D01*
X1159489Y886235D01*
X1151871D01*
X1177263D02*
X1167106D01*
Y871000D01*
X1177263D01*
X1167106Y878617D02*
X1172185D01*
X1182341Y871000D02*
Y886235D01*
X1189959D01*
X1192498Y883696D01*
Y878617D01*
X1189959Y876078D01*
X1182341D01*
X1187420D02*
X1192498Y871000D01*
X1212812D02*
Y886235D01*
X1220429D01*
X1222968Y883696D01*
Y878617D01*
X1220429Y876078D01*
X1212812D01*
X1217890D02*
X1222968Y871000D01*
X1238203Y886235D02*
X1228047D01*
Y871000D01*
X1238203D01*
X1228047Y878617D02*
X1233125D01*
X1253438Y883696D02*
X1250899Y886235D01*
X1245821D01*
X1243282Y883696D01*
Y881157D01*
X1245821Y878617D01*
X1250899D01*
X1253438Y876078D01*
Y873539D01*
X1250899Y871000D01*
X1245821D01*
X1243282Y873539D01*
X1258517Y886235D02*
X1263595D01*
X1261056D01*
Y871000D01*
X1258517D01*
X1263595D01*
X1281369Y883696D02*
X1278830Y886235D01*
X1273752D01*
X1271213Y883696D01*
Y881157D01*
X1273752Y878617D01*
X1278830D01*
X1281369Y876078D01*
Y873539D01*
X1278830Y871000D01*
X1273752D01*
X1271213Y873539D01*
X1286448Y886235D02*
X1296604D01*
X1291526D01*
Y871000D01*
X1301683Y881157D02*
X1304222D01*
Y878617D01*
X1301683D01*
Y881157D01*
Y873539D02*
X1304222D01*
Y871000D01*
X1301683D01*
Y873539D01*
X1329614Y871000D02*
Y881157D01*
X1334692Y886235D01*
X1339771Y881157D01*
Y871000D01*
Y878617D01*
X1329614D01*
X1344849Y871000D02*
Y886235D01*
X1352466D01*
X1355006Y883696D01*
Y878617D01*
X1352466Y876078D01*
X1344849D01*
X1360084Y871000D02*
Y886235D01*
X1367702D01*
X1370241Y883696D01*
Y878617D01*
X1367702Y876078D01*
X1360084D01*
X1375319Y886235D02*
Y871000D01*
X1385476D01*
X1390554Y886235D02*
Y883696D01*
X1395632Y878617D01*
X1400711Y883696D01*
Y886235D01*
X1395632Y878617D02*
Y871000D01*
X1421024Y886235D02*
X1431181D01*
X1426103D01*
Y871000D01*
X1443877Y886235D02*
X1438799D01*
X1436259Y883696D01*
Y873539D01*
X1438799Y871000D01*
X1443877D01*
X1446416Y873539D01*
Y883696D01*
X1443877Y886235D01*
X1466729D02*
Y871000D01*
X1474347D01*
X1476886Y873539D01*
Y876078D01*
X1474347Y878617D01*
X1466729D01*
X1474347D01*
X1476886Y881157D01*
Y883696D01*
X1474347Y886235D01*
X1466729D01*
X1489582D02*
X1484504D01*
X1481965Y883696D01*
Y873539D01*
X1484504Y871000D01*
X1489582D01*
X1492121Y873539D01*
Y883696D01*
X1489582Y886235D01*
X1497200D02*
X1507356D01*
X1502278D01*
Y871000D01*
X1512435Y886235D02*
Y871000D01*
Y878617D01*
X1522591D01*
Y886235D01*
Y871000D01*
X1553062Y883696D02*
X1550522Y886235D01*
X1545444D01*
X1542905Y883696D01*
Y881157D01*
X1545444Y878617D01*
X1550522D01*
X1553062Y876078D01*
Y873539D01*
X1550522Y871000D01*
X1545444D01*
X1542905Y873539D01*
X1558140Y886235D02*
X1563218D01*
X1560679D01*
Y871000D01*
X1558140D01*
X1563218D01*
X1570836Y886235D02*
Y871000D01*
X1578453D01*
X1580992Y873539D01*
Y883696D01*
X1578453Y886235D01*
X1570836D01*
X1596228D02*
X1586071D01*
Y871000D01*
X1596228D01*
X1586071Y878617D02*
X1591149D01*
X1611463Y883696D02*
X1608923Y886235D01*
X1603845D01*
X1601306Y883696D01*
Y881157D01*
X1603845Y878617D01*
X1608923D01*
X1611463Y876078D01*
Y873539D01*
X1608923Y871000D01*
X1603845D01*
X1601306Y873539D01*
X1641933Y883696D02*
X1639394Y886235D01*
X1634315D01*
X1631776Y883696D01*
Y873539D01*
X1634315Y871000D01*
X1639394D01*
X1641933Y873539D01*
X1654629Y886235D02*
X1649550D01*
X1647011Y883696D01*
Y873539D01*
X1649550Y871000D01*
X1654629D01*
X1657168Y873539D01*
Y883696D01*
X1654629Y886235D01*
X1662246D02*
Y871000D01*
X1672403D01*
X1685099Y886235D02*
X1680020D01*
X1677481Y883696D01*
Y873539D01*
X1680020Y871000D01*
X1685099D01*
X1687638Y873539D01*
Y883696D01*
X1685099Y886235D01*
X1692716D02*
Y873539D01*
X1695255Y871000D01*
X1700334D01*
X1702873Y873539D01*
Y886235D01*
X1707951Y871000D02*
Y886235D01*
X1715569D01*
X1718108Y883696D01*
Y878617D01*
X1715569Y876078D01*
X1707951D01*
X1713030D02*
X1718108Y871000D01*
X1738421Y878617D02*
X1748578D01*
X1768892Y886235D02*
Y871000D01*
X1776509D01*
X1779048Y873539D01*
Y876078D01*
X1776509Y878617D01*
X1768892D01*
X1776509D01*
X1779048Y881157D01*
Y883696D01*
X1776509Y886235D01*
X1768892D01*
X1784127D02*
Y871000D01*
X1794283D01*
X1799362Y886235D02*
Y873539D01*
X1801901Y871000D01*
X1806979D01*
X1809519Y873539D01*
Y886235D01*
X1824754D02*
X1814597D01*
Y871000D01*
X1824754D01*
X1814597Y878617D02*
X1819675D01*
X1073157Y921000D02*
X1063000D01*
X1073157Y931157D01*
Y933696D01*
X1070618Y936235D01*
X1065539D01*
X1063000Y933696D01*
X1078235Y921000D02*
Y923539D01*
X1080774D01*
Y921000D01*
X1078235D01*
X1106166Y936235D02*
Y921000D01*
X1113784D01*
X1116323Y923539D01*
Y926078D01*
X1113784Y928617D01*
X1106166D01*
X1113784D01*
X1116323Y931157D01*
Y933696D01*
X1113784Y936235D01*
X1106166D01*
X1129019D02*
X1123940D01*
X1121401Y933696D01*
Y923539D01*
X1123940Y921000D01*
X1129019D01*
X1131558Y923539D01*
Y933696D01*
X1129019Y936235D01*
X1136636Y921000D02*
Y931157D01*
X1141715Y936235D01*
X1146793Y931157D01*
Y921000D01*
Y928617D01*
X1136636D01*
X1151871Y921000D02*
Y936235D01*
X1159489D01*
X1162028Y933696D01*
Y928617D01*
X1159489Y926078D01*
X1151871D01*
X1156950D02*
X1162028Y921000D01*
X1167106Y936235D02*
Y921000D01*
X1174724D01*
X1177263Y923539D01*
Y933696D01*
X1174724Y936235D01*
X1167106D01*
X1207733D02*
X1197577D01*
Y928617D01*
X1202655D01*
X1197577D01*
Y921000D01*
X1212812Y936235D02*
X1217890D01*
X1215351D01*
Y921000D01*
X1212812D01*
X1217890D01*
X1225508D02*
Y936235D01*
X1235664Y921000D01*
Y936235D01*
X1240742D02*
X1245821D01*
X1243282D01*
Y921000D01*
X1240742D01*
X1245821D01*
X1263595Y933696D02*
X1261056Y936235D01*
X1255978D01*
X1253438Y933696D01*
Y931157D01*
X1255978Y928617D01*
X1261056D01*
X1263595Y926078D01*
Y923539D01*
X1261056Y921000D01*
X1255978D01*
X1253438Y923539D01*
X1268673Y936235D02*
Y921000D01*
Y928617D01*
X1278830D01*
Y936235D01*
Y921000D01*
X1283909Y931157D02*
X1286448D01*
Y928617D01*
X1283909D01*
Y931157D01*
Y923539D02*
X1286448D01*
Y921000D01*
X1283909D01*
Y923539D01*
X1311839Y936235D02*
X1316918D01*
X1314379D01*
Y921000D01*
X1311839D01*
X1316918D01*
X1324535D02*
Y936235D01*
X1329614Y931157D01*
X1334692Y936235D01*
Y921000D01*
X1339771D02*
Y936235D01*
X1344849Y931157D01*
X1349927Y936235D01*
Y921000D01*
X1365162Y936235D02*
X1355005D01*
Y921000D01*
X1365162D01*
X1355005Y928617D02*
X1360084D01*
X1370241Y921000D02*
Y936235D01*
X1377858D01*
X1380397Y933696D01*
Y928617D01*
X1377858Y926078D01*
X1370241D01*
X1375319D02*
X1380397Y921000D01*
X1395632Y933696D02*
X1393093Y936235D01*
X1388015D01*
X1385476Y933696D01*
Y931157D01*
X1388015Y928617D01*
X1393093D01*
X1395632Y926078D01*
Y923539D01*
X1393093Y921000D01*
X1388015D01*
X1385476Y923539D01*
X1400711Y936235D02*
X1405789D01*
X1403250D01*
Y921000D01*
X1400711D01*
X1405789D01*
X1421024Y936235D02*
X1415946D01*
X1413407Y933696D01*
Y923539D01*
X1415946Y921000D01*
X1421024D01*
X1423563Y923539D01*
Y933696D01*
X1421024Y936235D01*
X1428642Y921000D02*
Y936235D01*
X1438798Y921000D01*
Y936235D01*
X1459112Y921000D02*
Y931157D01*
X1464190Y936235D01*
X1469269Y931157D01*
Y921000D01*
Y928617D01*
X1459112D01*
X1474347Y931157D02*
Y923539D01*
X1476886Y921000D01*
X1484504D01*
Y931157D01*
X1489582Y921000D02*
X1499739Y931157D01*
X1514974Y936235D02*
X1504817D01*
Y921000D01*
X1514974D01*
X1504817Y928617D02*
X1509895D01*
X1520052Y936235D02*
Y921000D01*
X1530209D01*
X1545444Y936235D02*
X1535287D01*
Y921000D01*
X1545444D01*
X1535287Y928617D02*
X1540366D01*
X1560679Y933696D02*
X1558140Y936235D01*
X1553062D01*
X1550522Y933696D01*
Y923539D01*
X1553062Y921000D01*
X1558140D01*
X1560679Y923539D01*
X1565757Y936235D02*
X1575914D01*
X1570836D01*
Y921000D01*
X1580992D02*
Y936235D01*
X1588610D01*
X1591149Y933696D01*
Y928617D01*
X1588610Y926078D01*
X1580992D01*
X1586071D02*
X1591149Y921000D01*
X1603845Y936235D02*
X1598767D01*
X1596228Y933696D01*
Y923539D01*
X1598767Y921000D01*
X1603845D01*
X1606384Y923539D01*
Y933696D01*
X1603845Y936235D01*
X1611463D02*
Y921000D01*
X1621619D01*
X1636854Y936235D02*
X1626698D01*
Y921000D01*
X1636854D01*
X1626698Y928617D02*
X1631776D01*
X1652090Y933696D02*
X1649550Y936235D01*
X1644472D01*
X1641933Y933696D01*
Y931157D01*
X1644472Y928617D01*
X1649550D01*
X1652090Y926078D01*
Y923539D01*
X1649550Y921000D01*
X1644472D01*
X1641933Y923539D01*
X1667325Y933696D02*
X1664785Y936235D01*
X1659707D01*
X1657168Y933696D01*
Y931157D01*
X1659707Y928617D01*
X1664785D01*
X1667325Y926078D01*
Y923539D01*
X1664785Y921000D01*
X1659707D01*
X1657168Y923539D01*
X1687638Y921000D02*
Y936235D01*
X1697795Y921000D01*
Y936235D01*
X1702873Y921000D02*
X1707951D01*
X1705412D01*
Y931157D01*
X1702873D01*
X1715569Y928617D02*
Y931157D01*
X1718108D01*
Y928617D01*
X1715569D01*
Y923539D02*
X1718108D01*
Y921000D01*
X1715569Y918461D01*
X1718108Y921000D02*
X1715569D01*
Y923539D01*
X1743500Y933696D02*
X1746039Y936235D01*
X1751117D01*
X1753657Y933696D01*
Y923539D01*
X1751117Y921000D01*
X1746039D01*
X1743500Y923539D01*
Y933696D01*
X1758735Y921000D02*
Y923539D01*
X1761274D01*
Y921000D01*
X1758735D01*
X1771431Y933696D02*
X1773970Y936235D01*
X1779048D01*
X1781588Y933696D01*
Y923539D01*
X1779048Y921000D01*
X1773970D01*
X1771431Y923539D01*
Y933696D01*
X1796823Y936235D02*
X1786666D01*
Y928617D01*
X1791744Y931157D01*
X1794283D01*
X1796823Y928617D01*
Y923539D01*
X1794283Y921000D01*
X1789205D01*
X1786666Y923539D01*
X1801901Y928617D02*
X1812058D01*
X1817136Y933696D02*
X1819675Y936235D01*
X1824754D01*
X1827293Y933696D01*
Y923539D01*
X1824754Y921000D01*
X1819675D01*
X1817136Y923539D01*
Y933696D01*
X1832371Y921000D02*
Y923539D01*
X1834910D01*
Y921000D01*
X1832371D01*
X1845067D02*
X1850145D01*
X1847606D01*
Y936235D01*
X1845067Y933696D01*
X1867920Y921000D02*
X1857763D01*
X1867920Y931157D01*
Y933696D01*
X1865380Y936235D01*
X1860302D01*
X1857763Y933696D01*
X1888233Y931157D02*
Y923539D01*
X1890772Y921000D01*
X1898390D01*
Y931157D01*
X1903468Y921000D02*
Y931157D01*
X1906007D01*
X1908546Y928617D01*
Y921000D01*
Y928617D01*
X1911086Y931157D01*
X1913625Y928617D01*
Y921000D01*
X1944095Y933696D02*
X1941556Y936235D01*
X1936477D01*
X1933938Y933696D01*
Y923539D01*
X1936477Y921000D01*
X1941556D01*
X1944095Y923539D01*
Y928617D01*
X1939017D01*
X1956791Y936235D02*
X1951712D01*
X1949173Y933696D01*
Y923539D01*
X1951712Y921000D01*
X1956791D01*
X1959330Y923539D01*
Y933696D01*
X1956791Y936235D01*
X1964408D02*
Y921000D01*
X1974565D01*
X1979644Y936235D02*
Y921000D01*
X1987261D01*
X1989800Y923539D01*
Y933696D01*
X1987261Y936235D01*
X1979644D01*
X1994879Y928617D02*
Y931157D01*
X1997418D01*
Y928617D01*
X1994879D01*
Y923539D02*
X1997418D01*
Y921000D01*
X1994879Y918461D01*
X1997418Y921000D02*
X1994879D01*
Y923539D01*
X2022809Y933696D02*
X2025349Y936235D01*
X2030427D01*
X2032966Y933696D01*
Y931157D01*
X2030427Y928617D01*
X2027888D01*
X2030427D01*
X2032966Y926078D01*
Y923539D01*
X2030427Y921000D01*
X2025349D01*
X2022809Y923539D01*
X2038045Y928617D02*
X2048201D01*
X2063436Y936235D02*
X2058358Y933696D01*
X2053280Y928617D01*
Y923539D01*
X2055819Y921000D01*
X2060897D01*
X2063436Y923539D01*
Y926078D01*
X2060897Y928617D01*
X2053280D01*
X2068515Y931157D02*
Y923539D01*
X2071054Y921000D01*
X2078671D01*
Y931157D01*
X2083750Y921000D02*
Y931157D01*
X2086289D01*
X2088828Y928617D01*
Y921000D01*
Y928617D01*
X2091367Y931157D01*
X2093907Y928617D01*
Y921000D01*
X2114220D02*
Y936235D01*
X2124377Y921000D01*
Y936235D01*
X2129455D02*
X2134533D01*
X2131994D01*
Y921000D01*
X2129455D01*
X2134533D01*
X2152308Y933696D02*
X2149768Y936235D01*
X2144690D01*
X2142151Y933696D01*
Y923539D01*
X2144690Y921000D01*
X2149768D01*
X2152308Y923539D01*
X2157386Y936235D02*
Y921000D01*
Y926078D01*
X2167543Y936235D01*
X2159925Y928617D01*
X2167543Y921000D01*
X2182778Y936235D02*
X2172621D01*
Y921000D01*
X2182778D01*
X2172621Y928617D02*
X2177699D01*
X2187856Y936235D02*
Y921000D01*
X2198013D01*
X1063000Y971000D02*
X1068078D01*
X1065539D01*
Y986235D01*
X1063000Y983696D01*
X1075696Y971000D02*
Y973539D01*
X1078235D01*
Y971000D01*
X1075696D01*
X1113784Y986235D02*
X1103627D01*
Y978618D01*
X1108705D01*
X1103627D01*
Y971000D01*
X1118862Y986235D02*
X1123940D01*
X1121401D01*
Y971000D01*
X1118862D01*
X1123940D01*
X1131558D02*
Y986235D01*
X1141715Y971000D01*
Y986235D01*
X1146793D02*
X1151871D01*
X1149332D01*
Y971000D01*
X1146793D01*
X1151871D01*
X1169645Y983696D02*
X1167106Y986235D01*
X1162028D01*
X1159489Y983696D01*
Y981157D01*
X1162028Y978618D01*
X1167106D01*
X1169645Y976078D01*
Y973539D01*
X1167106Y971000D01*
X1162028D01*
X1159489Y973539D01*
X1174724Y986235D02*
Y971000D01*
Y978618D01*
X1184881D01*
Y986235D01*
Y971000D01*
X1200116Y986235D02*
X1189959D01*
Y971000D01*
X1200116D01*
X1189959Y978618D02*
X1195037D01*
X1205194Y986235D02*
Y971000D01*
X1212812D01*
X1215351Y973539D01*
Y983696D01*
X1212812Y986235D01*
X1205194D01*
X1235664Y971000D02*
Y986235D01*
X1243282D01*
X1245821Y983696D01*
Y978618D01*
X1243282Y976078D01*
X1235664D01*
X1250899Y971000D02*
Y981157D01*
X1255978Y986235D01*
X1261056Y981157D01*
Y971000D01*
Y978618D01*
X1250899D01*
X1266134Y971000D02*
Y986235D01*
X1276291Y971000D01*
Y986235D01*
X1291526D02*
X1281369D01*
Y971000D01*
X1291526D01*
X1281369Y978618D02*
X1286448D01*
X1296604Y986235D02*
Y971000D01*
X1306761D01*
X1327075Y986235D02*
X1337231D01*
X1332153D01*
Y971000D01*
X1342310Y986235D02*
Y971000D01*
Y978618D01*
X1352466D01*
Y986235D01*
Y971000D01*
X1357545Y986235D02*
X1362623D01*
X1360084D01*
Y971000D01*
X1357545D01*
X1362623D01*
X1380397Y983696D02*
X1377858Y986235D01*
X1372780D01*
X1370241Y983696D01*
Y973539D01*
X1372780Y971000D01*
X1377858D01*
X1380397Y973539D01*
X1385476Y986235D02*
Y971000D01*
Y976078D01*
X1395632Y986235D01*
X1388015Y978618D01*
X1395632Y971000D01*
X1400711D02*
Y986235D01*
X1410867Y971000D01*
Y986235D01*
X1426103D02*
X1415946D01*
Y971000D01*
X1426103D01*
X1415946Y978618D02*
X1421024D01*
X1441338Y983696D02*
X1438798Y986235D01*
X1433720D01*
X1431181Y983696D01*
Y981157D01*
X1433720Y978618D01*
X1438798D01*
X1441338Y976078D01*
Y973539D01*
X1438798Y971000D01*
X1433720D01*
X1431181Y973539D01*
X1456573Y983696D02*
X1454034Y986235D01*
X1448955D01*
X1446416Y983696D01*
Y981157D01*
X1448955Y978618D01*
X1454034D01*
X1456573Y976078D01*
Y973539D01*
X1454034Y971000D01*
X1448955D01*
X1446416Y973539D01*
X1476886Y986235D02*
X1481965D01*
X1479425D01*
Y971000D01*
X1476886D01*
X1481965D01*
X1499739Y983696D02*
X1497200Y986235D01*
X1492121D01*
X1489582Y983696D01*
Y981157D01*
X1492121Y978618D01*
X1497200D01*
X1499739Y976078D01*
Y973539D01*
X1497200Y971000D01*
X1492121D01*
X1489582Y973539D01*
X1520052Y971000D02*
Y986235D01*
X1530209Y971000D01*
Y986235D01*
X1542905D02*
X1537826D01*
X1535287Y983696D01*
Y973539D01*
X1537826Y971000D01*
X1542905D01*
X1545444Y973539D01*
Y983696D01*
X1542905Y986235D01*
X1550522D02*
X1560679D01*
X1555601D01*
Y971000D01*
X1591149Y983696D02*
X1588610Y986235D01*
X1583532D01*
X1580992Y983696D01*
Y973539D01*
X1583532Y971000D01*
X1588610D01*
X1591149Y973539D01*
X1596228Y971000D02*
Y986235D01*
X1603845D01*
X1606384Y983696D01*
Y978618D01*
X1603845Y976078D01*
X1596228D01*
X1601306D02*
X1606384Y971000D01*
X1611463Y986235D02*
X1616541D01*
X1614002D01*
Y971000D01*
X1611463D01*
X1616541D01*
X1624158Y986235D02*
X1634315D01*
X1629237D01*
Y971000D01*
X1639393Y986235D02*
X1644472D01*
X1641933D01*
Y971000D01*
X1639393D01*
X1644472D01*
X1662246Y983696D02*
X1659707Y986235D01*
X1654629D01*
X1652089Y983696D01*
Y973539D01*
X1654629Y971000D01*
X1659707D01*
X1662246Y973539D01*
X1667325Y971000D02*
Y981157D01*
X1672403Y986235D01*
X1677481Y981157D01*
Y971000D01*
Y978618D01*
X1667325D01*
X1682560Y986235D02*
Y971000D01*
X1692716D01*
X1697795Y981157D02*
X1700334D01*
Y978618D01*
X1697795D01*
Y981157D01*
Y973539D02*
X1700334D01*
Y971000D01*
X1697795D01*
Y973539D01*
X1725726Y986235D02*
X1735882D01*
X1730804D01*
Y971000D01*
X1748578Y986235D02*
X1743500D01*
X1740961Y983696D01*
Y973539D01*
X1743500Y971000D01*
X1748578D01*
X1751117Y973539D01*
Y983696D01*
X1748578Y986235D01*
X1771431D02*
Y971000D01*
X1779048D01*
X1781588Y973539D01*
Y976078D01*
X1779048Y978618D01*
X1771431D01*
X1779048D01*
X1781588Y981157D01*
Y983696D01*
X1779048Y986235D01*
X1771431D01*
X1796823D02*
X1786666D01*
Y971000D01*
X1796823D01*
X1786666Y978618D02*
X1791744D01*
X1817136Y971000D02*
Y981157D01*
X1822214Y986235D01*
X1827293Y981157D01*
Y971000D01*
Y978618D01*
X1817136D01*
X1832371Y971000D02*
Y986235D01*
X1839989D01*
X1842528Y983696D01*
Y978618D01*
X1839989Y976078D01*
X1832371D01*
X1847606Y971000D02*
Y986235D01*
X1855224D01*
X1857763Y983696D01*
Y978618D01*
X1855224Y976078D01*
X1847606D01*
X1862841Y971000D02*
Y986235D01*
X1870459D01*
X1872998Y983696D01*
Y978618D01*
X1870459Y976078D01*
X1862841D01*
X1867920D02*
X1872998Y971000D01*
X1885694Y986235D02*
X1880616D01*
X1878076Y983696D01*
Y973539D01*
X1880616Y971000D01*
X1885694D01*
X1888233Y973539D01*
Y983696D01*
X1885694Y986235D01*
X1893311D02*
X1903468Y971000D01*
Y986235D02*
X1893311Y971000D01*
X1908546Y986235D02*
X1913625D01*
X1911086D01*
Y971000D01*
X1908546D01*
X1913625D01*
X1921242D02*
Y986235D01*
X1926321Y981157D01*
X1931399Y986235D01*
Y971000D01*
X1936477D02*
Y981157D01*
X1941556Y986235D01*
X1946634Y981157D01*
Y971000D01*
Y978618D01*
X1936477D01*
X1951712Y986235D02*
X1961869D01*
X1956791D01*
Y971000D01*
X1977104Y986235D02*
X1966948D01*
Y971000D01*
X1977104D01*
X1966948Y978618D02*
X1972026D01*
X1982183Y986235D02*
Y971000D01*
X1992339D01*
X1997418Y986235D02*
Y983696D01*
X2002496Y978618D01*
X2007574Y983696D01*
Y986235D01*
X2002496Y978618D02*
Y971000D01*
X2027888D02*
X2032966D01*
X2030427D01*
Y986235D01*
X2027888Y983696D01*
X2040584Y971000D02*
Y973539D01*
X2043123D01*
Y971000D01*
X2040584D01*
X2063436Y986235D02*
X2058358Y983696D01*
X2053280Y978618D01*
Y973539D01*
X2055819Y971000D01*
X2060897D01*
X2063436Y973539D01*
Y976078D01*
X2060897Y978618D01*
X2053280D01*
X2068515Y971000D02*
Y981157D01*
X2071054D01*
X2073593Y978618D01*
Y971000D01*
Y978618D01*
X2076132Y981157D01*
X2078671Y978618D01*
Y971000D01*
X2083750D02*
Y981157D01*
X2086289D01*
X2088828Y978618D01*
Y971000D01*
Y978618D01*
X2091367Y981157D01*
X2093907Y978618D01*
Y971000D01*
X1063000Y1021000D02*
Y1036235D01*
X1068078Y1031157D01*
X1073157Y1036235D01*
Y1021000D01*
X1078235D02*
X1083314D01*
X1080774D01*
Y1031157D01*
X1078235D01*
X1090931Y1021000D02*
Y1031157D01*
X1098549D01*
X1101088Y1028618D01*
Y1021000D01*
X1106166D02*
X1111244D01*
X1108705D01*
Y1031157D01*
X1106166D01*
X1118862Y1021000D02*
Y1031157D01*
X1121401D01*
X1123940Y1028618D01*
Y1021000D01*
Y1028618D01*
X1126479Y1031157D01*
X1129019Y1028618D01*
Y1021000D01*
X1134097Y1031157D02*
Y1023539D01*
X1136636Y1021000D01*
X1144254D01*
Y1031157D01*
X1149332Y1021000D02*
Y1031157D01*
X1151871D01*
X1154410Y1028618D01*
Y1021000D01*
Y1028618D01*
X1156950Y1031157D01*
X1159489Y1028618D01*
Y1021000D01*
X1179802Y1036235D02*
X1189959D01*
X1184881D01*
Y1021000D01*
X1195037Y1036235D02*
Y1021000D01*
Y1028618D01*
X1197577Y1031157D01*
X1202655D01*
X1205194Y1028618D01*
Y1021000D01*
X1210272Y1031157D02*
Y1021000D01*
Y1026078D01*
X1212812Y1028618D01*
X1215351Y1031157D01*
X1217890D01*
X1228047Y1021000D02*
X1233125D01*
X1235664Y1023539D01*
Y1028618D01*
X1233125Y1031157D01*
X1228047D01*
X1225508Y1028618D01*
Y1023539D01*
X1228047Y1021000D01*
X1240742Y1031157D02*
Y1023539D01*
X1243282Y1021000D01*
X1250899D01*
Y1031157D01*
X1261056Y1015922D02*
X1263595D01*
X1266134Y1018461D01*
Y1031157D01*
X1258517D01*
X1255978Y1028618D01*
Y1023539D01*
X1258517Y1021000D01*
X1266134D01*
X1271213Y1036235D02*
Y1021000D01*
Y1028618D01*
X1273752Y1031157D01*
X1278830D01*
X1281369Y1028618D01*
Y1021000D01*
X1301683Y1036235D02*
Y1021000D01*
Y1028618D01*
X1311839D01*
Y1036235D01*
Y1021000D01*
X1319457D02*
X1324535D01*
X1327075Y1023539D01*
Y1028618D01*
X1324535Y1031157D01*
X1319457D01*
X1316918Y1028618D01*
Y1023539D01*
X1319457Y1021000D01*
X1332153D02*
X1337231D01*
X1334692D01*
Y1036235D01*
X1332153D01*
X1352466Y1021000D02*
X1347388D01*
X1344849Y1023539D01*
Y1028618D01*
X1347388Y1031157D01*
X1352466D01*
X1355006Y1028618D01*
Y1026078D01*
X1344849D01*
X1375319Y1036235D02*
Y1026078D01*
X1380397Y1021000D01*
X1385476Y1026078D01*
Y1036235D01*
X1390554D02*
X1395632D01*
X1393093D01*
Y1021000D01*
X1390554D01*
X1395632D01*
X1403250D02*
Y1031157D01*
X1408328Y1036235D01*
X1413407Y1031157D01*
Y1021000D01*
Y1028618D01*
X1403250D01*
X1418485Y1031157D02*
X1421024D01*
Y1028618D01*
X1418485D01*
Y1031157D01*
Y1023539D02*
X1421024D01*
Y1021000D01*
X1418485D01*
Y1023539D01*
X1446416Y1033696D02*
X1448955Y1036235D01*
X1454034D01*
X1456573Y1033696D01*
Y1023539D01*
X1454034Y1021000D01*
X1448955D01*
X1446416Y1023539D01*
Y1033696D01*
X1461651Y1021000D02*
Y1023539D01*
X1464190D01*
Y1021000D01*
X1461651D01*
X1484504Y1036235D02*
X1479425Y1033696D01*
X1474347Y1028618D01*
Y1023539D01*
X1476886Y1021000D01*
X1481965D01*
X1484504Y1023539D01*
Y1026078D01*
X1481965Y1028618D01*
X1474347D01*
X1489582Y1021000D02*
Y1031157D01*
X1492121D01*
X1494660Y1028618D01*
Y1021000D01*
Y1028618D01*
X1497200Y1031157D01*
X1499739Y1028618D01*
Y1021000D01*
X1504817D02*
Y1031157D01*
X1507356D01*
X1509895Y1028618D01*
Y1021000D01*
Y1028618D01*
X1512435Y1031157D01*
X1514974Y1028618D01*
Y1021000D01*
X1540366D02*
X1535287Y1026078D01*
Y1031157D01*
X1540366Y1036235D01*
X1547983Y1015922D02*
Y1031157D01*
X1555601D01*
X1558140Y1028618D01*
Y1023539D01*
X1555601Y1021000D01*
X1547983D01*
X1565757Y1031157D02*
X1570836D01*
X1573375Y1028618D01*
Y1021000D01*
X1565757D01*
X1563218Y1023539D01*
X1565757Y1026078D01*
X1573375D01*
X1588610Y1036235D02*
Y1021000D01*
X1580992D01*
X1578453Y1023539D01*
Y1028618D01*
X1580992Y1031157D01*
X1588610D01*
X1593688Y1021000D02*
X1598767Y1026078D01*
Y1031157D01*
X1593688Y1036235D01*
X1621619Y1021000D02*
X1631776Y1031157D01*
X1652089Y1033696D02*
X1654629Y1036235D01*
X1659707D01*
X1662246Y1033696D01*
Y1023539D01*
X1659707Y1021000D01*
X1654629D01*
X1652089Y1023539D01*
Y1033696D01*
X1667325Y1021000D02*
Y1023539D01*
X1669864D01*
Y1021000D01*
X1667325D01*
X1680020Y1033696D02*
X1682560Y1036235D01*
X1687638D01*
X1690177Y1033696D01*
Y1031157D01*
X1687638Y1028618D01*
X1685099D01*
X1687638D01*
X1690177Y1026078D01*
Y1023539D01*
X1687638Y1021000D01*
X1682560D01*
X1680020Y1023539D01*
X1695255Y1021000D02*
Y1031157D01*
X1697795D01*
X1700334Y1028618D01*
Y1021000D01*
Y1028618D01*
X1702873Y1031157D01*
X1705412Y1028618D01*
Y1021000D01*
X1710491D02*
Y1031157D01*
X1713030D01*
X1715569Y1028618D01*
Y1021000D01*
Y1028618D01*
X1718108Y1031157D01*
X1720647Y1028618D01*
Y1021000D01*
X1746039D02*
X1740961Y1026078D01*
Y1031157D01*
X1746039Y1036235D01*
X1763813D02*
Y1021000D01*
X1756196D01*
X1753657Y1023539D01*
Y1028618D01*
X1756196Y1031157D01*
X1763813D01*
X1768892D02*
Y1021000D01*
Y1026078D01*
X1771431Y1028618D01*
X1773970Y1031157D01*
X1776509D01*
X1784127Y1021000D02*
X1789205D01*
X1786666D01*
Y1031157D01*
X1784127D01*
X1796823Y1021000D02*
X1801901D01*
X1799362D01*
Y1036235D01*
X1796823D01*
X1809518Y1021000D02*
X1814597D01*
X1812058D01*
Y1036235D01*
X1809518D01*
X1822214Y1021000D02*
X1827293Y1026078D01*
Y1031157D01*
X1822214Y1036235D01*
X1834910Y1021000D02*
Y1023539D01*
X1837449D01*
Y1021000D01*
X1834910D01*
X1862841Y1036235D02*
Y1021000D01*
X1870459D01*
X1872998Y1023539D01*
Y1033696D01*
X1870459Y1036235D01*
X1862841D01*
X1878076Y1031157D02*
Y1021000D01*
Y1026078D01*
X1880616Y1028618D01*
X1883155Y1031157D01*
X1885694D01*
X1893311Y1021000D02*
X1898390D01*
X1895851D01*
Y1031157D01*
X1893311D01*
X1906007Y1021000D02*
X1911086D01*
X1908546D01*
Y1036235D01*
X1906007D01*
X1918703Y1021000D02*
X1923781D01*
X1921242D01*
Y1036235D01*
X1918703D01*
X1931399Y1021000D02*
X1936477D01*
X1933938D01*
Y1031157D01*
X1931399D01*
X1944095Y1021000D02*
Y1031157D01*
X1951712D01*
X1954252Y1028618D01*
Y1021000D01*
X1964408Y1015922D02*
X1966947D01*
X1969487Y1018461D01*
Y1031157D01*
X1961869D01*
X1959330Y1028618D01*
Y1023539D01*
X1961869Y1021000D01*
X1969487D01*
X1974565Y1031157D02*
X1977104D01*
Y1028618D01*
X1974565D01*
Y1031157D01*
Y1023539D02*
X1977104D01*
Y1021000D01*
X1974565D01*
Y1023539D01*
X2002496Y1036235D02*
Y1021000D01*
X2012653D01*
X2017731D02*
X2022809D01*
X2020270D01*
Y1036235D01*
X2017731Y1033696D01*
X2030427Y1028618D02*
X2040584D01*
X2045662Y1036235D02*
Y1021000D01*
X2055819D01*
X2071054D02*
X2060897D01*
X2071054Y1031157D01*
Y1033696D01*
X2068515Y1036235D01*
X2063436D01*
X2060897Y1033696D01*
X1063000Y1046000D02*
Y1061235D01*
X1068078Y1056157D01*
X1073157Y1061235D01*
Y1046000D01*
X1078235D02*
X1083314D01*
X1080774D01*
Y1056157D01*
X1078235D01*
X1090931Y1046000D02*
Y1056157D01*
X1098549D01*
X1101088Y1053618D01*
Y1046000D01*
X1106166D02*
X1111244D01*
X1108705D01*
Y1056157D01*
X1106166D01*
X1118862Y1046000D02*
Y1056157D01*
X1121401D01*
X1123940Y1053618D01*
Y1046000D01*
Y1053618D01*
X1126479Y1056157D01*
X1129019Y1053618D01*
Y1046000D01*
X1134097Y1056157D02*
Y1048539D01*
X1136636Y1046000D01*
X1144254D01*
Y1056157D01*
X1149332Y1046000D02*
Y1056157D01*
X1151871D01*
X1154410Y1053618D01*
Y1046000D01*
Y1053618D01*
X1156950Y1056157D01*
X1159489Y1053618D01*
Y1046000D01*
X1189959Y1058696D02*
X1187420Y1061235D01*
X1182341D01*
X1179802Y1058696D01*
Y1048539D01*
X1182341Y1046000D01*
X1187420D01*
X1189959Y1048539D01*
Y1053618D01*
X1184881D01*
X1197577Y1056157D02*
X1202655D01*
X1205194Y1053618D01*
Y1046000D01*
X1197577D01*
X1195037Y1048539D01*
X1197577Y1051078D01*
X1205194D01*
X1210272Y1040922D02*
Y1056157D01*
X1217890D01*
X1220429Y1053618D01*
Y1048539D01*
X1217890Y1046000D01*
X1210272D01*
X1225508Y1056157D02*
X1228047D01*
Y1053618D01*
X1225508D01*
Y1056157D01*
Y1048539D02*
X1228047D01*
Y1046000D01*
X1225508D01*
Y1048539D01*
X1263595Y1046000D02*
X1253438D01*
X1263595Y1056157D01*
Y1058696D01*
X1261056Y1061235D01*
X1255978D01*
X1253438Y1058696D01*
X1268673D02*
X1271213Y1061235D01*
X1276291D01*
X1278830Y1058696D01*
Y1048539D01*
X1276291Y1046000D01*
X1271213D01*
X1268673Y1048539D01*
Y1058696D01*
X1283909D02*
X1286448Y1061235D01*
X1291526D01*
X1294065Y1058696D01*
Y1048539D01*
X1291526Y1046000D01*
X1286448D01*
X1283909Y1048539D01*
Y1058696D01*
X1299144Y1056157D02*
Y1048539D01*
X1301683Y1046000D01*
X1309300D01*
Y1056157D01*
X1314379Y1046000D02*
Y1056157D01*
X1316918D01*
X1319457Y1053618D01*
Y1046000D01*
Y1053618D01*
X1321996Y1056157D01*
X1324535Y1053618D01*
Y1046000D01*
X1063000Y1071000D02*
Y1086235D01*
X1068078Y1081157D01*
X1073157Y1086235D01*
Y1071000D01*
X1078235D02*
X1083314D01*
X1080774D01*
Y1081157D01*
X1078235D01*
X1090931Y1071000D02*
Y1081157D01*
X1098549D01*
X1101088Y1078618D01*
Y1071000D01*
X1106166D02*
X1111244D01*
X1108705D01*
Y1081157D01*
X1106166D01*
X1118862Y1071000D02*
Y1081157D01*
X1121401D01*
X1123940Y1078618D01*
Y1071000D01*
Y1078618D01*
X1126479Y1081157D01*
X1129019Y1078618D01*
Y1071000D01*
X1134097Y1081157D02*
Y1073539D01*
X1136636Y1071000D01*
X1144254D01*
Y1081157D01*
X1149332Y1071000D02*
Y1081157D01*
X1151871D01*
X1154410Y1078618D01*
Y1071000D01*
Y1078618D01*
X1156950Y1081157D01*
X1159489Y1078618D01*
Y1071000D01*
X1179802Y1086235D02*
X1189959D01*
X1184881D01*
Y1071000D01*
X1195037Y1081157D02*
Y1071000D01*
Y1076078D01*
X1197577Y1078618D01*
X1200116Y1081157D01*
X1202655D01*
X1212812D02*
X1217890D01*
X1220429Y1078618D01*
Y1071000D01*
X1212812D01*
X1210272Y1073539D01*
X1212812Y1076078D01*
X1220429D01*
X1235664Y1081157D02*
X1228047D01*
X1225508Y1078618D01*
Y1073539D01*
X1228047Y1071000D01*
X1235664D01*
X1240742D02*
Y1086235D01*
Y1076078D02*
X1248360Y1081157D01*
X1240742Y1076078D02*
X1248360Y1071000D01*
X1255978Y1081157D02*
X1258517D01*
Y1078618D01*
X1255978D01*
Y1081157D01*
Y1073539D02*
X1258517D01*
Y1071000D01*
X1255978D01*
Y1073539D01*
X1294065Y1071000D02*
X1283909D01*
X1294065Y1081157D01*
Y1083696D01*
X1291526Y1086235D01*
X1286448D01*
X1283909Y1083696D01*
X1299144D02*
X1301683Y1086235D01*
X1306761D01*
X1309300Y1083696D01*
Y1073539D01*
X1306761Y1071000D01*
X1301683D01*
X1299144Y1073539D01*
Y1083696D01*
X1314379D02*
X1316918Y1086235D01*
X1321996D01*
X1324535Y1083696D01*
Y1073539D01*
X1321996Y1071000D01*
X1316918D01*
X1314379Y1073539D01*
Y1083696D01*
X1329614Y1081157D02*
Y1073539D01*
X1332153Y1071000D01*
X1339771D01*
Y1081157D01*
X1344849Y1071000D02*
Y1081157D01*
X1347388D01*
X1349927Y1078618D01*
Y1071000D01*
Y1078618D01*
X1352466Y1081157D01*
X1355006Y1078618D01*
Y1071000D01*
X1063000Y1111235D02*
Y1096000D01*
X1070618D01*
X1073157Y1098539D01*
Y1101078D01*
X1070618Y1103618D01*
X1063000D01*
X1070618D01*
X1073157Y1106157D01*
Y1108696D01*
X1070618Y1111235D01*
X1063000D01*
X1080774Y1096000D02*
X1085853D01*
X1088392Y1098539D01*
Y1103618D01*
X1085853Y1106157D01*
X1080774D01*
X1078235Y1103618D01*
Y1098539D01*
X1080774Y1096000D01*
X1096009Y1106157D02*
X1101088D01*
X1103627Y1103618D01*
Y1096000D01*
X1096009D01*
X1093470Y1098539D01*
X1096009Y1101078D01*
X1103627D01*
X1108705Y1106157D02*
Y1096000D01*
Y1101078D01*
X1111244Y1103618D01*
X1113784Y1106157D01*
X1116323D01*
X1134097Y1111235D02*
Y1096000D01*
X1126479D01*
X1123940Y1098539D01*
Y1103618D01*
X1126479Y1106157D01*
X1134097D01*
X1154410Y1096000D02*
X1159489D01*
X1156950D01*
Y1106157D01*
X1154410D01*
X1167106Y1096000D02*
Y1106157D01*
X1174724D01*
X1177263Y1103618D01*
Y1096000D01*
X1184881D02*
Y1108696D01*
Y1103618D01*
X1182341D01*
X1187420D01*
X1184881D01*
Y1108696D01*
X1187420Y1111235D01*
X1197577Y1096000D02*
X1202655D01*
X1205194Y1098539D01*
Y1103618D01*
X1202655Y1106157D01*
X1197577D01*
X1195037Y1103618D01*
Y1098539D01*
X1197577Y1096000D01*
X1073157Y786235D02*
X1063000D01*
Y778618D01*
X1068078Y781157D01*
X1070618D01*
X1073157Y778618D01*
Y773539D01*
X1070618Y771000D01*
X1065539D01*
X1063000Y773539D01*
X1078235Y771000D02*
Y773539D01*
X1080774D01*
Y771000D01*
X1078235D01*
X1106166D02*
Y786235D01*
X1113784D01*
X1116323Y783696D01*
Y778618D01*
X1113784Y776078D01*
X1106166D01*
X1121401Y771000D02*
Y781157D01*
X1126479Y786235D01*
X1131558Y781157D01*
Y771000D01*
Y778618D01*
X1121401D01*
X1136636Y771000D02*
Y786235D01*
X1146793Y771000D01*
Y786235D01*
X1162028D02*
X1151871D01*
Y771000D01*
X1162028D01*
X1151871Y778618D02*
X1156950D01*
X1167106Y786235D02*
Y771000D01*
X1177263D01*
X1182341Y786235D02*
X1187420D01*
X1184881D01*
Y771000D01*
X1182341D01*
X1187420D01*
X1195037Y786235D02*
X1205194D01*
Y783696D01*
X1195037Y773539D01*
Y771000D01*
X1205194D01*
X1220429Y786235D02*
X1210272D01*
Y771000D01*
X1220429D01*
X1210272Y778618D02*
X1215351D01*
X1240742Y786235D02*
X1250899D01*
X1245821D01*
Y771000D01*
X1255978Y786235D02*
Y771000D01*
Y778618D01*
X1266134D01*
Y786235D01*
Y771000D01*
X1281369Y786235D02*
X1271213D01*
Y771000D01*
X1281369D01*
X1271213Y778618D02*
X1276291D01*
X1301683Y786235D02*
Y771000D01*
X1309300D01*
X1311839Y773539D01*
Y776078D01*
X1309300Y778618D01*
X1301683D01*
X1309300D01*
X1311839Y781157D01*
Y783696D01*
X1309300Y786235D01*
X1301683D01*
X1324535D02*
X1319457D01*
X1316918Y783696D01*
Y773539D01*
X1319457Y771000D01*
X1324535D01*
X1327075Y773539D01*
Y783696D01*
X1324535Y786235D01*
X1332153Y771000D02*
Y781157D01*
X1337231Y786235D01*
X1342310Y781157D01*
Y771000D01*
Y778618D01*
X1332153D01*
X1347388Y771000D02*
Y786235D01*
X1355006D01*
X1357545Y783696D01*
Y778618D01*
X1355006Y776078D01*
X1347388D01*
X1352466D02*
X1357545Y771000D01*
X1362623Y786235D02*
Y771000D01*
X1370241D01*
X1372780Y773539D01*
Y783696D01*
X1370241Y786235D01*
X1362623D01*
X1398172Y771000D02*
X1393093Y776078D01*
Y781157D01*
X1398172Y786235D01*
X1413407Y771000D02*
Y786235D01*
X1405789Y778618D01*
X1415946D01*
X1421024Y771000D02*
Y786235D01*
X1428642D01*
X1431181Y783696D01*
Y778618D01*
X1428642Y776078D01*
X1421024D01*
X1446416Y783696D02*
X1443877Y786235D01*
X1438799D01*
X1436259Y783696D01*
Y773539D01*
X1438799Y771000D01*
X1443877D01*
X1446416Y773539D01*
X1461651Y783696D02*
X1459112Y786235D01*
X1454034D01*
X1451494Y783696D01*
Y781157D01*
X1454034Y778618D01*
X1459112D01*
X1461651Y776078D01*
Y773539D01*
X1459112Y771000D01*
X1454034D01*
X1451494Y773539D01*
X1481965Y771000D02*
Y786235D01*
X1489582D01*
X1492121Y783696D01*
Y778618D01*
X1489582Y776078D01*
X1481965D01*
X1507356Y786235D02*
X1497200D01*
Y771000D01*
X1507356D01*
X1497200Y778618D02*
X1502278D01*
X1512435Y771000D02*
Y786235D01*
X1520052D01*
X1522591Y783696D01*
Y778618D01*
X1520052Y776078D01*
X1512435D01*
X1517513D02*
X1522591Y771000D01*
X1542905D02*
Y786235D01*
X1550522D01*
X1553062Y783696D01*
Y778618D01*
X1550522Y776078D01*
X1542905D01*
X1558140Y771000D02*
Y781157D01*
X1563218Y786235D01*
X1568297Y781157D01*
Y771000D01*
Y778618D01*
X1558140D01*
X1573375Y771000D02*
Y786235D01*
X1583532Y771000D01*
Y786235D01*
X1598767D02*
X1588610D01*
Y771000D01*
X1598767D01*
X1588610Y778618D02*
X1593688D01*
X1603845Y786235D02*
Y771000D01*
X1614002D01*
X1619080D02*
X1624158Y776078D01*
Y781157D01*
X1619080Y786235D01*
X1631776Y771000D02*
Y773539D01*
X1634315D01*
Y771000D01*
X1631776D01*
X1659707D02*
Y786235D01*
X1667325D01*
X1669864Y783696D01*
Y778618D01*
X1667325Y776078D01*
X1659707D01*
X1674942Y786235D02*
Y771000D01*
X1685099D01*
X1690177D02*
Y781157D01*
X1695255Y786235D01*
X1700334Y781157D01*
Y771000D01*
Y778618D01*
X1690177D01*
X1715569Y783696D02*
X1713030Y786235D01*
X1707951D01*
X1705412Y783696D01*
Y773539D01*
X1707951Y771000D01*
X1713030D01*
X1715569Y773539D01*
X1730804Y786235D02*
X1720647D01*
Y771000D01*
X1730804D01*
X1720647Y778618D02*
X1725726D01*
X1761274Y786235D02*
X1751117D01*
Y778618D01*
X1756196D01*
X1751117D01*
Y771000D01*
X1766353Y786235D02*
X1771431D01*
X1768892D01*
Y771000D01*
X1766353D01*
X1771431D01*
X1779048Y786235D02*
Y771000D01*
X1786666D01*
X1789205Y773539D01*
Y783696D01*
X1786666Y786235D01*
X1779048D01*
X1794283D02*
Y773539D01*
X1796823Y771000D01*
X1801901D01*
X1804440Y773539D01*
Y786235D01*
X1819675Y783696D02*
X1817136Y786235D01*
X1812058D01*
X1809518Y783696D01*
Y773539D01*
X1812058Y771000D01*
X1817136D01*
X1819675Y773539D01*
X1824754Y786235D02*
X1829832D01*
X1827293D01*
Y771000D01*
X1824754D01*
X1829832D01*
X1837449D02*
Y781157D01*
X1842528Y786235D01*
X1847606Y781157D01*
Y771000D01*
Y778618D01*
X1837449D01*
X1852685Y786235D02*
Y771000D01*
X1862841D01*
X1878076Y783696D02*
X1875537Y786235D01*
X1870459D01*
X1867920Y783696D01*
Y781157D01*
X1870459Y778618D01*
X1875537D01*
X1878076Y776078D01*
Y773539D01*
X1875537Y771000D01*
X1870459D01*
X1867920Y773539D01*
X1906007Y786235D02*
X1900929D01*
X1898390Y783696D01*
Y773539D01*
X1900929Y771000D01*
X1906007D01*
X1908546Y773539D01*
Y783696D01*
X1906007Y786235D01*
X1913625Y771000D02*
Y786235D01*
X1923782Y771000D01*
Y786235D01*
X1944095D02*
X1954252D01*
X1949173D01*
Y771000D01*
X1959330Y786235D02*
Y771000D01*
Y778618D01*
X1969487D01*
Y786235D01*
Y771000D01*
X1984722Y786235D02*
X1974565D01*
Y771000D01*
X1984722D01*
X1974565Y778618D02*
X1979644D01*
X2005035Y771000D02*
Y786235D01*
X2012653D01*
X2015192Y783696D01*
Y778618D01*
X2012653Y776078D01*
X2005035D01*
X2020270Y771000D02*
Y781157D01*
X2025349Y786235D01*
X2030427Y781157D01*
Y771000D01*
Y778618D01*
X2020270D01*
X2035505Y771000D02*
Y786235D01*
X2045662Y771000D01*
Y786235D01*
X2060897D02*
X2050741D01*
Y771000D01*
X2060897D01*
X2050741Y778618D02*
X2055819D01*
X2065976Y786235D02*
Y771000D01*
X2076132D01*
X2106602Y783696D02*
X2104063Y786235D01*
X2098985D01*
X2096446Y783696D01*
Y781157D01*
X2098985Y778618D01*
X2104063D01*
X2106602Y776078D01*
Y773539D01*
X2104063Y771000D01*
X2098985D01*
X2096446Y773539D01*
X2111681Y786235D02*
X2121837D01*
X2116759D01*
Y771000D01*
X2126916D02*
Y786235D01*
X2134533D01*
X2137073Y783696D01*
Y778618D01*
X2134533Y776078D01*
X2126916D01*
X2131994D02*
X2137073Y771000D01*
X2142151Y786235D02*
X2147229D01*
X2144690D01*
Y771000D01*
X2142151D01*
X2147229D01*
X2154847D02*
Y786235D01*
X2162464D01*
X2165004Y783696D01*
Y778618D01*
X2162464Y776078D01*
X2154847D01*
X2180239Y783696D02*
X2177699Y786235D01*
X2172621D01*
X2170082Y783696D01*
Y781157D01*
X2172621Y778618D01*
X2177699D01*
X2180239Y776078D01*
Y773539D01*
X2177699Y771000D01*
X2172621D01*
X2170082Y773539D01*
X2200552Y771000D02*
Y781157D01*
X2205630Y786235D01*
X2210709Y781157D01*
Y771000D01*
Y778618D01*
X2200552D01*
X2225944Y783696D02*
X2223405Y786235D01*
X2218326D01*
X2215787Y783696D01*
Y781157D01*
X2218326Y778618D01*
X2223405D01*
X2225944Y776078D01*
Y773539D01*
X2223405Y771000D01*
X2218326D01*
X2215787Y773539D01*
X2256414Y786235D02*
X2246257D01*
Y778618D01*
X2251336D01*
X2246257D01*
Y771000D01*
X2269110Y786235D02*
X2264032D01*
X2261492Y783696D01*
Y773539D01*
X2264032Y771000D01*
X2269110D01*
X2271649Y773539D01*
Y783696D01*
X2269110Y786235D01*
X2276727D02*
Y771000D01*
X2286884D01*
X2291962Y786235D02*
Y771000D01*
X2302119D01*
X2314815Y786235D02*
X2309737D01*
X2307198Y783696D01*
Y773539D01*
X2309737Y771000D01*
X2314815D01*
X2317354Y773539D01*
Y783696D01*
X2314815Y786235D01*
X2322433D02*
Y771000D01*
X2327511Y776078D01*
X2332589Y771000D01*
Y786235D01*
X2347824Y783696D02*
X2345285Y786235D01*
X2340207D01*
X2337668Y783696D01*
Y781157D01*
X2340207Y778618D01*
X2345285D01*
X2347824Y776078D01*
Y773539D01*
X2345285Y771000D01*
X2340207D01*
X2337668Y773539D01*
X2352903Y781157D02*
X2355442D01*
Y778618D01*
X2352903D01*
Y781157D01*
Y773539D02*
X2355442D01*
Y771000D01*
X2352903D01*
Y773539D01*
X1113000Y753618D02*
X1123157D01*
X1153627Y761235D02*
X1143470D01*
Y753618D01*
X1148549D01*
X1143470D01*
Y746000D01*
X1158705Y761235D02*
X1163784D01*
X1161244D01*
Y746000D01*
X1158705D01*
X1163784D01*
X1171401Y761235D02*
Y746000D01*
X1179019D01*
X1181558Y748539D01*
Y758696D01*
X1179019Y761235D01*
X1171401D01*
X1186636D02*
Y748539D01*
X1189175Y746000D01*
X1194254D01*
X1196793Y748539D01*
Y761235D01*
X1212028Y758696D02*
X1209489Y761235D01*
X1204410D01*
X1201871Y758696D01*
Y748539D01*
X1204410Y746000D01*
X1209489D01*
X1212028Y748539D01*
X1217106Y761235D02*
X1222185D01*
X1219645D01*
Y746000D01*
X1217106D01*
X1222185D01*
X1229802D02*
Y756157D01*
X1234881Y761235D01*
X1239959Y756157D01*
Y746000D01*
Y753618D01*
X1229802D01*
X1245037Y761235D02*
Y746000D01*
X1255194D01*
X1275507Y761235D02*
Y746000D01*
X1283125D01*
X1285664Y748539D01*
Y758696D01*
X1283125Y761235D01*
X1275507D01*
X1290742D02*
X1295821D01*
X1293282D01*
Y746000D01*
X1290742D01*
X1295821D01*
X1303438D02*
Y756157D01*
X1308517Y761235D01*
X1313595Y756157D01*
Y746000D01*
Y753618D01*
X1303438D01*
X1318674Y746000D02*
Y761235D01*
X1323752Y756157D01*
X1328830Y761235D01*
Y746000D01*
X1333909Y761235D02*
X1344065D01*
X1338987D01*
Y746000D01*
X1359300Y761235D02*
X1349144D01*
Y746000D01*
X1359300D01*
X1349144Y753618D02*
X1354222D01*
X1364379Y746000D02*
Y761235D01*
X1371996D01*
X1374535Y758696D01*
Y753618D01*
X1371996Y751078D01*
X1364379D01*
X1369457D02*
X1374535Y746000D01*
X1394849D02*
X1399927D01*
X1397388D01*
Y761235D01*
X1394849Y758696D01*
X1407545Y753618D02*
X1417701D01*
X1422780Y746000D02*
X1427858D01*
X1425319D01*
Y761235D01*
X1422780Y758696D01*
X1435476Y746000D02*
Y748539D01*
X1438015D01*
Y746000D01*
X1435476D01*
X1458328Y761235D02*
X1448172D01*
Y753618D01*
X1453250Y756157D01*
X1455789D01*
X1458328Y753618D01*
Y748539D01*
X1455789Y746000D01*
X1450711D01*
X1448172Y748539D01*
X1463407Y746000D02*
Y761235D01*
X1468485Y756157D01*
X1473563Y761235D01*
Y746000D01*
X1478642D02*
Y761235D01*
X1483720Y756157D01*
X1488798Y761235D01*
Y746000D01*
X1496416Y743461D02*
X1498955Y746000D01*
Y748539D01*
X1496416D01*
Y746000D01*
X1498955D01*
X1496416Y743461D01*
X1493877Y740922D01*
X1534504Y758696D02*
X1531964Y761235D01*
X1526886D01*
X1524347Y758696D01*
Y756157D01*
X1526886Y753618D01*
X1531964D01*
X1534504Y751078D01*
Y748539D01*
X1531964Y746000D01*
X1526886D01*
X1524347Y748539D01*
X1547200Y761235D02*
X1542121D01*
X1539582Y758696D01*
Y748539D01*
X1542121Y746000D01*
X1547200D01*
X1549739Y748539D01*
Y758696D01*
X1547200Y761235D01*
X1554817D02*
Y746000D01*
X1564974D01*
X1570052Y761235D02*
Y746000D01*
X1577670D01*
X1580209Y748539D01*
Y758696D01*
X1577670Y761235D01*
X1570052D01*
X1595444D02*
X1585287D01*
Y746000D01*
X1595444D01*
X1585287Y753618D02*
X1590366D01*
X1600522Y746000D02*
Y761235D01*
X1608140D01*
X1610679Y758696D01*
Y753618D01*
X1608140Y751078D01*
X1600522D01*
X1605601D02*
X1610679Y746000D01*
X1630992D02*
Y761235D01*
X1636071Y756157D01*
X1641149Y761235D01*
Y746000D01*
X1646228D02*
Y756157D01*
X1651306Y761235D01*
X1656384Y756157D01*
Y746000D01*
Y753618D01*
X1646228D01*
X1671619Y758696D02*
X1669080Y761235D01*
X1664002D01*
X1661463Y758696D01*
Y756157D01*
X1664002Y753618D01*
X1669080D01*
X1671619Y751078D01*
Y748539D01*
X1669080Y746000D01*
X1664002D01*
X1661463Y748539D01*
X1676698Y761235D02*
Y746000D01*
Y751078D01*
X1686854Y761235D01*
X1679237Y753618D01*
X1686854Y746000D01*
X1714785Y761235D02*
X1709707D01*
X1707168Y758696D01*
Y748539D01*
X1709707Y746000D01*
X1714785D01*
X1717325Y748539D01*
Y758696D01*
X1714785Y761235D01*
X1722403Y746000D02*
Y761235D01*
X1730020D01*
X1732560Y758696D01*
Y753618D01*
X1730020Y751078D01*
X1722403D01*
X1747795Y761235D02*
X1737638D01*
Y746000D01*
X1747795D01*
X1737638Y753618D02*
X1742716D01*
X1752873Y746000D02*
Y761235D01*
X1763030Y746000D01*
Y761235D01*
X1768108D02*
X1773186D01*
X1770647D01*
Y746000D01*
X1768108D01*
X1773186D01*
X1780804D02*
Y761235D01*
X1790961Y746000D01*
Y761235D01*
X1806196Y758696D02*
X1803657Y761235D01*
X1798578D01*
X1796039Y758696D01*
Y748539D01*
X1798578Y746000D01*
X1803657D01*
X1806196Y748539D01*
Y753618D01*
X1801117D01*
X1826509Y746000D02*
Y756157D01*
X1831588Y761235D01*
X1836666Y756157D01*
Y746000D01*
Y753618D01*
X1826509D01*
X1841744Y761235D02*
X1851901D01*
X1846823D01*
Y746000D01*
X1872214Y761235D02*
Y746000D01*
X1882371D01*
X1897606Y761235D02*
X1887449D01*
Y746000D01*
X1897606D01*
X1887449Y753618D02*
X1892528D01*
X1902684Y746000D02*
Y756157D01*
X1907763Y761235D01*
X1912841Y756157D01*
Y746000D01*
Y753618D01*
X1902684D01*
X1928076Y758696D02*
X1925537Y761235D01*
X1920459D01*
X1917920Y758696D01*
Y756157D01*
X1920459Y753618D01*
X1925537D01*
X1928076Y751078D01*
Y748539D01*
X1925537Y746000D01*
X1920459D01*
X1917920Y748539D01*
X1933155Y761235D02*
X1943311D01*
X1938233D01*
Y746000D01*
X1963625D02*
X1968703D01*
X1966164D01*
Y761235D01*
X1963625Y758696D01*
X1976321Y746000D02*
Y761235D01*
X1981399Y756157D01*
X1986477Y761235D01*
Y746000D01*
X1991556D02*
Y761235D01*
X1996634Y756157D01*
X2001712Y761235D01*
Y746000D01*
X2032183Y758696D02*
X2029644Y761235D01*
X2024565D01*
X2022026Y758696D01*
Y748539D01*
X2024565Y746000D01*
X2029644D01*
X2032183Y748539D01*
Y753618D01*
X2027104D01*
X2037261Y746000D02*
Y761235D01*
X2044879D01*
X2047418Y758696D01*
Y753618D01*
X2044879Y751078D01*
X2037261D01*
X2042339D02*
X2047418Y746000D01*
X2062653Y761235D02*
X2052496D01*
Y746000D01*
X2062653D01*
X2052496Y753618D02*
X2057574D01*
X2067731Y746000D02*
Y756157D01*
X2072809Y761235D01*
X2077888Y756157D01*
Y746000D01*
Y753618D01*
X2067731D01*
X2082966Y761235D02*
X2093123D01*
X2088045D01*
Y746000D01*
X2108358Y761235D02*
X2098201D01*
Y746000D01*
X2108358D01*
X2098201Y753618D02*
X2103280D01*
X2113436Y746000D02*
Y761235D01*
X2121054D01*
X2123593Y758696D01*
Y753618D01*
X2121054Y751078D01*
X2113436D01*
X2118515D02*
X2123593Y746000D01*
X2143907Y761235D02*
X2154063D01*
X2148985D01*
Y746000D01*
X2159142Y761235D02*
Y746000D01*
Y753618D01*
X2169298D01*
Y761235D01*
Y746000D01*
X2174377D02*
Y756157D01*
X2179455Y761235D01*
X2184533Y756157D01*
Y746000D01*
Y753618D01*
X2174377D01*
X2189612Y746000D02*
Y761235D01*
X2199768Y746000D01*
Y761235D01*
X2230239D02*
X2220082D01*
Y753618D01*
X2225160D01*
X2220082D01*
Y746000D01*
X2235317Y761235D02*
X2240395D01*
X2237856D01*
Y746000D01*
X2235317D01*
X2240395D01*
X2248013Y761235D02*
Y746000D01*
X2255630D01*
X2258170Y748539D01*
Y758696D01*
X2255630Y761235D01*
X2248013D01*
X2263248D02*
Y748539D01*
X2265787Y746000D01*
X2270865D01*
X2273405Y748539D01*
Y761235D01*
X2288640Y758696D02*
X2286100Y761235D01*
X2281022D01*
X2278483Y758696D01*
Y748539D01*
X2281022Y746000D01*
X2286100D01*
X2288640Y748539D01*
X2293718Y761235D02*
X2298796D01*
X2296257D01*
Y746000D01*
X2293718D01*
X2298796D01*
X2306414D02*
Y756157D01*
X2311492Y761235D01*
X2316571Y756157D01*
Y746000D01*
Y753618D01*
X2306414D01*
X2321649Y761235D02*
Y746000D01*
X2331806D01*
X1113000Y728618D02*
X1123157D01*
X1143470Y721000D02*
Y736235D01*
X1148549Y731157D01*
X1153627Y736235D01*
Y721000D01*
X1158705Y736235D02*
X1163784D01*
X1161244D01*
Y721000D01*
X1158705D01*
X1163784D01*
X1171401D02*
Y736235D01*
X1181558Y721000D01*
Y736235D01*
X1186636D02*
X1191714D01*
X1189175D01*
Y721000D01*
X1186636D01*
X1191714D01*
X1199332D02*
Y736235D01*
X1204410Y731157D01*
X1209489Y736235D01*
Y721000D01*
X1214567Y736235D02*
Y723539D01*
X1217106Y721000D01*
X1222185D01*
X1224724Y723539D01*
Y736235D01*
X1229802Y721000D02*
Y736235D01*
X1234881Y731157D01*
X1239959Y736235D01*
Y721000D01*
X1267890D02*
Y736235D01*
X1260272Y728618D01*
X1270429D01*
X1275507Y721000D02*
Y736235D01*
X1280586Y731157D01*
X1285664Y736235D01*
Y721000D01*
X1290742D02*
Y736235D01*
X1295821Y731157D01*
X1300899Y736235D01*
Y721000D01*
X1321213Y736235D02*
Y721000D01*
X1328830D01*
X1331369Y723539D01*
Y733696D01*
X1328830Y736235D01*
X1321213D01*
X1336448D02*
X1341526D01*
X1338987D01*
Y721000D01*
X1336448D01*
X1341526D01*
X1359300Y733696D02*
X1356761Y736235D01*
X1351683D01*
X1349144Y733696D01*
Y731157D01*
X1351683Y728618D01*
X1356761D01*
X1359300Y726078D01*
Y723539D01*
X1356761Y721000D01*
X1351683D01*
X1349144Y723539D01*
X1364379Y736235D02*
X1374535D01*
X1369457D01*
Y721000D01*
X1379614D02*
Y731157D01*
X1384692Y736235D01*
X1389771Y731157D01*
Y721000D01*
Y728618D01*
X1379614D01*
X1394849Y721000D02*
Y736235D01*
X1405005Y721000D01*
Y736235D01*
X1420241Y733696D02*
X1417701Y736235D01*
X1412623D01*
X1410084Y733696D01*
Y723539D01*
X1412623Y721000D01*
X1417701D01*
X1420241Y723539D01*
X1435476Y736235D02*
X1425319D01*
Y721000D01*
X1435476D01*
X1425319Y728618D02*
X1430397D01*
X1465946Y736235D02*
X1455789D01*
Y728618D01*
X1460867D01*
X1455789D01*
Y721000D01*
X1471024D02*
Y736235D01*
X1478642D01*
X1481181Y733696D01*
Y728618D01*
X1478642Y726078D01*
X1471024D01*
X1476102D02*
X1481181Y721000D01*
X1493877Y736235D02*
X1488798D01*
X1486259Y733696D01*
Y723539D01*
X1488798Y721000D01*
X1493877D01*
X1496416Y723539D01*
Y733696D01*
X1493877Y736235D01*
X1501494Y721000D02*
Y736235D01*
X1506573Y731157D01*
X1511651Y736235D01*
Y721000D01*
X1531965Y736235D02*
X1542121D01*
X1537043D01*
Y721000D01*
X1547200Y736235D02*
Y721000D01*
Y728618D01*
X1557356D01*
Y736235D01*
Y721000D01*
X1572591Y736235D02*
X1562435D01*
Y721000D01*
X1572591D01*
X1562435Y728618D02*
X1567513D01*
X1592905Y721000D02*
Y736235D01*
X1600522D01*
X1603062Y733696D01*
Y728618D01*
X1600522Y726078D01*
X1592905D01*
X1608140Y721000D02*
Y731157D01*
X1613218Y736235D01*
X1618297Y731157D01*
Y721000D01*
Y728618D01*
X1608140D01*
X1623375Y721000D02*
Y736235D01*
X1633532Y721000D01*
Y736235D01*
X1648767D02*
X1638610D01*
Y721000D01*
X1648767D01*
X1638610Y728618D02*
X1643688D01*
X1653845Y736235D02*
Y721000D01*
X1664002D01*
X1694472Y736235D02*
X1684315D01*
Y721000D01*
X1694472D01*
X1684315Y728618D02*
X1689393D01*
X1699550Y736235D02*
Y721000D01*
X1707168D01*
X1709707Y723539D01*
Y733696D01*
X1707168Y736235D01*
X1699550D01*
X1724942Y733696D02*
X1722403Y736235D01*
X1717325D01*
X1714785Y733696D01*
Y723539D01*
X1717325Y721000D01*
X1722403D01*
X1724942Y723539D01*
Y728618D01*
X1719864D01*
X1740177Y736235D02*
X1730020D01*
Y721000D01*
X1740177D01*
X1730020Y728618D02*
X1735099D01*
X1113000Y703618D02*
X1123157D01*
X1143470Y708696D02*
X1146009Y711235D01*
X1151088D01*
X1153627Y708696D01*
Y706157D01*
X1151088Y703618D01*
X1148549D01*
X1151088D01*
X1153627Y701078D01*
Y698539D01*
X1151088Y696000D01*
X1146009D01*
X1143470Y698539D01*
X1184097Y711235D02*
X1173940D01*
Y703618D01*
X1179019D01*
X1173940D01*
Y696000D01*
X1189175Y711235D02*
X1194254D01*
X1191715D01*
Y696000D01*
X1189175D01*
X1194254D01*
X1201871Y711235D02*
Y696000D01*
X1209489D01*
X1212028Y698539D01*
Y708696D01*
X1209489Y711235D01*
X1201871D01*
X1217106D02*
Y698539D01*
X1219645Y696000D01*
X1224724D01*
X1227263Y698539D01*
Y711235D01*
X1242498Y708696D02*
X1239959Y711235D01*
X1234881D01*
X1232341Y708696D01*
Y698539D01*
X1234881Y696000D01*
X1239959D01*
X1242498Y698539D01*
X1247577Y711235D02*
X1252655D01*
X1250116D01*
Y696000D01*
X1247577D01*
X1252655D01*
X1260272D02*
Y706157D01*
X1265351Y711235D01*
X1270429Y706157D01*
Y696000D01*
Y703618D01*
X1260272D01*
X1275507Y711235D02*
Y696000D01*
X1285664D01*
X1300899Y708696D02*
X1298360Y711235D01*
X1293282D01*
X1290742Y708696D01*
Y706157D01*
X1293282Y703618D01*
X1298360D01*
X1300899Y701078D01*
Y698539D01*
X1298360Y696000D01*
X1293282D01*
X1290742Y698539D01*
X1331369Y708696D02*
X1328830Y711235D01*
X1323752D01*
X1321213Y708696D01*
Y706157D01*
X1323752Y703618D01*
X1328830D01*
X1331369Y701078D01*
Y698539D01*
X1328830Y696000D01*
X1323752D01*
X1321213Y698539D01*
X1336448Y711235D02*
Y696000D01*
Y703618D01*
X1346604D01*
Y711235D01*
Y696000D01*
X1359300Y711235D02*
X1354222D01*
X1351683Y708696D01*
Y698539D01*
X1354222Y696000D01*
X1359300D01*
X1361839Y698539D01*
Y708696D01*
X1359300Y711235D01*
X1366918D02*
Y698539D01*
X1369457Y696000D01*
X1374535D01*
X1377075Y698539D01*
Y711235D01*
X1382153D02*
Y696000D01*
X1392310D01*
X1397388Y711235D02*
Y696000D01*
X1405005D01*
X1407545Y698539D01*
Y708696D01*
X1405005Y711235D01*
X1397388D01*
X1427858D02*
Y696000D01*
X1438015D01*
X1443093Y711235D02*
X1448172D01*
X1445632D01*
Y696000D01*
X1443093D01*
X1448172D01*
X1465946Y711235D02*
X1455789D01*
Y696000D01*
X1465946D01*
X1455789Y703618D02*
X1460867D01*
X1493877Y711235D02*
X1488798D01*
X1486259Y708696D01*
Y698539D01*
X1488798Y696000D01*
X1493877D01*
X1496416Y698539D01*
Y708696D01*
X1493877Y711235D01*
X1501494Y696000D02*
Y711235D01*
X1511651Y696000D01*
Y711235D01*
X1531965D02*
X1542121D01*
X1537043D01*
Y696000D01*
X1547200Y711235D02*
Y696000D01*
X1552278Y701078D01*
X1557356Y696000D01*
Y711235D01*
X1570052D02*
X1564974D01*
X1562435Y708696D01*
Y698539D01*
X1564974Y696000D01*
X1570052D01*
X1572591Y698539D01*
Y708696D01*
X1570052Y711235D01*
X1592905D02*
Y696000D01*
X1603062D01*
X1608140Y711235D02*
X1613218D01*
X1610679D01*
Y696000D01*
X1608140D01*
X1613218D01*
X1620836D02*
Y711235D01*
X1630992Y696000D01*
Y711235D01*
X1646228D02*
X1636071D01*
Y696000D01*
X1646228D01*
X1636071Y703618D02*
X1641149D01*
X1661463Y708696D02*
X1658923Y711235D01*
X1653845D01*
X1651306Y708696D01*
Y706157D01*
X1653845Y703618D01*
X1658923D01*
X1661463Y701078D01*
Y698539D01*
X1658923Y696000D01*
X1653845D01*
X1651306Y698539D01*
X1681776Y711235D02*
X1691933D01*
X1686854D01*
Y696000D01*
X1697011Y711235D02*
Y696000D01*
Y703618D01*
X1707168D01*
Y711235D01*
Y696000D01*
X1712246D02*
Y706157D01*
X1717325Y711235D01*
X1722403Y706157D01*
Y696000D01*
Y703618D01*
X1712246D01*
X1727481Y711235D02*
X1737638D01*
X1732560D01*
Y696000D01*
X1757951Y711235D02*
X1763030D01*
X1760491D01*
Y696000D01*
X1757951D01*
X1763030D01*
X1770647D02*
Y711235D01*
X1780804Y696000D01*
Y711235D01*
X1785882D02*
X1796039D01*
X1790961D01*
Y696000D01*
X1811274Y711235D02*
X1801117D01*
Y696000D01*
X1811274D01*
X1801117Y703618D02*
X1806196D01*
X1816353Y696000D02*
Y711235D01*
X1823970D01*
X1826509Y708696D01*
Y703618D01*
X1823970Y701078D01*
X1816353D01*
X1821431D02*
X1826509Y696000D01*
X1841744Y708696D02*
X1839205Y711235D01*
X1834127D01*
X1831588Y708696D01*
Y706157D01*
X1834127Y703618D01*
X1839205D01*
X1841744Y701078D01*
Y698539D01*
X1839205Y696000D01*
X1834127D01*
X1831588Y698539D01*
X1856979Y711235D02*
X1846823D01*
Y696000D01*
X1856979D01*
X1846823Y703618D02*
X1851901D01*
X1872214Y708696D02*
X1869675Y711235D01*
X1864597D01*
X1862058Y708696D01*
Y698539D01*
X1864597Y696000D01*
X1869675D01*
X1872214Y698539D01*
X1877293Y711235D02*
X1887449D01*
X1882371D01*
Y696000D01*
X1907763D02*
Y706157D01*
X1912841Y711235D01*
X1917920Y706157D01*
Y696000D01*
Y703618D01*
X1907763D01*
X1922998Y711235D02*
X1933155D01*
X1928076D01*
Y696000D01*
X1953468D02*
Y706157D01*
X1958546Y711235D01*
X1963625Y706157D01*
Y696000D01*
Y703618D01*
X1953468D01*
X1983938Y696000D02*
Y711235D01*
X1991556D01*
X1994095Y708696D01*
Y703618D01*
X1991556Y701078D01*
X1983938D01*
X1989017D02*
X1994095Y696000D01*
X1999173Y711235D02*
X2004252D01*
X2001712D01*
Y696000D01*
X1999173D01*
X2004252D01*
X2022026Y708696D02*
X2019487Y711235D01*
X2014408D01*
X2011869Y708696D01*
Y698539D01*
X2014408Y696000D01*
X2019487D01*
X2022026Y698539D01*
Y703618D01*
X2016948D01*
X2027104Y711235D02*
Y696000D01*
Y703618D01*
X2037261D01*
Y711235D01*
Y696000D01*
X2042339Y711235D02*
X2052496D01*
X2047418D01*
Y696000D01*
X2072809D02*
Y706157D01*
X2077888Y711235D01*
X2082966Y706157D01*
Y696000D01*
Y703618D01*
X2072809D01*
X2088045Y696000D02*
Y711235D01*
X2098201Y696000D01*
Y711235D01*
X2113436Y708696D02*
X2110897Y711235D01*
X2105819D01*
X2103280Y708696D01*
Y698539D01*
X2105819Y696000D01*
X2110897D01*
X2113436Y698539D01*
Y703618D01*
X2108358D01*
X2118515Y711235D02*
Y696000D01*
X2128672D01*
X2143907Y711235D02*
X2133750D01*
Y696000D01*
X2143907D01*
X2133750Y703618D02*
X2138828D01*
X1113000Y678618D02*
X1123157D01*
X1143470Y671000D02*
Y686235D01*
X1151088D01*
X1153627Y683696D01*
Y678618D01*
X1151088Y676078D01*
X1143470D01*
X1158705Y686235D02*
Y671000D01*
X1168862D01*
X1173940D02*
Y681157D01*
X1179019Y686235D01*
X1184097Y681157D01*
Y671000D01*
Y678618D01*
X1173940D01*
X1199332Y683696D02*
X1196793Y686235D01*
X1191715D01*
X1189175Y683696D01*
Y673539D01*
X1191715Y671000D01*
X1196793D01*
X1199332Y673539D01*
X1214567Y686235D02*
X1204410D01*
Y671000D01*
X1214567D01*
X1204410Y678618D02*
X1209489D01*
X1242498Y686235D02*
X1237420D01*
X1234881Y683696D01*
Y673539D01*
X1237420Y671000D01*
X1242498D01*
X1245037Y673539D01*
Y683696D01*
X1242498Y686235D01*
X1250116Y671000D02*
Y686235D01*
X1260272Y671000D01*
Y686235D01*
X1275508D02*
X1265351D01*
Y671000D01*
X1275508D01*
X1265351Y678618D02*
X1270429D01*
X1305978Y686235D02*
X1295821D01*
Y678618D01*
X1300899D01*
X1295821D01*
Y671000D01*
X1311056Y686235D02*
X1316134D01*
X1313595D01*
Y671000D01*
X1311056D01*
X1316134D01*
X1323752Y686235D02*
Y671000D01*
X1331369D01*
X1333909Y673539D01*
Y683696D01*
X1331369Y686235D01*
X1323752D01*
X1338987D02*
Y673539D01*
X1341526Y671000D01*
X1346604D01*
X1349144Y673539D01*
Y686235D01*
X1364379Y683696D02*
X1361839Y686235D01*
X1356761D01*
X1354222Y683696D01*
Y673539D01*
X1356761Y671000D01*
X1361839D01*
X1364379Y673539D01*
X1369457Y686235D02*
X1374535D01*
X1371996D01*
Y671000D01*
X1369457D01*
X1374535D01*
X1382153D02*
Y681157D01*
X1387231Y686235D01*
X1392310Y681157D01*
Y671000D01*
Y678618D01*
X1382153D01*
X1397388Y686235D02*
Y671000D01*
X1407545D01*
X1427858Y686235D02*
X1432937D01*
X1430397D01*
Y671000D01*
X1427858D01*
X1432937D01*
X1440554D02*
Y686235D01*
X1450711Y671000D01*
Y686235D01*
X1455789D02*
X1465946D01*
X1460867D01*
Y671000D01*
X1478642Y686235D02*
X1473563D01*
X1471024Y683696D01*
Y673539D01*
X1473563Y671000D01*
X1478642D01*
X1481181Y673539D01*
Y683696D01*
X1478642Y686235D01*
X1511651D02*
X1501494D01*
Y671000D01*
X1511651D01*
X1501494Y678618D02*
X1506573D01*
X1516729Y671000D02*
Y681157D01*
X1521808Y686235D01*
X1526886Y681157D01*
Y671000D01*
Y678618D01*
X1516729D01*
X1542121Y683696D02*
X1539582Y686235D01*
X1534504D01*
X1531965Y683696D01*
Y673539D01*
X1534504Y671000D01*
X1539582D01*
X1542121Y673539D01*
X1547200Y686235D02*
Y671000D01*
Y678618D01*
X1557356D01*
Y686235D01*
Y671000D01*
X1577670D02*
Y686235D01*
X1585287D01*
X1587826Y683696D01*
Y678618D01*
X1585287Y676078D01*
X1577670D01*
X1592905Y671000D02*
Y681157D01*
X1597983Y686235D01*
X1603062Y681157D01*
Y671000D01*
Y678618D01*
X1592905D01*
X1608140Y671000D02*
Y686235D01*
X1618297Y671000D01*
Y686235D01*
X1633532D02*
X1623375D01*
Y671000D01*
X1633532D01*
X1623375Y678618D02*
X1628453D01*
X1638610Y686235D02*
Y671000D01*
X1648767D01*
X1679237Y683696D02*
X1676698Y686235D01*
X1671619D01*
X1669080Y683696D01*
Y673539D01*
X1671619Y671000D01*
X1676698D01*
X1679237Y673539D01*
X1691933Y686235D02*
X1686854D01*
X1684315Y683696D01*
Y673539D01*
X1686854Y671000D01*
X1691933D01*
X1694472Y673539D01*
Y683696D01*
X1691933Y686235D01*
X1699550Y671000D02*
Y686235D01*
X1707168D01*
X1709707Y683696D01*
Y678618D01*
X1707168Y676078D01*
X1699550D01*
X1704629D02*
X1709707Y671000D01*
X1714785D02*
Y686235D01*
X1724942Y671000D01*
Y686235D01*
X1740177D02*
X1730020D01*
Y671000D01*
X1740177D01*
X1730020Y678618D02*
X1735099D01*
X1745255Y671000D02*
Y686235D01*
X1752873D01*
X1755412Y683696D01*
Y678618D01*
X1752873Y676078D01*
X1745255D01*
X1750334D02*
X1755412Y671000D01*
X1780804D02*
X1775726Y676078D01*
Y681157D01*
X1780804Y686235D01*
X1798578D02*
X1788421D01*
Y678618D01*
X1793500D01*
X1788421D01*
Y671000D01*
X1811274Y686235D02*
X1806196D01*
X1803657Y683696D01*
Y673539D01*
X1806196Y671000D01*
X1811274D01*
X1813813Y673539D01*
Y683696D01*
X1811274Y686235D01*
X1818892D02*
Y673539D01*
X1821431Y671000D01*
X1826509D01*
X1829048Y673539D01*
Y686235D01*
X1834127Y671000D02*
Y686235D01*
X1841744D01*
X1844283Y683696D01*
Y678618D01*
X1841744Y676078D01*
X1834127D01*
X1839205D02*
X1844283Y671000D01*
X1872214Y686235D02*
X1867136D01*
X1864597Y683696D01*
Y673539D01*
X1867136Y671000D01*
X1872214D01*
X1874754Y673539D01*
Y683696D01*
X1872214Y686235D01*
X1879832Y671000D02*
Y686235D01*
X1889989Y671000D01*
Y686235D01*
X1910302D02*
X1920459D01*
X1915380D01*
Y671000D01*
X1925537Y686235D02*
Y671000D01*
Y678618D01*
X1935694D01*
Y686235D01*
Y671000D01*
X1950929Y686235D02*
X1940772D01*
Y671000D01*
X1950929D01*
X1940772Y678618D02*
X1945851D01*
X1971242Y686235D02*
X1981399D01*
X1976321D01*
Y671000D01*
X1994095Y686235D02*
X1989017D01*
X1986478Y683696D01*
Y673539D01*
X1989017Y671000D01*
X1994095D01*
X1996634Y673539D01*
Y683696D01*
X1994095Y686235D01*
X2001712Y671000D02*
Y686235D01*
X2009330D01*
X2011869Y683696D01*
Y678618D01*
X2009330Y676078D01*
X2001712D01*
X2032183Y686235D02*
Y671000D01*
X2042339D01*
X2047418D02*
Y681157D01*
X2052496Y686235D01*
X2057574Y681157D01*
Y671000D01*
Y678618D01*
X2047418D01*
X2062653Y686235D02*
Y683696D01*
X2067731Y678618D01*
X2072809Y683696D01*
Y686235D01*
X2067731Y678618D02*
Y671000D01*
X2088045Y686235D02*
X2077888D01*
Y671000D01*
X2088045D01*
X2077888Y678618D02*
X2082966D01*
X2093123Y671000D02*
Y686235D01*
X2100741D01*
X2103280Y683696D01*
Y678618D01*
X2100741Y676078D01*
X2093123D01*
X2098201D02*
X2103280Y671000D01*
X2108358D02*
X2113436Y676078D01*
Y681157D01*
X2108358Y686235D01*
X-12000Y833696D02*
X-1843Y823539D01*
X-12000D02*
X-1843Y833696D01*
X-12000Y828617D02*
X-1843D01*
X-6922Y823539D02*
Y833696D01*
X3235Y821000D02*
Y823539D01*
X5774D01*
Y821000D01*
X3235D01*
X26088Y833696D02*
X23549Y836235D01*
X18470D01*
X15931Y833696D01*
Y823539D01*
X18470Y821000D01*
X23549D01*
X26088Y823539D01*
Y828617D01*
X21009D01*
X31166Y821000D02*
Y836235D01*
X36244Y831157D01*
X41323Y836235D01*
Y821000D01*
X56558D02*
X46401D01*
X56558Y831157D01*
Y833696D01*
X54019Y836235D01*
X48940D01*
X46401Y833696D01*
X61636D02*
X64175Y836235D01*
X69254D01*
X71793Y833696D01*
Y831157D01*
X69254Y828617D01*
X71793Y826078D01*
Y823539D01*
X69254Y821000D01*
X64175D01*
X61636Y823539D01*
Y826078D01*
X64175Y828617D01*
X61636Y831157D01*
Y833696D01*
X64175Y828617D02*
X69254D01*
X92106D02*
X102263D01*
X122577Y836235D02*
Y821000D01*
X130194D01*
X132733Y823539D01*
Y826078D01*
X130194Y828617D01*
X122577D01*
X130194D01*
X132733Y831157D01*
Y833696D01*
X130194Y836235D01*
X122577D01*
X140351Y821000D02*
X145429D01*
X147968Y823539D01*
Y828617D01*
X145429Y831157D01*
X140351D01*
X137812Y828617D01*
Y823539D01*
X140351Y821000D01*
X155586Y831157D02*
X160664D01*
X163203Y828617D01*
Y821000D01*
X155586D01*
X153047Y823539D01*
X155586Y826078D01*
X163203D01*
X168282Y831157D02*
Y821000D01*
Y826078D01*
X170821Y828617D01*
X173360Y831157D01*
X175899D01*
X193673Y836235D02*
Y821000D01*
X186056D01*
X183517Y823539D01*
Y828617D01*
X186056Y831157D01*
X193673D01*
X221604Y836235D02*
X216526D01*
X213987Y833696D01*
Y823539D01*
X216526Y821000D01*
X221604D01*
X224144Y823539D01*
Y833696D01*
X221604Y836235D01*
X229222Y831157D02*
Y823539D01*
X231761Y821000D01*
X239379D01*
Y831157D01*
X246996Y833696D02*
Y831157D01*
X244457D01*
X249535D01*
X246996D01*
Y823539D01*
X249535Y821000D01*
X257153D02*
X262231D01*
X259692D01*
Y836235D01*
X257153D01*
X269849Y821000D02*
X274927D01*
X272388D01*
Y831157D01*
X269849D01*
X282545Y821000D02*
Y831157D01*
X290162D01*
X292701Y828617D01*
Y821000D01*
X305397D02*
X300319D01*
X297780Y823539D01*
Y828617D01*
X300319Y831157D01*
X305397D01*
X307936Y828617D01*
Y826078D01*
X297780D01*
X-1843Y1111235D02*
X-12000D01*
Y1103618D01*
X-6922D01*
X-12000D01*
Y1096000D01*
X3235D02*
X8313D01*
X5774D01*
Y1106157D01*
X3235D01*
X15931Y1096000D02*
X21009D01*
X18470D01*
Y1111235D01*
X15931D01*
X36244Y1096000D02*
X31166D01*
X28627Y1098539D01*
Y1103618D01*
X31166Y1106157D01*
X36244D01*
X38784Y1103618D01*
Y1101078D01*
X28627D01*
X43862Y1096000D02*
X51480D01*
X54019Y1098539D01*
X51480Y1101078D01*
X46401D01*
X43862Y1103618D01*
X46401Y1106157D01*
X54019D01*
X-12000Y1083696D02*
X-1843Y1073539D01*
X-12000D02*
X-1843Y1083696D01*
X-12000Y1078618D02*
X-1843D01*
X-6922Y1073539D02*
Y1083696D01*
X3235Y1071000D02*
Y1073539D01*
X5774D01*
Y1071000D01*
X3235D01*
X26088Y1083696D02*
X23549Y1086235D01*
X18470D01*
X15931Y1083696D01*
Y1073539D01*
X18470Y1071000D01*
X23549D01*
X26088Y1073539D01*
Y1078618D01*
X21009D01*
X31166Y1086235D02*
X41323D01*
X36244D01*
Y1071000D01*
X54019Y1086235D02*
X48940D01*
X46401Y1083696D01*
Y1073539D01*
X48940Y1071000D01*
X54019D01*
X56558Y1073539D01*
Y1083696D01*
X54019Y1086235D01*
X76871Y1078618D02*
X87028D01*
X107341Y1086235D02*
X117498D01*
X112420D01*
Y1071000D01*
X125116D02*
X130194D01*
X132733Y1073539D01*
Y1078618D01*
X130194Y1081157D01*
X125116D01*
X122577Y1078618D01*
Y1073539D01*
X125116Y1071000D01*
X137812Y1065922D02*
Y1081157D01*
X145429D01*
X147968Y1078618D01*
Y1073539D01*
X145429Y1071000D01*
X137812D01*
X175899Y1086235D02*
X170821D01*
X168282Y1083696D01*
Y1073539D01*
X170821Y1071000D01*
X175899D01*
X178438Y1073539D01*
Y1083696D01*
X175899Y1086235D01*
X183517Y1081157D02*
X188595Y1071000D01*
X193673Y1081157D01*
X206369Y1071000D02*
X201291D01*
X198752Y1073539D01*
Y1078618D01*
X201291Y1081157D01*
X206369D01*
X208909Y1078618D01*
Y1076078D01*
X198752D01*
X213987Y1081157D02*
Y1071000D01*
Y1076078D01*
X216526Y1078618D01*
X219065Y1081157D01*
X221604D01*
X229222Y1071000D02*
X234300D01*
X231761D01*
Y1086235D01*
X229222D01*
X244457Y1081157D02*
X249535D01*
X252075Y1078618D01*
Y1071000D01*
X244457D01*
X241918Y1073539D01*
X244457Y1076078D01*
X252075D01*
X257153Y1081157D02*
Y1073539D01*
X259692Y1071000D01*
X267310D01*
Y1068461D01*
X264771Y1065922D01*
X262231D01*
X267310Y1071000D02*
Y1081157D01*
X-12000Y1058696D02*
X-1843Y1048539D01*
X-12000D02*
X-1843Y1058696D01*
X-12000Y1053618D02*
X-1843D01*
X-6922Y1048539D02*
Y1058696D01*
X3235Y1046000D02*
Y1048539D01*
X5774D01*
Y1046000D01*
X3235D01*
X26088Y1058696D02*
X23549Y1061235D01*
X18470D01*
X15931Y1058696D01*
Y1048539D01*
X18470Y1046000D01*
X23549D01*
X26088Y1048539D01*
Y1053618D01*
X21009D01*
X31166Y1061235D02*
X41323D01*
X36244D01*
Y1046000D01*
X46401D02*
Y1061235D01*
X54019D01*
X56558Y1058696D01*
Y1053618D01*
X54019Y1051078D01*
X46401D01*
X76871Y1053618D02*
X87028D01*
X107341Y1061235D02*
X117498D01*
X112420D01*
Y1046000D01*
X125116D02*
X130194D01*
X132733Y1048539D01*
Y1053618D01*
X130194Y1056157D01*
X125116D01*
X122577Y1053618D01*
Y1048539D01*
X125116Y1046000D01*
X137812Y1040922D02*
Y1056157D01*
X145429D01*
X147968Y1053618D01*
Y1048539D01*
X145429Y1046000D01*
X137812D01*
X168282D02*
Y1061235D01*
X175899D01*
X178438Y1058696D01*
Y1053618D01*
X175899Y1051078D01*
X168282D01*
X186056Y1056157D02*
X191134D01*
X193673Y1053618D01*
Y1046000D01*
X186056D01*
X183517Y1048539D01*
X186056Y1051078D01*
X193673D01*
X198752Y1046000D02*
X206369D01*
X208909Y1048539D01*
X206369Y1051078D01*
X201291D01*
X198752Y1053618D01*
X201291Y1056157D01*
X208909D01*
X216526Y1058696D02*
Y1056157D01*
X213987D01*
X219065D01*
X216526D01*
Y1048539D01*
X219065Y1046000D01*
X234300D02*
X229222D01*
X226683Y1048539D01*
Y1053618D01*
X229222Y1056157D01*
X234300D01*
X236840Y1053618D01*
Y1051078D01*
X226683D01*
X-12000Y1033696D02*
X-1843Y1023539D01*
X-12000D02*
X-1843Y1033696D01*
X-12000Y1028618D02*
X-1843D01*
X-6922Y1023539D02*
Y1033696D01*
X3235Y1021000D02*
Y1023539D01*
X5774D01*
Y1021000D01*
X3235D01*
X26088Y1033696D02*
X23549Y1036235D01*
X18470D01*
X15931Y1033696D01*
Y1023539D01*
X18470Y1021000D01*
X23549D01*
X26088Y1023539D01*
Y1028618D01*
X21009D01*
X31166Y1036235D02*
X41323D01*
X36244D01*
Y1021000D01*
X56558Y1033696D02*
X54019Y1036235D01*
X48940D01*
X46401Y1033696D01*
Y1031157D01*
X48940Y1028618D01*
X54019D01*
X56558Y1026078D01*
Y1023539D01*
X54019Y1021000D01*
X48940D01*
X46401Y1023539D01*
X76871Y1028618D02*
X87028D01*
X107341Y1036235D02*
X117498D01*
X112420D01*
Y1021000D01*
X125116D02*
X130194D01*
X132733Y1023539D01*
Y1028618D01*
X130194Y1031157D01*
X125116D01*
X122577Y1028618D01*
Y1023539D01*
X125116Y1021000D01*
X137812Y1015922D02*
Y1031157D01*
X145429D01*
X147968Y1028618D01*
Y1023539D01*
X145429Y1021000D01*
X137812D01*
X178438Y1033696D02*
X175899Y1036235D01*
X170821D01*
X168282Y1033696D01*
Y1031157D01*
X170821Y1028618D01*
X175899D01*
X178438Y1026078D01*
Y1023539D01*
X175899Y1021000D01*
X170821D01*
X168282Y1023539D01*
X186056Y1021000D02*
X191134D01*
X193673Y1023539D01*
Y1028618D01*
X191134Y1031157D01*
X186056D01*
X183517Y1028618D01*
Y1023539D01*
X186056Y1021000D01*
X198752D02*
X203830D01*
X201291D01*
Y1036235D01*
X198752D01*
X221604D02*
Y1021000D01*
X213987D01*
X211448Y1023539D01*
Y1028618D01*
X213987Y1031157D01*
X221604D01*
X234300Y1021000D02*
X229222D01*
X226683Y1023539D01*
Y1028618D01*
X229222Y1031157D01*
X234300D01*
X236840Y1028618D01*
Y1026078D01*
X226683D01*
X241918Y1031157D02*
Y1021000D01*
Y1026078D01*
X244457Y1028618D01*
X246996Y1031157D01*
X249535D01*
X-12000Y1008696D02*
X-1843Y998539D01*
X-12000D02*
X-1843Y1008696D01*
X-12000Y1003618D02*
X-1843D01*
X-6922Y998539D02*
Y1008696D01*
X3235Y996000D02*
Y998539D01*
X5774D01*
Y996000D01*
X3235D01*
X26088Y1008696D02*
X23549Y1011235D01*
X18470D01*
X15931Y1008696D01*
Y998539D01*
X18470Y996000D01*
X23549D01*
X26088Y998539D01*
Y1003618D01*
X21009D01*
X31166Y1011235D02*
X41323D01*
X36244D01*
Y996000D01*
X46401Y1011235D02*
Y996000D01*
X56558D01*
X76871Y1003618D02*
X87028D01*
X107341Y1011235D02*
Y996000D01*
X117498D01*
X122577D02*
X127655D01*
X125116D01*
Y1011235D01*
X122577Y1008696D01*
X155586Y996000D02*
X150507Y1001078D01*
Y1006157D01*
X155586Y1011235D01*
X163203Y996000D02*
Y1011235D01*
X170821D01*
X173360Y1008696D01*
Y1003618D01*
X170821Y1001078D01*
X163203D01*
X180978Y996000D02*
X186056D01*
X188595Y998539D01*
Y1003618D01*
X186056Y1006157D01*
X180978D01*
X178438Y1003618D01*
Y998539D01*
X180978Y996000D01*
X193673D02*
X201291D01*
X203830Y998539D01*
X201291Y1001078D01*
X196213D01*
X193673Y1003618D01*
X196213Y1006157D01*
X203830D01*
X208909Y996000D02*
X213987D01*
X211448D01*
Y1006157D01*
X208909D01*
X224144Y1008696D02*
Y1006157D01*
X221604D01*
X226683D01*
X224144D01*
Y998539D01*
X226683Y996000D01*
X234300D02*
X239379D01*
X236840D01*
Y1006157D01*
X234300D01*
X246996D02*
X252075Y996000D01*
X257153Y1006157D01*
X269849Y996000D02*
X264771D01*
X262231Y998539D01*
Y1003618D01*
X264771Y1006157D01*
X269849D01*
X272388Y1003618D01*
Y1001078D01*
X262231D01*
X277466Y996000D02*
X282545Y1001078D01*
Y1006157D01*
X277466Y1011235D01*
X-12000Y983696D02*
X-1843Y973539D01*
X-12000D02*
X-1843Y983696D01*
X-12000Y978618D02*
X-1843D01*
X-6922Y973539D02*
Y983696D01*
X3235Y971000D02*
Y973539D01*
X5774D01*
Y971000D01*
X3235D01*
X26088Y983696D02*
X23549Y986235D01*
X18470D01*
X15931Y983696D01*
Y973539D01*
X18470Y971000D01*
X23549D01*
X26088Y973539D01*
Y978618D01*
X21009D01*
X31166Y986235D02*
Y971000D01*
X38784D01*
X41323Y973539D01*
Y976078D01*
X38784Y978618D01*
X31166D01*
X38784D01*
X41323Y981157D01*
Y983696D01*
X38784Y986235D01*
X31166D01*
X46401D02*
Y971000D01*
X56558D01*
X76871Y978618D02*
X87028D01*
X107341Y986235D02*
Y971000D01*
X117498D01*
X132733D02*
X122577D01*
X132733Y981157D01*
Y983696D01*
X130194Y986235D01*
X125116D01*
X122577Y983696D01*
X158125Y971000D02*
X153047Y976078D01*
Y981157D01*
X158125Y986235D01*
X165742Y971000D02*
Y986235D01*
X173360D01*
X175899Y983696D01*
Y978618D01*
X173360Y976078D01*
X165742D01*
X183517Y971000D02*
X188595D01*
X191134Y973539D01*
Y978618D01*
X188595Y981157D01*
X183517D01*
X180978Y978618D01*
Y973539D01*
X183517Y971000D01*
X196213D02*
X203830D01*
X206369Y973539D01*
X203830Y976078D01*
X198752D01*
X196213Y978618D01*
X198752Y981157D01*
X206369D01*
X211448Y971000D02*
X216526D01*
X213987D01*
Y981157D01*
X211448D01*
X226683Y983696D02*
Y981157D01*
X224144D01*
X229222D01*
X226683D01*
Y973539D01*
X229222Y971000D01*
X236840D02*
X241918D01*
X239379D01*
Y981157D01*
X236840D01*
X249535D02*
X254614Y971000D01*
X259692Y981157D01*
X272388Y971000D02*
X267310D01*
X264771Y973539D01*
Y978618D01*
X267310Y981157D01*
X272388D01*
X274927Y978618D01*
Y976078D01*
X264771D01*
X280005Y971000D02*
X285084Y976078D01*
Y981157D01*
X280005Y986235D01*
X-12000Y958696D02*
X-1843Y948539D01*
X-12000D02*
X-1843Y958696D01*
X-12000Y953617D02*
X-1843D01*
X-6922Y948539D02*
Y958696D01*
X3235Y946000D02*
Y948539D01*
X5774D01*
Y946000D01*
X3235D01*
X26088Y958696D02*
X23549Y961235D01*
X18470D01*
X15931Y958696D01*
Y948539D01*
X18470Y946000D01*
X23549D01*
X26088Y948539D01*
Y953617D01*
X21009D01*
X31166Y961235D02*
Y946000D01*
X38784D01*
X41323Y948539D01*
Y951078D01*
X38784Y953617D01*
X31166D01*
X38784D01*
X41323Y956157D01*
Y958696D01*
X38784Y961235D01*
X31166D01*
X56558Y958696D02*
X54019Y961235D01*
X48940D01*
X46401Y958696D01*
Y956157D01*
X48940Y953617D01*
X54019D01*
X56558Y951078D01*
Y948539D01*
X54019Y946000D01*
X48940D01*
X46401Y948539D01*
X76871Y953617D02*
X87028D01*
X107341Y961235D02*
Y946000D01*
X114959D01*
X117498Y948539D01*
Y951078D01*
X114959Y953617D01*
X107341D01*
X114959D01*
X117498Y956157D01*
Y958696D01*
X114959Y961235D01*
X107341D01*
X125116Y946000D02*
X130194D01*
X132733Y948539D01*
Y953617D01*
X130194Y956157D01*
X125116D01*
X122577Y953617D01*
Y948539D01*
X125116Y946000D01*
X140351Y958696D02*
Y956157D01*
X137812D01*
X142890D01*
X140351D01*
Y948539D01*
X142890Y946000D01*
X153047Y958696D02*
Y956157D01*
X150507D01*
X155586D01*
X153047D01*
Y948539D01*
X155586Y946000D01*
X165742D02*
X170821D01*
X173360Y948539D01*
Y953617D01*
X170821Y956157D01*
X165742D01*
X163203Y953617D01*
Y948539D01*
X165742Y946000D01*
X178438D02*
Y956157D01*
X180978D01*
X183517Y953617D01*
Y946000D01*
Y953617D01*
X186056Y956157D01*
X188595Y953617D01*
Y946000D01*
X219065Y958696D02*
X216526Y961235D01*
X211448D01*
X208909Y958696D01*
Y956157D01*
X211448Y953617D01*
X216526D01*
X219065Y951078D01*
Y948539D01*
X216526Y946000D01*
X211448D01*
X208909Y948539D01*
X226683Y946000D02*
X231761D01*
X234300Y948539D01*
Y953617D01*
X231761Y956157D01*
X226683D01*
X224144Y953617D01*
Y948539D01*
X226683Y946000D01*
X239379D02*
X244457D01*
X241918D01*
Y961235D01*
X239379D01*
X262231D02*
Y946000D01*
X254614D01*
X252075Y948539D01*
Y953617D01*
X254614Y956157D01*
X262231D01*
X274927Y946000D02*
X269849D01*
X267310Y948539D01*
Y953617D01*
X269849Y956157D01*
X274927D01*
X277466Y953617D01*
Y951078D01*
X267310D01*
X282545Y956157D02*
Y946000D01*
Y951078D01*
X285084Y953617D01*
X287623Y956157D01*
X290162D01*
X-12000Y933696D02*
X-1843Y923539D01*
X-12000D02*
X-1843Y933696D01*
X-12000Y928617D02*
X-1843D01*
X-6922Y923539D02*
Y933696D01*
X3235Y921000D02*
Y923539D01*
X5774D01*
Y921000D01*
X3235D01*
X26088Y933696D02*
X23549Y936235D01*
X18470D01*
X15931Y933696D01*
Y923539D01*
X18470Y921000D01*
X23549D01*
X26088Y923539D01*
Y928617D01*
X21009D01*
X31166Y936235D02*
Y921000D01*
X38784D01*
X41323Y923539D01*
Y926078D01*
X38784Y928617D01*
X31166D01*
X38784D01*
X41323Y931157D01*
Y933696D01*
X38784Y936235D01*
X31166D01*
X54019D02*
X48940D01*
X46401Y933696D01*
Y923539D01*
X48940Y921000D01*
X54019D01*
X56558Y923539D01*
Y933696D01*
X54019Y936235D01*
X76871Y928617D02*
X87028D01*
X107341Y936235D02*
Y921000D01*
X114959D01*
X117498Y923539D01*
Y926078D01*
X114959Y928617D01*
X107341D01*
X114959D01*
X117498Y931157D01*
Y933696D01*
X114959Y936235D01*
X107341D01*
X125116Y921000D02*
X130194D01*
X132733Y923539D01*
Y928617D01*
X130194Y931157D01*
X125116D01*
X122577Y928617D01*
Y923539D01*
X125116Y921000D01*
X140351Y933696D02*
Y931157D01*
X137812D01*
X142890D01*
X140351D01*
Y923539D01*
X142890Y921000D01*
X153047Y933696D02*
Y931157D01*
X150507D01*
X155586D01*
X153047D01*
Y923539D01*
X155586Y921000D01*
X165742D02*
X170821D01*
X173360Y923539D01*
Y928617D01*
X170821Y931157D01*
X165742D01*
X163203Y928617D01*
Y923539D01*
X165742Y921000D01*
X178438D02*
Y931157D01*
X180978D01*
X183517Y928617D01*
Y921000D01*
Y928617D01*
X186056Y931157D01*
X188595Y928617D01*
Y921000D01*
X216526Y936235D02*
X211448D01*
X208909Y933696D01*
Y923539D01*
X211448Y921000D01*
X216526D01*
X219065Y923539D01*
Y933696D01*
X216526Y936235D01*
X224144Y931157D02*
X229222Y921000D01*
X234300Y931157D01*
X246996Y921000D02*
X241918D01*
X239379Y923539D01*
Y928617D01*
X241918Y931157D01*
X246996D01*
X249535Y928617D01*
Y926078D01*
X239379D01*
X254614Y931157D02*
Y921000D01*
Y926078D01*
X257153Y928617D01*
X259692Y931157D01*
X262231D01*
X269849Y921000D02*
X274927D01*
X272388D01*
Y936235D01*
X269849D01*
X285084Y931157D02*
X290162D01*
X292701Y928617D01*
Y921000D01*
X285084D01*
X282545Y923539D01*
X285084Y926078D01*
X292701D01*
X297780Y931157D02*
Y923539D01*
X300319Y921000D01*
X307936D01*
Y918461D01*
X305397Y915922D01*
X302858D01*
X307936Y921000D02*
Y931157D01*
X-12000Y908696D02*
X-1843Y898539D01*
X-12000D02*
X-1843Y908696D01*
X-12000Y903617D02*
X-1843D01*
X-6922Y898539D02*
Y908696D01*
X3235Y896000D02*
Y898539D01*
X5774D01*
Y896000D01*
X3235D01*
X26088Y908696D02*
X23549Y911235D01*
X18470D01*
X15931Y908696D01*
Y898539D01*
X18470Y896000D01*
X23549D01*
X26088Y898539D01*
Y903617D01*
X21009D01*
X31166Y896000D02*
Y911235D01*
X36244Y906157D01*
X41323Y911235D01*
Y896000D01*
X56558D02*
X46401D01*
X56558Y906157D01*
Y908696D01*
X54019Y911235D01*
X48940D01*
X46401Y908696D01*
X76871Y903617D02*
X87028D01*
X107341Y896000D02*
Y911235D01*
X112420Y906157D01*
X117498Y911235D01*
Y896000D01*
X130194D02*
X125116D01*
X122577Y898539D01*
Y903617D01*
X125116Y906157D01*
X130194D01*
X132733Y903617D01*
Y901078D01*
X122577D01*
X147968Y906157D02*
X140351D01*
X137812Y903617D01*
Y898539D01*
X140351Y896000D01*
X147968D01*
X153047Y911235D02*
Y896000D01*
Y903617D01*
X155586Y906157D01*
X160664D01*
X163203Y903617D01*
Y896000D01*
X170821Y906157D02*
X175899D01*
X178438Y903617D01*
Y896000D01*
X170821D01*
X168282Y898539D01*
X170821Y901078D01*
X178438D01*
X183517Y896000D02*
Y906157D01*
X191134D01*
X193673Y903617D01*
Y896000D01*
X198752D02*
X203830D01*
X201291D01*
Y906157D01*
X198752D01*
X221604D02*
X213987D01*
X211448Y903617D01*
Y898539D01*
X213987Y896000D01*
X221604D01*
X229222Y906157D02*
X234300D01*
X236840Y903617D01*
Y896000D01*
X229222D01*
X226683Y898539D01*
X229222Y901078D01*
X236840D01*
X241918Y896000D02*
X246996D01*
X244457D01*
Y911235D01*
X241918D01*
X269849D02*
Y896000D01*
X277466D01*
X280006Y898539D01*
Y908696D01*
X277466Y911235D01*
X269849D01*
X285084Y906157D02*
Y896000D01*
Y901078D01*
X287623Y903617D01*
X290162Y906157D01*
X292701D01*
X302858D02*
X307936D01*
X310476Y903617D01*
Y896000D01*
X302858D01*
X300319Y898539D01*
X302858Y901078D01*
X310476D01*
X315554Y906157D02*
Y898539D01*
X318093Y896000D01*
X320632Y898539D01*
X323172Y896000D01*
X325711Y898539D01*
Y906157D01*
X330789Y896000D02*
X335868D01*
X333328D01*
Y906157D01*
X330789D01*
X343485Y896000D02*
Y906157D01*
X351102D01*
X353642Y903617D01*
Y896000D01*
X363798Y890922D02*
X366338D01*
X368877Y893461D01*
Y906157D01*
X361259D01*
X358720Y903617D01*
Y898539D01*
X361259Y896000D01*
X368877D01*
X-12000Y858696D02*
X-1843Y848539D01*
X-12000D02*
X-1843Y858696D01*
X-12000Y853617D02*
X-1843D01*
X-6922Y848539D02*
Y858696D01*
X3235Y846000D02*
Y848539D01*
X5774D01*
Y846000D01*
X3235D01*
X26088Y858696D02*
X23549Y861235D01*
X18470D01*
X15931Y858696D01*
Y848539D01*
X18470Y846000D01*
X23549D01*
X26088Y848539D01*
Y853617D01*
X21009D01*
X31166Y846000D02*
Y861235D01*
X36244Y856157D01*
X41323Y861235D01*
Y846000D01*
X54019D02*
Y861235D01*
X46401Y853617D01*
X56558D01*
X76871D02*
X87028D01*
X107341Y861235D02*
Y846000D01*
X117498D01*
X122577D02*
X127655D01*
X125116D01*
Y856157D01*
X122577D01*
X145429D02*
X137812D01*
X135272Y853617D01*
Y848539D01*
X137812Y846000D01*
X145429D01*
X158125D02*
X153047D01*
X150507Y848539D01*
Y853617D01*
X153047Y856157D01*
X158125D01*
X160664Y853617D01*
Y851078D01*
X150507D01*
X165742Y846000D02*
Y856157D01*
X173360D01*
X175899Y853617D01*
Y846000D01*
X191134Y856157D02*
X183517D01*
X180978Y853617D01*
Y848539D01*
X183517Y846000D01*
X191134D01*
X203830D02*
X198752D01*
X196213Y848539D01*
Y853617D01*
X198752Y856157D01*
X203830D01*
X206369Y853617D01*
Y851078D01*
X196213D01*
X43157Y-466304D02*
X40618Y-463765D01*
X35539D01*
X33000Y-466304D01*
Y-476461D01*
X35539Y-479000D01*
X40618D01*
X43157Y-476461D01*
X50774Y-479000D02*
X55853D01*
X58392Y-476461D01*
Y-471382D01*
X55853Y-468843D01*
X50774D01*
X48235Y-471382D01*
Y-476461D01*
X50774Y-479000D01*
X63470D02*
Y-468843D01*
X71088D01*
X73627Y-471382D01*
Y-479000D01*
X81244Y-466304D02*
Y-468843D01*
X78705D01*
X83784D01*
X81244D01*
Y-476461D01*
X83784Y-479000D01*
X93940Y-468843D02*
X99019D01*
X101558Y-471382D01*
Y-479000D01*
X93940D01*
X91401Y-476461D01*
X93940Y-473922D01*
X101558D01*
X116793Y-468843D02*
X109175D01*
X106636Y-471382D01*
Y-476461D01*
X109175Y-479000D01*
X116793D01*
X124410Y-466304D02*
Y-468843D01*
X121871D01*
X126950D01*
X124410D01*
Y-476461D01*
X126950Y-479000D01*
X134567Y-468843D02*
X137106D01*
Y-471382D01*
X134567D01*
Y-468843D01*
Y-476461D02*
X137106D01*
Y-479000D01*
X134567D01*
Y-476461D01*
X185539Y-468843D02*
X190618D01*
X193157Y-471382D01*
Y-479000D01*
X185539D01*
X183000Y-476461D01*
X185539Y-473922D01*
X193157D01*
X198235Y-463765D02*
Y-479000D01*
X205853D01*
X208392Y-476461D01*
Y-473922D01*
Y-471382D01*
X205853Y-468843D01*
X198235D01*
X223627Y-463765D02*
Y-479000D01*
X216009D01*
X213470Y-476461D01*
Y-471382D01*
X216009Y-468843D01*
X223627D01*
X228705D02*
Y-476461D01*
X231244Y-479000D01*
X238862D01*
Y-468843D01*
X243940Y-479000D02*
X249019D01*
X246479D01*
Y-463765D01*
X243940D01*
X256636Y-479000D02*
Y-468843D01*
X259175D01*
X261715Y-471382D01*
Y-479000D01*
Y-471382D01*
X264254Y-468843D01*
X266793Y-471382D01*
Y-479000D01*
X274410Y-468843D02*
X279489D01*
X282028Y-471382D01*
Y-479000D01*
X274410D01*
X271871Y-476461D01*
X274410Y-473922D01*
X282028D01*
X292185Y-484078D02*
X294724D01*
X297263Y-481539D01*
Y-468843D01*
X289646D01*
X287106Y-471382D01*
Y-476461D01*
X289646Y-479000D01*
X297263D01*
X302341Y-468843D02*
Y-476461D01*
X304881Y-479000D01*
X312498D01*
Y-468843D01*
X317577Y-479000D02*
X322655D01*
X320116D01*
Y-468843D01*
X317577D01*
X340429Y-463765D02*
Y-479000D01*
X332812D01*
X330272Y-476461D01*
Y-471382D01*
X332812Y-468843D01*
X340429D01*
X345508Y-479000D02*
Y-476461D01*
X348047D01*
Y-479000D01*
X345508D01*
X365821D02*
X360742D01*
X358203Y-476461D01*
Y-471382D01*
X360742Y-468843D01*
X365821D01*
X368360Y-471382D01*
Y-473922D01*
X358203D01*
X373438Y-479000D02*
X378517D01*
X375978D01*
Y-468843D01*
X373438D01*
X386134Y-479000D02*
X393752D01*
X396291Y-476461D01*
X393752Y-473922D01*
X388674D01*
X386134Y-471382D01*
X388674Y-468843D01*
X396291D01*
X401369Y-479000D02*
X408987D01*
X411526Y-476461D01*
X408987Y-473922D01*
X403909D01*
X401369Y-471382D01*
X403909Y-468843D01*
X411526D01*
X419144D02*
X424222D01*
X426761Y-471382D01*
Y-479000D01*
X419144D01*
X416604Y-476461D01*
X419144Y-473922D01*
X426761D01*
X439457D02*
Y-471382D01*
X436918D01*
Y-473922D01*
X439457D01*
X441996Y-471382D01*
Y-466304D01*
X439457Y-463765D01*
X434379D01*
X431839Y-466304D01*
Y-476461D01*
X434379Y-479000D01*
X441996D01*
X452153Y-484078D02*
X454692D01*
X457231Y-481539D01*
Y-468843D01*
X449614D01*
X447075Y-471382D01*
Y-476461D01*
X449614Y-479000D01*
X457231D01*
X462310D02*
Y-468843D01*
X464849D01*
X467388Y-471382D01*
Y-479000D01*
Y-471382D01*
X469927Y-468843D01*
X472466Y-471382D01*
Y-479000D01*
X480084Y-468843D02*
X485162D01*
X487701Y-471382D01*
Y-479000D01*
X480084D01*
X477545Y-476461D01*
X480084Y-473922D01*
X487701D01*
X492780Y-479000D02*
X497858D01*
X495319D01*
Y-468843D01*
X492780D01*
X505476Y-479000D02*
X510554D01*
X508015D01*
Y-463765D01*
X505476D01*
X518172Y-479000D02*
Y-476461D01*
X520711D01*
Y-479000D01*
X518172D01*
X541024Y-468843D02*
X533407D01*
X530868Y-471382D01*
Y-476461D01*
X533407Y-479000D01*
X541024D01*
X548642D02*
X553720D01*
X556259Y-476461D01*
Y-471382D01*
X553720Y-468843D01*
X548642D01*
X546102Y-471382D01*
Y-476461D01*
X548642Y-479000D01*
X561338D02*
Y-468843D01*
X563877D01*
X566416Y-471382D01*
Y-479000D01*
Y-471382D01*
X568955Y-468843D01*
X571494Y-471382D01*
Y-479000D01*
X43157Y-366304D02*
X40618Y-363765D01*
X35539D01*
X33000Y-366304D01*
Y-376461D01*
X35539Y-379000D01*
X40618D01*
X43157Y-376461D01*
X50774Y-379000D02*
X55853D01*
X58392Y-376461D01*
Y-371382D01*
X55853Y-368843D01*
X50774D01*
X48235Y-371382D01*
Y-376461D01*
X50774Y-379000D01*
X63470Y-384078D02*
Y-368843D01*
X71088D01*
X73627Y-371382D01*
Y-376461D01*
X71088Y-379000D01*
X63470D01*
X78705Y-368843D02*
Y-376461D01*
X81244Y-379000D01*
X88862D01*
Y-381539D01*
X86323Y-384078D01*
X83784D01*
X88862Y-379000D02*
Y-368843D01*
X93940D02*
Y-379000D01*
Y-373922D01*
X96480Y-371382D01*
X99019Y-368843D01*
X101558D01*
X109175Y-379000D02*
X114254D01*
X111715D01*
Y-368843D01*
X109175D01*
X126950Y-384078D02*
X129489D01*
X132028Y-381539D01*
Y-368843D01*
X124410D01*
X121871Y-371382D01*
Y-376461D01*
X124410Y-379000D01*
X132028D01*
X137106Y-363765D02*
Y-379000D01*
Y-371382D01*
X139646Y-368843D01*
X144724D01*
X147263Y-371382D01*
Y-379000D01*
X154881Y-366304D02*
Y-368843D01*
X152341D01*
X157420D01*
X154881D01*
Y-376461D01*
X157420Y-379000D01*
X190429D02*
X180272D01*
X190429Y-368843D01*
Y-366304D01*
X187890Y-363765D01*
X182812D01*
X180272Y-366304D01*
X195508D02*
X198047Y-363765D01*
X203125D01*
X205664Y-366304D01*
Y-376461D01*
X203125Y-379000D01*
X198047D01*
X195508Y-376461D01*
Y-366304D01*
X220899Y-379000D02*
X210742D01*
X220899Y-368843D01*
Y-366304D01*
X218360Y-363765D01*
X213282D01*
X210742Y-366304D01*
X225978D02*
X228517Y-363765D01*
X233595D01*
X236134Y-366304D01*
Y-376461D01*
X233595Y-379000D01*
X228517D01*
X225978Y-376461D01*
Y-366304D01*
X433000Y-363765D02*
Y-379000D01*
X440618D01*
X443157Y-376461D01*
Y-366304D01*
X440618Y-363765D01*
X433000D01*
X455853Y-379000D02*
X450774D01*
X448235Y-376461D01*
Y-371382D01*
X450774Y-368843D01*
X455853D01*
X458392Y-371382D01*
Y-373922D01*
X448235D01*
X463470Y-379000D02*
X471088D01*
X473627Y-376461D01*
X471088Y-373922D01*
X466009D01*
X463470Y-371382D01*
X466009Y-368843D01*
X473627D01*
X478705Y-379000D02*
X483784D01*
X481244D01*
Y-368843D01*
X478705D01*
X496479Y-384078D02*
X499019D01*
X501558Y-381539D01*
Y-368843D01*
X493940D01*
X491401Y-371382D01*
Y-376461D01*
X493940Y-379000D01*
X501558D01*
X506636D02*
Y-368843D01*
X514254D01*
X516793Y-371382D01*
Y-379000D01*
X529489D02*
X524411D01*
X521871Y-376461D01*
Y-371382D01*
X524411Y-368843D01*
X529489D01*
X532028Y-371382D01*
Y-373922D01*
X521871D01*
X547263Y-363765D02*
Y-379000D01*
X539646D01*
X537106Y-376461D01*
Y-371382D01*
X539646Y-368843D01*
X547263D01*
X567576Y-363765D02*
Y-379000D01*
X575194D01*
X577733Y-376461D01*
Y-373922D01*
Y-371382D01*
X575194Y-368843D01*
X567576D01*
X582812D02*
Y-376461D01*
X585351Y-379000D01*
X592968D01*
Y-381539D01*
X590429Y-384078D01*
X587890D01*
X592968Y-379000D02*
Y-368843D01*
X613282Y-379000D02*
Y-368843D01*
X618360Y-363765D01*
X623438Y-368843D01*
Y-379000D01*
Y-371382D01*
X613282D01*
X628517Y-363765D02*
Y-379000D01*
X636134D01*
X638674Y-376461D01*
Y-373922D01*
Y-371382D01*
X636134Y-368843D01*
X628517D01*
X653909Y-363765D02*
Y-379000D01*
X646291D01*
X643752Y-376461D01*
Y-371382D01*
X646291Y-368843D01*
X653909D01*
X658987D02*
Y-376461D01*
X661526Y-379000D01*
X669144D01*
Y-368843D01*
X674222Y-379000D02*
X679300D01*
X676761D01*
Y-363765D01*
X674222D01*
X686918Y-379000D02*
Y-368843D01*
X689457D01*
X691996Y-371382D01*
Y-379000D01*
Y-371382D01*
X694535Y-368843D01*
X697075Y-371382D01*
Y-379000D01*
X704692Y-368843D02*
X709771D01*
X712310Y-371382D01*
Y-379000D01*
X704692D01*
X702153Y-376461D01*
X704692Y-373922D01*
X712310D01*
X722466Y-384078D02*
X725006D01*
X727545Y-381539D01*
Y-368843D01*
X719927D01*
X717388Y-371382D01*
Y-376461D01*
X719927Y-379000D01*
X727545D01*
X732623Y-368843D02*
Y-376461D01*
X735162Y-379000D01*
X742780D01*
Y-368843D01*
X747858Y-379000D02*
X752936D01*
X750397D01*
Y-368843D01*
X747858D01*
X770711Y-363765D02*
Y-379000D01*
X763093D01*
X760554Y-376461D01*
Y-371382D01*
X763093Y-368843D01*
X770711D01*
X438078Y-409078D02*
X440618D01*
X443157Y-406539D01*
Y-393843D01*
X435539D01*
X433000Y-396382D01*
Y-401461D01*
X435539Y-404000D01*
X443157D01*
X448235D02*
X453313D01*
X450774D01*
Y-393843D01*
X448235D01*
X463470Y-391304D02*
Y-393843D01*
X460931D01*
X466009D01*
X463470D01*
Y-401461D01*
X466009Y-404000D01*
X473627Y-388765D02*
Y-404000D01*
Y-396382D01*
X476166Y-393843D01*
X481244D01*
X483784Y-396382D01*
Y-404000D01*
X488862Y-393843D02*
Y-401461D01*
X491401Y-404000D01*
X499019D01*
Y-393843D01*
X504097Y-388765D02*
Y-404000D01*
X511715D01*
X514254Y-401461D01*
Y-398922D01*
Y-396382D01*
X511715Y-393843D01*
X504097D01*
X519332D02*
X521871D01*
Y-396382D01*
X519332D01*
Y-393843D01*
Y-401461D02*
X521871D01*
Y-404000D01*
X519332D01*
Y-401461D01*
X549802Y-393843D02*
X554881D01*
X557420Y-396382D01*
Y-404000D01*
X549802D01*
X547263Y-401461D01*
X549802Y-398922D01*
X557420D01*
X562498Y-388765D02*
Y-404000D01*
X570116D01*
X572655Y-401461D01*
Y-398922D01*
Y-396382D01*
X570116Y-393843D01*
X562498D01*
X587890Y-388765D02*
Y-404000D01*
X580272D01*
X577733Y-401461D01*
Y-396382D01*
X580272Y-393843D01*
X587890D01*
X592968D02*
Y-401461D01*
X595507Y-404000D01*
X603125D01*
Y-393843D01*
X608203Y-404000D02*
X613282D01*
X610742D01*
Y-388765D01*
X608203D01*
X620899Y-404000D02*
Y-393843D01*
X623438D01*
X625978Y-396382D01*
Y-404000D01*
Y-396382D01*
X628517Y-393843D01*
X631056Y-396382D01*
Y-404000D01*
X638674Y-393843D02*
X643752D01*
X646291Y-396382D01*
Y-404000D01*
X638674D01*
X636134Y-401461D01*
X638674Y-398922D01*
X646291D01*
X656448Y-409078D02*
X658987D01*
X661526Y-406539D01*
Y-393843D01*
X653908D01*
X651369Y-396382D01*
Y-401461D01*
X653908Y-404000D01*
X661526D01*
X666604Y-393843D02*
Y-401461D01*
X669144Y-404000D01*
X676761D01*
Y-393843D01*
X681840Y-404000D02*
X686918D01*
X684379D01*
Y-393843D01*
X681840D01*
X704692Y-388765D02*
Y-404000D01*
X697075D01*
X694535Y-401461D01*
Y-396382D01*
X697075Y-393843D01*
X704692D01*
X717388Y-404000D02*
X712310D01*
X709771Y-401461D01*
Y-396382D01*
X712310Y-393843D01*
X717388D01*
X719927Y-396382D01*
Y-398922D01*
X709771D01*
X725005Y-404000D02*
X730084D01*
X727545D01*
Y-393843D01*
X725005D01*
X737701Y-404000D02*
X745319D01*
X747858Y-401461D01*
X745319Y-398922D01*
X740241D01*
X737701Y-396382D01*
X740241Y-393843D01*
X747858D01*
X752936Y-404000D02*
X760554D01*
X763093Y-401461D01*
X760554Y-398922D01*
X755476D01*
X752936Y-396382D01*
X755476Y-393843D01*
X763093D01*
X770711D02*
X775789D01*
X778328Y-396382D01*
Y-404000D01*
X770711D01*
X768172Y-401461D01*
X770711Y-398922D01*
X778328D01*
X-12000Y883696D02*
X-1843Y873539D01*
X-12000D02*
X-1843Y883696D01*
X-12000Y878617D02*
X-1843D01*
X-6922Y873539D02*
Y883696D01*
X3235Y871000D02*
Y873539D01*
X5774D01*
Y871000D01*
X3235D01*
X26088Y883696D02*
X23549Y886235D01*
X18470D01*
X15931Y883696D01*
Y873539D01*
X18470Y871000D01*
X23549D01*
X26088Y873539D01*
Y878617D01*
X21009D01*
X31166Y871000D02*
Y886235D01*
X36244Y881157D01*
X41323Y886235D01*
Y871000D01*
X46401Y883696D02*
X48940Y886235D01*
X54019D01*
X56558Y883696D01*
Y881157D01*
X54019Y878617D01*
X51480D01*
X54019D01*
X56558Y876078D01*
Y873539D01*
X54019Y871000D01*
X48940D01*
X46401Y873539D01*
X76871Y878617D02*
X87028D01*
X107341Y871000D02*
Y886235D01*
X112420Y881157D01*
X117498Y886235D01*
Y871000D01*
X125116Y881157D02*
X130194D01*
X132733Y878617D01*
Y871000D01*
X125116D01*
X122577Y873539D01*
X125116Y876078D01*
X132733D01*
X137812Y871000D02*
Y881157D01*
X145429D01*
X147968Y878617D01*
Y871000D01*
X153047Y881157D02*
Y873539D01*
X155586Y871000D01*
X163203D01*
Y881157D01*
X170821Y871000D02*
Y883696D01*
Y878617D01*
X168282D01*
X173360D01*
X170821D01*
Y883696D01*
X173360Y886235D01*
X183517Y881157D02*
X188595D01*
X191134Y878617D01*
Y871000D01*
X183517D01*
X180978Y873539D01*
X183517Y876078D01*
X191134D01*
X206369Y881157D02*
X198752D01*
X196213Y878617D01*
Y873539D01*
X198752Y871000D01*
X206369D01*
X213987Y883696D02*
Y881157D01*
X211448D01*
X216526D01*
X213987D01*
Y873539D01*
X216526Y871000D01*
X224144Y881157D02*
Y873539D01*
X226683Y871000D01*
X234300D01*
Y881157D01*
X239379D02*
Y871000D01*
Y876078D01*
X241918Y878617D01*
X244457Y881157D01*
X246996D01*
X254614Y871000D02*
X259692D01*
X257153D01*
Y881157D01*
X254614D01*
X267310Y871000D02*
Y881157D01*
X274927D01*
X277466Y878617D01*
Y871000D01*
X287623Y865922D02*
X290162D01*
X292701Y868461D01*
Y881157D01*
X285084D01*
X282545Y878617D01*
Y873539D01*
X285084Y871000D01*
X292701D01*
X313015D02*
Y886235D01*
X323172Y871000D01*
Y886235D01*
X330789Y871000D02*
X335868D01*
X338407Y873539D01*
Y878617D01*
X335868Y881157D01*
X330789D01*
X328250Y878617D01*
Y873539D01*
X330789Y871000D01*
X346024Y883696D02*
Y881157D01*
X343485D01*
X348563D01*
X346024D01*
Y873539D01*
X348563Y871000D01*
X363798D02*
X358720D01*
X356181Y873539D01*
Y878617D01*
X358720Y881157D01*
X363798D01*
X366338Y878617D01*
Y876078D01*
X356181D01*
X371416Y871000D02*
X379034D01*
X381573Y873539D01*
X379034Y876078D01*
X373955D01*
X371416Y878617D01*
X373955Y881157D01*
X381573D01*
M02*
