G04 Layer_Physical_Order=1*
G04 Layer_Color=255*
%FSLAX44Y44*%
%MOMM*%
G71*
G01*
G75*
%ADD10R,0.9000X0.6000*%
%ADD11R,2.6000X2.5000*%
%ADD12R,2.5000X2.6000*%
%ADD13R,1.0000X0.5500*%
%ADD14R,0.5500X1.0000*%
%ADD15R,3.5000X2.2000*%
%ADD16R,0.6000X2.2000*%
%ADD17R,0.5500X1.5000*%
%ADD18R,1.5000X0.5500*%
%ADD19R,0.7000X1.3000*%
%ADD20R,1.3000X0.7000*%
%ADD21R,2.7000X2.0000*%
%ADD22C,1.0160*%
%ADD23R,1.3000X0.9000*%
%ADD24R,0.9000X1.3000*%
%ADD25R,0.5588X0.6858*%
%ADD26R,0.6858X0.5588*%
%ADD27R,0.8000X0.8000*%
%ADD28R,1.6000X3.0000*%
%ADD29R,1.3500X0.4000*%
%ADD30R,1.4000X1.6000*%
%ADD31R,1.9000X1.9000*%
%ADD32C,0.3000*%
%ADD33C,0.4000*%
%ADD34C,0.5000*%
%ADD35C,0.6000*%
%ADD36O,1.6000X2.0000*%
%ADD37R,1.6000X2.0000*%
%ADD38C,1.9000*%
%ADD39R,1.9000X1.9000*%
%ADD40C,3.2000*%
%ADD41C,4.0000*%
%ADD42R,2.0000X1.6000*%
%ADD43O,2.0000X1.6000*%
%ADD44C,1.7000*%
%ADD45R,1.7000X1.7000*%
G04:AMPARAMS|DCode=46|XSize=2mm|YSize=1.25mm|CornerRadius=0.3125mm|HoleSize=0mm|Usage=FLASHONLY|Rotation=0.000|XOffset=0mm|YOffset=0mm|HoleType=Round|Shape=RoundedRectangle|*
%AMROUNDEDRECTD46*
21,1,2.0000,0.6250,0,0,0.0*
21,1,1.3750,1.2500,0,0,0.0*
1,1,0.6250,0.6875,-0.3125*
1,1,0.6250,-0.6875,-0.3125*
1,1,0.6250,-0.6875,0.3125*
1,1,0.6250,0.6875,0.3125*
%
%ADD46ROUNDEDRECTD46*%
G04:AMPARAMS|DCode=47|XSize=2mm|YSize=1.2mm|CornerRadius=0.3mm|HoleSize=0mm|Usage=FLASHONLY|Rotation=0.000|XOffset=0mm|YOffset=0mm|HoleType=Round|Shape=RoundedRectangle|*
%AMROUNDEDRECTD47*
21,1,2.0000,0.6000,0,0,0.0*
21,1,1.4000,1.2000,0,0,0.0*
1,1,0.6000,0.7000,-0.3000*
1,1,0.6000,-0.7000,-0.3000*
1,1,0.6000,-0.7000,0.3000*
1,1,0.6000,0.7000,0.3000*
%
%ADD47ROUNDEDRECTD47*%
%ADD48C,0.6000*%
G36*
X92000Y129000D02*
Y93000D01*
X41000D01*
Y88000D01*
X3000D01*
Y106000D01*
X64000D01*
Y119000D01*
X83000D01*
Y130000D01*
X91586D01*
X92000Y129000D01*
D02*
G37*
G36*
X202000Y115000D02*
X219000D01*
Y104000D01*
X185000D01*
Y78000D01*
X162000D01*
Y99000D01*
X168000D01*
Y106000D01*
Y128000D01*
X202000D01*
Y115000D01*
D02*
G37*
G36*
X149000Y106000D02*
X128000D01*
X128000Y78000D01*
X105000D01*
X105000Y128000D01*
X149000D01*
Y106000D01*
D02*
G37*
G36*
X213000Y95000D02*
Y9000D01*
Y3000D01*
X85000Y3000D01*
X85000Y40000D01*
X61000D01*
X61000Y84230D01*
X61000Y85500D01*
X83000D01*
Y87000D01*
X97000D01*
Y70000D01*
X193000D01*
Y96000D01*
X212000D01*
X213000Y95000D01*
D02*
G37*
G36*
X364000Y15000D02*
X345000D01*
Y46000D01*
X325000D01*
Y53000D01*
X364000D01*
Y15000D01*
D02*
G37*
G36*
X55000Y67000D02*
Y36000D01*
X76000D01*
Y3000D01*
X3000D01*
X3000Y70000D01*
X55000D01*
Y67000D01*
D02*
G37*
D10*
X68000Y229000D02*
D03*
Y214000D02*
D03*
Y183750D02*
D03*
Y198750D02*
D03*
D11*
X250000Y317500D02*
D03*
Y268500D02*
D03*
D12*
X459500Y281000D02*
D03*
X410500D02*
D03*
D13*
X205500Y164500D02*
D03*
Y155000D02*
D03*
Y145500D02*
D03*
X232500Y164500D02*
D03*
Y145500D02*
D03*
X172500Y441500D02*
D03*
Y432000D02*
D03*
Y422500D02*
D03*
X199500Y441500D02*
D03*
Y422500D02*
D03*
D14*
X671500Y171500D02*
D03*
X662000D02*
D03*
X652500D02*
D03*
X671500Y144500D02*
D03*
X652500D02*
D03*
X50500Y249500D02*
D03*
X60000D02*
D03*
X69500D02*
D03*
X50500Y276500D02*
D03*
X69500D02*
D03*
D15*
X158250Y179000D02*
D03*
D16*
X183650Y117000D02*
D03*
X170950D02*
D03*
X158250D02*
D03*
X145550D02*
D03*
X132850D02*
D03*
D17*
X182000Y258000D02*
D03*
X174000D02*
D03*
X166000D02*
D03*
X158000D02*
D03*
X150000D02*
D03*
X142000D02*
D03*
X134000D02*
D03*
X126000D02*
D03*
Y342000D02*
D03*
X134000D02*
D03*
X142000D02*
D03*
X150000D02*
D03*
X158000D02*
D03*
X166000D02*
D03*
X174000D02*
D03*
X182000D02*
D03*
D18*
X112000Y272000D02*
D03*
Y280000D02*
D03*
Y288000D02*
D03*
Y296000D02*
D03*
Y304000D02*
D03*
Y312000D02*
D03*
Y320000D02*
D03*
Y328000D02*
D03*
X196000D02*
D03*
Y320000D02*
D03*
Y312000D02*
D03*
Y304000D02*
D03*
Y296000D02*
D03*
Y288000D02*
D03*
Y280000D02*
D03*
Y272000D02*
D03*
D19*
X34500Y256000D02*
D03*
X15500D02*
D03*
X272500Y87000D02*
D03*
X291500D02*
D03*
X427500Y227000D02*
D03*
X408500D02*
D03*
X595500Y363500D02*
D03*
X614500D02*
D03*
X237500Y442000D02*
D03*
X256500D02*
D03*
X627500Y225000D02*
D03*
X608500D02*
D03*
X372500Y99000D02*
D03*
X391500D02*
D03*
X104500Y174750D02*
D03*
X85500D02*
D03*
X104500Y195750D02*
D03*
X85500D02*
D03*
X104500Y216750D02*
D03*
X85500D02*
D03*
X75500Y349000D02*
D03*
X94500D02*
D03*
X142500Y214500D02*
D03*
X123500D02*
D03*
X292500Y384000D02*
D03*
X273500D02*
D03*
X292500Y406000D02*
D03*
X273500D02*
D03*
D20*
X648000Y224500D02*
D03*
Y243500D02*
D03*
X251000Y146500D02*
D03*
Y165500D02*
D03*
X30000Y297500D02*
D03*
Y278500D02*
D03*
X276000Y50500D02*
D03*
Y69500D02*
D03*
X669000Y224500D02*
D03*
Y243500D02*
D03*
X669750Y208750D02*
D03*
Y189750D02*
D03*
X332000Y49500D02*
D03*
Y68500D02*
D03*
Y69500D02*
D03*
Y88500D02*
D03*
X637000Y436500D02*
D03*
Y417500D02*
D03*
X605000Y473500D02*
D03*
Y454500D02*
D03*
X580000Y473500D02*
D03*
Y454500D02*
D03*
X219000Y280500D02*
D03*
Y261500D02*
D03*
X88000Y265500D02*
D03*
Y284500D02*
D03*
X173000Y399500D02*
D03*
Y380500D02*
D03*
D21*
X22000Y64000D02*
D03*
Y96000D02*
D03*
D22*
X226000Y51000D02*
D03*
X671000Y17000D02*
D03*
X669000Y517000D02*
D03*
X100000Y516000D02*
D03*
D23*
X447750Y60500D02*
D03*
Y79500D02*
D03*
X196000Y183000D02*
D03*
Y202000D02*
D03*
X648000Y188500D02*
D03*
Y207500D02*
D03*
X235000Y127500D02*
D03*
Y108500D02*
D03*
X218000Y201750D02*
D03*
Y182750D02*
D03*
Y422500D02*
D03*
Y441500D02*
D03*
X212000Y127500D02*
D03*
Y108500D02*
D03*
X112000Y140500D02*
D03*
Y121500D02*
D03*
X354000Y68500D02*
D03*
Y49500D02*
D03*
X307000Y68500D02*
D03*
Y49500D02*
D03*
X637000Y472500D02*
D03*
Y453500D02*
D03*
X20000Y429500D02*
D03*
Y448500D02*
D03*
X173750Y219500D02*
D03*
Y238500D02*
D03*
X219000Y316500D02*
D03*
Y297500D02*
D03*
X218250Y238750D02*
D03*
Y219750D02*
D03*
X196250Y219000D02*
D03*
Y238000D02*
D03*
D24*
X468250Y55000D02*
D03*
X487250D02*
D03*
X104500Y240000D02*
D03*
X85500D02*
D03*
X68500Y294000D02*
D03*
X49500D02*
D03*
X670500Y126000D02*
D03*
X651500D02*
D03*
X407500Y249750D02*
D03*
X426500D02*
D03*
X465250Y250250D02*
D03*
X446250D02*
D03*
X408500Y99000D02*
D03*
X427500D02*
D03*
X408500Y77000D02*
D03*
X427500D02*
D03*
X263500Y480000D02*
D03*
X244500D02*
D03*
X446500Y227000D02*
D03*
X465500D02*
D03*
X468250Y77250D02*
D03*
X487250D02*
D03*
X36500Y522000D02*
D03*
X17500D02*
D03*
X615500Y342000D02*
D03*
X596500D02*
D03*
X381500Y53000D02*
D03*
X400500D02*
D03*
X263500Y239000D02*
D03*
X244500D02*
D03*
X259500Y345000D02*
D03*
X240500D02*
D03*
X141750Y235250D02*
D03*
X122750D02*
D03*
D25*
X629192Y243500D02*
D03*
X604808D02*
D03*
D26*
X12000Y273808D02*
D03*
Y298192D02*
D03*
D27*
X241000Y385000D02*
D03*
X257000D02*
D03*
X241000Y403000D02*
D03*
X257000D02*
D03*
X241000Y422000D02*
D03*
X257000D02*
D03*
X598000Y382750D02*
D03*
X614000D02*
D03*
D28*
X72000Y21500D02*
D03*
Y62500D02*
D03*
Y103500D02*
D03*
Y144500D02*
D03*
D29*
X48745Y188000D02*
D03*
Y194500D02*
D03*
Y201000D02*
D03*
Y207500D02*
D03*
Y214000D02*
D03*
D30*
X46495Y232750D02*
D03*
Y169000D02*
D03*
D31*
X21995Y213000D02*
D03*
Y189000D02*
D03*
X202500Y19500D02*
D03*
D32*
X591350Y489750D02*
X609600Y508000D01*
X582250Y473500D02*
X599750Y491000D01*
X618000D01*
X635000Y508000D01*
X580000Y473500D02*
X582250D01*
X620650Y119400D02*
Y124800D01*
X601250Y100000D02*
X620650Y119400D01*
X601250Y57500D02*
Y100000D01*
Y57500D02*
X633350Y25400D01*
X635000D01*
X585250Y104000D02*
X595250Y114000D01*
X585250Y49750D02*
Y104000D01*
Y49750D02*
X609600Y25400D01*
X595250Y114000D02*
Y124800D01*
X569850Y39750D02*
Y124800D01*
Y39750D02*
X584200Y25400D01*
X544450Y113550D02*
Y124800D01*
Y113550D02*
X552250Y105750D01*
Y46250D02*
Y105750D01*
Y46250D02*
X558800Y39700D01*
Y25400D02*
Y39700D01*
X519050Y119450D02*
Y124800D01*
Y119450D02*
X538750Y99750D01*
Y54000D02*
Y99750D01*
X532500Y47750D02*
X538750Y54000D01*
X532500Y26300D02*
Y47750D01*
Y26300D02*
X533400Y25400D01*
X508000D02*
Y39250D01*
X341250Y201000D02*
Y208750D01*
X366650Y117400D02*
Y124800D01*
X315850Y201000D02*
X317250D01*
X311087Y214500D02*
X315250D01*
X304000Y221000D02*
X312500D01*
X304350Y207763D02*
X311087Y214500D01*
X290450Y124800D02*
Y155200D01*
X303000Y167750D01*
X371750Y239250D02*
Y307000D01*
X341250Y208750D02*
X371750Y239250D01*
X317250Y201000D02*
X358250Y242000D01*
X315250Y214500D02*
X346750Y246000D01*
X358250Y242000D02*
Y309750D01*
X312500Y221000D02*
X337250Y245750D01*
X315850Y124800D02*
Y154850D01*
X325750Y164750D01*
X279000Y181500D02*
X331750D01*
X314960Y508000D02*
X318000D01*
X269500Y191000D02*
X279000Y181500D01*
X482600Y500850D02*
Y508000D01*
X328500Y248750D02*
Y327750D01*
X589250Y201000D02*
X595250D01*
X273000Y116750D02*
X279750Y110000D01*
X359250D01*
X366650Y117400D01*
X266500Y110750D02*
X274500Y102750D01*
X368750D01*
X372500Y99000D01*
X366650Y217650D02*
X384000Y235000D01*
X366650Y201000D02*
Y217650D01*
X621000Y453500D02*
X637000D01*
X669500Y161000D02*
X671500Y163000D01*
Y171500D01*
X580000Y443000D02*
Y454500D01*
X315250Y442750D02*
X327000Y454500D01*
X325000Y378500D02*
Y437000D01*
X331250Y443250D01*
X567750Y434500D02*
X571500D01*
X580000Y443000D01*
X605000Y444250D02*
Y454500D01*
X622600Y444600D02*
X665000D01*
X591250Y413250D02*
X622600Y444600D01*
X238760Y498490D02*
Y508000D01*
X341250Y124800D02*
Y172000D01*
X331750Y181500D02*
X341250Y172000D01*
X476750Y5000D02*
X485250Y13500D01*
Y33000D01*
X509500Y57250D01*
Y84750D01*
X480500Y113750D02*
X509500Y84750D01*
X648500Y140500D02*
X652500Y144500D01*
X480500Y113750D02*
Y134500D01*
X620650Y176350D02*
X652500Y144500D01*
X608500Y225000D02*
X620650Y212850D01*
X563500Y424250D02*
X585000D01*
X605000Y444250D01*
X563750Y413250D02*
X591250D01*
X620650Y176350D02*
Y201000D01*
Y212850D01*
X574000Y473500D02*
X580000D01*
X577250Y489750D02*
X591350D01*
X531250Y443750D02*
X577250Y489750D01*
X637000Y472500D02*
X648250D01*
X650750Y470000D01*
X665000D01*
Y419200D02*
Y423750D01*
X652250Y436500D02*
X665000Y423750D01*
X637000Y436500D02*
X652250D01*
X614000Y364000D02*
Y382750D01*
Y364000D02*
X614500Y363500D01*
X648000Y207500D02*
Y224500D01*
X668500Y244000D02*
Y262500D01*
X648000Y243500D02*
X668000D01*
X668500Y244000D01*
X629192Y243500D02*
X648000D01*
X629192Y243500D02*
X629192Y243500D01*
X610192Y262500D02*
X629192Y243500D01*
X603500Y262500D02*
X610192D01*
X648000Y207500D02*
X657750Y197750D01*
X659250D01*
X609600Y508000D02*
Y519350D01*
X615500Y525250D01*
X645500D01*
X653250Y517500D01*
Y500750D02*
Y517500D01*
X636500Y484000D02*
X653250Y500750D01*
X607750Y484000D02*
X636500D01*
X605000Y481250D02*
X607750Y484000D01*
X605000Y473500D02*
Y481250D01*
X408500Y227000D02*
X426500Y245000D01*
X392050Y201000D02*
Y210550D01*
X459500Y263500D02*
Y281000D01*
X446250Y250250D02*
X459500Y263500D01*
X427500Y231500D02*
X446250Y250250D01*
X427500Y227000D02*
Y231500D01*
X410500Y281000D02*
X426250Y265250D01*
Y247250D02*
X426500Y247000D01*
X426250Y247250D02*
Y265250D01*
X426500Y245000D02*
Y247000D01*
Y249750D01*
X201860Y516360D02*
X212750Y527250D01*
X330000D01*
X340360Y516890D01*
Y508000D02*
Y516890D01*
X201860Y492110D02*
Y516360D01*
X22600Y472300D02*
X31030D01*
X43029Y484300D01*
X244500Y480000D02*
Y492750D01*
X238760Y498490D02*
X244500Y492750D01*
X228250Y480500D02*
X230250D01*
X228250D02*
X228750Y480000D01*
X244500D01*
X59250Y511750D02*
X84750D01*
X48000Y500500D02*
X59250Y511750D01*
X48000Y497700D02*
Y500500D01*
X172500Y432000D02*
Y441500D01*
X187500Y456500D02*
X284250D01*
X277500Y463500D02*
X295750Y481750D01*
X284250Y456500D02*
X302250Y474500D01*
Y489500D01*
X289560Y502190D02*
Y508000D01*
Y502190D02*
X302250Y489500D01*
X75500Y349000D02*
X75750Y349250D01*
Y367000D01*
X23600Y375629D02*
X43529Y355700D01*
X23600Y375629D02*
Y381300D01*
X49000D02*
X49450D01*
X63750Y367000D01*
X75750D01*
X43529Y355700D02*
X60650D01*
X63500Y352850D01*
X44029Y369300D02*
X54121D01*
X68500Y354921D01*
X119571Y335571D02*
X126000Y342000D01*
X110500Y318500D02*
X112000Y320000D01*
X109050Y319950D02*
X110500Y318500D01*
X111586Y312414D02*
X112000Y312000D01*
X68500Y341050D02*
Y354921D01*
X63500Y338979D02*
Y352850D01*
X25300Y343700D02*
X38700Y330300D01*
X57029D01*
X77500Y284500D02*
X88000D01*
X69500Y276500D02*
X77500Y284500D01*
X16692Y278500D02*
X30000D01*
X12000Y273808D02*
X16692Y278500D01*
X12000Y259500D02*
Y273808D01*
Y259500D02*
X15500Y256000D01*
X84500Y241000D02*
X85500Y240000D01*
X34500Y256000D02*
X41250D01*
X47750Y249500D01*
X50500D01*
X60000D01*
X63250D01*
Y241000D02*
Y249500D01*
Y241000D02*
X84500D01*
X57029Y330300D02*
X64029Y323300D01*
X74271D01*
X85156Y312414D02*
X111586D01*
X66100Y328300D02*
X76342D01*
X63500Y338979D02*
X69179Y333300D01*
X78413D01*
X83713Y328000D01*
X112000D01*
X68500Y341050D02*
X71250Y338300D01*
X80484D01*
X83213Y335571D01*
X119571D01*
X50700Y343700D02*
X66100Y328300D01*
X87429Y296000D02*
X112000D01*
X50700Y318300D02*
X72200D01*
X86500Y304000D02*
X112000D01*
X48745Y201000D02*
X49245Y200500D01*
X77000Y216750D02*
X85500D01*
X74750Y214500D02*
X77000Y216750D01*
X68500Y214500D02*
X74750D01*
X68000Y214000D02*
X68500Y214500D01*
X68000Y198750D02*
X76250D01*
X79250Y195750D01*
X85500D01*
X60571Y198750D02*
X68000D01*
X58321Y201000D02*
X60571Y198750D01*
X48745Y201000D02*
X58321D01*
X48745Y194500D02*
X57750D01*
X60000Y192250D01*
Y178000D02*
Y192250D01*
X94500Y349000D02*
X106000D01*
X232000Y385000D02*
X241000D01*
X235000Y403000D02*
X241000D01*
X218250Y386250D02*
X235000Y403000D01*
X173000Y369071D02*
Y380500D01*
X165500Y342500D02*
X166000Y342000D01*
X174000D02*
X174250Y342250D01*
X227125Y380125D02*
X232000Y385000D01*
X198250Y386250D02*
X218250D01*
X203625Y380125D02*
X227125D01*
X179750Y356250D02*
X203625Y380125D01*
X182000Y342000D02*
Y343250D01*
X208625Y369875D01*
X310000Y363500D02*
X325000Y378500D01*
X196000Y328000D02*
Y349000D01*
X210500Y363500D01*
X310000D01*
X256500Y422500D02*
Y442000D01*
Y422500D02*
X257000Y422000D01*
Y403000D02*
X265250D01*
X258000Y384000D02*
X273500D01*
X257000Y385000D02*
X258000Y384000D01*
X240500Y338000D02*
Y345000D01*
Y338000D02*
X250000Y328500D01*
Y317500D02*
Y328500D01*
Y299250D02*
Y317500D01*
X231250Y280500D02*
X250000Y299250D01*
X219000Y280500D02*
X231250D01*
X196500D02*
X219000D01*
X196000Y280000D02*
X196500Y280500D01*
X244500Y239000D02*
Y250000D01*
X250000Y255500D01*
Y268500D01*
X243000Y261500D02*
X250000Y268500D01*
X219000Y261500D02*
X243000D01*
X208750Y271750D02*
X219000Y261500D01*
X196250Y271750D02*
X208750D01*
X196000Y272000D02*
X196250Y271750D01*
X251000Y108500D02*
X272500Y87000D01*
X235000Y108500D02*
X251000D01*
X222000Y121500D02*
X235000Y108500D01*
X205500Y155000D02*
Y164500D01*
Y155000D02*
X214000D01*
X276000Y71500D02*
X291500Y87000D01*
X276000Y69500D02*
Y71500D01*
X262500Y69500D02*
X276000D01*
X247500Y84500D02*
X262500Y69500D01*
X104500Y195750D02*
X116000D01*
X104500Y216750D02*
X113500D01*
X151750Y203500D02*
X152500Y202750D01*
X165750Y257750D02*
X166000Y258000D01*
X68000Y210000D02*
Y214000D01*
X65500Y207500D02*
X68000Y210000D01*
X48745Y207500D02*
X65500D01*
X508000Y39250D02*
X524000Y55250D01*
Y94450D01*
X493650Y124800D02*
X524000Y94450D01*
X392050Y99550D02*
Y124800D01*
X391500Y99000D02*
X392050Y99550D01*
X232500Y145500D02*
X250000D01*
X251000Y146500D01*
X273000Y116750D02*
Y177750D01*
X266500Y110750D02*
Y173429D01*
X251000Y165500D02*
Y201000D01*
X262500Y188250D02*
X273000Y177750D01*
X257500Y182429D02*
X266500Y173429D01*
X297750Y253892D02*
Y342500D01*
X257500Y182429D02*
Y213642D01*
X297750Y253892D01*
X297213Y207763D02*
X304350D01*
X290450Y201000D02*
X297213Y207763D01*
X100250Y272250D02*
X111750D01*
X112000Y272000D01*
X95250Y366750D02*
Y366850D01*
X88000Y284500D02*
X100250Y272250D01*
X36550Y376779D02*
X44029Y369300D01*
X36550Y376779D02*
Y394250D01*
X49000Y406700D01*
X95250Y366850D02*
X101200Y372800D01*
X84250Y369750D02*
X98800Y384300D01*
X74271Y323300D02*
X78250Y319321D01*
Y317808D02*
Y319321D01*
Y317808D02*
X82058Y314000D01*
X83571D01*
X85156Y312414D01*
X72200Y318300D02*
X73250Y317250D01*
Y315737D02*
Y317250D01*
Y315737D02*
X79987Y309000D01*
X81500D01*
X86500Y304000D01*
X79429Y304000D02*
X87429Y296000D01*
X39600Y304000D02*
X79429D01*
X25300Y318300D02*
X39600Y304000D01*
X84750Y319950D02*
X109050D01*
X76342Y328300D02*
X84446Y320196D01*
X578000Y225000D02*
X608500D01*
X669750Y189750D02*
X671500Y188000D01*
X659250Y181000D02*
Y197750D01*
X662000Y171500D02*
Y180750D01*
X662250Y181000D01*
X659250D02*
X662250D01*
X671500Y171500D02*
Y188000D01*
X247500Y19500D02*
Y84500D01*
X315250Y383558D02*
Y442750D01*
X208625Y369875D02*
X301567D01*
X315250Y383558D01*
X199500Y413929D02*
X199750Y414179D01*
X199500Y413750D02*
Y413929D01*
Y422500D02*
X199750Y422250D01*
Y414179D02*
Y422250D01*
X190000Y411500D02*
X191000Y412500D01*
X222000Y121500D02*
Y136808D01*
X223500Y138308D01*
Y145500D01*
X214000Y155000D02*
X223500Y145500D01*
X134000Y342000D02*
Y353750D01*
X106000Y349000D02*
X119000Y362000D01*
X125750D01*
X134000Y353750D01*
X101200Y372800D02*
X147000D01*
X174250Y342250D02*
Y354621D01*
X175879Y356250D01*
X179750D01*
X165500Y342500D02*
Y353500D01*
X198250Y386250D01*
X150000Y342000D02*
Y357000D01*
X162071Y369071D01*
X173000D01*
X74400Y381300D02*
X89500Y396400D01*
X155800Y384300D02*
X160500Y389000D01*
X190000Y397500D02*
Y411500D01*
X173000Y380500D02*
X190000Y397500D01*
X151750Y203500D02*
Y240222D01*
X158000Y246472D01*
Y258000D01*
X165750Y246500D02*
Y257750D01*
X158250Y239000D02*
X165750Y246500D01*
X158250Y211500D02*
Y239000D01*
X60000Y178000D02*
X68000Y170000D01*
X75500D01*
X80250Y174750D01*
X85500D01*
X330200Y22800D02*
Y25400D01*
Y22800D02*
X348000Y5000D01*
X476750D01*
X480500Y134500D02*
X486500Y140500D01*
X648500D01*
X417450Y201000D02*
X427500Y211050D01*
Y227000D01*
X392050Y210550D02*
X408500Y227000D01*
X49300Y460700D02*
Y471000D01*
X48000Y472300D02*
X49300Y471000D01*
X185750Y476000D02*
X201860Y492110D01*
X84750Y511750D02*
X120500Y476000D01*
X185750D01*
X85700Y484300D02*
X106500Y463500D01*
X43029Y484300D02*
X85700D01*
X520750Y449250D02*
X579500Y508000D01*
X584200D01*
X508000Y505000D02*
Y508000D01*
X503000Y505000D02*
X508000D01*
X493650Y468250D02*
X533400Y508000D01*
X508000Y212050D02*
X519050Y201000D01*
X508000Y457200D02*
X558800Y508000D01*
X481000Y483000D02*
X503000Y505000D01*
X470000Y488250D02*
X482600Y500850D01*
X416560Y508000D02*
X446000Y478560D01*
X346750Y246000D02*
Y315000D01*
X375250Y343500D01*
X337250Y245750D02*
Y320250D01*
X391160Y508000D02*
X430000Y469160D01*
X543500Y443000D02*
X574000Y473500D01*
X552500Y438750D02*
X563500Y449750D01*
X493650Y201000D02*
Y468250D01*
X508000Y212050D02*
Y457200D01*
X552500Y250500D02*
X578000Y225000D01*
X552500Y250500D02*
Y438750D01*
X543500Y246750D02*
X589250Y201000D01*
X543500Y246750D02*
Y443000D01*
X531250Y239600D02*
X569850Y201000D01*
X531250Y239600D02*
Y443750D01*
X520750Y224700D02*
X544450Y201000D01*
X520750Y224700D02*
Y449250D01*
X481000Y350750D02*
Y483000D01*
X470000Y355250D02*
Y488250D01*
X457200Y362450D02*
Y508000D01*
X429000Y334250D02*
X457200Y362450D01*
X446000Y371000D02*
Y478560D01*
X436500Y321750D02*
X470000Y355250D01*
X441500Y311250D02*
X481000Y350750D01*
X384000Y235000D02*
Y300500D01*
X394750Y311250D01*
X441500D01*
X371750Y307000D02*
X386500Y321750D01*
X436500D01*
X358250Y309750D02*
X382750Y334250D01*
X429000D01*
X375250Y343500D02*
X418500D01*
X446000Y371000D01*
X365760Y508000D02*
X415000Y458760D01*
X362000Y361250D02*
X362250D01*
X372000Y371000D01*
X408000D02*
X415000Y378000D01*
X328500Y327750D02*
X362000Y361250D01*
X372000Y371000D02*
X408000D01*
X415000Y378000D02*
Y458760D01*
X394500Y381500D02*
X402000Y389000D01*
X366500Y381500D02*
X394500D01*
X317000Y332000D02*
X366500Y381500D01*
X289560Y508000D02*
X294000D01*
X340360D02*
X402000Y446360D01*
Y389000D02*
Y446360D01*
X318000Y508000D02*
X391000Y435000D01*
Y399000D02*
Y435000D01*
X305750Y334750D02*
X363000Y392000D01*
X384000D01*
X391000Y399000D01*
X430000Y375000D02*
Y469160D01*
X337250Y320250D02*
X373000Y356000D01*
X411000D01*
X430000Y375000D01*
X269500Y191000D02*
Y203500D01*
X317000Y251000D01*
Y332000D01*
X262500Y188250D02*
Y208500D01*
X305750Y251750D01*
Y334750D01*
X371000Y408000D02*
Y431000D01*
X361750Y398750D02*
X371000Y408000D01*
X354000Y398750D02*
X361750D01*
X294000Y508000D02*
X371000Y431000D01*
X297750Y342500D02*
X354000Y398750D01*
X145200Y396400D02*
X147000Y398200D01*
X172500Y441500D02*
X187500Y456500D01*
X98800Y384300D02*
X155800D01*
X89500Y396400D02*
X145200D01*
X49300Y460700D02*
X58000Y452000D01*
X90000D01*
X106900Y435100D01*
X147000Y423600D02*
X160500Y410100D01*
Y389000D02*
Y410100D01*
X106900Y435100D02*
X153763D01*
X156863Y432000D01*
X172500D01*
X199500Y413750D02*
X206000Y407250D01*
X226250D01*
X106500Y463500D02*
X277500D01*
X265250Y403000D02*
X268250Y406000D01*
X273500D01*
X226250Y407250D02*
X241000Y422000D01*
X191000Y412500D02*
Y426700D01*
X196050Y431750D01*
X228500D01*
D33*
X133250Y239750D02*
Y243407D01*
X128750Y235250D02*
X133250Y239750D01*
X122750Y235250D02*
X128750D01*
X122750Y215250D02*
Y235250D01*
Y215250D02*
X123500Y214500D01*
X48745Y214000D02*
X54500D01*
X58500Y218000D01*
Y218750D01*
Y226000D01*
X381000Y25400D02*
Y52500D01*
X381500Y53000D01*
X209250Y297500D02*
X219000D01*
X207750Y296000D02*
X209250Y297500D01*
X196000Y296000D02*
X207750D01*
X184000D02*
X196000D01*
X182000Y294000D02*
X184000Y296000D01*
X182000Y258000D02*
Y294000D01*
Y258000D02*
X190250D01*
X196250Y252000D01*
Y238000D02*
Y252000D01*
X196000Y202000D02*
X200500D01*
X142500Y201500D02*
Y214500D01*
Y201500D02*
X149000Y195000D01*
X164000D01*
X169750Y200750D01*
X173750D01*
X465500Y219000D02*
Y227000D01*
Y219000D02*
X468750Y215750D01*
Y201500D02*
Y215750D01*
X468250Y201000D02*
X468750Y201500D01*
X487250Y77250D02*
Y93250D01*
Y55000D02*
Y77250D01*
X417450Y117550D02*
Y124800D01*
Y117550D02*
X427500Y107500D01*
Y99000D02*
Y107500D01*
Y77000D02*
Y99000D01*
Y77000D02*
X434750D01*
X437250Y79500D01*
X447750D01*
X595500Y343000D02*
Y363500D01*
Y343000D02*
X596500Y342000D01*
X573500Y259750D02*
X589750Y243500D01*
X604808D01*
X605657D01*
X624157Y225000D01*
X627500D01*
X674092Y276000D02*
X682000Y268092D01*
Y237500D02*
Y268092D01*
X669000Y224500D02*
X682000Y237500D01*
X669000Y209500D02*
Y224500D01*
Y209500D02*
X669750Y208750D01*
X681000Y197500D01*
X676000Y144500D02*
X681000Y149500D01*
X671500Y144500D02*
X676000D01*
X670000D02*
X671500D01*
X651500Y126000D02*
X670000Y144500D01*
X632000Y106500D02*
X651500Y126000D01*
X632000Y66500D02*
Y106500D01*
X613000Y66500D02*
X632000D01*
X612250Y67250D02*
X613000Y66500D01*
X468250Y55000D02*
X474000D01*
X477250Y51750D01*
X447750Y51750D02*
Y60500D01*
X447875Y51875D02*
X448000Y51750D01*
X332000Y69500D02*
Y75000D01*
X277000Y49500D02*
X307000D01*
X276000Y50500D02*
X277000Y49500D01*
X307000D02*
Y54000D01*
X311750Y58750D01*
X232500Y164500D02*
Y168250D01*
X218000Y182750D02*
X232500Y168250D01*
X196250Y182750D02*
X218000D01*
X196000Y183000D02*
X196250Y182750D01*
X196000Y167500D02*
Y183000D01*
X172750Y144250D02*
X196000Y167500D01*
X61500Y265500D02*
X88000D01*
X49500Y277500D02*
Y294000D01*
X12692Y297500D02*
X30000D01*
X12000Y298192D02*
X12692Y297500D01*
X49500Y277500D02*
X50500Y276500D01*
X61500Y265500D01*
X88000Y256000D02*
Y265500D01*
Y256000D02*
X88250Y255750D01*
X218000Y441500D02*
X218500Y442000D01*
X292500Y384000D02*
Y406000D01*
X172750Y411000D02*
X173000Y410750D01*
X292500Y384000D02*
X305500D01*
X306000Y383500D01*
X22600Y497700D02*
Y516900D01*
X17500Y522000D02*
X22600Y516900D01*
X43750Y276500D02*
X50500D01*
X43500Y276750D02*
X43750Y276500D01*
X12000Y289500D02*
Y298192D01*
X43500Y276750D02*
Y278500D01*
X69500Y249500D02*
X76000D01*
X68000Y229000D02*
X76500D01*
X76500Y229000D01*
X68500Y294000D02*
X77000D01*
X77250Y294250D01*
X194250Y145500D02*
X205500D01*
X235000Y127500D02*
Y136500D01*
X307000Y68500D02*
Y82250D01*
X306750Y82500D02*
X307000Y82250D01*
X354000Y68500D02*
Y84000D01*
X381500Y53000D02*
Y66399D01*
X365200Y82700D02*
Y89550D01*
X358500Y96250D02*
X365200Y89550D01*
X339750Y96250D02*
X358500D01*
X332000Y88500D02*
X339750Y96250D01*
X365200Y82700D02*
X381500Y66399D01*
X408500Y99000D02*
Y110750D01*
X405750Y113500D02*
X408500Y110750D01*
X468250Y77250D02*
Y92000D01*
X461250Y99000D02*
X468250Y92000D01*
X670500Y126000D02*
X678750Y134250D01*
Y135000D01*
X635750Y188500D02*
X648000D01*
X633750Y186500D02*
X635750Y188500D01*
X658750Y276000D02*
X674092D01*
X644250Y290500D02*
X658750Y276000D01*
X573500Y290750D02*
X573750Y290500D01*
X644250D01*
X603500Y307500D02*
X668500D01*
X615500Y334750D02*
Y342000D01*
X603500Y322750D02*
X615500Y334750D01*
X603500Y307500D02*
Y322750D01*
X597750Y383000D02*
Y398750D01*
Y383000D02*
X598000Y382750D01*
X586750Y398750D02*
X597750D01*
X586500Y399000D02*
X586750Y398750D01*
X608250Y342000D02*
X615500D01*
X605250Y345000D02*
X608250Y342000D01*
X605250Y345000D02*
Y358750D01*
X464750Y250250D02*
X465250D01*
X446500Y232000D02*
X464750Y250250D01*
X446500Y227000D02*
Y232000D01*
X397250Y249750D02*
X407500D01*
X395250Y247750D02*
X397250Y249750D01*
X465250Y250250D02*
X478500D01*
X479000Y250750D01*
X36500Y522000D02*
X50750D01*
X52000Y523250D01*
X218000Y417000D02*
Y422500D01*
X214750Y413750D02*
X218000Y417000D01*
X264160Y480660D02*
Y508000D01*
Y480660D02*
X268160D01*
X276000Y488500D01*
X259500Y345000D02*
X275750D01*
X276000Y345250D01*
X219000Y316500D02*
Y331500D01*
X219250Y331750D01*
X196000Y288000D02*
X207250D01*
X207500Y287750D01*
X133250Y243407D02*
X135593Y245750D01*
X141750Y235250D02*
Y238000D01*
X150000Y258000D02*
Y271000D01*
X150000Y271000D01*
X104500Y240000D02*
Y253000D01*
X104750Y253250D01*
X173750Y209750D02*
Y219500D01*
X173500Y209500D02*
X173750Y209750D01*
X263500Y239000D02*
X268000D01*
X279500Y250500D01*
X218250Y238750D02*
X227750D01*
X231000Y235500D01*
Y227750D02*
Y235500D01*
X218000Y201750D02*
X229250D01*
X234000Y206500D01*
Y212250D01*
X196250Y238000D02*
X205500D01*
X207750Y235750D01*
Y232093D02*
Y235750D01*
Y232093D02*
X212093Y227750D01*
X218250D01*
Y219750D02*
Y227750D01*
X200500Y202000D02*
X218250Y219750D01*
X196250Y219000D02*
Y227250D01*
X131500Y180000D02*
X132500Y179000D01*
X573500Y290750D02*
Y291515D01*
X564015Y301000D02*
X573500Y291515D01*
X562601Y301000D02*
X564015D01*
X558500Y305100D02*
X562601Y301000D01*
X558500Y305100D02*
Y319250D01*
X652500Y159750D02*
Y171500D01*
Y159750D02*
X658250Y154000D01*
X662500D01*
X666200Y312050D02*
X668500Y309750D01*
Y307500D02*
Y309750D01*
X670500Y91500D02*
Y126000D01*
Y91500D02*
X685800Y76200D01*
X642750Y171500D02*
X642750Y171500D01*
X643250D01*
X642750Y171500D02*
X652500D01*
X307000Y44000D02*
Y49500D01*
X304800Y41800D02*
X307000Y44000D01*
X304800Y25400D02*
Y41800D01*
X212000Y127500D02*
Y136000D01*
X217000Y141000D01*
X20000Y441250D02*
X83750D01*
X173000Y399500D02*
Y410750D01*
X193250Y441500D02*
X199500D01*
X135593Y245750D02*
X139250D01*
X142000Y248500D01*
Y258000D01*
X141750Y238000D02*
X150000Y246250D01*
Y258000D01*
X165149Y147600D02*
X168500Y144250D01*
X172750D01*
X159351Y147600D02*
X165149D01*
X151750Y140000D02*
X159351Y147600D01*
X468250Y159750D02*
Y201000D01*
X597750Y398750D02*
X616500Y417500D01*
X637000D01*
X558500Y319250D02*
X581250Y342000D01*
X596500D01*
X573500Y259750D02*
Y290750D01*
X666200Y312050D02*
Y336000D01*
X685800Y355600D01*
X681000Y149500D02*
Y197500D01*
X399250Y77000D02*
X408500D01*
X394250Y82000D02*
X399250Y77000D01*
X406400Y25400D02*
X431800D01*
X406400D02*
Y47100D01*
X400500Y53000D02*
X406400Y47100D01*
X400500Y53000D02*
Y57000D01*
X383000Y74500D02*
X400500Y57000D01*
X383000Y74500D02*
Y83250D01*
X132500Y179000D02*
X158250D01*
X68000Y183750D02*
X78843D01*
X80343Y185250D01*
X94000D01*
X104500Y174750D01*
X112750D01*
X117500Y179500D01*
X23245Y232750D02*
X46495D01*
Y169000D02*
X48745Y171250D01*
Y188000D01*
X53750Y144500D02*
X72000D01*
X46495Y151755D02*
Y169000D01*
Y151755D02*
X50122Y148127D01*
X53750Y144500D01*
X50122Y139122D02*
Y148127D01*
X43000Y132000D02*
X50122Y139122D01*
X21000Y132000D02*
X43000D01*
X21995Y231500D02*
X23245Y232750D01*
X131500Y160500D02*
X132000Y160000D01*
X131500Y180000D02*
X157250D01*
X158250Y179000D01*
X131500Y160500D02*
Y180000D01*
X125000Y411000D02*
X125800Y410200D01*
X83750Y441250D02*
X114800Y410200D01*
X125800D01*
X186500Y434750D02*
X193250Y441500D01*
X20000Y429500D02*
X72000D01*
X74400Y427100D01*
Y406700D02*
Y427100D01*
X199500Y441500D02*
X218000D01*
X218500Y442000D02*
X237500D01*
D34*
X174000Y238750D02*
Y258000D01*
X173750Y238500D02*
X174000Y238750D01*
X173750Y238500D02*
X185000Y227250D01*
Y169000D02*
Y227250D01*
X145550Y116000D02*
Y117000D01*
Y133000D01*
X139000Y139550D02*
X145550Y133000D01*
X139000Y139550D02*
Y147000D01*
X149000Y157000D01*
X173000D01*
X185000Y169000D01*
X442850Y147850D02*
X447000Y152000D01*
X442850Y124800D02*
Y147850D01*
X447000Y152000D02*
X494000D01*
X514500Y172500D01*
X583000D01*
D35*
X158250Y117000D02*
Y135250D01*
X161000Y138000D01*
X126500Y140500D02*
Y154500D01*
X112000Y140500D02*
X126500D01*
X21995Y189000D02*
Y213000D01*
Y168000D02*
Y189000D01*
Y132995D02*
Y168000D01*
X21000Y132000D02*
X21995Y132995D01*
Y213000D02*
Y231500D01*
Y234000D01*
X45245D01*
X46495Y232750D01*
X76000Y140500D02*
X112000D01*
X72000Y144500D02*
X76000Y140500D01*
X126500Y154500D02*
X132000Y160000D01*
D36*
X290450Y124800D02*
D03*
X315850D02*
D03*
X341250D02*
D03*
X366650D02*
D03*
X392050D02*
D03*
X417450D02*
D03*
X442850D02*
D03*
X468250D02*
D03*
X493650D02*
D03*
X519050D02*
D03*
X544450D02*
D03*
X569850D02*
D03*
X595250D02*
D03*
X620650D02*
D03*
X290450Y201000D02*
D03*
X315850D02*
D03*
X341250D02*
D03*
X366650D02*
D03*
X392050D02*
D03*
X417450D02*
D03*
X442850D02*
D03*
X468250D02*
D03*
X493650D02*
D03*
X519050D02*
D03*
X544450D02*
D03*
X569850D02*
D03*
X595250D02*
D03*
X457200Y508000D02*
D03*
X482600D02*
D03*
X508000D02*
D03*
X533400D02*
D03*
X558800D02*
D03*
X584200D02*
D03*
X609600D02*
D03*
X391160D02*
D03*
X365760D02*
D03*
X340360D02*
D03*
X314960D02*
D03*
X289560D02*
D03*
X264160D02*
D03*
X238760D02*
D03*
X213360D02*
D03*
X187960D02*
D03*
X170800Y88000D02*
D03*
X145400D02*
D03*
X533400Y25400D02*
D03*
X558800D02*
D03*
X584200D02*
D03*
X609600D02*
D03*
X635000D02*
D03*
X457200D02*
D03*
X431800D02*
D03*
X406400D02*
D03*
X381000D02*
D03*
X355600D02*
D03*
X330200D02*
D03*
X304800D02*
D03*
D37*
X620650Y201000D02*
D03*
X635000Y508000D02*
D03*
X416560D02*
D03*
X120000Y88000D02*
D03*
X508000Y25400D02*
D03*
X279400D02*
D03*
D38*
X202500Y84500D02*
D03*
X247500D02*
D03*
Y19500D02*
D03*
X668500Y307500D02*
D03*
Y262500D02*
D03*
X603500D02*
D03*
D39*
Y307500D02*
D03*
D40*
X152400Y508000D02*
D03*
X685800Y355600D02*
D03*
Y76200D02*
D03*
X139700Y25400D02*
D03*
D41*
X21000Y132000D02*
D03*
Y28000D02*
D03*
D42*
X665000Y470000D02*
D03*
X147000Y449000D02*
D03*
D43*
X665000Y444600D02*
D03*
Y419200D02*
D03*
X147000Y423600D02*
D03*
Y398200D02*
D03*
Y372800D02*
D03*
D44*
X73400Y497700D02*
D03*
X48000D02*
D03*
X22600D02*
D03*
X73400Y472300D02*
D03*
X48000D02*
D03*
X74400Y406700D02*
D03*
X49000D02*
D03*
X23600D02*
D03*
X74400Y381300D02*
D03*
X49000D02*
D03*
X25300Y343700D02*
D03*
X50700Y318300D02*
D03*
X25300D02*
D03*
D45*
X22600Y472300D02*
D03*
X23600Y381300D02*
D03*
X50700Y343700D02*
D03*
D46*
X21995Y168000D02*
D03*
D47*
Y234000D02*
D03*
D48*
X304000Y221000D02*
D03*
X303000Y167750D02*
D03*
X328500Y248750D02*
D03*
X325750Y164750D02*
D03*
X621000Y453500D02*
D03*
X669500Y161000D02*
D03*
X567750Y434500D02*
D03*
X327000Y454500D02*
D03*
X331250Y443250D02*
D03*
X563500Y424250D02*
D03*
X563750Y413250D02*
D03*
X230250Y480500D02*
D03*
X583000Y172500D02*
D03*
X563500Y449750D02*
D03*
X295750Y481750D02*
D03*
X152500Y202750D02*
D03*
X116000Y195750D02*
D03*
X113500Y216750D02*
D03*
X158250Y211500D02*
D03*
X58500Y226000D02*
D03*
Y218750D02*
D03*
X87750Y124000D02*
D03*
Y114250D02*
D03*
X173750Y200750D02*
D03*
X207750Y210000D02*
D03*
X468250Y159750D02*
D03*
X487250Y93250D02*
D03*
X251000Y201000D02*
D03*
X95250Y366750D02*
D03*
X97250Y275000D02*
D03*
X84250Y369750D02*
D03*
X84750Y320500D02*
D03*
X612250Y67250D02*
D03*
X477250Y51750D02*
D03*
X448000D02*
D03*
X332000Y75000D02*
D03*
X311750Y58750D02*
D03*
X151750Y140000D02*
D03*
X88250Y255750D02*
D03*
X172750Y411000D02*
D03*
X306000Y383500D02*
D03*
X12000Y289500D02*
D03*
X43500Y278500D02*
D03*
X20000Y441250D02*
D03*
X76000Y249500D02*
D03*
X76500Y229000D02*
D03*
X77250Y294250D02*
D03*
X194250Y145500D02*
D03*
X235000Y136500D02*
D03*
X306750Y82500D02*
D03*
X354000Y84000D02*
D03*
X394250Y82000D02*
D03*
X405750Y113500D02*
D03*
X461250Y99000D02*
D03*
X678750Y135000D02*
D03*
X633750Y186500D02*
D03*
X586500Y399000D02*
D03*
X605250Y358750D02*
D03*
X395250Y247750D02*
D03*
X479000Y250750D02*
D03*
X52000Y523250D02*
D03*
X214750Y413750D02*
D03*
X276000Y488500D02*
D03*
Y345250D02*
D03*
X219250Y331750D02*
D03*
X207500Y287750D02*
D03*
X150000Y271000D02*
D03*
X104750Y253250D02*
D03*
X173500Y209500D02*
D03*
X279500Y250500D02*
D03*
X231000Y227750D02*
D03*
X234000Y212250D02*
D03*
X196250Y227250D02*
D03*
X131500Y180000D02*
D03*
X383000Y83250D02*
D03*
X662500Y154000D02*
D03*
X117500Y179500D02*
D03*
X190000Y411500D02*
D03*
X228500Y431750D02*
D03*
X643250Y171500D02*
D03*
X132000Y160000D02*
D03*
X93000Y84000D02*
D03*
X217000Y141000D02*
D03*
X125000Y411000D02*
D03*
X186500Y434750D02*
D03*
X161000Y138000D02*
D03*
X55000Y429000D02*
D03*
X48000Y39000D02*
D03*
Y31000D02*
D03*
Y23000D02*
D03*
X172500Y422500D02*
D03*
M02*
