M48
;Layer_Color=9474304
;FILE_FORMAT=4:4
METRIC,LZ
;TYPE=PLATED
T1F00S00C0.3000
T3F00S00C1.0000
T4F00S00C1.1000
T5F00S00C1.5000
T6F00S00C3.2000
;TYPE=NON_PLATED
T7F00S00C3.2000
%
T01
X00048Y00023
Y00031
Y00039
X00093Y00084
X0008775Y0011425
Y00124
X0015175Y0014
X00161Y00138
X0019425Y001455
X00217Y00141
X00235Y001365
X00234Y0021225
X00231Y0022775
X0019625Y0022725
X0020775Y0021
X001735Y002095
X0017375Y0020075
X001525Y0020275
X0015825Y002115
X001135Y0021675
X00116Y0019575
X001175Y001795
X001315Y0018
X00132Y0016
X0010475Y0025325
X0008825Y0025575
X00076Y002495
X000765Y00229
X000585Y00226
Y0021875
X000435Y002785
X00012Y002895
X0007725Y0029425
X0008475Y003205
X0009725Y00275
X0015Y00271
X002075Y0028775
X0021925Y0033175
X00276Y0034525
X002795Y002505
X003285Y0024875
X00304Y00221
X00303Y0016775
X0032575Y0016475
X00332Y00075
X00354Y00084
X0030675Y000825
X0031175Y0005875
X00251Y00201
X0039525Y0024775
X00479Y0025075
X0046825Y0015975
X0046125Y00099
X0048725Y0009325
X0047725Y0005175
X00448
X0039425Y00082
X00383Y0008325
X0040575Y001135
X00583Y001725
X0064325Y001715
X0063375Y001865
X006695Y00161
X006625Y00154
X0067875Y00135
X0061225Y0006725
X0060525Y0035875
X005865Y00399
X0056375Y0041325
X005635Y0042425
X0056775Y004345
X005635Y0044975
X00621Y004535
X00327Y004545
X0033125Y0044325
X0029575Y0048175
X00276Y004885
X0023025Y004805
X002285Y0043175
X0021475Y0041375
X0019Y004115
X0017275Y00411
X001725Y004225
X001865Y0043475
X00125Y00411
X0009525Y0036675
X0008425Y0036975
X00055Y00429
X0002Y0044125
X00052Y0052325
X00306Y003835
T03
X002025Y000195
X002475
Y000845
X002025
X006035Y002625
Y003075
X006685
Y002625
T04
X0012Y00088
X001454
X001708
X0029045Y001248
X0031585
X0034125
Y00201
X0031585
X0029045
X002794Y000254
X003048
X003302
X003556
X000507Y003183
Y003437
X000253
Y003183
X0036665Y00201
X0039205
X0041745
X0044285
X0046825
X0049365
X0051905
X0054445
X0056985
X0059525
X0062065
Y001248
X0059525
X0056985
X0054445
X0051905
X0049365
X0046825
X0044285
X0041745
X0039205
X0036665
X00381Y000254
X004064
X004318
X004572
X00508
X005334
X005588
X005842
X006096
X00635
X00665Y004192
Y004446
Y0047
X00635Y00508
X006096
X005842
X005588
X005334
X00508
X004826
X004572
X0041656
X0039116
X0036576
X0034036
X0031496
X0028956
X0026416
X0023876
X0021336
X0018796
X00147Y00449
Y004236
Y003982
Y003728
X000744Y003813
Y004067
X00049
X000236
Y003813
X00049
X00048Y004723
Y004977
X000734
Y004723
X000226
Y004977
T05
X00021Y00028
T06
X001397Y000254
X006858Y000762
Y003556
T07
X001524Y00508
M30
