G04 Layer_Color=8421504*
%FSLAX44Y44*%
%MOMM*%
G71*
G01*
G75*
%ADD10R,0.9000X0.6000*%
%ADD11R,2.6000X2.5000*%
%ADD12R,2.5000X2.6000*%
%ADD13R,1.0000X0.5500*%
%ADD14R,0.5500X1.0000*%
%ADD15R,3.5000X2.2000*%
%ADD16R,0.6000X2.2000*%
%ADD17R,0.5500X1.5000*%
%ADD18R,1.5000X0.5500*%
%ADD19R,0.7000X1.3000*%
%ADD20R,1.3000X0.7000*%
%ADD21R,2.7000X2.0000*%
%ADD23R,1.3000X0.9000*%
%ADD24R,0.9000X1.3000*%
%ADD25R,0.5588X0.6858*%
%ADD26R,0.6858X0.5588*%
%ADD27R,0.8000X0.8000*%
%ADD28R,1.6000X3.0000*%
%ADD29R,1.3500X0.4000*%
%ADD30R,1.4000X1.6000*%
%ADD31R,1.9000X1.9000*%
D10*
X68000Y229000D02*
D03*
Y214000D02*
D03*
Y183750D02*
D03*
Y198750D02*
D03*
D11*
X250000Y317500D02*
D03*
Y268500D02*
D03*
D12*
X459500Y281000D02*
D03*
X410500D02*
D03*
D13*
X205500Y164500D02*
D03*
Y155000D02*
D03*
Y145500D02*
D03*
X232500Y164500D02*
D03*
Y145500D02*
D03*
X172500Y441500D02*
D03*
Y432000D02*
D03*
Y422500D02*
D03*
X199500Y441500D02*
D03*
Y422500D02*
D03*
D14*
X671500Y171500D02*
D03*
X662000D02*
D03*
X652500D02*
D03*
X671500Y144500D02*
D03*
X652500D02*
D03*
X50500Y249500D02*
D03*
X60000D02*
D03*
X69500D02*
D03*
X50500Y276500D02*
D03*
X69500D02*
D03*
D15*
X158250Y179000D02*
D03*
D16*
X183650Y117000D02*
D03*
X170950D02*
D03*
X158250D02*
D03*
X145550D02*
D03*
X132850D02*
D03*
D17*
X182000Y258000D02*
D03*
X174000D02*
D03*
X166000D02*
D03*
X158000D02*
D03*
X150000D02*
D03*
X142000D02*
D03*
X134000D02*
D03*
X126000D02*
D03*
Y342000D02*
D03*
X134000D02*
D03*
X142000D02*
D03*
X150000D02*
D03*
X158000D02*
D03*
X166000D02*
D03*
X174000D02*
D03*
X182000D02*
D03*
D18*
X112000Y272000D02*
D03*
Y280000D02*
D03*
Y288000D02*
D03*
Y296000D02*
D03*
Y304000D02*
D03*
Y312000D02*
D03*
Y320000D02*
D03*
Y328000D02*
D03*
X196000D02*
D03*
Y320000D02*
D03*
Y312000D02*
D03*
Y304000D02*
D03*
Y296000D02*
D03*
Y288000D02*
D03*
Y280000D02*
D03*
Y272000D02*
D03*
D19*
X34500Y256000D02*
D03*
X15500D02*
D03*
X272500Y87000D02*
D03*
X291500D02*
D03*
X427500Y227000D02*
D03*
X408500D02*
D03*
X595500Y363500D02*
D03*
X614500D02*
D03*
X237500Y442000D02*
D03*
X256500D02*
D03*
X627500Y225000D02*
D03*
X608500D02*
D03*
X372500Y99000D02*
D03*
X391500D02*
D03*
X104500Y174750D02*
D03*
X85500D02*
D03*
X104500Y195750D02*
D03*
X85500D02*
D03*
X104500Y216750D02*
D03*
X85500D02*
D03*
X75500Y349000D02*
D03*
X94500D02*
D03*
X142500Y214500D02*
D03*
X123500D02*
D03*
X292500Y384000D02*
D03*
X273500D02*
D03*
X292500Y406000D02*
D03*
X273500D02*
D03*
D20*
X648000Y224500D02*
D03*
Y243500D02*
D03*
X251000Y146500D02*
D03*
Y165500D02*
D03*
X30000Y297500D02*
D03*
Y278500D02*
D03*
X276000Y50500D02*
D03*
Y69500D02*
D03*
X669000Y224500D02*
D03*
Y243500D02*
D03*
X669750Y208750D02*
D03*
Y189750D02*
D03*
X332000Y49500D02*
D03*
Y68500D02*
D03*
Y69500D02*
D03*
Y88500D02*
D03*
X637000Y436500D02*
D03*
Y417500D02*
D03*
X605000Y473500D02*
D03*
Y454500D02*
D03*
X580000Y473500D02*
D03*
Y454500D02*
D03*
X219000Y280500D02*
D03*
Y261500D02*
D03*
X88000Y265500D02*
D03*
Y284500D02*
D03*
X173000Y399500D02*
D03*
Y380500D02*
D03*
D21*
X22000Y64000D02*
D03*
Y96000D02*
D03*
D23*
X447750Y60500D02*
D03*
Y79500D02*
D03*
X196000Y183000D02*
D03*
Y202000D02*
D03*
X648000Y188500D02*
D03*
Y207500D02*
D03*
X235000Y127500D02*
D03*
Y108500D02*
D03*
X218000Y201750D02*
D03*
Y182750D02*
D03*
Y422500D02*
D03*
Y441500D02*
D03*
X212000Y127500D02*
D03*
Y108500D02*
D03*
X112000Y140500D02*
D03*
Y121500D02*
D03*
X354000Y68500D02*
D03*
Y49500D02*
D03*
X307000Y68500D02*
D03*
Y49500D02*
D03*
X637000Y472500D02*
D03*
Y453500D02*
D03*
X20000Y429500D02*
D03*
Y448500D02*
D03*
X173750Y219500D02*
D03*
Y238500D02*
D03*
X219000Y316500D02*
D03*
Y297500D02*
D03*
X218250Y238750D02*
D03*
Y219750D02*
D03*
X196250Y219000D02*
D03*
Y238000D02*
D03*
D24*
X468250Y55000D02*
D03*
X487250D02*
D03*
X104500Y240000D02*
D03*
X85500D02*
D03*
X68500Y294000D02*
D03*
X49500D02*
D03*
X670500Y126000D02*
D03*
X651500D02*
D03*
X407500Y249750D02*
D03*
X426500D02*
D03*
X465250Y250250D02*
D03*
X446250D02*
D03*
X408500Y99000D02*
D03*
X427500D02*
D03*
X408500Y77000D02*
D03*
X427500D02*
D03*
X263500Y480000D02*
D03*
X244500D02*
D03*
X446500Y227000D02*
D03*
X465500D02*
D03*
X468250Y77250D02*
D03*
X487250D02*
D03*
X36500Y522000D02*
D03*
X17500D02*
D03*
X615500Y342000D02*
D03*
X596500D02*
D03*
X381500Y53000D02*
D03*
X400500D02*
D03*
X263500Y239000D02*
D03*
X244500D02*
D03*
X259500Y345000D02*
D03*
X240500D02*
D03*
X141750Y235250D02*
D03*
X122750D02*
D03*
D25*
X629192Y243500D02*
D03*
X604808D02*
D03*
D26*
X12000Y273808D02*
D03*
Y298192D02*
D03*
D27*
X241000Y385000D02*
D03*
X257000D02*
D03*
X241000Y403000D02*
D03*
X257000D02*
D03*
X241000Y422000D02*
D03*
X257000D02*
D03*
X598000Y382750D02*
D03*
X614000D02*
D03*
D28*
X72000Y21500D02*
D03*
Y62500D02*
D03*
Y103500D02*
D03*
Y144500D02*
D03*
D29*
X48745Y188000D02*
D03*
Y194500D02*
D03*
Y201000D02*
D03*
Y207500D02*
D03*
Y214000D02*
D03*
D30*
X46495Y232750D02*
D03*
Y169000D02*
D03*
D31*
X21995Y213000D02*
D03*
Y189000D02*
D03*
M02*
