G04 Layer_Color=32896*
%FSLAX44Y44*%
%MOMM*%
G71*
G01*
G75*
%ADD49C,0.2540*%
D49*
X1057000Y590235D02*
Y575000D01*
X1067157D01*
X1072235Y590235D02*
X1077313D01*
X1074774D01*
Y575000D01*
X1072235D01*
X1077313D01*
X1095088Y587696D02*
X1092549Y590235D01*
X1087470D01*
X1084931Y587696D01*
Y577539D01*
X1087470Y575000D01*
X1092549D01*
X1095088Y577539D01*
X1110323Y590235D02*
X1100166D01*
Y575000D01*
X1110323D01*
X1100166Y582617D02*
X1105244D01*
X1115401Y575000D02*
Y590235D01*
X1125558Y575000D01*
Y590235D01*
X1140793Y587696D02*
X1138254Y590235D01*
X1133175D01*
X1130636Y587696D01*
Y577539D01*
X1133175Y575000D01*
X1138254D01*
X1140793Y577539D01*
X1156028Y590235D02*
X1145871D01*
Y575000D01*
X1156028D01*
X1145871Y582617D02*
X1150950D01*
X1059000Y530000D02*
Y540157D01*
X1064078Y545235D01*
X1069157Y540157D01*
Y530000D01*
Y537617D01*
X1059000D01*
X1074235Y545235D02*
Y532539D01*
X1076774Y530000D01*
X1081853D01*
X1084392Y532539D01*
Y545235D01*
X1089470D02*
X1099627D01*
X1094548D01*
Y530000D01*
X1104705Y545235D02*
Y530000D01*
Y537617D01*
X1114862D01*
Y545235D01*
Y530000D01*
X1127558Y545235D02*
X1122479D01*
X1119940Y542696D01*
Y532539D01*
X1122479Y530000D01*
X1127558D01*
X1130097Y532539D01*
Y542696D01*
X1127558Y545235D01*
X1135175Y530000D02*
Y545235D01*
X1142793D01*
X1145332Y542696D01*
Y537617D01*
X1142793Y535078D01*
X1135175D01*
X1140254D02*
X1145332Y530000D01*
X1150410Y540157D02*
X1152950D01*
Y537617D01*
X1150410D01*
Y540157D01*
Y532539D02*
X1152950D01*
Y530000D01*
X1150410D01*
Y532539D01*
X1178341Y530000D02*
Y540157D01*
X1183420Y545235D01*
X1188498Y540157D01*
Y530000D01*
Y537617D01*
X1178341D01*
X1193577Y545235D02*
Y530000D01*
X1201194D01*
X1203733Y532539D01*
Y535078D01*
Y537617D01*
X1201194Y540157D01*
X1193577D01*
X1218968Y545235D02*
Y530000D01*
X1211351D01*
X1208812Y532539D01*
Y537617D01*
X1211351Y540157D01*
X1218968D01*
X1224047D02*
Y532539D01*
X1226586Y530000D01*
X1234203D01*
Y540157D01*
X1239282Y530000D02*
X1244360D01*
X1241821D01*
Y545235D01*
X1239282D01*
X1251978Y530000D02*
Y540157D01*
X1254517D01*
X1257056Y537617D01*
Y530000D01*
Y537617D01*
X1259595Y540157D01*
X1262134Y537617D01*
Y530000D01*
X1269752Y540157D02*
X1274830D01*
X1277369Y537617D01*
Y530000D01*
X1269752D01*
X1267213Y532539D01*
X1269752Y535078D01*
X1277369D01*
X1287526Y524922D02*
X1290065D01*
X1292605Y527461D01*
Y540157D01*
X1284987D01*
X1282448Y537617D01*
Y532539D01*
X1284987Y530000D01*
X1292605D01*
X1297683Y540157D02*
Y532539D01*
X1300222Y530000D01*
X1307840D01*
Y540157D01*
X1312918Y530000D02*
X1317996D01*
X1315457D01*
Y540157D01*
X1312918D01*
X1335771Y545235D02*
Y530000D01*
X1328153D01*
X1325614Y532539D01*
Y537617D01*
X1328153Y540157D01*
X1335771D01*
X1366241Y530000D02*
X1356084D01*
X1366241Y540157D01*
Y542696D01*
X1363701Y545235D01*
X1358623D01*
X1356084Y542696D01*
X1371319D02*
X1373858Y545235D01*
X1378936D01*
X1381476Y542696D01*
Y532539D01*
X1378936Y530000D01*
X1373858D01*
X1371319Y532539D01*
Y542696D01*
X1396711Y530000D02*
X1386554D01*
X1396711Y540157D01*
Y542696D01*
X1394172Y545235D01*
X1389093D01*
X1386554Y542696D01*
X1401789D02*
X1404328Y545235D01*
X1409407D01*
X1411946Y542696D01*
Y532539D01*
X1409407Y530000D01*
X1404328D01*
X1401789Y532539D01*
Y542696D01*
X1061539Y515157D02*
X1066618D01*
X1069157Y512617D01*
Y505000D01*
X1061539D01*
X1059000Y507539D01*
X1061539Y510078D01*
X1069157D01*
X1074235Y520235D02*
Y505000D01*
X1081853D01*
X1084392Y507539D01*
Y510078D01*
Y512617D01*
X1081853Y515157D01*
X1074235D01*
X1099627Y520235D02*
Y505000D01*
X1092009D01*
X1089470Y507539D01*
Y512617D01*
X1092009Y515157D01*
X1099627D01*
X1104705D02*
Y507539D01*
X1107244Y505000D01*
X1114862D01*
Y515157D01*
X1119940Y505000D02*
X1125019D01*
X1122479D01*
Y520235D01*
X1119940D01*
X1132636Y505000D02*
Y515157D01*
X1135175D01*
X1137714Y512617D01*
Y505000D01*
Y512617D01*
X1140254Y515157D01*
X1142793Y512617D01*
Y505000D01*
X1150410Y515157D02*
X1155489D01*
X1158028Y512617D01*
Y505000D01*
X1150410D01*
X1147871Y507539D01*
X1150410Y510078D01*
X1158028D01*
X1168185Y499922D02*
X1170724D01*
X1173263Y502461D01*
Y515157D01*
X1165646D01*
X1163106Y512617D01*
Y507539D01*
X1165646Y505000D01*
X1173263D01*
X1178341Y515157D02*
Y507539D01*
X1180881Y505000D01*
X1188498D01*
Y515157D01*
X1193577Y505000D02*
X1198655D01*
X1196116D01*
Y515157D01*
X1193577D01*
X1216429Y520235D02*
Y505000D01*
X1208812D01*
X1206272Y507539D01*
Y512617D01*
X1208812Y515157D01*
X1216429D01*
X1221507Y505000D02*
Y507539D01*
X1224047D01*
Y505000D01*
X1221507D01*
X1241821D02*
X1236742D01*
X1234203Y507539D01*
Y512617D01*
X1236742Y515157D01*
X1241821D01*
X1244360Y512617D01*
Y510078D01*
X1234203D01*
X1249438Y505000D02*
X1254517D01*
X1251978D01*
Y515157D01*
X1249438D01*
X1262134Y505000D02*
X1269752D01*
X1272291Y507539D01*
X1269752Y510078D01*
X1264673D01*
X1262134Y512617D01*
X1264673Y515157D01*
X1272291D01*
X1277369Y505000D02*
X1284987D01*
X1287526Y507539D01*
X1284987Y510078D01*
X1279909D01*
X1277369Y512617D01*
X1279909Y515157D01*
X1287526D01*
X1295144D02*
X1300222D01*
X1302761Y512617D01*
Y505000D01*
X1295144D01*
X1292604Y507539D01*
X1295144Y510078D01*
X1302761D01*
X1315457D02*
Y512617D01*
X1312918D01*
Y510078D01*
X1315457D01*
X1317996Y512617D01*
Y517696D01*
X1315457Y520235D01*
X1310379D01*
X1307840Y517696D01*
Y507539D01*
X1310379Y505000D01*
X1317996D01*
X1328153Y499922D02*
X1330692D01*
X1333231Y502461D01*
Y515157D01*
X1325614D01*
X1323075Y512617D01*
Y507539D01*
X1325614Y505000D01*
X1333231D01*
X1338310D02*
Y515157D01*
X1340849D01*
X1343388Y512617D01*
Y505000D01*
Y512617D01*
X1345927Y515157D01*
X1348466Y512617D01*
Y505000D01*
X1356084Y515157D02*
X1361162D01*
X1363701Y512617D01*
Y505000D01*
X1356084D01*
X1353545Y507539D01*
X1356084Y510078D01*
X1363701D01*
X1368780Y505000D02*
X1373858D01*
X1371319D01*
Y515157D01*
X1368780D01*
X1381476Y505000D02*
X1386554D01*
X1384015D01*
Y520235D01*
X1381476D01*
X1394172Y505000D02*
Y507539D01*
X1396711D01*
Y505000D01*
X1394172D01*
X1417024Y515157D02*
X1409407D01*
X1406867Y512617D01*
Y507539D01*
X1409407Y505000D01*
X1417024D01*
X1424642D02*
X1429720D01*
X1432259Y507539D01*
Y512617D01*
X1429720Y515157D01*
X1424642D01*
X1422103Y512617D01*
Y507539D01*
X1424642Y505000D01*
X1437338D02*
Y515157D01*
X1439877D01*
X1442416Y512617D01*
Y505000D01*
Y512617D01*
X1444955Y515157D01*
X1447494Y512617D01*
Y505000D01*
X1059000Y470235D02*
X1069157D01*
X1064078D01*
Y455000D01*
X1074235Y470235D02*
Y455000D01*
Y462617D01*
X1076774Y465157D01*
X1081853D01*
X1084392Y462617D01*
Y455000D01*
X1089470D02*
X1094548D01*
X1092009D01*
Y465157D01*
X1089470D01*
X1102166Y455000D02*
X1109784D01*
X1112323Y457539D01*
X1109784Y460078D01*
X1104705D01*
X1102166Y462617D01*
X1104705Y465157D01*
X1112323D01*
X1132636Y455000D02*
X1137714D01*
X1135175D01*
Y465157D01*
X1132636D01*
X1145332Y455000D02*
X1152950D01*
X1155489Y457539D01*
X1152950Y460078D01*
X1147871D01*
X1145332Y462617D01*
X1147871Y465157D01*
X1155489D01*
X1178341D02*
X1183420D01*
X1185959Y462617D01*
Y455000D01*
X1178341D01*
X1175802Y457539D01*
X1178341Y460078D01*
X1185959D01*
X1206272Y470235D02*
Y455000D01*
Y462617D01*
X1208812Y465157D01*
X1213890D01*
X1216429Y462617D01*
Y455000D01*
X1221507Y465157D02*
Y457539D01*
X1224047Y455000D01*
X1231664D01*
Y465157D01*
X1236742Y455000D02*
Y465157D01*
X1239282D01*
X1241821Y462617D01*
Y455000D01*
Y462617D01*
X1244360Y465157D01*
X1246899Y462617D01*
Y455000D01*
X1254517Y465157D02*
X1259595D01*
X1262134Y462617D01*
Y455000D01*
X1254517D01*
X1251978Y457539D01*
X1254517Y460078D01*
X1262134D01*
X1267213Y455000D02*
Y465157D01*
X1274830D01*
X1277369Y462617D01*
Y455000D01*
X1282448Y462617D02*
X1292605D01*
X1297683Y465157D02*
Y455000D01*
Y460078D01*
X1300222Y462617D01*
X1302761Y465157D01*
X1305300D01*
X1320535Y455000D02*
X1315457D01*
X1312918Y457539D01*
Y462617D01*
X1315457Y465157D01*
X1320535D01*
X1323075Y462617D01*
Y460078D01*
X1312918D01*
X1330692Y465157D02*
X1335771D01*
X1338310Y462617D01*
Y455000D01*
X1330692D01*
X1328153Y457539D01*
X1330692Y460078D01*
X1338310D01*
X1353545Y470235D02*
Y455000D01*
X1345927D01*
X1343388Y457539D01*
Y462617D01*
X1345927Y465157D01*
X1353545D01*
X1361162D02*
X1366241D01*
X1368780Y462617D01*
Y455000D01*
X1361162D01*
X1358623Y457539D01*
X1361162Y460078D01*
X1368780D01*
X1373858Y470235D02*
Y455000D01*
X1381476D01*
X1384015Y457539D01*
Y460078D01*
Y462617D01*
X1381476Y465157D01*
X1373858D01*
X1389093Y455000D02*
X1394172D01*
X1391632D01*
Y470235D01*
X1389093D01*
X1409407Y455000D02*
X1404328D01*
X1401789Y457539D01*
Y462617D01*
X1404328Y465157D01*
X1409407D01*
X1411946Y462617D01*
Y460078D01*
X1401789D01*
X1432259Y455000D02*
X1439877D01*
X1442416Y457539D01*
X1439877Y460078D01*
X1434798D01*
X1432259Y462617D01*
X1434798Y465157D01*
X1442416D01*
X1447494D02*
Y457539D01*
X1450034Y455000D01*
X1457651D01*
Y465157D01*
X1462729Y455000D02*
Y465157D01*
X1465269D01*
X1467808Y462617D01*
Y455000D01*
Y462617D01*
X1470347Y465157D01*
X1472886Y462617D01*
Y455000D01*
X1477964D02*
Y465157D01*
X1480504D01*
X1483043Y462617D01*
Y455000D01*
Y462617D01*
X1485582Y465157D01*
X1488121Y462617D01*
Y455000D01*
X1495739Y465157D02*
X1500817D01*
X1503356Y462617D01*
Y455000D01*
X1495739D01*
X1493200Y457539D01*
X1495739Y460078D01*
X1503356D01*
X1508435Y465157D02*
Y455000D01*
Y460078D01*
X1510974Y462617D01*
X1513513Y465157D01*
X1516052D01*
X1523670D02*
Y457539D01*
X1526209Y455000D01*
X1533826D01*
Y452461D01*
X1531287Y449922D01*
X1528748D01*
X1533826Y455000D02*
Y465157D01*
X1556679Y455000D02*
X1561757D01*
X1564297Y457539D01*
Y462617D01*
X1561757Y465157D01*
X1556679D01*
X1554140Y462617D01*
Y457539D01*
X1556679Y455000D01*
X1571914D02*
Y467696D01*
Y462617D01*
X1569375D01*
X1574453D01*
X1571914D01*
Y467696D01*
X1574453Y470235D01*
X1599845Y467696D02*
Y465157D01*
X1597306D01*
X1602384D01*
X1599845D01*
Y457539D01*
X1602384Y455000D01*
X1610002Y470235D02*
Y455000D01*
Y462617D01*
X1612541Y465157D01*
X1617619D01*
X1620159Y462617D01*
Y455000D01*
X1632854D02*
X1627776D01*
X1625237Y457539D01*
Y462617D01*
X1627776Y465157D01*
X1632854D01*
X1635394Y462617D01*
Y460078D01*
X1625237D01*
X1655707Y455000D02*
X1660785D01*
X1658246D01*
Y470235D01*
X1655707D01*
X1668403Y455000D02*
X1673481D01*
X1670942D01*
Y465157D01*
X1668403D01*
X1691255D02*
X1683638D01*
X1681099Y462617D01*
Y457539D01*
X1683638Y455000D01*
X1691255D01*
X1703951D02*
X1698873D01*
X1696334Y457539D01*
Y462617D01*
X1698873Y465157D01*
X1703951D01*
X1706490Y462617D01*
Y460078D01*
X1696334D01*
X1711569Y455000D02*
Y465157D01*
X1719186D01*
X1721726Y462617D01*
Y455000D01*
X1736961Y465157D02*
X1729343D01*
X1726804Y462617D01*
Y457539D01*
X1729343Y455000D01*
X1736961D01*
X1749657D02*
X1744578D01*
X1742039Y457539D01*
Y462617D01*
X1744578Y465157D01*
X1749657D01*
X1752196Y462617D01*
Y460078D01*
X1742039D01*
X1757274Y455000D02*
Y457539D01*
X1759813D01*
Y455000D01*
X1757274D01*
X1785205D02*
Y470235D01*
X1792823D01*
X1795362Y467696D01*
Y462617D01*
X1792823Y460078D01*
X1785205D01*
X1790283D02*
X1795362Y455000D01*
X1808058D02*
X1802979D01*
X1800440Y457539D01*
Y462617D01*
X1802979Y465157D01*
X1808058D01*
X1810597Y462617D01*
Y460078D01*
X1800440D01*
X1818214Y465157D02*
X1823293D01*
X1825832Y462617D01*
Y455000D01*
X1818214D01*
X1815675Y457539D01*
X1818214Y460078D01*
X1825832D01*
X1841067Y470235D02*
Y455000D01*
X1833450D01*
X1830910Y457539D01*
Y462617D01*
X1833450Y465157D01*
X1841067D01*
X1863920Y455000D02*
Y467696D01*
Y462617D01*
X1861380D01*
X1866459D01*
X1863920D01*
Y467696D01*
X1866459Y470235D01*
X1874076Y465157D02*
Y457539D01*
X1876615Y455000D01*
X1884233D01*
Y465157D01*
X1889311Y455000D02*
X1894390D01*
X1891851D01*
Y470235D01*
X1889311D01*
X1902007Y455000D02*
X1907086D01*
X1904547D01*
Y470235D01*
X1902007D01*
X1929938Y455000D02*
X1935017D01*
X1932477D01*
Y470235D01*
X1929938D01*
X1942634Y455000D02*
X1947713D01*
X1945173D01*
Y465157D01*
X1942634D01*
X1965487D02*
X1957869D01*
X1955330Y462617D01*
Y457539D01*
X1957869Y455000D01*
X1965487D01*
X1978183D02*
X1973104D01*
X1970565Y457539D01*
Y462617D01*
X1973104Y465157D01*
X1978183D01*
X1980722Y462617D01*
Y460078D01*
X1970565D01*
X1985800Y455000D02*
Y465157D01*
X1993418D01*
X1995957Y462617D01*
Y455000D01*
X2011192Y465157D02*
X2003574D01*
X2001035Y462617D01*
Y457539D01*
X2003574Y455000D01*
X2011192D01*
X2023888D02*
X2018810D01*
X2016270Y457539D01*
Y462617D01*
X2018810Y465157D01*
X2023888D01*
X2026427Y462617D01*
Y460078D01*
X2016270D01*
X2049280Y465157D02*
X2054358D01*
X2056897Y462617D01*
Y455000D01*
X2049280D01*
X2046740Y457539D01*
X2049280Y460078D01*
X2056897D01*
X2064515Y467696D02*
Y465157D01*
X2061976D01*
X2067054D01*
X2064515D01*
Y457539D01*
X2067054Y455000D01*
X2074671Y465157D02*
X2077211D01*
Y462617D01*
X2074671D01*
Y465157D01*
Y457539D02*
X2077211D01*
Y455000D01*
X2074671D01*
Y457539D01*
X1059000Y445235D02*
Y430000D01*
Y437617D01*
X1061539Y440157D01*
X1066618D01*
X1069157Y437617D01*
Y430000D01*
X1076774Y442696D02*
Y440157D01*
X1074235D01*
X1079313D01*
X1076774D01*
Y432539D01*
X1079313Y430000D01*
X1089470Y442696D02*
Y440157D01*
X1086931D01*
X1092009D01*
X1089470D01*
Y432539D01*
X1092009Y430000D01*
X1099627Y424922D02*
Y440157D01*
X1107244D01*
X1109784Y437617D01*
Y432539D01*
X1107244Y430000D01*
X1099627D01*
X1114862D02*
X1122479D01*
X1125019Y432539D01*
X1122479Y435078D01*
X1117401D01*
X1114862Y437617D01*
X1117401Y440157D01*
X1125019D01*
X1130097D02*
X1132636D01*
Y437617D01*
X1130097D01*
Y440157D01*
Y432539D02*
X1132636D01*
Y430000D01*
X1130097D01*
Y432539D01*
X1142793Y430000D02*
X1152950Y440157D01*
X1158028Y430000D02*
X1168185Y440157D01*
X1183420D02*
X1175802D01*
X1173263Y437617D01*
Y432539D01*
X1175802Y430000D01*
X1183420D01*
X1188498Y440157D02*
Y430000D01*
Y435078D01*
X1191037Y437617D01*
X1193577Y440157D01*
X1196116D01*
X1211351Y430000D02*
X1206272D01*
X1203733Y432539D01*
Y437617D01*
X1206272Y440157D01*
X1211351D01*
X1213890Y437617D01*
Y435078D01*
X1203733D01*
X1221507Y440157D02*
X1226586D01*
X1229125Y437617D01*
Y430000D01*
X1221507D01*
X1218968Y432539D01*
X1221507Y435078D01*
X1229125D01*
X1236742Y442696D02*
Y440157D01*
X1234203D01*
X1239282D01*
X1236742D01*
Y432539D01*
X1239282Y430000D01*
X1246899D02*
X1251978D01*
X1249438D01*
Y440157D01*
X1246899D01*
X1259595D02*
X1264673Y430000D01*
X1269752Y440157D01*
X1282448Y430000D02*
X1277369D01*
X1274830Y432539D01*
Y437617D01*
X1277369Y440157D01*
X1282448D01*
X1284987Y437617D01*
Y435078D01*
X1274830D01*
X1300222Y440157D02*
X1292604D01*
X1290065Y437617D01*
Y432539D01*
X1292604Y430000D01*
X1300222D01*
X1307840D02*
X1312918D01*
X1315457Y432539D01*
Y437617D01*
X1312918Y440157D01*
X1307840D01*
X1305300Y437617D01*
Y432539D01*
X1307840Y430000D01*
X1320535D02*
Y440157D01*
X1323075D01*
X1325614Y437617D01*
Y430000D01*
Y437617D01*
X1328153Y440157D01*
X1330692Y437617D01*
Y430000D01*
X1335771D02*
Y440157D01*
X1338310D01*
X1340849Y437617D01*
Y430000D01*
Y437617D01*
X1343388Y440157D01*
X1345927Y437617D01*
Y430000D01*
X1353545D02*
X1358623D01*
X1361162Y432539D01*
Y437617D01*
X1358623Y440157D01*
X1353545D01*
X1351006Y437617D01*
Y432539D01*
X1353545Y430000D01*
X1366241D02*
Y440157D01*
X1373858D01*
X1376397Y437617D01*
Y430000D01*
X1381476D02*
X1389093D01*
X1391632Y432539D01*
X1389093Y435078D01*
X1384015D01*
X1381476Y437617D01*
X1384015Y440157D01*
X1391632D01*
X1396711Y430000D02*
Y432539D01*
X1399250D01*
Y430000D01*
X1396711D01*
X1411946D02*
X1417024D01*
X1419563Y432539D01*
Y437617D01*
X1417024Y440157D01*
X1411946D01*
X1409407Y437617D01*
Y432539D01*
X1411946Y430000D01*
X1424642Y440157D02*
Y430000D01*
Y435078D01*
X1427181Y437617D01*
X1429720Y440157D01*
X1432259D01*
X1444955Y424922D02*
X1447494D01*
X1450034Y427461D01*
Y440157D01*
X1442416D01*
X1439877Y437617D01*
Y432539D01*
X1442416Y430000D01*
X1450034D01*
X1455112D02*
X1465269Y440157D01*
X1470347Y430000D02*
X1475425D01*
X1472886D01*
Y445235D01*
X1470347D01*
X1483043Y430000D02*
X1488121D01*
X1485582D01*
Y440157D01*
X1483043D01*
X1505895D02*
X1498278D01*
X1495739Y437617D01*
Y432539D01*
X1498278Y430000D01*
X1505895D01*
X1518591D02*
X1513513D01*
X1510974Y432539D01*
Y437617D01*
X1513513Y440157D01*
X1518591D01*
X1521131Y437617D01*
Y435078D01*
X1510974D01*
X1526209Y430000D02*
Y440157D01*
X1533826D01*
X1536366Y437617D01*
Y430000D01*
X1541444D02*
X1549061D01*
X1551601Y432539D01*
X1549061Y435078D01*
X1543983D01*
X1541444Y437617D01*
X1543983Y440157D01*
X1551601D01*
X1564297Y430000D02*
X1559218D01*
X1556679Y432539D01*
Y437617D01*
X1559218Y440157D01*
X1564297D01*
X1566836Y437617D01*
Y435078D01*
X1556679D01*
X1571914Y430000D02*
X1579532D01*
X1582071Y432539D01*
X1579532Y435078D01*
X1574453D01*
X1571914Y437617D01*
X1574453Y440157D01*
X1582071D01*
X1587149Y430000D02*
X1597306Y440157D01*
X1602384Y445235D02*
Y430000D01*
X1610002D01*
X1612541Y432539D01*
Y435078D01*
Y437617D01*
X1610002Y440157D01*
X1602384D01*
X1617619D02*
Y432539D01*
X1620159Y430000D01*
X1627776D01*
Y427461D01*
X1625237Y424922D01*
X1622698D01*
X1627776Y430000D02*
Y440157D01*
X1632854Y437617D02*
X1643011D01*
X1648089Y430000D02*
X1655707D01*
X1658246Y432539D01*
X1655707Y435078D01*
X1650629D01*
X1648089Y437617D01*
X1650629Y440157D01*
X1658246D01*
X1665864D02*
X1670942D01*
X1673481Y437617D01*
Y430000D01*
X1665864D01*
X1663324Y432539D01*
X1665864Y435078D01*
X1673481D01*
X1678560Y430000D02*
X1688716Y440157D01*
X1693795Y442696D02*
X1696334Y445235D01*
X1701412D01*
X1703951Y442696D01*
Y440157D01*
X1701412Y437617D01*
X1698873D01*
X1701412D01*
X1703951Y435078D01*
Y432539D01*
X1701412Y430000D01*
X1696334D01*
X1693795Y432539D01*
X1709030Y430000D02*
Y432539D01*
X1711569D01*
Y430000D01*
X1709030D01*
X1721726Y442696D02*
X1724265Y445235D01*
X1729343D01*
X1731882Y442696D01*
Y432539D01*
X1729343Y430000D01*
X1724265D01*
X1721726Y432539D01*
Y442696D01*
X1736961Y430000D02*
X1747117Y440157D01*
X1752196Y430000D02*
X1757274D01*
X1754735D01*
Y445235D01*
X1752196D01*
X1772509Y430000D02*
X1767431D01*
X1764892Y432539D01*
Y437617D01*
X1767431Y440157D01*
X1772509D01*
X1775048Y437617D01*
Y435078D01*
X1764892D01*
X1785205Y424922D02*
X1787744D01*
X1790283Y427461D01*
Y440157D01*
X1782666D01*
X1780127Y437617D01*
Y432539D01*
X1782666Y430000D01*
X1790283D01*
X1797901Y440157D02*
X1802979D01*
X1805518Y437617D01*
Y430000D01*
X1797901D01*
X1795362Y432539D01*
X1797901Y435078D01*
X1805518D01*
X1810597Y430000D02*
X1815675D01*
X1813136D01*
Y445235D01*
X1810597D01*
X1833449Y440157D02*
X1825832D01*
X1823293Y437617D01*
Y432539D01*
X1825832Y430000D01*
X1833449D01*
X1841067D02*
X1846145D01*
X1848685Y432539D01*
Y437617D01*
X1846145Y440157D01*
X1841067D01*
X1838528Y437617D01*
Y432539D01*
X1841067Y430000D01*
X1863920Y445235D02*
Y430000D01*
X1856302D01*
X1853763Y432539D01*
Y437617D01*
X1856302Y440157D01*
X1863920D01*
X1876615Y430000D02*
X1871537D01*
X1868998Y432539D01*
Y437617D01*
X1871537Y440157D01*
X1876615D01*
X1879155Y437617D01*
Y435078D01*
X1868998D01*
X1069157Y367696D02*
X1066618Y370235D01*
X1061539D01*
X1059000Y367696D01*
Y365157D01*
X1061539Y362617D01*
X1066618D01*
X1069157Y360078D01*
Y357539D01*
X1066618Y355000D01*
X1061539D01*
X1059000Y357539D01*
X1074235Y370235D02*
Y355000D01*
Y362617D01*
X1076774Y365157D01*
X1081853D01*
X1084392Y362617D01*
Y355000D01*
X1092009Y365157D02*
X1097088D01*
X1099627Y362617D01*
Y355000D01*
X1092009D01*
X1089470Y357539D01*
X1092009Y360078D01*
X1099627D01*
X1104705Y365157D02*
Y355000D01*
Y360078D01*
X1107244Y362617D01*
X1109784Y365157D01*
X1112323D01*
X1127558Y355000D02*
X1122479D01*
X1119940Y357539D01*
Y362617D01*
X1122479Y365157D01*
X1127558D01*
X1130097Y362617D01*
Y360078D01*
X1119940D01*
X1150410Y362617D02*
X1160567D01*
X1191037Y365157D02*
X1183420D01*
X1180881Y362617D01*
Y357539D01*
X1183420Y355000D01*
X1191037D01*
X1198655D02*
X1203733D01*
X1206272Y357539D01*
Y362617D01*
X1203733Y365157D01*
X1198655D01*
X1196116Y362617D01*
Y357539D01*
X1198655Y355000D01*
X1211351Y349922D02*
Y365157D01*
X1218968D01*
X1221507Y362617D01*
Y357539D01*
X1218968Y355000D01*
X1211351D01*
X1226586Y365157D02*
Y357539D01*
X1229125Y355000D01*
X1236742D01*
Y352461D01*
X1234203Y349922D01*
X1231664D01*
X1236742Y355000D02*
Y365157D01*
X1259595D02*
X1264673D01*
X1267213Y362617D01*
Y355000D01*
X1259595D01*
X1257056Y357539D01*
X1259595Y360078D01*
X1267213D01*
X1272291Y355000D02*
Y365157D01*
X1279909D01*
X1282448Y362617D01*
Y355000D01*
X1297683Y370235D02*
Y355000D01*
X1290065D01*
X1287526Y357539D01*
Y362617D01*
X1290065Y365157D01*
X1297683D01*
X1317996D02*
Y355000D01*
Y360078D01*
X1320535Y362617D01*
X1323075Y365157D01*
X1325614D01*
X1340849Y355000D02*
X1335771D01*
X1333231Y357539D01*
Y362617D01*
X1335771Y365157D01*
X1340849D01*
X1343388Y362617D01*
Y360078D01*
X1333231D01*
X1358623Y370235D02*
Y355000D01*
X1351006D01*
X1348466Y357539D01*
Y362617D01*
X1351006Y365157D01*
X1358623D01*
X1363701Y355000D02*
X1368780D01*
X1366241D01*
Y365157D01*
X1363701D01*
X1376397Y355000D02*
X1384015D01*
X1386554Y357539D01*
X1384015Y360078D01*
X1378936D01*
X1376397Y362617D01*
X1378936Y365157D01*
X1386554D01*
X1394172Y367696D02*
Y365157D01*
X1391632D01*
X1396711D01*
X1394172D01*
Y357539D01*
X1396711Y355000D01*
X1404328Y365157D02*
Y355000D01*
Y360078D01*
X1406868Y362617D01*
X1409407Y365157D01*
X1411946D01*
X1419563Y355000D02*
X1424642D01*
X1422103D01*
Y365157D01*
X1419563D01*
X1432259Y370235D02*
Y355000D01*
X1439877D01*
X1442416Y357539D01*
Y360078D01*
Y362617D01*
X1439877Y365157D01*
X1432259D01*
X1447494D02*
Y357539D01*
X1450034Y355000D01*
X1457651D01*
Y365157D01*
X1465269Y367696D02*
Y365157D01*
X1462729D01*
X1467808D01*
X1465269D01*
Y357539D01*
X1467808Y355000D01*
X1483043D02*
X1477964D01*
X1475425Y357539D01*
Y362617D01*
X1477964Y365157D01*
X1483043D01*
X1485582Y362617D01*
Y360078D01*
X1475425D01*
X1508435Y367696D02*
Y365157D01*
X1505895D01*
X1510974D01*
X1508435D01*
Y357539D01*
X1510974Y355000D01*
X1518591Y370235D02*
Y355000D01*
Y362617D01*
X1521131Y365157D01*
X1526209D01*
X1528748Y362617D01*
Y355000D01*
X1541444D02*
X1536366D01*
X1533826Y357539D01*
Y362617D01*
X1536366Y365157D01*
X1541444D01*
X1543983Y362617D01*
Y360078D01*
X1533826D01*
X1564297Y355000D02*
Y365157D01*
X1566836D01*
X1569375Y362617D01*
Y355000D01*
Y362617D01*
X1571914Y365157D01*
X1574453Y362617D01*
Y355000D01*
X1582071Y365157D02*
X1587149D01*
X1589688Y362617D01*
Y355000D01*
X1582071D01*
X1579532Y357539D01*
X1582071Y360078D01*
X1589688D01*
X1597306Y367696D02*
Y365157D01*
X1594767D01*
X1599845D01*
X1597306D01*
Y357539D01*
X1599845Y355000D01*
X1615080D02*
X1610002D01*
X1607463Y357539D01*
Y362617D01*
X1610002Y365157D01*
X1615080D01*
X1617619Y362617D01*
Y360078D01*
X1607463D01*
X1622698Y365157D02*
Y355000D01*
Y360078D01*
X1625237Y362617D01*
X1627776Y365157D01*
X1630315D01*
X1637933Y355000D02*
X1643011D01*
X1640472D01*
Y365157D01*
X1637933D01*
X1653168D02*
X1658246D01*
X1660785Y362617D01*
Y355000D01*
X1653168D01*
X1650629Y357539D01*
X1653168Y360078D01*
X1660785D01*
X1665864Y355000D02*
X1670942D01*
X1668403D01*
Y370235D01*
X1665864D01*
X1693795Y355000D02*
X1698873D01*
X1696334D01*
Y365157D01*
X1693795D01*
X1706490Y355000D02*
Y365157D01*
X1714108D01*
X1716647Y362617D01*
Y355000D01*
X1739500Y365157D02*
X1744578D01*
X1747117Y362617D01*
Y355000D01*
X1739500D01*
X1736961Y357539D01*
X1739500Y360078D01*
X1747117D01*
X1752196Y355000D02*
Y365157D01*
X1759813D01*
X1762352Y362617D01*
Y355000D01*
X1767431Y365157D02*
Y357539D01*
X1769970Y355000D01*
X1777587D01*
Y352461D01*
X1775048Y349922D01*
X1772509D01*
X1777587Y355000D02*
Y365157D01*
X1797901Y355000D02*
Y365157D01*
X1800440D01*
X1802979Y362617D01*
Y355000D01*
Y362617D01*
X1805518Y365157D01*
X1808058Y362617D01*
Y355000D01*
X1820754D02*
X1815675D01*
X1813136Y357539D01*
Y362617D01*
X1815675Y365157D01*
X1820754D01*
X1823293Y362617D01*
Y360078D01*
X1813136D01*
X1838528Y370235D02*
Y355000D01*
X1830910D01*
X1828371Y357539D01*
Y362617D01*
X1830910Y365157D01*
X1838528D01*
X1843606Y355000D02*
X1848685D01*
X1846145D01*
Y365157D01*
X1843606D01*
X1856302D02*
Y357539D01*
X1858841Y355000D01*
X1866459D01*
Y365157D01*
X1871537Y355000D02*
Y365157D01*
X1874076D01*
X1876615Y362617D01*
Y355000D01*
Y362617D01*
X1879155Y365157D01*
X1881694Y362617D01*
Y355000D01*
X1904547D02*
X1909625D01*
X1912164Y357539D01*
Y362617D01*
X1909625Y365157D01*
X1904547D01*
X1902007Y362617D01*
Y357539D01*
X1904547Y355000D01*
X1917242Y365157D02*
Y355000D01*
Y360078D01*
X1919781Y362617D01*
X1922321Y365157D01*
X1924860D01*
X1950252Y355000D02*
Y367696D01*
Y362617D01*
X1947713D01*
X1952791D01*
X1950252D01*
Y367696D01*
X1952791Y370235D01*
X1962948Y355000D02*
X1968026D01*
X1970565Y357539D01*
Y362617D01*
X1968026Y365157D01*
X1962948D01*
X1960408Y362617D01*
Y357539D01*
X1962948Y355000D01*
X1975643Y365157D02*
Y355000D01*
Y360078D01*
X1978183Y362617D01*
X1980722Y365157D01*
X1983261D01*
X1990878Y355000D02*
Y365157D01*
X1993418D01*
X1995957Y362617D01*
Y355000D01*
Y362617D01*
X1998496Y365157D01*
X2001035Y362617D01*
Y355000D01*
X2008653Y365157D02*
X2013731D01*
X2016270Y362617D01*
Y355000D01*
X2008653D01*
X2006114Y357539D01*
X2008653Y360078D01*
X2016270D01*
X2023888Y367696D02*
Y365157D01*
X2021349D01*
X2026427D01*
X2023888D01*
Y357539D01*
X2026427Y355000D01*
X1059000Y330000D02*
Y340157D01*
X1064078Y345235D01*
X1069157Y340157D01*
Y330000D01*
Y337617D01*
X1059000D01*
X1084392Y345235D02*
Y330000D01*
X1076774D01*
X1074235Y332539D01*
Y337617D01*
X1076774Y340157D01*
X1084392D01*
X1092009D02*
X1097088D01*
X1099627Y337617D01*
Y330000D01*
X1092009D01*
X1089470Y332539D01*
X1092009Y335078D01*
X1099627D01*
X1104705Y324922D02*
Y340157D01*
X1112323D01*
X1114862Y337617D01*
Y332539D01*
X1112323Y330000D01*
X1104705D01*
X1122479Y342696D02*
Y340157D01*
X1119940D01*
X1125019D01*
X1122479D01*
Y332539D01*
X1125019Y330000D01*
X1147871Y337617D02*
X1158028D01*
X1178341Y340157D02*
Y330000D01*
Y335078D01*
X1180881Y337617D01*
X1183420Y340157D01*
X1185959D01*
X1201194Y330000D02*
X1196116D01*
X1193577Y332539D01*
Y337617D01*
X1196116Y340157D01*
X1201194D01*
X1203733Y337617D01*
Y335078D01*
X1193577D01*
X1208812Y330000D02*
Y340157D01*
X1211351D01*
X1213890Y337617D01*
Y330000D01*
Y337617D01*
X1216429Y340157D01*
X1218968Y337617D01*
Y330000D01*
X1224047D02*
X1229125D01*
X1226586D01*
Y340157D01*
X1224047D01*
X1236742D02*
X1246899Y330000D01*
X1241821Y335078D01*
X1246899Y340157D01*
X1236742Y330000D01*
X1254517Y327461D02*
X1257056Y330000D01*
Y332539D01*
X1254517D01*
Y330000D01*
X1257056D01*
X1254517Y327461D01*
X1251978Y324922D01*
X1284987Y342696D02*
Y340157D01*
X1282448D01*
X1287526D01*
X1284987D01*
Y332539D01*
X1287526Y330000D01*
X1295144Y340157D02*
Y330000D01*
Y335078D01*
X1297683Y337617D01*
X1300222Y340157D01*
X1302761D01*
X1312918D02*
X1317996D01*
X1320535Y337617D01*
Y330000D01*
X1312918D01*
X1310379Y332539D01*
X1312918Y335078D01*
X1320535D01*
X1325614Y330000D02*
Y340157D01*
X1333231D01*
X1335771Y337617D01*
Y330000D01*
X1340849D02*
X1348466D01*
X1351006Y332539D01*
X1348466Y335078D01*
X1343388D01*
X1340849Y337617D01*
X1343388Y340157D01*
X1351006D01*
X1358623Y330000D02*
Y342696D01*
Y337617D01*
X1356084D01*
X1361162D01*
X1358623D01*
Y342696D01*
X1361162Y345235D01*
X1371319Y330000D02*
X1376397D01*
X1378936Y332539D01*
Y337617D01*
X1376397Y340157D01*
X1371319D01*
X1368780Y337617D01*
Y332539D01*
X1371319Y330000D01*
X1384015Y340157D02*
Y330000D01*
Y335078D01*
X1386554Y337617D01*
X1389093Y340157D01*
X1391632D01*
X1399250Y330000D02*
Y340157D01*
X1401789D01*
X1404328Y337617D01*
Y330000D01*
Y337617D01*
X1406868Y340157D01*
X1409407Y337617D01*
Y330000D01*
X1417024Y327461D02*
X1419563Y330000D01*
Y332539D01*
X1417024D01*
Y330000D01*
X1419563D01*
X1417024Y327461D01*
X1414485Y324922D01*
X1447494Y340157D02*
X1452573D01*
X1455112Y337617D01*
Y330000D01*
X1447494D01*
X1444955Y332539D01*
X1447494Y335078D01*
X1455112D01*
X1460190Y330000D02*
Y340157D01*
X1467808D01*
X1470347Y337617D01*
Y330000D01*
X1485582Y345235D02*
Y330000D01*
X1477964D01*
X1475425Y332539D01*
Y337617D01*
X1477964Y340157D01*
X1485582D01*
X1505895Y345235D02*
Y330000D01*
X1513513D01*
X1516052Y332539D01*
Y335078D01*
Y337617D01*
X1513513Y340157D01*
X1505895D01*
X1521131D02*
Y332539D01*
X1523670Y330000D01*
X1531287D01*
Y340157D01*
X1536366Y330000D02*
X1541444D01*
X1538905D01*
Y340157D01*
X1536366D01*
X1549061Y330000D02*
X1554140D01*
X1551601D01*
Y345235D01*
X1549061D01*
X1571914D02*
Y330000D01*
X1564297D01*
X1561757Y332539D01*
Y337617D01*
X1564297Y340157D01*
X1571914D01*
X1592227D02*
Y332539D01*
X1594767Y330000D01*
X1602384D01*
Y340157D01*
X1607463Y324922D02*
Y340157D01*
X1615080D01*
X1617619Y337617D01*
Y332539D01*
X1615080Y330000D01*
X1607463D01*
X1625237D02*
X1630315D01*
X1632854Y332539D01*
Y337617D01*
X1630315Y340157D01*
X1625237D01*
X1622698Y337617D01*
Y332539D01*
X1625237Y330000D01*
X1637933D02*
Y340157D01*
X1645550D01*
X1648089Y337617D01*
Y330000D01*
X1670942Y342696D02*
Y340157D01*
X1668403D01*
X1673481D01*
X1670942D01*
Y332539D01*
X1673481Y330000D01*
X1681099Y345235D02*
Y330000D01*
Y337617D01*
X1683638Y340157D01*
X1688716D01*
X1691255Y337617D01*
Y330000D01*
X1703951D02*
X1698873D01*
X1696334Y332539D01*
Y337617D01*
X1698873Y340157D01*
X1703951D01*
X1706490Y337617D01*
Y335078D01*
X1696334D01*
X1726804Y330000D02*
Y340157D01*
X1729343D01*
X1731882Y337617D01*
Y330000D01*
Y337617D01*
X1734422Y340157D01*
X1736961Y337617D01*
Y330000D01*
X1744578Y340157D02*
X1749657D01*
X1752196Y337617D01*
Y330000D01*
X1744578D01*
X1742039Y332539D01*
X1744578Y335078D01*
X1752196D01*
X1759813Y342696D02*
Y340157D01*
X1757274D01*
X1762352D01*
X1759813D01*
Y332539D01*
X1762352Y330000D01*
X1777587D02*
X1772509D01*
X1769970Y332539D01*
Y337617D01*
X1772509Y340157D01*
X1777587D01*
X1780127Y337617D01*
Y335078D01*
X1769970D01*
X1785205Y340157D02*
Y330000D01*
Y335078D01*
X1787744Y337617D01*
X1790283Y340157D01*
X1792823D01*
X1800440Y330000D02*
X1805518D01*
X1802979D01*
Y340157D01*
X1800440D01*
X1815675D02*
X1820754D01*
X1823293Y337617D01*
Y330000D01*
X1815675D01*
X1813136Y332539D01*
X1815675Y335078D01*
X1823293D01*
X1828371Y330000D02*
X1833449D01*
X1830910D01*
Y345235D01*
X1828371D01*
X1061539Y305000D02*
Y317696D01*
Y312617D01*
X1059000D01*
X1064078D01*
X1061539D01*
Y317696D01*
X1064078Y320235D01*
X1074235Y305000D02*
X1079313D01*
X1081853Y307539D01*
Y312617D01*
X1079313Y315157D01*
X1074235D01*
X1071696Y312617D01*
Y307539D01*
X1074235Y305000D01*
X1086931Y315157D02*
Y305000D01*
Y310078D01*
X1089470Y312617D01*
X1092009Y315157D01*
X1094548D01*
X1119940D02*
X1125019D01*
X1127558Y312617D01*
Y305000D01*
X1119940D01*
X1117401Y307539D01*
X1119940Y310078D01*
X1127558D01*
X1132636Y305000D02*
Y315157D01*
X1140254D01*
X1142793Y312617D01*
Y305000D01*
X1147871Y315157D02*
Y307539D01*
X1150410Y305000D01*
X1158028D01*
Y302461D01*
X1155489Y299922D01*
X1152950D01*
X1158028Y305000D02*
Y315157D01*
X1178341Y299922D02*
Y315157D01*
X1185959D01*
X1188498Y312617D01*
Y307539D01*
X1185959Y305000D01*
X1178341D01*
X1193577Y315157D02*
Y307539D01*
X1196116Y305000D01*
X1203733D01*
Y315157D01*
X1208812D02*
Y305000D01*
Y310078D01*
X1211351Y312617D01*
X1213890Y315157D01*
X1216429D01*
X1224047Y299922D02*
Y315157D01*
X1231664D01*
X1234203Y312617D01*
Y307539D01*
X1231664Y305000D01*
X1224047D01*
X1241821D02*
X1246899D01*
X1249438Y307539D01*
Y312617D01*
X1246899Y315157D01*
X1241821D01*
X1239282Y312617D01*
Y307539D01*
X1241821Y305000D01*
X1254517D02*
X1262134D01*
X1264673Y307539D01*
X1262134Y310078D01*
X1257056D01*
X1254517Y312617D01*
X1257056Y315157D01*
X1264673D01*
X1277369Y305000D02*
X1272291D01*
X1269752Y307539D01*
Y312617D01*
X1272291Y315157D01*
X1277369D01*
X1279909Y312617D01*
Y310078D01*
X1269752D01*
X1287526Y302461D02*
X1290065Y305000D01*
Y307539D01*
X1287526D01*
Y305000D01*
X1290065D01*
X1287526Y302461D01*
X1284987Y299922D01*
X1323075Y305000D02*
X1317996D01*
X1315457Y307539D01*
Y312617D01*
X1317996Y315157D01*
X1323075D01*
X1325614Y312617D01*
Y310078D01*
X1315457D01*
X1330692Y315157D02*
X1335771Y305000D01*
X1340849Y315157D01*
X1353545Y305000D02*
X1348466D01*
X1345927Y307539D01*
Y312617D01*
X1348466Y315157D01*
X1353545D01*
X1356084Y312617D01*
Y310078D01*
X1345927D01*
X1361162Y305000D02*
Y315157D01*
X1368780D01*
X1371319Y312617D01*
Y305000D01*
X1401789Y315157D02*
X1394172D01*
X1391632Y312617D01*
Y307539D01*
X1394172Y305000D01*
X1401789D01*
X1409407D02*
X1414485D01*
X1417024Y307539D01*
Y312617D01*
X1414485Y315157D01*
X1409407D01*
X1406868Y312617D01*
Y307539D01*
X1409407Y305000D01*
X1422103D02*
Y315157D01*
X1424642D01*
X1427181Y312617D01*
Y305000D01*
Y312617D01*
X1429720Y315157D01*
X1432259Y312617D01*
Y305000D01*
X1437338D02*
Y315157D01*
X1439877D01*
X1442416Y312617D01*
Y305000D01*
Y312617D01*
X1444955Y315157D01*
X1447494Y312617D01*
Y305000D01*
X1460190D02*
X1455112D01*
X1452573Y307539D01*
Y312617D01*
X1455112Y315157D01*
X1460190D01*
X1462729Y312617D01*
Y310078D01*
X1452573D01*
X1467808Y315157D02*
Y305000D01*
Y310078D01*
X1470347Y312617D01*
X1472886Y315157D01*
X1475425D01*
X1493200D02*
X1485582D01*
X1483043Y312617D01*
Y307539D01*
X1485582Y305000D01*
X1493200D01*
X1498278D02*
X1503356D01*
X1500817D01*
Y315157D01*
X1498278D01*
X1513513D02*
X1518591D01*
X1521131Y312617D01*
Y305000D01*
X1513513D01*
X1510974Y307539D01*
X1513513Y310078D01*
X1521131D01*
X1526209Y305000D02*
X1531287D01*
X1528748D01*
Y320235D01*
X1526209D01*
X1538905Y305000D02*
X1543983D01*
X1541444D01*
Y320235D01*
X1538905D01*
X1551601Y315157D02*
Y307539D01*
X1554140Y305000D01*
X1561757D01*
Y302461D01*
X1559218Y299922D01*
X1556679D01*
X1561757Y305000D02*
Y315157D01*
X1566836Y305000D02*
Y307539D01*
X1569375D01*
Y305000D01*
X1566836D01*
X1059000Y270235D02*
X1069157D01*
X1064078D01*
Y255000D01*
X1074235Y270235D02*
Y255000D01*
Y262617D01*
X1076774Y265157D01*
X1081853D01*
X1084392Y262617D01*
Y255000D01*
X1097088D02*
X1092009D01*
X1089470Y257539D01*
Y262617D01*
X1092009Y265157D01*
X1097088D01*
X1099627Y262617D01*
Y260078D01*
X1089470D01*
X1119940Y255000D02*
X1125019D01*
X1122479D01*
Y270235D01*
X1119940D01*
X1132636Y255000D02*
X1137714D01*
X1135175D01*
Y265157D01*
X1132636D01*
X1155489D02*
X1147871D01*
X1145332Y262617D01*
Y257539D01*
X1147871Y255000D01*
X1155489D01*
X1168185D02*
X1163106D01*
X1160567Y257539D01*
Y262617D01*
X1163106Y265157D01*
X1168185D01*
X1170724Y262617D01*
Y260078D01*
X1160567D01*
X1175802Y255000D02*
Y265157D01*
X1183420D01*
X1185959Y262617D01*
Y255000D01*
X1191037D02*
X1198655D01*
X1201194Y257539D01*
X1198655Y260078D01*
X1193577D01*
X1191037Y262617D01*
X1193577Y265157D01*
X1201194D01*
X1208812Y255000D02*
X1213890D01*
X1216429Y257539D01*
Y262617D01*
X1213890Y265157D01*
X1208812D01*
X1206272Y262617D01*
Y257539D01*
X1208812Y255000D01*
X1221507Y265157D02*
Y255000D01*
Y260078D01*
X1224047Y262617D01*
X1226586Y265157D01*
X1229125D01*
X1262134D02*
X1254517D01*
X1251978Y262617D01*
Y257539D01*
X1254517Y255000D01*
X1262134D01*
X1269752Y265157D02*
X1274830D01*
X1277369Y262617D01*
Y255000D01*
X1269752D01*
X1267213Y257539D01*
X1269752Y260078D01*
X1277369D01*
X1282448Y255000D02*
Y265157D01*
X1290065D01*
X1292605Y262617D01*
Y255000D01*
X1297683D02*
Y265157D01*
X1305300D01*
X1307840Y262617D01*
Y255000D01*
X1315457D02*
X1320535D01*
X1323075Y257539D01*
Y262617D01*
X1320535Y265157D01*
X1315457D01*
X1312918Y262617D01*
Y257539D01*
X1315457Y255000D01*
X1330692Y267696D02*
Y265157D01*
X1328153D01*
X1333231D01*
X1330692D01*
Y257539D01*
X1333231Y255000D01*
X1356084Y265157D02*
Y255000D01*
Y260078D01*
X1358623Y262617D01*
X1361162Y265157D01*
X1363701D01*
X1378936Y255000D02*
X1373858D01*
X1371319Y257539D01*
Y262617D01*
X1373858Y265157D01*
X1378936D01*
X1381476Y262617D01*
Y260078D01*
X1371319D01*
X1386554Y265157D02*
X1391632Y255000D01*
X1396711Y265157D01*
X1404328Y255000D02*
X1409407D01*
X1411946Y257539D01*
Y262617D01*
X1409407Y265157D01*
X1404328D01*
X1401789Y262617D01*
Y257539D01*
X1404328Y255000D01*
X1417024D02*
Y270235D01*
Y260078D02*
X1424642Y265157D01*
X1417024Y260078D02*
X1424642Y255000D01*
X1439877D02*
X1434798D01*
X1432259Y257539D01*
Y262617D01*
X1434798Y265157D01*
X1439877D01*
X1442416Y262617D01*
Y260078D01*
X1432259D01*
X1465269Y267696D02*
Y265157D01*
X1462729D01*
X1467808D01*
X1465269D01*
Y257539D01*
X1467808Y255000D01*
X1475425Y270235D02*
Y255000D01*
Y262617D01*
X1477964Y265157D01*
X1483043D01*
X1485582Y262617D01*
Y255000D01*
X1498278D02*
X1493200D01*
X1490660Y257539D01*
Y262617D01*
X1493200Y265157D01*
X1498278D01*
X1500817Y262617D01*
Y260078D01*
X1490660D01*
X1505895Y255000D02*
X1513513D01*
X1516052Y257539D01*
X1513513Y260078D01*
X1508435D01*
X1505895Y262617D01*
X1508435Y265157D01*
X1516052D01*
X1528748Y255000D02*
X1523670D01*
X1521131Y257539D01*
Y262617D01*
X1523670Y265157D01*
X1528748D01*
X1531287Y262617D01*
Y260078D01*
X1521131D01*
X1554140Y255000D02*
Y267696D01*
Y262617D01*
X1551601D01*
X1556679D01*
X1554140D01*
Y267696D01*
X1556679Y270235D01*
X1564297Y265157D02*
Y255000D01*
Y260078D01*
X1566836Y262617D01*
X1569375Y265157D01*
X1571914D01*
X1587149Y255000D02*
X1582071D01*
X1579532Y257539D01*
Y262617D01*
X1582071Y265157D01*
X1587149D01*
X1589688Y262617D01*
Y260078D01*
X1579532D01*
X1602384Y255000D02*
X1597306D01*
X1594767Y257539D01*
Y262617D01*
X1597306Y265157D01*
X1602384D01*
X1604923Y262617D01*
Y260078D01*
X1594767D01*
X1620159Y270235D02*
Y255000D01*
X1612541D01*
X1610002Y257539D01*
Y262617D01*
X1612541Y265157D01*
X1620159D01*
X1627776Y255000D02*
X1632854D01*
X1635394Y257539D01*
Y262617D01*
X1632854Y265157D01*
X1627776D01*
X1625237Y262617D01*
Y257539D01*
X1627776Y255000D01*
X1640472D02*
Y265157D01*
X1643011D01*
X1645550Y262617D01*
Y255000D01*
Y262617D01*
X1648089Y265157D01*
X1650629Y262617D01*
Y255000D01*
X1655707D02*
X1663324D01*
X1665864Y257539D01*
X1663324Y260078D01*
X1658246D01*
X1655707Y262617D01*
X1658246Y265157D01*
X1665864D01*
X1688716D02*
X1693795D01*
X1696334Y262617D01*
Y255000D01*
X1688716D01*
X1686177Y257539D01*
X1688716Y260078D01*
X1696334D01*
X1701412Y255000D02*
X1709030D01*
X1711569Y257539D01*
X1709030Y260078D01*
X1703951D01*
X1701412Y262617D01*
X1703951Y265157D01*
X1711569D01*
X1731882Y255000D02*
X1736961D01*
X1734422D01*
Y270235D01*
X1731882D01*
X1747117Y255000D02*
X1752196D01*
X1754735Y257539D01*
Y262617D01*
X1752196Y265157D01*
X1747117D01*
X1744578Y262617D01*
Y257539D01*
X1747117Y255000D01*
X1759813D02*
Y265157D01*
X1767431D01*
X1769970Y262617D01*
Y255000D01*
X1780127Y249922D02*
X1782666D01*
X1785205Y252461D01*
Y265157D01*
X1777588D01*
X1775048Y262617D01*
Y257539D01*
X1777588Y255000D01*
X1785205D01*
X1808058Y265157D02*
X1813136D01*
X1815675Y262617D01*
Y255000D01*
X1808058D01*
X1805518Y257539D01*
X1808058Y260078D01*
X1815675D01*
X1820754Y255000D02*
X1828371D01*
X1830910Y257539D01*
X1828371Y260078D01*
X1823293D01*
X1820754Y262617D01*
X1823293Y265157D01*
X1830910D01*
X1851224D02*
Y257539D01*
X1853763Y255000D01*
X1861380D01*
Y252461D01*
X1858841Y249922D01*
X1856302D01*
X1861380Y255000D02*
Y265157D01*
X1868998Y255000D02*
X1874076D01*
X1876615Y257539D01*
Y262617D01*
X1874076Y265157D01*
X1868998D01*
X1866459Y262617D01*
Y257539D01*
X1868998Y255000D01*
X1881694Y265157D02*
Y257539D01*
X1884233Y255000D01*
X1891851D01*
Y265157D01*
X1914703Y255000D02*
Y267696D01*
Y262617D01*
X1912164D01*
X1917242D01*
X1914703D01*
Y267696D01*
X1917242Y270235D01*
X1927399Y255000D02*
X1932477D01*
X1935017Y257539D01*
Y262617D01*
X1932477Y265157D01*
X1927399D01*
X1924860Y262617D01*
Y257539D01*
X1927399Y255000D01*
X1940095D02*
X1945173D01*
X1942634D01*
Y270235D01*
X1940095D01*
X1952791Y255000D02*
X1957869D01*
X1955330D01*
Y270235D01*
X1952791D01*
X1968026Y255000D02*
X1973104D01*
X1975643Y257539D01*
Y262617D01*
X1973104Y265157D01*
X1968026D01*
X1965487Y262617D01*
Y257539D01*
X1968026Y255000D01*
X1980722Y265157D02*
Y257539D01*
X1983261Y255000D01*
X1985800Y257539D01*
X1988339Y255000D01*
X1990878Y257539D01*
Y265157D01*
X2013731Y267696D02*
Y265157D01*
X2011192D01*
X2016270D01*
X2013731D01*
Y257539D01*
X2016270Y255000D01*
X2023888Y270235D02*
Y255000D01*
Y262617D01*
X2026427Y265157D01*
X2031505D01*
X2034045Y262617D01*
Y255000D01*
X2046741D02*
X2041662D01*
X2039123Y257539D01*
Y262617D01*
X2041662Y265157D01*
X2046741D01*
X2049280Y262617D01*
Y260078D01*
X2039123D01*
X2069593Y255000D02*
X2074671D01*
X2072132D01*
Y270235D01*
X2069593D01*
X2082289Y255000D02*
X2087367D01*
X2084828D01*
Y265157D01*
X2082289D01*
X2105142D02*
X2097524D01*
X2094985Y262617D01*
Y257539D01*
X2097524Y255000D01*
X2105142D01*
X2117837D02*
X2112759D01*
X2110220Y257539D01*
Y262617D01*
X2112759Y265157D01*
X2117837D01*
X2120377Y262617D01*
Y260078D01*
X2110220D01*
X2125455Y255000D02*
Y265157D01*
X2133073D01*
X2135612Y262617D01*
Y255000D01*
X2140690D02*
X2148308D01*
X2150847Y257539D01*
X2148308Y260078D01*
X2143229D01*
X2140690Y262617D01*
X2143229Y265157D01*
X2150847D01*
X2163543Y255000D02*
X2158464D01*
X2155925Y257539D01*
Y262617D01*
X2158464Y265157D01*
X2163543D01*
X2166082Y262617D01*
Y260078D01*
X2155925D01*
X2188934Y267696D02*
Y265157D01*
X2186395D01*
X2191474D01*
X2188934D01*
Y257539D01*
X2191474Y255000D01*
X2206709D02*
X2201630D01*
X2199091Y257539D01*
Y262617D01*
X2201630Y265157D01*
X2206709D01*
X2209248Y262617D01*
Y260078D01*
X2199091D01*
X2214326Y265157D02*
Y255000D01*
Y260078D01*
X2216865Y262617D01*
X2219405Y265157D01*
X2221944D01*
X2229561Y255000D02*
Y265157D01*
X2232101D01*
X2234640Y262617D01*
Y255000D01*
Y262617D01*
X2237179Y265157D01*
X2239718Y262617D01*
Y255000D01*
X2244796D02*
X2252414D01*
X2254953Y257539D01*
X2252414Y260078D01*
X2247336D01*
X2244796Y262617D01*
X2247336Y265157D01*
X2254953D01*
X2260031Y255000D02*
Y257539D01*
X2262571D01*
Y255000D01*
X2260031D01*
X1059000Y220235D02*
Y207539D01*
X1061539Y205000D01*
X1066618D01*
X1069157Y207539D01*
Y220235D01*
X1074235Y205000D02*
Y215157D01*
X1081853D01*
X1084392Y212617D01*
Y205000D01*
X1099627Y220235D02*
Y205000D01*
X1092009D01*
X1089470Y207539D01*
Y212617D01*
X1092009Y215157D01*
X1099627D01*
X1112323Y205000D02*
X1107244D01*
X1104705Y207539D01*
Y212617D01*
X1107244Y215157D01*
X1112323D01*
X1114862Y212617D01*
Y210078D01*
X1104705D01*
X1119940Y215157D02*
Y205000D01*
Y210078D01*
X1122479Y212617D01*
X1125019Y215157D01*
X1127558D01*
X1152950Y217696D02*
Y215157D01*
X1150410D01*
X1155489D01*
X1152950D01*
Y207539D01*
X1155489Y205000D01*
X1163106Y220235D02*
Y205000D01*
Y212617D01*
X1165646Y215157D01*
X1170724D01*
X1173263Y212617D01*
Y205000D01*
X1185959D02*
X1180881D01*
X1178341Y207539D01*
Y212617D01*
X1180881Y215157D01*
X1185959D01*
X1188498Y212617D01*
Y210078D01*
X1178341D01*
X1211351Y205000D02*
Y217696D01*
Y212617D01*
X1208812D01*
X1213890D01*
X1211351D01*
Y217696D01*
X1213890Y220235D01*
X1224047Y205000D02*
X1229125D01*
X1231664Y207539D01*
Y212617D01*
X1229125Y215157D01*
X1224047D01*
X1221507Y212617D01*
Y207539D01*
X1224047Y205000D01*
X1236742D02*
X1241821D01*
X1239282D01*
Y220235D01*
X1236742D01*
X1249438Y205000D02*
X1254517D01*
X1251978D01*
Y220235D01*
X1249438D01*
X1264673Y205000D02*
X1269752D01*
X1272291Y207539D01*
Y212617D01*
X1269752Y215157D01*
X1264673D01*
X1262134Y212617D01*
Y207539D01*
X1264673Y205000D01*
X1277369Y215157D02*
Y207539D01*
X1279909Y205000D01*
X1282448Y207539D01*
X1284987Y205000D01*
X1287526Y207539D01*
Y215157D01*
X1292604Y205000D02*
X1297683D01*
X1295144D01*
Y215157D01*
X1292604D01*
X1305300Y205000D02*
Y215157D01*
X1312918D01*
X1315457Y212617D01*
Y205000D01*
X1325614Y199922D02*
X1328153D01*
X1330692Y202461D01*
Y215157D01*
X1323075D01*
X1320535Y212617D01*
Y207539D01*
X1323075Y205000D01*
X1330692D01*
X1353545Y217696D02*
Y215157D01*
X1351006D01*
X1356084D01*
X1353545D01*
Y207539D01*
X1356084Y205000D01*
X1371319D02*
X1366241D01*
X1363701Y207539D01*
Y212617D01*
X1366241Y215157D01*
X1371319D01*
X1373858Y212617D01*
Y210078D01*
X1363701D01*
X1378936Y215157D02*
Y205000D01*
Y210078D01*
X1381476Y212617D01*
X1384015Y215157D01*
X1386554D01*
X1394172Y205000D02*
Y215157D01*
X1396711D01*
X1399250Y212617D01*
Y205000D01*
Y212617D01*
X1401789Y215157D01*
X1404328Y212617D01*
Y205000D01*
X1409407D02*
X1417024D01*
X1419563Y207539D01*
X1417024Y210078D01*
X1411946D01*
X1409407Y212617D01*
X1411946Y215157D01*
X1419563D01*
X1424642D02*
X1427181D01*
Y212617D01*
X1424642D01*
Y215157D01*
Y207539D02*
X1427181D01*
Y205000D01*
X1424642D01*
Y207539D01*
X1059000Y180000D02*
Y190157D01*
X1064078Y195235D01*
X1069157Y190157D01*
Y180000D01*
Y187617D01*
X1059000D01*
X1076774Y192696D02*
Y190157D01*
X1074235D01*
X1079313D01*
X1076774D01*
Y182539D01*
X1079313Y180000D01*
X1089470Y192696D02*
Y190157D01*
X1086931D01*
X1092009D01*
X1089470D01*
Y182539D01*
X1092009Y180000D01*
X1099627Y190157D02*
Y180000D01*
Y185078D01*
X1102166Y187617D01*
X1104705Y190157D01*
X1107244D01*
X1114862Y180000D02*
X1119940D01*
X1117401D01*
Y190157D01*
X1114862D01*
X1127558Y195235D02*
Y180000D01*
X1135175D01*
X1137714Y182539D01*
Y185078D01*
Y187617D01*
X1135175Y190157D01*
X1127558D01*
X1142793D02*
Y182539D01*
X1145332Y180000D01*
X1152950D01*
Y190157D01*
X1160567Y192696D02*
Y190157D01*
X1158028D01*
X1163106D01*
X1160567D01*
Y182539D01*
X1163106Y180000D01*
X1170724D02*
X1175802D01*
X1173263D01*
Y190157D01*
X1170724D01*
X1185959Y180000D02*
X1191037D01*
X1193577Y182539D01*
Y187617D01*
X1191037Y190157D01*
X1185959D01*
X1183420Y187617D01*
Y182539D01*
X1185959Y180000D01*
X1198655D02*
Y190157D01*
X1206272D01*
X1208811Y187617D01*
Y180000D01*
X1229125Y187617D02*
X1239282D01*
X1259595Y195235D02*
Y192696D01*
X1264673Y187617D01*
X1269752Y192696D01*
Y195235D01*
X1264673Y187617D02*
Y180000D01*
X1277369D02*
X1282448D01*
X1284987Y182539D01*
Y187617D01*
X1282448Y190157D01*
X1277369D01*
X1274830Y187617D01*
Y182539D01*
X1277369Y180000D01*
X1290065Y190157D02*
Y182539D01*
X1292604Y180000D01*
X1300222D01*
Y190157D01*
X1320535Y180000D02*
Y190157D01*
X1323075D01*
X1325614Y187617D01*
Y180000D01*
Y187617D01*
X1328153Y190157D01*
X1330692Y187617D01*
Y180000D01*
X1335771Y190157D02*
Y182539D01*
X1338310Y180000D01*
X1345927D01*
Y190157D01*
X1351006Y180000D02*
X1358623D01*
X1361162Y182539D01*
X1358623Y185078D01*
X1353545D01*
X1351006Y187617D01*
X1353545Y190157D01*
X1361162D01*
X1368780Y192696D02*
Y190157D01*
X1366241D01*
X1371319D01*
X1368780D01*
Y182539D01*
X1371319Y180000D01*
X1399250Y174922D02*
X1401789D01*
X1404328Y177461D01*
Y190157D01*
X1396711D01*
X1394172Y187617D01*
Y182539D01*
X1396711Y180000D01*
X1404328D01*
X1409407D02*
X1414485D01*
X1411946D01*
Y190157D01*
X1409407D01*
X1422103D02*
X1427181Y180000D01*
X1432259Y190157D01*
X1444955Y180000D02*
X1439877D01*
X1437338Y182539D01*
Y187617D01*
X1439877Y190157D01*
X1444955D01*
X1447494Y187617D01*
Y185078D01*
X1437338D01*
X1470347Y190157D02*
X1475425D01*
X1477964Y187617D01*
Y180000D01*
X1470347D01*
X1467808Y182539D01*
X1470347Y185078D01*
X1477964D01*
X1483043Y174922D02*
Y190157D01*
X1490660D01*
X1493199Y187617D01*
Y182539D01*
X1490660Y180000D01*
X1483043D01*
X1498278Y174922D02*
Y190157D01*
X1505895D01*
X1508435Y187617D01*
Y182539D01*
X1505895Y180000D01*
X1498278D01*
X1513513Y190157D02*
Y180000D01*
Y185078D01*
X1516052Y187617D01*
X1518591Y190157D01*
X1521131D01*
X1531287Y180000D02*
X1536366D01*
X1538905Y182539D01*
Y187617D01*
X1536366Y190157D01*
X1531287D01*
X1528748Y187617D01*
Y182539D01*
X1531287Y180000D01*
X1543983Y174922D02*
Y190157D01*
X1551601D01*
X1554140Y187617D01*
Y182539D01*
X1551601Y180000D01*
X1543983D01*
X1559218Y190157D02*
Y180000D01*
Y185078D01*
X1561757Y187617D01*
X1564297Y190157D01*
X1566836D01*
X1574453Y180000D02*
X1579532D01*
X1576992D01*
Y190157D01*
X1574453D01*
X1589688D02*
X1594767D01*
X1597306Y187617D01*
Y180000D01*
X1589688D01*
X1587149Y182539D01*
X1589688Y185078D01*
X1597306D01*
X1604923Y192696D02*
Y190157D01*
X1602384D01*
X1607462D01*
X1604923D01*
Y182539D01*
X1607462Y180000D01*
X1622698D02*
X1617619D01*
X1615080Y182539D01*
Y187617D01*
X1617619Y190157D01*
X1622698D01*
X1625237Y187617D01*
Y185078D01*
X1615080D01*
X1655707Y190157D02*
X1648089D01*
X1645550Y187617D01*
Y182539D01*
X1648089Y180000D01*
X1655707D01*
X1660785Y190157D02*
Y180000D01*
Y185078D01*
X1663324Y187617D01*
X1665864Y190157D01*
X1668403D01*
X1683638Y180000D02*
X1678560D01*
X1676020Y182539D01*
Y187617D01*
X1678560Y190157D01*
X1683638D01*
X1686177Y187617D01*
Y185078D01*
X1676020D01*
X1701412Y195235D02*
Y180000D01*
X1693795D01*
X1691255Y182539D01*
Y187617D01*
X1693795Y190157D01*
X1701412D01*
X1706490Y180000D02*
X1711569D01*
X1709030D01*
Y190157D01*
X1706490D01*
X1721726Y192696D02*
Y190157D01*
X1719186D01*
X1724265D01*
X1721726D01*
Y182539D01*
X1724265Y180000D01*
X1734422Y177461D02*
X1736961Y180000D01*
Y182539D01*
X1734422D01*
Y180000D01*
X1736961D01*
X1734422Y177461D01*
X1731882Y174922D01*
X1762352D02*
Y190157D01*
X1769970D01*
X1772509Y187617D01*
Y182539D01*
X1769970Y180000D01*
X1762352D01*
X1777587Y190157D02*
Y180000D01*
Y185078D01*
X1780127Y187617D01*
X1782666Y190157D01*
X1785205D01*
X1795362Y180000D02*
X1800440D01*
X1802979Y182539D01*
Y187617D01*
X1800440Y190157D01*
X1795362D01*
X1792823Y187617D01*
Y182539D01*
X1795362Y180000D01*
X1808058Y190157D02*
X1813136Y180000D01*
X1818214Y190157D01*
X1823293Y180000D02*
X1828371D01*
X1825832D01*
Y190157D01*
X1823293D01*
X1846145Y195235D02*
Y180000D01*
X1838528D01*
X1835989Y182539D01*
Y187617D01*
X1838528Y190157D01*
X1846145D01*
X1858841Y180000D02*
X1853763D01*
X1851224Y182539D01*
Y187617D01*
X1853763Y190157D01*
X1858841D01*
X1861380Y187617D01*
Y185078D01*
X1851224D01*
X1884233Y190157D02*
X1889311D01*
X1891850Y187617D01*
Y180000D01*
X1884233D01*
X1881694Y182539D01*
X1884233Y185078D01*
X1891850D01*
X1912164Y180000D02*
X1917242D01*
X1914703D01*
Y195235D01*
X1912164D01*
X1924860Y180000D02*
X1929938D01*
X1927399D01*
Y190157D01*
X1924860D01*
X1937556Y180000D02*
Y190157D01*
X1945173D01*
X1947713Y187617D01*
Y180000D01*
X1952791D02*
Y195235D01*
Y185078D02*
X1960408Y190157D01*
X1952791Y185078D02*
X1960408Y180000D01*
X1985800Y192696D02*
Y190157D01*
X1983261D01*
X1988339D01*
X1985800D01*
Y182539D01*
X1988339Y180000D01*
X1998496D02*
X2003574D01*
X2006114Y182539D01*
Y187617D01*
X2003574Y190157D01*
X1998496D01*
X1995957Y187617D01*
Y182539D01*
X1998496Y180000D01*
X2028966Y192696D02*
Y190157D01*
X2026427D01*
X2031505D01*
X2028966D01*
Y182539D01*
X2031505Y180000D01*
X2039123Y195235D02*
Y180000D01*
Y187617D01*
X2041662Y190157D01*
X2046740D01*
X2049280Y187617D01*
Y180000D01*
X2061976D02*
X2056897D01*
X2054358Y182539D01*
Y187617D01*
X2056897Y190157D01*
X2061976D01*
X2064515Y187617D01*
Y185078D01*
X2054358D01*
X2084828Y180000D02*
X2089906D01*
X2087367D01*
Y195235D01*
X2084828D01*
X2097524Y180000D02*
X2102602D01*
X2100063D01*
Y190157D01*
X2097524D01*
X2120377D02*
X2112759D01*
X2110220Y187617D01*
Y182539D01*
X2112759Y180000D01*
X2120377D01*
X2133073D02*
X2127994D01*
X2125455Y182539D01*
Y187617D01*
X2127994Y190157D01*
X2133073D01*
X2135612Y187617D01*
Y185078D01*
X2125455D01*
X2140690Y180000D02*
Y190157D01*
X2148307D01*
X2150847Y187617D01*
Y180000D01*
X2155925D02*
X2163543D01*
X2166082Y182539D01*
X2163543Y185078D01*
X2158464D01*
X2155925Y187617D01*
X2158464Y190157D01*
X2166082D01*
X2178778Y180000D02*
X2173699D01*
X2171160Y182539D01*
Y187617D01*
X2173699Y190157D01*
X2178778D01*
X2181317Y187617D01*
Y185078D01*
X2171160D01*
X2188934Y177461D02*
X2191474Y180000D01*
Y182539D01*
X2188934D01*
Y180000D01*
X2191474D01*
X2188934Y177461D01*
X2186395Y174922D01*
X2219405Y190157D02*
X2224483D01*
X2227022Y187617D01*
Y180000D01*
X2219405D01*
X2216865Y182539D01*
X2219405Y185078D01*
X2227022D01*
X2232100Y180000D02*
Y190157D01*
X2239718D01*
X2242257Y187617D01*
Y180000D01*
X2257492Y195235D02*
Y180000D01*
X2249875D01*
X2247336Y182539D01*
Y187617D01*
X2249875Y190157D01*
X2257492D01*
X1059000Y155000D02*
X1064078D01*
X1061539D01*
Y165157D01*
X1059000D01*
X1071696Y155000D02*
Y165157D01*
X1079313D01*
X1081853Y162617D01*
Y155000D01*
X1097088Y170235D02*
Y155000D01*
X1089470D01*
X1086931Y157539D01*
Y162617D01*
X1089470Y165157D01*
X1097088D01*
X1102166Y155000D02*
X1107244D01*
X1104705D01*
Y165157D01*
X1102166D01*
X1125019D02*
X1117401D01*
X1114862Y162617D01*
Y157539D01*
X1117401Y155000D01*
X1125019D01*
X1132636Y165157D02*
X1137714D01*
X1140254Y162617D01*
Y155000D01*
X1132636D01*
X1130097Y157539D01*
X1132636Y160078D01*
X1140254D01*
X1147871Y167696D02*
Y165157D01*
X1145332D01*
X1150410D01*
X1147871D01*
Y157539D01*
X1150410Y155000D01*
X1165646D02*
X1160567D01*
X1158028Y157539D01*
Y162617D01*
X1160567Y165157D01*
X1165646D01*
X1168185Y162617D01*
Y160078D01*
X1158028D01*
X1188498Y155000D02*
X1193577D01*
X1191037D01*
Y165157D01*
X1188498D01*
X1203733Y155000D02*
Y167696D01*
Y162617D01*
X1201194D01*
X1206272D01*
X1203733D01*
Y167696D01*
X1206272Y170235D01*
X1239282Y165157D02*
X1231664D01*
X1229125Y162617D01*
Y157539D01*
X1231664Y155000D01*
X1239282D01*
X1244360Y170235D02*
Y155000D01*
Y162617D01*
X1246899Y165157D01*
X1251978D01*
X1254517Y162617D01*
Y155000D01*
X1262134Y165157D02*
X1267213D01*
X1269752Y162617D01*
Y155000D01*
X1262134D01*
X1259595Y157539D01*
X1262134Y160078D01*
X1269752D01*
X1274830Y155000D02*
Y165157D01*
X1282448D01*
X1284987Y162617D01*
Y155000D01*
X1295144Y149922D02*
X1297683D01*
X1300222Y152461D01*
Y165157D01*
X1292604D01*
X1290065Y162617D01*
Y157539D01*
X1292604Y155000D01*
X1300222D01*
X1312918D02*
X1307840D01*
X1305300Y157539D01*
Y162617D01*
X1307840Y165157D01*
X1312918D01*
X1315457Y162617D01*
Y160078D01*
X1305300D01*
X1320535Y155000D02*
X1328153D01*
X1330692Y157539D01*
X1328153Y160078D01*
X1323075D01*
X1320535Y162617D01*
X1323075Y165157D01*
X1330692D01*
X1351006D02*
Y157539D01*
X1353545Y155000D01*
X1356084Y157539D01*
X1358623Y155000D01*
X1361162Y157539D01*
Y165157D01*
X1373858Y155000D02*
X1368780D01*
X1366241Y157539D01*
Y162617D01*
X1368780Y165157D01*
X1373858D01*
X1376397Y162617D01*
Y160078D01*
X1366241D01*
X1381476Y165157D02*
Y155000D01*
Y160078D01*
X1384015Y162617D01*
X1386554Y165157D01*
X1389093D01*
X1404328Y155000D02*
X1399250D01*
X1396711Y157539D01*
Y162617D01*
X1399250Y165157D01*
X1404328D01*
X1406868Y162617D01*
Y160078D01*
X1396711D01*
X1427181Y155000D02*
Y165157D01*
X1429720D01*
X1432259Y162617D01*
Y155000D01*
Y162617D01*
X1434798Y165157D01*
X1437338Y162617D01*
Y155000D01*
X1444955Y165157D02*
X1450034D01*
X1452573Y162617D01*
Y155000D01*
X1444955D01*
X1442416Y157539D01*
X1444955Y160078D01*
X1452573D01*
X1467808Y170235D02*
Y155000D01*
X1460190D01*
X1457651Y157539D01*
Y162617D01*
X1460190Y165157D01*
X1467808D01*
X1480504Y155000D02*
X1475425D01*
X1472886Y157539D01*
Y162617D01*
X1475425Y165157D01*
X1480504D01*
X1483043Y162617D01*
Y160078D01*
X1472886D01*
X1488121Y155000D02*
Y157539D01*
X1490660D01*
Y155000D01*
X1488121D01*
X1516052Y170235D02*
Y167696D01*
X1521131Y162617D01*
X1526209Y167696D01*
Y170235D01*
X1521131Y162617D02*
Y155000D01*
X1533826D02*
X1538905D01*
X1541444Y157539D01*
Y162617D01*
X1538905Y165157D01*
X1533826D01*
X1531287Y162617D01*
Y157539D01*
X1533826Y155000D01*
X1546522Y165157D02*
Y157539D01*
X1549061Y155000D01*
X1556679D01*
Y165157D01*
X1576992Y155000D02*
Y165157D01*
X1579532D01*
X1582071Y162617D01*
Y155000D01*
Y162617D01*
X1584610Y165157D01*
X1587149Y162617D01*
Y155000D01*
X1594767Y165157D02*
X1599845D01*
X1602384Y162617D01*
Y155000D01*
X1594767D01*
X1592227Y157539D01*
X1594767Y160078D01*
X1602384D01*
X1607463Y165157D02*
Y157539D01*
X1610002Y155000D01*
X1617619D01*
Y152461D01*
X1615080Y149922D01*
X1612541D01*
X1617619Y155000D02*
Y165157D01*
X1648089Y170235D02*
Y155000D01*
X1640472D01*
X1637933Y157539D01*
Y162617D01*
X1640472Y165157D01*
X1648089D01*
X1655707Y155000D02*
X1660785D01*
X1663324Y157539D01*
Y162617D01*
X1660785Y165157D01*
X1655707D01*
X1653168Y162617D01*
Y157539D01*
X1655707Y155000D01*
X1683638D02*
X1691255D01*
X1693795Y157539D01*
X1691255Y160078D01*
X1686177D01*
X1683638Y162617D01*
X1686177Y165157D01*
X1693795D01*
X1701412Y155000D02*
X1706490D01*
X1709030Y157539D01*
Y162617D01*
X1706490Y165157D01*
X1701412D01*
X1698873Y162617D01*
Y157539D01*
X1701412Y155000D01*
X1729343D02*
X1734422D01*
X1731882D01*
Y165157D01*
X1729343D01*
X1742039Y155000D02*
Y165157D01*
X1749657D01*
X1752196Y162617D01*
Y155000D01*
X1775048Y165157D02*
X1780127D01*
X1782666Y162617D01*
Y155000D01*
X1775048D01*
X1772509Y157539D01*
X1775048Y160078D01*
X1782666D01*
X1787744Y155000D02*
Y165157D01*
X1795362D01*
X1797901Y162617D01*
Y155000D01*
X1802979Y165157D02*
Y157539D01*
X1805518Y155000D01*
X1813136D01*
Y152461D01*
X1810597Y149922D01*
X1808058D01*
X1813136Y155000D02*
Y165157D01*
X1833450D02*
Y155000D01*
Y160078D01*
X1835989Y162617D01*
X1838528Y165157D01*
X1841067D01*
X1856302Y155000D02*
X1851224D01*
X1848685Y157539D01*
Y162617D01*
X1851224Y165157D01*
X1856302D01*
X1858841Y162617D01*
Y160078D01*
X1848685D01*
X1866459Y165157D02*
X1871537D01*
X1874076Y162617D01*
Y155000D01*
X1866459D01*
X1863920Y157539D01*
X1866459Y160078D01*
X1874076D01*
X1879155Y155000D02*
X1886772D01*
X1889311Y157539D01*
X1886772Y160078D01*
X1881694D01*
X1879155Y162617D01*
X1881694Y165157D01*
X1889311D01*
X1896929Y155000D02*
X1902007D01*
X1904547Y157539D01*
Y162617D01*
X1902007Y165157D01*
X1896929D01*
X1894390Y162617D01*
Y157539D01*
X1896929Y155000D01*
X1909625D02*
Y165157D01*
X1917242D01*
X1919782Y162617D01*
Y155000D01*
X1927399Y165157D02*
X1932477D01*
X1935017Y162617D01*
Y155000D01*
X1927399D01*
X1924860Y157539D01*
X1927399Y160078D01*
X1935017D01*
X1940095Y170235D02*
Y155000D01*
X1947713D01*
X1950252Y157539D01*
Y160078D01*
Y162617D01*
X1947713Y165157D01*
X1940095D01*
X1955330Y155000D02*
X1960408D01*
X1957869D01*
Y170235D01*
X1955330D01*
X1975643Y155000D02*
X1970565D01*
X1968026Y157539D01*
Y162617D01*
X1970565Y165157D01*
X1975643D01*
X1978183Y162617D01*
Y160078D01*
X1968026D01*
X1998496Y155000D02*
Y165157D01*
X2001035D01*
X2003574Y162617D01*
Y155000D01*
Y162617D01*
X2006114Y165157D01*
X2008653Y162617D01*
Y155000D01*
X2016270Y165157D02*
X2021349D01*
X2023888Y162617D01*
Y155000D01*
X2016270D01*
X2013731Y157539D01*
X2016270Y160078D01*
X2023888D01*
X2028966Y155000D02*
Y165157D01*
X2036584D01*
X2039123Y162617D01*
Y155000D01*
X2044201D02*
Y165157D01*
X2051819D01*
X2054358Y162617D01*
Y155000D01*
X2067054D02*
X2061976D01*
X2059436Y157539D01*
Y162617D01*
X2061976Y165157D01*
X2067054D01*
X2069593Y162617D01*
Y160078D01*
X2059436D01*
X2074671Y165157D02*
Y155000D01*
Y160078D01*
X2077211Y162617D01*
X2079750Y165157D01*
X2082289D01*
X2092446Y152461D02*
X2094985Y155000D01*
Y157539D01*
X2092446D01*
Y155000D01*
X2094985D01*
X2092446Y152461D01*
X2089906Y149922D01*
X2120377Y170235D02*
Y155000D01*
X2127994D01*
X2130533Y157539D01*
Y160078D01*
Y162617D01*
X2127994Y165157D01*
X2120377D01*
X2135612D02*
Y157539D01*
X2138151Y155000D01*
X2145768D01*
Y165157D01*
X2153386Y167696D02*
Y165157D01*
X2150847D01*
X2155925D01*
X2153386D01*
Y157539D01*
X2155925Y155000D01*
X2178778D02*
Y165157D01*
X2186395D01*
X2188934Y162617D01*
Y155000D01*
X2196552D02*
X2201630D01*
X2204170Y157539D01*
Y162617D01*
X2201630Y165157D01*
X2196552D01*
X2194013Y162617D01*
Y157539D01*
X2196552Y155000D01*
X2211787Y167696D02*
Y165157D01*
X2209248D01*
X2214326D01*
X2211787D01*
Y157539D01*
X2214326Y155000D01*
X2237179D02*
X2242257D01*
X2239718D01*
Y165157D01*
X2237179D01*
X2249875Y155000D02*
Y165157D01*
X2257492D01*
X2260031Y162617D01*
Y155000D01*
X2282884Y165157D02*
X2287962D01*
X2290502Y162617D01*
Y155000D01*
X2282884D01*
X2280345Y157539D01*
X2282884Y160078D01*
X2290502D01*
X2295580Y155000D02*
Y165157D01*
X2303197D01*
X2305737Y162617D01*
Y155000D01*
X2310815Y165157D02*
Y157539D01*
X2313354Y155000D01*
X2320972D01*
Y152461D01*
X2318433Y149922D01*
X2315893D01*
X2320972Y155000D02*
Y165157D01*
X1059000Y140157D02*
Y132539D01*
X1061539Y130000D01*
X1064078Y132539D01*
X1066618Y130000D01*
X1069157Y132539D01*
Y140157D01*
X1076774D02*
X1081853D01*
X1084392Y137618D01*
Y130000D01*
X1076774D01*
X1074235Y132539D01*
X1076774Y135078D01*
X1084392D01*
X1089470Y140157D02*
Y132539D01*
X1092009Y130000D01*
X1099627D01*
Y127461D01*
X1097088Y124922D01*
X1094548D01*
X1099627Y130000D02*
Y140157D01*
X1122479Y142696D02*
Y140157D01*
X1119940D01*
X1125019D01*
X1122479D01*
Y132539D01*
X1125019Y130000D01*
X1132636Y145235D02*
Y130000D01*
Y137618D01*
X1135175Y140157D01*
X1140254D01*
X1142793Y137618D01*
Y130000D01*
X1150410Y140157D02*
X1155489D01*
X1158028Y137618D01*
Y130000D01*
X1150410D01*
X1147871Y132539D01*
X1150410Y135078D01*
X1158028D01*
X1165646Y142696D02*
Y140157D01*
X1163106D01*
X1168185D01*
X1165646D01*
Y132539D01*
X1168185Y130000D01*
X1191037D02*
X1198655D01*
X1201194Y132539D01*
X1198655Y135078D01*
X1193577D01*
X1191037Y137618D01*
X1193577Y140157D01*
X1201194D01*
X1206272D02*
Y132539D01*
X1208812Y130000D01*
X1216429D01*
Y140157D01*
X1226586Y124922D02*
X1229125D01*
X1231664Y127461D01*
Y140157D01*
X1224047D01*
X1221507Y137618D01*
Y132539D01*
X1224047Y130000D01*
X1231664D01*
X1241821Y124922D02*
X1244360D01*
X1246899Y127461D01*
Y140157D01*
X1239282D01*
X1236742Y137618D01*
Y132539D01*
X1239282Y130000D01*
X1246899D01*
X1259595D02*
X1254517D01*
X1251978Y132539D01*
Y137618D01*
X1254517Y140157D01*
X1259595D01*
X1262134Y137618D01*
Y135078D01*
X1251978D01*
X1267213Y130000D02*
X1274830D01*
X1277369Y132539D01*
X1274830Y135078D01*
X1269752D01*
X1267213Y137618D01*
X1269752Y140157D01*
X1277369D01*
X1284987Y142696D02*
Y140157D01*
X1282448D01*
X1287526D01*
X1284987D01*
Y132539D01*
X1287526Y130000D01*
X1295144D02*
X1302761D01*
X1305300Y132539D01*
X1302761Y135078D01*
X1297683D01*
X1295144Y137618D01*
X1297683Y140157D01*
X1305300D01*
X1328153Y142696D02*
Y140157D01*
X1325614D01*
X1330692D01*
X1328153D01*
Y132539D01*
X1330692Y130000D01*
X1338310Y145235D02*
Y130000D01*
Y137618D01*
X1340849Y140157D01*
X1345927D01*
X1348466Y137618D01*
Y130000D01*
X1361162D02*
X1356084D01*
X1353545Y132539D01*
Y137618D01*
X1356084Y140157D01*
X1361162D01*
X1363701Y137618D01*
Y135078D01*
X1353545D01*
X1384015Y130000D02*
X1389093D01*
X1386554D01*
Y145235D01*
X1384015D01*
X1396711Y130000D02*
X1401789D01*
X1399250D01*
Y140157D01*
X1396711D01*
X1419563D02*
X1411946D01*
X1409407Y137618D01*
Y132539D01*
X1411946Y130000D01*
X1419563D01*
X1432259D02*
X1427181D01*
X1424642Y132539D01*
Y137618D01*
X1427181Y140157D01*
X1432259D01*
X1434798Y137618D01*
Y135078D01*
X1424642D01*
X1439877Y130000D02*
Y140157D01*
X1447494D01*
X1450034Y137618D01*
Y130000D01*
X1455112D02*
X1462729D01*
X1465269Y132539D01*
X1462729Y135078D01*
X1457651D01*
X1455112Y137618D01*
X1457651Y140157D01*
X1465269D01*
X1472886Y130000D02*
X1477964D01*
X1480504Y132539D01*
Y137618D01*
X1477964Y140157D01*
X1472886D01*
X1470347Y137618D01*
Y132539D01*
X1472886Y130000D01*
X1485582Y140157D02*
Y130000D01*
Y135078D01*
X1488121Y137618D01*
X1490660Y140157D01*
X1493199D01*
X1523670Y130000D02*
X1518591D01*
X1516052Y132539D01*
Y137618D01*
X1518591Y140157D01*
X1523670D01*
X1526209Y137618D01*
Y135078D01*
X1516052D01*
X1531287Y130000D02*
Y140157D01*
X1538905D01*
X1541444Y137618D01*
Y130000D01*
X1556679Y145235D02*
Y130000D01*
X1549061D01*
X1546522Y132539D01*
Y137618D01*
X1549061Y140157D01*
X1556679D01*
X1564297Y130000D02*
X1569375D01*
X1571914Y132539D01*
Y137618D01*
X1569375Y140157D01*
X1564297D01*
X1561757Y137618D01*
Y132539D01*
X1564297Y130000D01*
X1576992Y140157D02*
Y130000D01*
Y135078D01*
X1579532Y137618D01*
X1582071Y140157D01*
X1584610D01*
X1592227Y130000D02*
X1599845D01*
X1602384Y132539D01*
X1599845Y135078D01*
X1594767D01*
X1592227Y137618D01*
X1594767Y140157D01*
X1602384D01*
X1615080Y130000D02*
X1610002D01*
X1607463Y132539D01*
Y137618D01*
X1610002Y140157D01*
X1615080D01*
X1617619Y137618D01*
Y135078D01*
X1607463D01*
X1622698Y130000D02*
X1630315D01*
X1632854Y132539D01*
X1630315Y135078D01*
X1625237D01*
X1622698Y137618D01*
X1625237Y140157D01*
X1632854D01*
X1653168D02*
Y132539D01*
X1655707Y130000D01*
X1663324D01*
Y127461D01*
X1660785Y124922D01*
X1658246D01*
X1663324Y130000D02*
Y140157D01*
X1670942Y130000D02*
X1676020D01*
X1678560Y132539D01*
Y137618D01*
X1676020Y140157D01*
X1670942D01*
X1668403Y137618D01*
Y132539D01*
X1670942Y130000D01*
X1683638Y140157D02*
Y132539D01*
X1686177Y130000D01*
X1693795D01*
Y140157D01*
X1716647Y130000D02*
X1721726D01*
X1724265Y132539D01*
Y137618D01*
X1721726Y140157D01*
X1716647D01*
X1714108Y137618D01*
Y132539D01*
X1716647Y130000D01*
X1729343Y140157D02*
Y130000D01*
Y135078D01*
X1731882Y137618D01*
X1734422Y140157D01*
X1736961D01*
X1759813D02*
Y132539D01*
X1762352Y130000D01*
X1769970D01*
Y127461D01*
X1767431Y124922D01*
X1764892D01*
X1769970Y130000D02*
Y140157D01*
X1777588Y130000D02*
X1782666D01*
X1785205Y132539D01*
Y137618D01*
X1782666Y140157D01*
X1777588D01*
X1775048Y137618D01*
Y132539D01*
X1777588Y130000D01*
X1790283Y140157D02*
Y132539D01*
X1792823Y130000D01*
X1800440D01*
Y140157D01*
X1805518D02*
Y130000D01*
Y135078D01*
X1808058Y137618D01*
X1810597Y140157D01*
X1813136D01*
X1835989D02*
Y132539D01*
X1838528Y130000D01*
X1846145D01*
Y140157D01*
X1851224Y130000D02*
X1858841D01*
X1861380Y132539D01*
X1858841Y135078D01*
X1853763D01*
X1851224Y137618D01*
X1853763Y140157D01*
X1861380D01*
X1874076Y130000D02*
X1868998D01*
X1866459Y132539D01*
Y137618D01*
X1868998Y140157D01*
X1874076D01*
X1876615Y137618D01*
Y135078D01*
X1866459D01*
X1881694Y130000D02*
Y132539D01*
X1884233D01*
Y130000D01*
X1881694D01*
X1057000Y-1000D02*
Y14235D01*
X1067157Y-1000D01*
Y14235D01*
X1074774Y-1000D02*
X1079853D01*
X1082392Y1539D01*
Y6618D01*
X1079853Y9157D01*
X1074774D01*
X1072235Y6618D01*
Y1539D01*
X1074774Y-1000D01*
X1105244Y9157D02*
X1110323D01*
X1112862Y6618D01*
Y-1000D01*
X1105244D01*
X1102705Y1539D01*
X1105244Y4078D01*
X1112862D01*
X1128097Y14235D02*
Y-1000D01*
X1120480D01*
X1117940Y1539D01*
Y6618D01*
X1120480Y9157D01*
X1128097D01*
X1143332Y14235D02*
Y-1000D01*
X1135714D01*
X1133175Y1539D01*
Y6618D01*
X1135714Y9157D01*
X1143332D01*
X1148410Y-1000D02*
X1153489D01*
X1150950D01*
Y9157D01*
X1148410D01*
X1163645Y11696D02*
Y9157D01*
X1161106D01*
X1166185D01*
X1163645D01*
Y1539D01*
X1166185Y-1000D01*
X1173802D02*
X1178880D01*
X1176341D01*
Y9157D01*
X1173802D01*
X1189037Y-1000D02*
X1194116D01*
X1196655Y1539D01*
Y6618D01*
X1194116Y9157D01*
X1189037D01*
X1186498Y6618D01*
Y1539D01*
X1189037Y-1000D01*
X1201733D02*
Y9157D01*
X1209351D01*
X1211890Y6618D01*
Y-1000D01*
X1219507Y9157D02*
X1224586D01*
X1227125Y6618D01*
Y-1000D01*
X1219507D01*
X1216968Y1539D01*
X1219507Y4078D01*
X1227125D01*
X1232203Y-1000D02*
X1237282D01*
X1234743D01*
Y14235D01*
X1232203D01*
X1260134Y9157D02*
Y-1000D01*
Y4078D01*
X1262673Y6618D01*
X1265213Y9157D01*
X1267752D01*
X1282987Y-1000D02*
X1277908D01*
X1275369Y1539D01*
Y6618D01*
X1277908Y9157D01*
X1282987D01*
X1285526Y6618D01*
Y4078D01*
X1275369D01*
X1290604Y-1000D02*
X1298222D01*
X1300761Y1539D01*
X1298222Y4078D01*
X1293144D01*
X1290604Y6618D01*
X1293144Y9157D01*
X1300761D01*
X1308379Y11696D02*
Y9157D01*
X1305840D01*
X1310918D01*
X1308379D01*
Y1539D01*
X1310918Y-1000D01*
X1318535Y9157D02*
Y-1000D01*
Y4078D01*
X1321075Y6618D01*
X1323614Y9157D01*
X1326153D01*
X1333770Y-1000D02*
X1338849D01*
X1336310D01*
Y9157D01*
X1333770D01*
X1356623D02*
X1349005D01*
X1346466Y6618D01*
Y1539D01*
X1349005Y-1000D01*
X1356623D01*
X1364241Y11696D02*
Y9157D01*
X1361701D01*
X1366780D01*
X1364241D01*
Y1539D01*
X1366780Y-1000D01*
X1374397D02*
X1379476D01*
X1376936D01*
Y9157D01*
X1374397D01*
X1389632Y-1000D02*
X1394711D01*
X1397250Y1539D01*
Y6618D01*
X1394711Y9157D01*
X1389632D01*
X1387093Y6618D01*
Y1539D01*
X1389632Y-1000D01*
X1402328D02*
Y9157D01*
X1409946D01*
X1412485Y6618D01*
Y-1000D01*
X1417563D02*
X1425181D01*
X1427720Y1539D01*
X1425181Y4078D01*
X1420103D01*
X1417563Y6618D01*
X1420103Y9157D01*
X1427720D01*
X1448033Y6618D02*
X1458190D01*
X1478504Y14235D02*
Y11696D01*
X1483582Y6618D01*
X1488660Y11696D01*
Y14235D01*
X1483582Y6618D02*
Y-1000D01*
X1496278D02*
X1501356D01*
X1503895Y1539D01*
Y6618D01*
X1501356Y9157D01*
X1496278D01*
X1493739Y6618D01*
Y1539D01*
X1496278Y-1000D01*
X1508974Y9157D02*
Y1539D01*
X1511513Y-1000D01*
X1519131D01*
Y9157D01*
X1539444Y-1000D02*
Y9157D01*
X1541983D01*
X1544522Y6618D01*
Y-1000D01*
Y6618D01*
X1547061Y9157D01*
X1549601Y6618D01*
Y-1000D01*
X1557218Y9157D02*
X1562296D01*
X1564836Y6618D01*
Y-1000D01*
X1557218D01*
X1554679Y1539D01*
X1557218Y4078D01*
X1564836D01*
X1569914Y9157D02*
Y1539D01*
X1572453Y-1000D01*
X1580071D01*
Y-3539D01*
X1577532Y-6078D01*
X1574992D01*
X1580071Y-1000D02*
Y9157D01*
X1600384Y-1000D02*
Y9157D01*
X1608002D01*
X1610541Y6618D01*
Y-1000D01*
X1618158D02*
X1623237D01*
X1625776Y1539D01*
Y6618D01*
X1623237Y9157D01*
X1618158D01*
X1615619Y6618D01*
Y1539D01*
X1618158Y-1000D01*
X1633394Y11696D02*
Y9157D01*
X1630854D01*
X1635933D01*
X1633394D01*
Y1539D01*
X1635933Y-1000D01*
X1661324Y9157D02*
X1666403D01*
X1668942Y6618D01*
Y-1000D01*
X1661324D01*
X1658785Y1539D01*
X1661324Y4078D01*
X1668942D01*
X1674020Y-6078D02*
Y9157D01*
X1681638D01*
X1684177Y6618D01*
Y1539D01*
X1681638Y-1000D01*
X1674020D01*
X1689255Y-6078D02*
Y9157D01*
X1696873D01*
X1699412Y6618D01*
Y1539D01*
X1696873Y-1000D01*
X1689255D01*
X1704491D02*
X1709569D01*
X1707030D01*
Y14235D01*
X1704491D01*
X1717186Y9157D02*
Y1539D01*
X1719726Y-1000D01*
X1727343D01*
Y-3539D01*
X1724804Y-6078D01*
X1722265D01*
X1727343Y-1000D02*
Y9157D01*
X1747657Y-1000D02*
X1752735D01*
X1750196D01*
Y14235D01*
X1747657D01*
X1767970Y-1000D02*
X1762892D01*
X1760352Y1539D01*
Y6618D01*
X1762892Y9157D01*
X1767970D01*
X1770509Y6618D01*
Y4078D01*
X1760352D01*
X1780666Y-6078D02*
X1783205D01*
X1785744Y-3539D01*
Y9157D01*
X1778127D01*
X1775587Y6618D01*
Y1539D01*
X1778127Y-1000D01*
X1785744D01*
X1793362Y9157D02*
X1798440D01*
X1800979Y6618D01*
Y-1000D01*
X1793362D01*
X1790823Y1539D01*
X1793362Y4078D01*
X1800979D01*
X1806058Y-1000D02*
X1811136D01*
X1808597D01*
Y14235D01*
X1806058D01*
X1836528Y11696D02*
Y9157D01*
X1833989D01*
X1839067D01*
X1836528D01*
Y1539D01*
X1839067Y-1000D01*
X1854302D02*
X1849224D01*
X1846685Y1539D01*
Y6618D01*
X1849224Y9157D01*
X1854302D01*
X1856841Y6618D01*
Y4078D01*
X1846685D01*
X1861920Y9157D02*
Y-1000D01*
Y4078D01*
X1864459Y6618D01*
X1866998Y9157D01*
X1869537D01*
X1877155Y-1000D02*
Y9157D01*
X1879694D01*
X1882233Y6618D01*
Y-1000D01*
Y6618D01*
X1884772Y9157D01*
X1887311Y6618D01*
Y-1000D01*
X1892390D02*
X1900007D01*
X1902546Y1539D01*
X1900007Y4078D01*
X1894929D01*
X1892390Y6618D01*
X1894929Y9157D01*
X1902546D01*
X1925399Y-1000D02*
X1930477D01*
X1933017Y1539D01*
Y6618D01*
X1930477Y9157D01*
X1925399D01*
X1922860Y6618D01*
Y1539D01*
X1925399Y-1000D01*
X1938095Y9157D02*
Y-1000D01*
Y4078D01*
X1940634Y6618D01*
X1943173Y9157D01*
X1945712D01*
X1971104Y11696D02*
Y9157D01*
X1968565D01*
X1973643D01*
X1971104D01*
Y1539D01*
X1973643Y-1000D01*
X1988878D02*
X1983800D01*
X1981261Y1539D01*
Y6618D01*
X1983800Y9157D01*
X1988878D01*
X1991418Y6618D01*
Y4078D01*
X1981261D01*
X2006653Y9157D02*
X1999035D01*
X1996496Y6618D01*
Y1539D01*
X1999035Y-1000D01*
X2006653D01*
X2011731Y14235D02*
Y-1000D01*
Y6618D01*
X2014270Y9157D01*
X2019349D01*
X2021888Y6618D01*
Y-1000D01*
X2026966D02*
Y9157D01*
X2034584D01*
X2037123Y6618D01*
Y-1000D01*
X2044740D02*
X2049819D01*
X2052358Y1539D01*
Y6618D01*
X2049819Y9157D01*
X2044740D01*
X2042201Y6618D01*
Y1539D01*
X2044740Y-1000D01*
X2057436D02*
X2062515D01*
X2059975D01*
Y14235D01*
X2057436D01*
X2072671Y-1000D02*
X2077750D01*
X2080289Y1539D01*
Y6618D01*
X2077750Y9157D01*
X2072671D01*
X2070132Y6618D01*
Y1539D01*
X2072671Y-1000D01*
X2090446Y-6078D02*
X2092985D01*
X2095524Y-3539D01*
Y9157D01*
X2087906D01*
X2085367Y6618D01*
Y1539D01*
X2087906Y-1000D01*
X2095524D01*
X2100602D02*
X2105681D01*
X2103141D01*
Y9157D01*
X2100602D01*
X2123455D02*
X2115837D01*
X2113298Y6618D01*
Y1539D01*
X2115837Y-1000D01*
X2123455D01*
X2131073Y9157D02*
X2136151D01*
X2138690Y6618D01*
Y-1000D01*
X2131073D01*
X2128533Y1539D01*
X2131073Y4078D01*
X2138690D01*
X2143768Y-1000D02*
X2148847D01*
X2146308D01*
Y14235D01*
X2143768D01*
X2171699Y-1000D02*
Y9157D01*
X2174238D01*
X2176778Y6618D01*
Y-1000D01*
Y6618D01*
X2179317Y9157D01*
X2181856Y6618D01*
Y-1000D01*
X2194552D02*
X2189474D01*
X2186934Y1539D01*
Y6618D01*
X2189474Y9157D01*
X2194552D01*
X2197091Y6618D01*
Y4078D01*
X2186934D01*
X2204709Y9157D02*
X2209787D01*
X2212326Y6618D01*
Y-1000D01*
X2204709D01*
X2202169Y1539D01*
X2204709Y4078D01*
X2212326D01*
X2217404Y-1000D02*
X2225022D01*
X2227561Y1539D01*
X2225022Y4078D01*
X2219944D01*
X2217404Y6618D01*
X2219944Y9157D01*
X2227561D01*
X2232640D02*
Y1539D01*
X2235179Y-1000D01*
X2242796D01*
Y9157D01*
X2247875D02*
Y-1000D01*
Y4078D01*
X2250414Y6618D01*
X2252953Y9157D01*
X2255492D01*
X2270727Y-1000D02*
X2265649D01*
X2263110Y1539D01*
Y6618D01*
X2265649Y9157D01*
X2270727D01*
X2273266Y6618D01*
Y4078D01*
X2263110D01*
X2278345Y-1000D02*
X2285962D01*
X2288501Y1539D01*
X2285962Y4078D01*
X2280884D01*
X2278345Y6618D01*
X2280884Y9157D01*
X2288501D01*
X1059539Y-13304D02*
Y-15843D01*
X1057000D01*
X1062078D01*
X1059539D01*
Y-23461D01*
X1062078Y-26000D01*
X1069696Y-10765D02*
Y-26000D01*
Y-18383D01*
X1072235Y-15843D01*
X1077313D01*
X1079853Y-18383D01*
Y-26000D01*
X1087470Y-15843D02*
X1092549D01*
X1095088Y-18383D01*
Y-26000D01*
X1087470D01*
X1084931Y-23461D01*
X1087470Y-20922D01*
X1095088D01*
X1102705Y-13304D02*
Y-15843D01*
X1100166D01*
X1105244D01*
X1102705D01*
Y-23461D01*
X1105244Y-26000D01*
X1128097D02*
X1133175D01*
X1130636D01*
Y-10765D01*
X1128097D01*
X1148410Y-26000D02*
X1143332D01*
X1140793Y-23461D01*
Y-18383D01*
X1143332Y-15843D01*
X1148410D01*
X1150950Y-18383D01*
Y-20922D01*
X1140793D01*
X1161106Y-31078D02*
X1163645D01*
X1166185Y-28539D01*
Y-15843D01*
X1158567D01*
X1156028Y-18383D01*
Y-23461D01*
X1158567Y-26000D01*
X1166185D01*
X1173802Y-15843D02*
X1178880D01*
X1181420Y-18383D01*
Y-26000D01*
X1173802D01*
X1171263Y-23461D01*
X1173802Y-20922D01*
X1181420D01*
X1186498Y-26000D02*
X1191576D01*
X1189037D01*
Y-10765D01*
X1186498D01*
X1199194Y-26000D02*
X1204272D01*
X1201733D01*
Y-10765D01*
X1199194D01*
X1211890Y-15843D02*
Y-23461D01*
X1214429Y-26000D01*
X1222047D01*
Y-28539D01*
X1219507Y-31078D01*
X1216968D01*
X1222047Y-26000D02*
Y-15843D01*
X1242360D02*
Y-26000D01*
Y-20922D01*
X1244899Y-18383D01*
X1247438Y-15843D01*
X1249977D01*
X1265213Y-26000D02*
X1260134D01*
X1257595Y-23461D01*
Y-18383D01*
X1260134Y-15843D01*
X1265213D01*
X1267752Y-18383D01*
Y-20922D01*
X1257595D01*
X1272830Y-26000D02*
X1280448D01*
X1282987Y-23461D01*
X1280448Y-20922D01*
X1275369D01*
X1272830Y-18383D01*
X1275369Y-15843D01*
X1282987D01*
X1290604Y-13304D02*
Y-15843D01*
X1288065D01*
X1293144D01*
X1290604D01*
Y-23461D01*
X1293144Y-26000D01*
X1300761Y-15843D02*
Y-26000D01*
Y-20922D01*
X1303300Y-18383D01*
X1305840Y-15843D01*
X1308379D01*
X1315996Y-26000D02*
X1321075D01*
X1318535D01*
Y-15843D01*
X1315996D01*
X1338849D02*
X1331231D01*
X1328692Y-18383D01*
Y-23461D01*
X1331231Y-26000D01*
X1338849D01*
X1346466Y-13304D02*
Y-15843D01*
X1343927D01*
X1349005D01*
X1346466D01*
Y-23461D01*
X1349005Y-26000D01*
X1374397D02*
X1379476D01*
X1382015Y-23461D01*
Y-18383D01*
X1379476Y-15843D01*
X1374397D01*
X1371858Y-18383D01*
Y-23461D01*
X1374397Y-26000D01*
X1389632Y-13304D02*
Y-15843D01*
X1387093D01*
X1392171D01*
X1389632D01*
Y-23461D01*
X1392171Y-26000D01*
X1399789Y-10765D02*
Y-26000D01*
Y-18383D01*
X1402328Y-15843D01*
X1407407D01*
X1409946Y-18383D01*
Y-26000D01*
X1422642D02*
X1417563D01*
X1415024Y-23461D01*
Y-18383D01*
X1417563Y-15843D01*
X1422642D01*
X1425181Y-18383D01*
Y-20922D01*
X1415024D01*
X1430259Y-15843D02*
Y-26000D01*
Y-20922D01*
X1432798Y-18383D01*
X1435338Y-15843D01*
X1437877D01*
X1445494Y-26000D02*
X1453112D01*
X1455651Y-23461D01*
X1453112Y-20922D01*
X1448033D01*
X1445494Y-18383D01*
X1448033Y-15843D01*
X1455651D01*
X1478504Y-26000D02*
Y-13304D01*
Y-18383D01*
X1475964D01*
X1481043D01*
X1478504D01*
Y-13304D01*
X1481043Y-10765D01*
X1488660Y-15843D02*
Y-26000D01*
Y-20922D01*
X1491199Y-18383D01*
X1493739Y-15843D01*
X1496278D01*
X1506435Y-26000D02*
X1511513D01*
X1514052Y-23461D01*
Y-18383D01*
X1511513Y-15843D01*
X1506435D01*
X1503895Y-18383D01*
Y-23461D01*
X1506435Y-26000D01*
X1519130D02*
Y-15843D01*
X1521670D01*
X1524209Y-18383D01*
Y-26000D01*
Y-18383D01*
X1526748Y-15843D01*
X1529287Y-18383D01*
Y-26000D01*
X1559757Y-10765D02*
Y-26000D01*
X1552140D01*
X1549601Y-23461D01*
Y-18383D01*
X1552140Y-15843D01*
X1559757D01*
X1567375Y-26000D02*
X1572453D01*
X1574992Y-23461D01*
Y-18383D01*
X1572453Y-15843D01*
X1567375D01*
X1564836Y-18383D01*
Y-23461D01*
X1567375Y-26000D01*
X1580071D02*
X1585149D01*
X1582610D01*
Y-15843D01*
X1580071D01*
X1592767Y-26000D02*
Y-15843D01*
X1600384D01*
X1602923Y-18383D01*
Y-26000D01*
X1613080Y-31078D02*
X1615619D01*
X1618158Y-28539D01*
Y-15843D01*
X1610541D01*
X1608002Y-18383D01*
Y-23461D01*
X1610541Y-26000D01*
X1618158D01*
X1641011Y-15843D02*
X1646089D01*
X1648629Y-18383D01*
Y-26000D01*
X1641011D01*
X1638472Y-23461D01*
X1641011Y-20922D01*
X1648629D01*
X1653707Y-26000D02*
Y-15843D01*
X1661324D01*
X1663864Y-18383D01*
Y-26000D01*
X1668942Y-15843D02*
Y-23461D01*
X1671481Y-26000D01*
X1679099D01*
Y-28539D01*
X1676559Y-31078D01*
X1674020D01*
X1679099Y-26000D02*
Y-15843D01*
X1686716Y-13304D02*
Y-15843D01*
X1684177D01*
X1689255D01*
X1686716D01*
Y-23461D01*
X1689255Y-26000D01*
X1696873Y-10765D02*
Y-26000D01*
Y-18383D01*
X1699412Y-15843D01*
X1704491D01*
X1707030Y-18383D01*
Y-26000D01*
X1712108D02*
X1717186D01*
X1714647D01*
Y-15843D01*
X1712108D01*
X1724804Y-26000D02*
Y-15843D01*
X1732421D01*
X1734961Y-18383D01*
Y-26000D01*
X1745117Y-31078D02*
X1747657D01*
X1750196Y-28539D01*
Y-15843D01*
X1742578D01*
X1740039Y-18383D01*
Y-23461D01*
X1742578Y-26000D01*
X1750196D01*
X1773048Y-13304D02*
Y-15843D01*
X1770509D01*
X1775587D01*
X1773048D01*
Y-23461D01*
X1775587Y-26000D01*
X1783205Y-10765D02*
Y-26000D01*
Y-18383D01*
X1785744Y-15843D01*
X1790822D01*
X1793362Y-18383D01*
Y-26000D01*
X1806058D02*
X1800979D01*
X1798440Y-23461D01*
Y-18383D01*
X1800979Y-15843D01*
X1806058D01*
X1808597Y-18383D01*
Y-20922D01*
X1798440D01*
X1828910Y-26000D02*
X1833989D01*
X1831449D01*
Y-10765D01*
X1828910D01*
X1841606Y-26000D02*
X1846684D01*
X1844145D01*
Y-15843D01*
X1841606D01*
X1864459D02*
X1856841D01*
X1854302Y-18383D01*
Y-23461D01*
X1856841Y-26000D01*
X1864459D01*
X1877155D02*
X1872076D01*
X1869537Y-23461D01*
Y-18383D01*
X1872076Y-15843D01*
X1877155D01*
X1879694Y-18383D01*
Y-20922D01*
X1869537D01*
X1884772Y-26000D02*
Y-15843D01*
X1892390D01*
X1894929Y-18383D01*
Y-26000D01*
X1900007D02*
X1907625D01*
X1910164Y-23461D01*
X1907625Y-20922D01*
X1902546D01*
X1900007Y-18383D01*
X1902546Y-15843D01*
X1910164D01*
X1922860Y-26000D02*
X1917782D01*
X1915242Y-23461D01*
Y-18383D01*
X1917782Y-15843D01*
X1922860D01*
X1925399Y-18383D01*
Y-20922D01*
X1915242D01*
X1945712Y-31078D02*
Y-15843D01*
X1953330D01*
X1955869Y-18383D01*
Y-23461D01*
X1953330Y-26000D01*
X1945712D01*
X1968565D02*
X1963487D01*
X1960948Y-23461D01*
Y-18383D01*
X1963487Y-15843D01*
X1968565D01*
X1971104Y-18383D01*
Y-20922D01*
X1960948D01*
X1976183Y-15843D02*
Y-26000D01*
Y-20922D01*
X1978722Y-18383D01*
X1981261Y-15843D01*
X1983800D01*
X1991418Y-26000D02*
Y-15843D01*
X1993957D01*
X1996496Y-18383D01*
Y-26000D01*
Y-18383D01*
X1999035Y-15843D01*
X2001574Y-18383D01*
Y-26000D01*
X2006653D02*
X2011731D01*
X2009192D01*
Y-15843D01*
X2006653D01*
X2021888Y-13304D02*
Y-15843D01*
X2019349D01*
X2024427D01*
X2021888D01*
Y-23461D01*
X2024427Y-26000D01*
X2032045D02*
X2039662D01*
X2042201Y-23461D01*
X2039662Y-20922D01*
X2034584D01*
X2032045Y-18383D01*
X2034584Y-15843D01*
X2042201D01*
X2047280Y-26000D02*
Y-23461D01*
X2049819D01*
Y-26000D01*
X2047280D01*
X1057000Y-76000D02*
Y-60765D01*
X1067157Y-76000D01*
Y-60765D01*
X1074774Y-76000D02*
X1079853D01*
X1082392Y-73461D01*
Y-68383D01*
X1079853Y-65843D01*
X1074774D01*
X1072235Y-68383D01*
Y-73461D01*
X1074774Y-76000D01*
X1090009Y-63304D02*
Y-65843D01*
X1087470D01*
X1092549D01*
X1090009D01*
Y-73461D01*
X1092549Y-76000D01*
X1100166D02*
X1105244D01*
X1102705D01*
Y-65843D01*
X1100166D01*
X1123019D02*
X1115401D01*
X1112862Y-68383D01*
Y-73461D01*
X1115401Y-76000D01*
X1123019D01*
X1135714D02*
X1130636D01*
X1128097Y-73461D01*
Y-68383D01*
X1130636Y-65843D01*
X1135714D01*
X1138254Y-68383D01*
Y-70922D01*
X1128097D01*
X1143332Y-76000D02*
X1150950D01*
X1153489Y-73461D01*
X1150950Y-70922D01*
X1145871D01*
X1143332Y-68383D01*
X1145871Y-65843D01*
X1153489D01*
X1158567D02*
X1161106D01*
Y-68383D01*
X1158567D01*
Y-65843D01*
Y-73461D02*
X1161106D01*
Y-76000D01*
X1158567D01*
Y-73461D01*
X1057000Y-85765D02*
Y-88304D01*
X1062078Y-93383D01*
X1067157Y-88304D01*
Y-85765D01*
X1062078Y-93383D02*
Y-101000D01*
X1074774D02*
X1079853D01*
X1082392Y-98461D01*
Y-93383D01*
X1079853Y-90843D01*
X1074774D01*
X1072235Y-93383D01*
Y-98461D01*
X1074774Y-101000D01*
X1087470Y-90843D02*
Y-98461D01*
X1090009Y-101000D01*
X1097627D01*
Y-90843D01*
X1128097Y-85765D02*
Y-101000D01*
X1120480D01*
X1117940Y-98461D01*
Y-93383D01*
X1120480Y-90843D01*
X1128097D01*
X1135714Y-101000D02*
X1140793D01*
X1143332Y-98461D01*
Y-93383D01*
X1140793Y-90843D01*
X1135714D01*
X1133175Y-93383D01*
Y-98461D01*
X1135714Y-101000D01*
X1163645D02*
Y-90843D01*
X1171263D01*
X1173802Y-93383D01*
Y-101000D01*
X1181420D02*
X1186498D01*
X1189037Y-98461D01*
Y-93383D01*
X1186498Y-90843D01*
X1181420D01*
X1178881Y-93383D01*
Y-98461D01*
X1181420Y-101000D01*
X1196655Y-88304D02*
Y-90843D01*
X1194116D01*
X1199194D01*
X1196655D01*
Y-98461D01*
X1199194Y-101000D01*
X1222047Y-85765D02*
Y-101000D01*
Y-93383D01*
X1224586Y-90843D01*
X1229664D01*
X1232203Y-93383D01*
Y-101000D01*
X1239821Y-90843D02*
X1244899D01*
X1247438Y-93383D01*
Y-101000D01*
X1239821D01*
X1237282Y-98461D01*
X1239821Y-95922D01*
X1247438D01*
X1252517Y-90843D02*
X1257595Y-101000D01*
X1262673Y-90843D01*
X1275369Y-101000D02*
X1270291D01*
X1267752Y-98461D01*
Y-93383D01*
X1270291Y-90843D01*
X1275369D01*
X1277908Y-93383D01*
Y-95922D01*
X1267752D01*
X1300761Y-88304D02*
Y-90843D01*
X1298222D01*
X1303300D01*
X1300761D01*
Y-98461D01*
X1303300Y-101000D01*
X1313457D02*
X1318535D01*
X1321075Y-98461D01*
Y-93383D01*
X1318535Y-90843D01*
X1313457D01*
X1310918Y-93383D01*
Y-98461D01*
X1313457Y-101000D01*
X1351545Y-90843D02*
X1343927D01*
X1341388Y-93383D01*
Y-98461D01*
X1343927Y-101000D01*
X1351545D01*
X1359162D02*
X1364241D01*
X1366780Y-98461D01*
Y-93383D01*
X1364241Y-90843D01*
X1359162D01*
X1356623Y-93383D01*
Y-98461D01*
X1359162Y-101000D01*
X1371858D02*
Y-90843D01*
X1374397D01*
X1376936Y-93383D01*
Y-101000D01*
Y-93383D01*
X1379476Y-90843D01*
X1382015Y-93383D01*
Y-101000D01*
X1387093Y-106078D02*
Y-90843D01*
X1394711D01*
X1397250Y-93383D01*
Y-98461D01*
X1394711Y-101000D01*
X1387093D01*
X1402328D02*
X1407407D01*
X1404868D01*
Y-85765D01*
X1402328D01*
X1415024Y-90843D02*
Y-98461D01*
X1417563Y-101000D01*
X1425181D01*
Y-103539D01*
X1422642Y-106078D01*
X1420103D01*
X1425181Y-101000D02*
Y-90843D01*
X1445494D02*
Y-98461D01*
X1448033Y-101000D01*
X1450573Y-98461D01*
X1453112Y-101000D01*
X1455651Y-98461D01*
Y-90843D01*
X1460729Y-101000D02*
X1465808D01*
X1463269D01*
Y-90843D01*
X1460729D01*
X1475965Y-88304D02*
Y-90843D01*
X1473425D01*
X1478504D01*
X1475965D01*
Y-98461D01*
X1478504Y-101000D01*
X1486121Y-85765D02*
Y-101000D01*
Y-93383D01*
X1488660Y-90843D01*
X1493739D01*
X1496278Y-93383D01*
Y-101000D01*
X1519131Y-88304D02*
Y-90843D01*
X1516591D01*
X1521670D01*
X1519131D01*
Y-98461D01*
X1521670Y-101000D01*
X1529287Y-85765D02*
Y-101000D01*
Y-93383D01*
X1531826Y-90843D01*
X1536905D01*
X1539444Y-93383D01*
Y-101000D01*
X1552140D02*
X1547061D01*
X1544522Y-98461D01*
Y-93383D01*
X1547061Y-90843D01*
X1552140D01*
X1554679Y-93383D01*
Y-95922D01*
X1544522D01*
X1574992Y-101000D02*
X1580071D01*
X1577532D01*
Y-85765D01*
X1574992D01*
X1587688Y-101000D02*
X1592767D01*
X1590228D01*
Y-90843D01*
X1587688D01*
X1610541D02*
X1602923D01*
X1600384Y-93383D01*
Y-98461D01*
X1602923Y-101000D01*
X1610541D01*
X1623237D02*
X1618158D01*
X1615619Y-98461D01*
Y-93383D01*
X1618158Y-90843D01*
X1623237D01*
X1625776Y-93383D01*
Y-95922D01*
X1615619D01*
X1630854Y-101000D02*
Y-90843D01*
X1638472D01*
X1641011Y-93383D01*
Y-101000D01*
X1646089D02*
X1653707D01*
X1656246Y-98461D01*
X1653707Y-95922D01*
X1648629D01*
X1646089Y-93383D01*
X1648629Y-90843D01*
X1656246D01*
X1668942Y-101000D02*
X1663864D01*
X1661324Y-98461D01*
Y-93383D01*
X1663864Y-90843D01*
X1668942D01*
X1671481Y-93383D01*
Y-95922D01*
X1661324D01*
X1694334Y-101000D02*
Y-88304D01*
Y-93383D01*
X1691795D01*
X1696873D01*
X1694334D01*
Y-88304D01*
X1696873Y-85765D01*
X1707030Y-101000D02*
X1712108D01*
X1714647Y-98461D01*
Y-93383D01*
X1712108Y-90843D01*
X1707030D01*
X1704491Y-93383D01*
Y-98461D01*
X1707030Y-101000D01*
X1719726Y-90843D02*
Y-101000D01*
Y-95922D01*
X1722265Y-93383D01*
X1724804Y-90843D01*
X1727343D01*
X1757813Y-101000D02*
X1752735D01*
X1750196Y-98461D01*
Y-93383D01*
X1752735Y-90843D01*
X1757813D01*
X1760352Y-93383D01*
Y-95922D01*
X1750196D01*
X1765431Y-101000D02*
X1770509D01*
X1767970D01*
Y-85765D01*
X1765431D01*
X1785744Y-101000D02*
X1780666D01*
X1778127Y-98461D01*
Y-93383D01*
X1780666Y-90843D01*
X1785744D01*
X1788283Y-93383D01*
Y-95922D01*
X1778127D01*
X1793362Y-101000D02*
Y-90843D01*
X1795901D01*
X1798440Y-93383D01*
Y-101000D01*
Y-93383D01*
X1800979Y-90843D01*
X1803519Y-93383D01*
Y-101000D01*
X1816214D02*
X1811136D01*
X1808597Y-98461D01*
Y-93383D01*
X1811136Y-90843D01*
X1816214D01*
X1818754Y-93383D01*
Y-95922D01*
X1808597D01*
X1823832Y-101000D02*
Y-90843D01*
X1831449D01*
X1833989Y-93383D01*
Y-101000D01*
X1841606Y-88304D02*
Y-90843D01*
X1839067D01*
X1844145D01*
X1841606D01*
Y-98461D01*
X1844145Y-101000D01*
X1851763D02*
X1859380D01*
X1861920Y-98461D01*
X1859380Y-95922D01*
X1854302D01*
X1851763Y-93383D01*
X1854302Y-90843D01*
X1861920D01*
X1884772Y-101000D02*
X1889850D01*
X1892390Y-98461D01*
Y-93383D01*
X1889850Y-90843D01*
X1884772D01*
X1882233Y-93383D01*
Y-98461D01*
X1884772Y-101000D01*
X1900007D02*
Y-88304D01*
Y-93383D01*
X1897468D01*
X1902546D01*
X1900007D01*
Y-88304D01*
X1902546Y-85765D01*
X1927938Y-88304D02*
Y-90843D01*
X1925399D01*
X1930477D01*
X1927938D01*
Y-98461D01*
X1930477Y-101000D01*
X1938095Y-85765D02*
Y-101000D01*
Y-93383D01*
X1940634Y-90843D01*
X1945712D01*
X1948252Y-93383D01*
Y-101000D01*
X1960948D02*
X1955869D01*
X1953330Y-98461D01*
Y-93383D01*
X1955869Y-90843D01*
X1960948D01*
X1963487Y-93383D01*
Y-95922D01*
X1953330D01*
X1983800Y-101000D02*
Y-90843D01*
X1986339D01*
X1988878Y-93383D01*
Y-101000D01*
Y-93383D01*
X1991418Y-90843D01*
X1993957Y-93383D01*
Y-101000D01*
X2001574Y-90843D02*
X2006653D01*
X2009192Y-93383D01*
Y-101000D01*
X2001574D01*
X1999035Y-98461D01*
X2001574Y-95922D01*
X2009192D01*
X2016810Y-88304D02*
Y-90843D01*
X2014270D01*
X2019349D01*
X2016810D01*
Y-98461D01*
X2019349Y-101000D01*
X2034584D02*
X2029505D01*
X2026966Y-98461D01*
Y-93383D01*
X2029505Y-90843D01*
X2034584D01*
X2037123Y-93383D01*
Y-95922D01*
X2026966D01*
X2042201Y-90843D02*
Y-101000D01*
Y-95922D01*
X2044740Y-93383D01*
X2047280Y-90843D01*
X2049819D01*
X2057436Y-101000D02*
X2062515D01*
X2059975D01*
Y-90843D01*
X2057436D01*
X2072671D02*
X2077750D01*
X2080289Y-93383D01*
Y-101000D01*
X2072671D01*
X2070132Y-98461D01*
X2072671Y-95922D01*
X2080289D01*
X2085367Y-101000D02*
X2090446D01*
X2087906D01*
Y-85765D01*
X2085367D01*
X2113298Y-101000D02*
X2118377D01*
X2115837D01*
Y-90843D01*
X2113298D01*
X2125994Y-101000D02*
Y-90843D01*
X2133612D01*
X2136151Y-93383D01*
Y-101000D01*
X2159003Y-88304D02*
Y-90843D01*
X2156464D01*
X2161543D01*
X2159003D01*
Y-98461D01*
X2161543Y-101000D01*
X2169160Y-85765D02*
Y-101000D01*
Y-93383D01*
X2171699Y-90843D01*
X2176778D01*
X2179317Y-93383D01*
Y-101000D01*
X2192013D02*
X2186934D01*
X2184395Y-98461D01*
Y-93383D01*
X2186934Y-90843D01*
X2192013D01*
X2194552Y-93383D01*
Y-95922D01*
X2184395D01*
X2214865Y-106078D02*
Y-90843D01*
X2222483D01*
X2225022Y-93383D01*
Y-98461D01*
X2222483Y-101000D01*
X2214865D01*
X2230100Y-90843D02*
Y-98461D01*
X2232640Y-101000D01*
X2240257D01*
Y-90843D01*
X2245336Y-85765D02*
Y-101000D01*
X2252953D01*
X2255492Y-98461D01*
Y-95922D01*
Y-93383D01*
X2252953Y-90843D01*
X2245336D01*
X2260571Y-101000D02*
X2265649D01*
X2263110D01*
Y-85765D01*
X2260571D01*
X2273266Y-101000D02*
X2278345D01*
X2275806D01*
Y-90843D01*
X2273266D01*
X2296119D02*
X2288501D01*
X2285962Y-93383D01*
Y-98461D01*
X2288501Y-101000D01*
X2296119D01*
X2326589Y-85765D02*
Y-101000D01*
X2318972D01*
X2316432Y-98461D01*
Y-93383D01*
X2318972Y-90843D01*
X2326589D01*
X2334207Y-101000D02*
X2339285D01*
X2341824Y-98461D01*
Y-93383D01*
X2339285Y-90843D01*
X2334207D01*
X2331667Y-93383D01*
Y-98461D01*
X2334207Y-101000D01*
X2346903D02*
Y-90843D01*
X2349442D01*
X2351981Y-93383D01*
Y-101000D01*
Y-93383D01*
X2354520Y-90843D01*
X2357059Y-93383D01*
Y-101000D01*
X2364677Y-90843D02*
X2369755D01*
X2372294Y-93383D01*
Y-101000D01*
X2364677D01*
X2362138Y-98461D01*
X2364677Y-95922D01*
X2372294D01*
X2377373Y-101000D02*
X2382451D01*
X2379912D01*
Y-90843D01*
X2377373D01*
X2390069Y-101000D02*
Y-90843D01*
X2397686D01*
X2400225Y-93383D01*
Y-101000D01*
X2423078D02*
X2428156D01*
X2430695Y-98461D01*
Y-93383D01*
X2428156Y-90843D01*
X2423078D01*
X2420539Y-93383D01*
Y-98461D01*
X2423078Y-101000D01*
X2435774Y-90843D02*
Y-101000D01*
Y-95922D01*
X2438313Y-93383D01*
X2440852Y-90843D01*
X2443391D01*
X2466244D02*
Y-98461D01*
X2468783Y-101000D01*
X2471322Y-98461D01*
X2473862Y-101000D01*
X2476401Y-98461D01*
Y-90843D01*
X2481479Y-85765D02*
Y-101000D01*
Y-93383D01*
X2484018Y-90843D01*
X2489097D01*
X2491636Y-93383D01*
Y-101000D01*
X2504332D02*
X2499253D01*
X2496714Y-98461D01*
Y-93383D01*
X2499253Y-90843D01*
X2504332D01*
X2506871Y-93383D01*
Y-95922D01*
X2496714D01*
X2511949Y-90843D02*
Y-101000D01*
Y-95922D01*
X2514488Y-93383D01*
X2517028Y-90843D01*
X2519567D01*
X2534802Y-101000D02*
X2529724D01*
X2527184Y-98461D01*
Y-93383D01*
X2529724Y-90843D01*
X2534802D01*
X2537341Y-93383D01*
Y-95922D01*
X2527184D01*
X1057000Y-115843D02*
Y-123461D01*
X1059539Y-126000D01*
X1067157D01*
Y-128539D01*
X1064617Y-131078D01*
X1062078D01*
X1067157Y-126000D02*
Y-115843D01*
X1074774Y-126000D02*
X1079853D01*
X1082392Y-123461D01*
Y-118383D01*
X1079853Y-115843D01*
X1074774D01*
X1072235Y-118383D01*
Y-123461D01*
X1074774Y-126000D01*
X1087470Y-115843D02*
Y-123461D01*
X1090009Y-126000D01*
X1097627D01*
Y-115843D01*
X1102705D02*
Y-126000D01*
Y-120922D01*
X1105244Y-118383D01*
X1107784Y-115843D01*
X1110323D01*
X1133175D02*
Y-123461D01*
X1135714Y-126000D01*
X1143332D01*
Y-115843D01*
X1148410Y-126000D02*
X1156028D01*
X1158567Y-123461D01*
X1156028Y-120922D01*
X1150950D01*
X1148410Y-118383D01*
X1150950Y-115843D01*
X1158567D01*
X1171263Y-126000D02*
X1166185D01*
X1163645Y-123461D01*
Y-118383D01*
X1166185Y-115843D01*
X1171263D01*
X1173802Y-118383D01*
Y-120922D01*
X1163645D01*
X1194116Y-126000D02*
X1199194D01*
X1196655D01*
Y-115843D01*
X1194116D01*
X1206812Y-126000D02*
X1214429D01*
X1216968Y-123461D01*
X1214429Y-120922D01*
X1209351D01*
X1206812Y-118383D01*
X1209351Y-115843D01*
X1216968D01*
X1237282Y-131078D02*
Y-115843D01*
X1244899D01*
X1247438Y-118383D01*
Y-123461D01*
X1244899Y-126000D01*
X1237282D01*
X1260134D02*
X1255056D01*
X1252517Y-123461D01*
Y-118383D01*
X1255056Y-115843D01*
X1260134D01*
X1262673Y-118383D01*
Y-120922D01*
X1252517D01*
X1267752Y-115843D02*
Y-126000D01*
Y-120922D01*
X1270291Y-118383D01*
X1272830Y-115843D01*
X1275369D01*
X1282987Y-126000D02*
Y-115843D01*
X1285526D01*
X1288065Y-118383D01*
Y-126000D01*
Y-118383D01*
X1290604Y-115843D01*
X1293144Y-118383D01*
Y-126000D01*
X1298222D02*
X1303300D01*
X1300761D01*
Y-115843D01*
X1298222D01*
X1313457Y-113304D02*
Y-115843D01*
X1310918D01*
X1315996D01*
X1313457D01*
Y-123461D01*
X1315996Y-126000D01*
X1326153Y-113304D02*
Y-115843D01*
X1323614D01*
X1328692D01*
X1326153D01*
Y-123461D01*
X1328692Y-126000D01*
X1343927D02*
X1338849D01*
X1336310Y-123461D01*
Y-118383D01*
X1338849Y-115843D01*
X1343927D01*
X1346466Y-118383D01*
Y-120922D01*
X1336310D01*
X1361701Y-110765D02*
Y-126000D01*
X1354084D01*
X1351545Y-123461D01*
Y-118383D01*
X1354084Y-115843D01*
X1361701D01*
X1382015Y-110765D02*
Y-126000D01*
X1389632D01*
X1392172Y-123461D01*
Y-120922D01*
Y-118383D01*
X1389632Y-115843D01*
X1382015D01*
X1397250D02*
Y-123461D01*
X1399789Y-126000D01*
X1407407D01*
Y-128539D01*
X1404867Y-131078D01*
X1402328D01*
X1407407Y-126000D02*
Y-115843D01*
X1430259D02*
X1435338D01*
X1437877Y-118383D01*
Y-126000D01*
X1430259D01*
X1427720Y-123461D01*
X1430259Y-120922D01*
X1437877D01*
X1442955Y-126000D02*
Y-115843D01*
X1450573D01*
X1453112Y-118383D01*
Y-126000D01*
X1475965Y-115843D02*
X1481043D01*
X1483582Y-118383D01*
Y-126000D01*
X1475965D01*
X1473425Y-123461D01*
X1475965Y-120922D01*
X1483582D01*
X1488660Y-131078D02*
Y-115843D01*
X1496278D01*
X1498817Y-118383D01*
Y-123461D01*
X1496278Y-126000D01*
X1488660D01*
X1503895Y-131078D02*
Y-115843D01*
X1511513D01*
X1514052Y-118383D01*
Y-123461D01*
X1511513Y-126000D01*
X1503895D01*
X1519131D02*
X1524209D01*
X1521670D01*
Y-110765D01*
X1519131D01*
X1531826Y-126000D02*
X1536905D01*
X1534366D01*
Y-115843D01*
X1531826D01*
X1554679D02*
X1547061D01*
X1544522Y-118383D01*
Y-123461D01*
X1547061Y-126000D01*
X1554679D01*
X1562296Y-115843D02*
X1567375D01*
X1569914Y-118383D01*
Y-126000D01*
X1562296D01*
X1559757Y-123461D01*
X1562296Y-120922D01*
X1569914D01*
X1574992Y-110765D02*
Y-126000D01*
X1582610D01*
X1585149Y-123461D01*
Y-120922D01*
Y-118383D01*
X1582610Y-115843D01*
X1574992D01*
X1590228Y-126000D02*
X1595306D01*
X1592767D01*
Y-110765D01*
X1590228D01*
X1610541Y-126000D02*
X1605462D01*
X1602923Y-123461D01*
Y-118383D01*
X1605462Y-115843D01*
X1610541D01*
X1613080Y-118383D01*
Y-120922D01*
X1602923D01*
X1641011Y-126000D02*
X1635933D01*
X1633394Y-123461D01*
Y-118383D01*
X1635933Y-115843D01*
X1641011D01*
X1643550Y-118383D01*
Y-120922D01*
X1633394D01*
X1648629Y-115843D02*
X1658785Y-126000D01*
X1653707Y-120922D01*
X1658785Y-115843D01*
X1648629Y-126000D01*
X1674020Y-115843D02*
X1666403D01*
X1663864Y-118383D01*
Y-123461D01*
X1666403Y-126000D01*
X1674020D01*
X1686716D02*
X1681638D01*
X1679099Y-123461D01*
Y-118383D01*
X1681638Y-115843D01*
X1686716D01*
X1689255Y-118383D01*
Y-120922D01*
X1679099D01*
X1694334Y-131078D02*
Y-115843D01*
X1701951D01*
X1704491Y-118383D01*
Y-123461D01*
X1701951Y-126000D01*
X1694334D01*
X1712108Y-113304D02*
Y-115843D01*
X1709569D01*
X1714647D01*
X1712108D01*
Y-123461D01*
X1714647Y-126000D01*
X1722265D02*
X1727343D01*
X1724804D01*
Y-115843D01*
X1722265D01*
X1737500Y-126000D02*
X1742578D01*
X1745117Y-123461D01*
Y-118383D01*
X1742578Y-115843D01*
X1737500D01*
X1734961Y-118383D01*
Y-123461D01*
X1737500Y-126000D01*
X1750196D02*
Y-115843D01*
X1757813D01*
X1760352Y-118383D01*
Y-126000D01*
X1783205D02*
X1788283D01*
X1790823Y-123461D01*
Y-118383D01*
X1788283Y-115843D01*
X1783205D01*
X1780666Y-118383D01*
Y-123461D01*
X1783205Y-126000D01*
X1795901Y-115843D02*
Y-126000D01*
Y-120922D01*
X1798440Y-118383D01*
X1800979Y-115843D01*
X1803519D01*
X1826371Y-126000D02*
X1831449D01*
X1828910D01*
Y-110765D01*
X1826371D01*
X1839067Y-126000D02*
X1844145D01*
X1841606D01*
Y-115843D01*
X1839067D01*
X1851763Y-126000D02*
Y-115843D01*
X1854302D01*
X1856841Y-118383D01*
Y-126000D01*
Y-118383D01*
X1859380Y-115843D01*
X1861920Y-118383D01*
Y-126000D01*
X1866998D02*
X1872076D01*
X1869537D01*
Y-115843D01*
X1866998D01*
X1882233Y-113304D02*
Y-115843D01*
X1879694D01*
X1884772D01*
X1882233D01*
Y-123461D01*
X1884772Y-126000D01*
X1894929Y-115843D02*
X1900007D01*
X1902546Y-118383D01*
Y-126000D01*
X1894929D01*
X1892390Y-123461D01*
X1894929Y-120922D01*
X1902546D01*
X1910164Y-113304D02*
Y-115843D01*
X1907625D01*
X1912703D01*
X1910164D01*
Y-123461D01*
X1912703Y-126000D01*
X1920321D02*
X1925399D01*
X1922860D01*
Y-115843D01*
X1920321D01*
X1935556Y-126000D02*
X1940634D01*
X1943173Y-123461D01*
Y-118383D01*
X1940634Y-115843D01*
X1935556D01*
X1933017Y-118383D01*
Y-123461D01*
X1935556Y-126000D01*
X1948252D02*
Y-115843D01*
X1955869D01*
X1958408Y-118383D01*
Y-126000D01*
X1963487D02*
Y-123461D01*
X1966026D01*
Y-126000D01*
X1963487D01*
X1057000Y-176000D02*
Y-160765D01*
X1067157Y-176000D01*
Y-160765D01*
X1074774Y-176000D02*
X1079853D01*
X1082392Y-173461D01*
Y-168382D01*
X1079853Y-165843D01*
X1074774D01*
X1072235Y-168382D01*
Y-173461D01*
X1074774Y-176000D01*
X1102705Y-165843D02*
Y-173461D01*
X1105244Y-176000D01*
X1107784Y-173461D01*
X1110323Y-176000D01*
X1112862Y-173461D01*
Y-165843D01*
X1120480D02*
X1125558D01*
X1128097Y-168382D01*
Y-176000D01*
X1120480D01*
X1117940Y-173461D01*
X1120480Y-170922D01*
X1128097D01*
X1133175Y-165843D02*
Y-176000D01*
Y-170922D01*
X1135714Y-168382D01*
X1138254Y-165843D01*
X1140793D01*
X1148410D02*
Y-176000D01*
Y-170922D01*
X1150950Y-168382D01*
X1153489Y-165843D01*
X1156028D01*
X1166185D02*
X1171263D01*
X1173802Y-168382D01*
Y-176000D01*
X1166185D01*
X1163645Y-173461D01*
X1166185Y-170922D01*
X1173802D01*
X1178881Y-176000D02*
Y-165843D01*
X1186498D01*
X1189037Y-168382D01*
Y-176000D01*
X1196655Y-163304D02*
Y-165843D01*
X1194116D01*
X1199194D01*
X1196655D01*
Y-173461D01*
X1199194Y-176000D01*
X1206812D02*
X1211890D01*
X1209351D01*
Y-165843D01*
X1206812D01*
X1227125Y-176000D02*
X1222047D01*
X1219507Y-173461D01*
Y-168382D01*
X1222047Y-165843D01*
X1227125D01*
X1229664Y-168382D01*
Y-170922D01*
X1219507D01*
X1234743Y-176000D02*
X1242360D01*
X1244899Y-173461D01*
X1242360Y-170922D01*
X1237282D01*
X1234743Y-168382D01*
X1237282Y-165843D01*
X1244899D01*
X1267752D02*
X1272830D01*
X1275369Y-168382D01*
Y-176000D01*
X1267752D01*
X1265213Y-173461D01*
X1267752Y-170922D01*
X1275369D01*
X1280448Y-165843D02*
Y-176000D01*
Y-170922D01*
X1282987Y-168382D01*
X1285526Y-165843D01*
X1288065D01*
X1303300Y-176000D02*
X1298222D01*
X1295683Y-173461D01*
Y-168382D01*
X1298222Y-165843D01*
X1303300D01*
X1305840Y-168382D01*
Y-170922D01*
X1295683D01*
X1331231Y-181078D02*
X1333770D01*
X1336310Y-178539D01*
Y-165843D01*
X1328692D01*
X1326153Y-168382D01*
Y-173461D01*
X1328692Y-176000D01*
X1336310D01*
X1341388D02*
X1346466D01*
X1343927D01*
Y-165843D01*
X1341388D01*
X1354084D02*
X1359162Y-176000D01*
X1364241Y-165843D01*
X1376936Y-176000D02*
X1371858D01*
X1369319Y-173461D01*
Y-168382D01*
X1371858Y-165843D01*
X1376936D01*
X1379476Y-168382D01*
Y-170922D01*
X1369319D01*
X1384554Y-176000D02*
Y-165843D01*
X1392172D01*
X1394711Y-168382D01*
Y-176000D01*
X1399789D02*
Y-173461D01*
X1402328D01*
Y-176000D01*
X1399789D01*
X1427720Y-160765D02*
X1437877D01*
X1432798D01*
Y-176000D01*
X1442955Y-160765D02*
Y-176000D01*
Y-168382D01*
X1445494Y-165843D01*
X1450573D01*
X1453112Y-168382D01*
Y-176000D01*
X1465808D02*
X1460729D01*
X1458190Y-173461D01*
Y-168382D01*
X1460729Y-165843D01*
X1465808D01*
X1468347Y-168382D01*
Y-170922D01*
X1458190D01*
X1488660Y-176000D02*
X1493739D01*
X1491199D01*
Y-160765D01*
X1488660D01*
X1501356Y-176000D02*
X1506435D01*
X1503895D01*
Y-165843D01*
X1501356D01*
X1524209D02*
X1516591D01*
X1514052Y-168382D01*
Y-173461D01*
X1516591Y-176000D01*
X1524209D01*
X1536905D02*
X1531826D01*
X1529287Y-173461D01*
Y-168382D01*
X1531826Y-165843D01*
X1536905D01*
X1539444Y-168382D01*
Y-170922D01*
X1529287D01*
X1544522Y-176000D02*
Y-165843D01*
X1552140D01*
X1554679Y-168382D01*
Y-176000D01*
X1559757D02*
X1567375D01*
X1569914Y-173461D01*
X1567375Y-170922D01*
X1562296D01*
X1559757Y-168382D01*
X1562296Y-165843D01*
X1569914D01*
X1582610Y-176000D02*
X1577532D01*
X1574992Y-173461D01*
Y-168382D01*
X1577532Y-165843D01*
X1582610D01*
X1585149Y-168382D01*
Y-170922D01*
X1574992D01*
X1605462Y-176000D02*
Y-165843D01*
X1608002D01*
X1610541Y-168382D01*
Y-176000D01*
Y-168382D01*
X1613080Y-165843D01*
X1615619Y-168382D01*
Y-176000D01*
X1623237Y-165843D02*
X1628315D01*
X1630854Y-168382D01*
Y-176000D01*
X1623237D01*
X1620698Y-173461D01*
X1623237Y-170922D01*
X1630854D01*
X1635933Y-165843D02*
Y-173461D01*
X1638472Y-176000D01*
X1646089D01*
Y-178539D01*
X1643550Y-181078D01*
X1641011D01*
X1646089Y-176000D02*
Y-165843D01*
X1666403Y-176000D02*
Y-165843D01*
X1674020D01*
X1676560Y-168382D01*
Y-176000D01*
X1684177D02*
X1689255D01*
X1691795Y-173461D01*
Y-168382D01*
X1689255Y-165843D01*
X1684177D01*
X1681638Y-168382D01*
Y-173461D01*
X1684177Y-176000D01*
X1699412Y-163304D02*
Y-165843D01*
X1696873D01*
X1701951D01*
X1699412D01*
Y-173461D01*
X1701951Y-176000D01*
X1729882Y-181078D02*
X1732422D01*
X1734961Y-178539D01*
Y-165843D01*
X1727343D01*
X1724804Y-168382D01*
Y-173461D01*
X1727343Y-176000D01*
X1734961D01*
X1740039D02*
X1745117D01*
X1742578D01*
Y-165843D01*
X1740039D01*
X1752735D02*
X1757813Y-176000D01*
X1762892Y-165843D01*
X1775587Y-176000D02*
X1770509D01*
X1767970Y-173461D01*
Y-168382D01*
X1770509Y-165843D01*
X1775587D01*
X1778127Y-168382D01*
Y-170922D01*
X1767970D01*
X1798440Y-165843D02*
Y-173461D01*
X1800979Y-176000D01*
X1808597D01*
Y-178539D01*
X1806058Y-181078D01*
X1803519D01*
X1808597Y-176000D02*
Y-165843D01*
X1816214Y-176000D02*
X1821293D01*
X1823832Y-173461D01*
Y-168382D01*
X1821293Y-165843D01*
X1816214D01*
X1813675Y-168382D01*
Y-173461D01*
X1816214Y-176000D01*
X1828910Y-165843D02*
Y-173461D01*
X1831449Y-176000D01*
X1839067D01*
Y-165843D01*
X1861920D02*
X1866998D01*
X1869537Y-168382D01*
Y-176000D01*
X1861920D01*
X1859380Y-173461D01*
X1861920Y-170922D01*
X1869537D01*
X1874615Y-176000D02*
X1879694D01*
X1877155D01*
Y-160765D01*
X1874615D01*
X1887311Y-176000D02*
X1892390D01*
X1889851D01*
Y-160765D01*
X1887311D01*
X1917782Y-176000D02*
X1922860D01*
X1925399Y-173461D01*
Y-168382D01*
X1922860Y-165843D01*
X1917782D01*
X1915242Y-168382D01*
Y-173461D01*
X1917782Y-176000D01*
X1933017D02*
Y-163304D01*
Y-168382D01*
X1930477D01*
X1935556D01*
X1933017D01*
Y-163304D01*
X1935556Y-160765D01*
X1960948Y-163304D02*
Y-165843D01*
X1958408D01*
X1963487D01*
X1960948D01*
Y-173461D01*
X1963487Y-176000D01*
X1971104Y-160765D02*
Y-176000D01*
Y-168382D01*
X1973643Y-165843D01*
X1978722D01*
X1981261Y-168382D01*
Y-176000D01*
X1993957D02*
X1988878D01*
X1986339Y-173461D01*
Y-168382D01*
X1988878Y-165843D01*
X1993957D01*
X1996496Y-168382D01*
Y-170922D01*
X1986339D01*
X2016810Y-181078D02*
Y-165843D01*
X2024427D01*
X2026966Y-168382D01*
Y-173461D01*
X2024427Y-176000D01*
X2016810D01*
X2039662D02*
X2034584D01*
X2032045Y-173461D01*
Y-168382D01*
X2034584Y-165843D01*
X2039662D01*
X2042201Y-168382D01*
Y-170922D01*
X2032045D01*
X2047280Y-165843D02*
Y-176000D01*
Y-170922D01*
X2049819Y-168382D01*
X2052358Y-165843D01*
X2054897D01*
X2062515Y-176000D02*
Y-165843D01*
X2065054D01*
X2067593Y-168382D01*
Y-176000D01*
Y-168382D01*
X2070132Y-165843D01*
X2072671Y-168382D01*
Y-176000D01*
X2077750D02*
X2082828D01*
X2080289D01*
Y-165843D01*
X2077750D01*
X2090446Y-176000D02*
X2098063D01*
X2100602Y-173461D01*
X2098063Y-170922D01*
X2092985D01*
X2090446Y-168382D01*
X2092985Y-165843D01*
X2100602D01*
X2105681Y-176000D02*
X2113298D01*
X2115837Y-173461D01*
X2113298Y-170922D01*
X2108220D01*
X2105681Y-168382D01*
X2108220Y-165843D01*
X2115837D01*
X2120916Y-176000D02*
X2125994D01*
X2123455D01*
Y-165843D01*
X2120916D01*
X2136151Y-176000D02*
X2141229D01*
X2143768Y-173461D01*
Y-168382D01*
X2141229Y-165843D01*
X2136151D01*
X2133612Y-168382D01*
Y-173461D01*
X2136151Y-176000D01*
X2148847D02*
Y-165843D01*
X2156464D01*
X2159003Y-168382D01*
Y-176000D01*
X2164082D02*
X2171699D01*
X2174238Y-173461D01*
X2171699Y-170922D01*
X2166621D01*
X2164082Y-168382D01*
X2166621Y-165843D01*
X2174238D01*
X2194552Y-176000D02*
Y-165843D01*
X2202169D01*
X2204709Y-168382D01*
Y-176000D01*
X2217405D02*
X2212326D01*
X2209787Y-173461D01*
Y-168382D01*
X2212326Y-165843D01*
X2217405D01*
X2219944Y-168382D01*
Y-170922D01*
X2209787D01*
X2235179Y-165843D02*
X2227561D01*
X2225022Y-168382D01*
Y-173461D01*
X2227561Y-176000D01*
X2235179D01*
X2247875D02*
X2242796D01*
X2240257Y-173461D01*
Y-168382D01*
X2242796Y-165843D01*
X2247875D01*
X2250414Y-168382D01*
Y-170922D01*
X2240257D01*
X2255492Y-176000D02*
X2263110D01*
X2265649Y-173461D01*
X2263110Y-170922D01*
X2258031D01*
X2255492Y-168382D01*
X2258031Y-165843D01*
X2265649D01*
X2270727Y-176000D02*
X2278345D01*
X2280884Y-173461D01*
X2278345Y-170922D01*
X2273266D01*
X2270727Y-168382D01*
X2273266Y-165843D01*
X2280884D01*
X2288502D02*
X2293580D01*
X2296119Y-168382D01*
Y-176000D01*
X2288502D01*
X2285962Y-173461D01*
X2288502Y-170922D01*
X2296119D01*
X2301198Y-165843D02*
Y-176000D01*
Y-170922D01*
X2303737Y-168382D01*
X2306276Y-165843D01*
X2308815D01*
X2316432D02*
Y-173461D01*
X2318972Y-176000D01*
X2326589D01*
Y-178539D01*
X2324050Y-181078D01*
X2321511D01*
X2326589Y-176000D02*
Y-165843D01*
X2349442Y-176000D02*
Y-163304D01*
Y-168382D01*
X2346903D01*
X2351981D01*
X2349442D01*
Y-163304D01*
X2351981Y-160765D01*
X2362138Y-176000D02*
X2367216D01*
X2369755Y-173461D01*
Y-168382D01*
X2367216Y-165843D01*
X2362138D01*
X2359599Y-168382D01*
Y-173461D01*
X2362138Y-176000D01*
X2374834Y-165843D02*
Y-176000D01*
Y-170922D01*
X2377373Y-168382D01*
X2379912Y-165843D01*
X2382451D01*
X2405304D02*
Y-173461D01*
X2407843Y-176000D01*
X2415461D01*
Y-178539D01*
X2412921Y-181078D01*
X2410382D01*
X2415461Y-176000D02*
Y-165843D01*
X2423078Y-176000D02*
X2428156D01*
X2430696Y-173461D01*
Y-168382D01*
X2428156Y-165843D01*
X2423078D01*
X2420539Y-168382D01*
Y-173461D01*
X2423078Y-176000D01*
X2435774Y-165843D02*
Y-173461D01*
X2438313Y-176000D01*
X2445931D01*
Y-165843D01*
X2451009D02*
Y-176000D01*
Y-170922D01*
X2453548Y-168382D01*
X2456087Y-165843D01*
X2458627D01*
X1057000Y-201000D02*
X1062078D01*
X1059539D01*
Y-190843D01*
X1057000D01*
X1069696Y-201000D02*
Y-190843D01*
X1077313D01*
X1079853Y-193382D01*
Y-201000D01*
X1087470Y-188304D02*
Y-190843D01*
X1084931D01*
X1090009D01*
X1087470D01*
Y-198461D01*
X1090009Y-201000D01*
X1105244D02*
X1100166D01*
X1097627Y-198461D01*
Y-193382D01*
X1100166Y-190843D01*
X1105244D01*
X1107784Y-193382D01*
Y-195922D01*
X1097627D01*
X1112862Y-201000D02*
Y-190843D01*
X1120479D01*
X1123019Y-193382D01*
Y-201000D01*
X1138254Y-185765D02*
Y-201000D01*
X1130636D01*
X1128097Y-198461D01*
Y-193382D01*
X1130636Y-190843D01*
X1138254D01*
X1150950Y-201000D02*
X1145871D01*
X1143332Y-198461D01*
Y-193382D01*
X1145871Y-190843D01*
X1150950D01*
X1153489Y-193382D01*
Y-195922D01*
X1143332D01*
X1168724Y-185765D02*
Y-201000D01*
X1161106D01*
X1158567Y-198461D01*
Y-193382D01*
X1161106Y-190843D01*
X1168724D01*
X1189037D02*
Y-198461D01*
X1191577Y-201000D01*
X1199194D01*
Y-190843D01*
X1204272Y-201000D02*
X1211890D01*
X1214429Y-198461D01*
X1211890Y-195922D01*
X1206812D01*
X1204272Y-193382D01*
X1206812Y-190843D01*
X1214429D01*
X1227125Y-201000D02*
X1222047D01*
X1219507Y-198461D01*
Y-193382D01*
X1222047Y-190843D01*
X1227125D01*
X1229664Y-193382D01*
Y-195922D01*
X1219507D01*
X1234743Y-201000D02*
Y-198461D01*
X1237282D01*
Y-201000D01*
X1234743D01*
X1272830Y-185765D02*
X1262673D01*
Y-193382D01*
X1267752D01*
X1262673D01*
Y-201000D01*
X1280448D02*
X1285526D01*
X1288065Y-198461D01*
Y-193382D01*
X1285526Y-190843D01*
X1280448D01*
X1277908Y-193382D01*
Y-198461D01*
X1280448Y-201000D01*
X1293144Y-190843D02*
Y-201000D01*
Y-195922D01*
X1295683Y-193382D01*
X1298222Y-190843D01*
X1300761D01*
X1331231Y-201000D02*
X1326153D01*
X1323614Y-198461D01*
Y-193382D01*
X1326153Y-190843D01*
X1331231D01*
X1333770Y-193382D01*
Y-195922D01*
X1323614D01*
X1338849Y-190843D02*
X1349005Y-201000D01*
X1343927Y-195922D01*
X1349005Y-190843D01*
X1338849Y-201000D01*
X1356623Y-190843D02*
X1361701D01*
X1364241Y-193382D01*
Y-201000D01*
X1356623D01*
X1354084Y-198461D01*
X1356623Y-195922D01*
X1364241D01*
X1369319Y-201000D02*
Y-190843D01*
X1371858D01*
X1374397Y-193382D01*
Y-201000D01*
Y-193382D01*
X1376936Y-190843D01*
X1379476Y-193382D01*
Y-201000D01*
X1384554Y-206078D02*
Y-190843D01*
X1392172D01*
X1394711Y-193382D01*
Y-198461D01*
X1392172Y-201000D01*
X1384554D01*
X1399789D02*
X1404867D01*
X1402328D01*
Y-185765D01*
X1399789D01*
X1420103Y-201000D02*
X1415024D01*
X1412485Y-198461D01*
Y-193382D01*
X1415024Y-190843D01*
X1420103D01*
X1422642Y-193382D01*
Y-195922D01*
X1412485D01*
X1430259Y-203539D02*
X1432798Y-201000D01*
Y-198461D01*
X1430259D01*
Y-201000D01*
X1432798D01*
X1430259Y-203539D01*
X1427720Y-206078D01*
X1460729Y-201000D02*
X1465808D01*
X1468347Y-198461D01*
Y-193382D01*
X1465808Y-190843D01*
X1460729D01*
X1458190Y-193382D01*
Y-198461D01*
X1460729Y-201000D01*
X1475965Y-188304D02*
Y-190843D01*
X1473425D01*
X1478504D01*
X1475965D01*
Y-198461D01*
X1478504Y-201000D01*
X1486121Y-185765D02*
Y-201000D01*
Y-193382D01*
X1488660Y-190843D01*
X1493739D01*
X1496278Y-193382D01*
Y-201000D01*
X1508974D02*
X1503895D01*
X1501356Y-198461D01*
Y-193382D01*
X1503895Y-190843D01*
X1508974D01*
X1511513Y-193382D01*
Y-195922D01*
X1501356D01*
X1516591Y-190843D02*
Y-201000D01*
Y-195922D01*
X1519131Y-193382D01*
X1521670Y-190843D01*
X1524209D01*
X1547061D02*
Y-201000D01*
Y-195922D01*
X1549601Y-193382D01*
X1552140Y-190843D01*
X1554679D01*
X1562296Y-201000D02*
X1567375D01*
X1564836D01*
Y-190843D01*
X1562296D01*
X1580071Y-206078D02*
X1582610D01*
X1585149Y-203539D01*
Y-190843D01*
X1577532D01*
X1574992Y-193382D01*
Y-198461D01*
X1577532Y-201000D01*
X1585149D01*
X1590228Y-185765D02*
Y-201000D01*
Y-193382D01*
X1592767Y-190843D01*
X1597845D01*
X1600384Y-193382D01*
Y-201000D01*
X1608002Y-188304D02*
Y-190843D01*
X1605462D01*
X1610541D01*
X1608002D01*
Y-198461D01*
X1610541Y-201000D01*
X1618158D02*
X1625776D01*
X1628315Y-198461D01*
X1625776Y-195922D01*
X1620698D01*
X1618158Y-193382D01*
X1620698Y-190843D01*
X1628315D01*
X1648629Y-201000D02*
X1656246D01*
X1658785Y-198461D01*
X1656246Y-195922D01*
X1651168D01*
X1648629Y-193382D01*
X1651168Y-190843D01*
X1658785D01*
X1663864D02*
Y-198461D01*
X1666403Y-201000D01*
X1674020D01*
Y-190843D01*
X1689255D02*
X1681638D01*
X1679099Y-193382D01*
Y-198461D01*
X1681638Y-201000D01*
X1689255D01*
X1694334Y-185765D02*
Y-201000D01*
Y-193382D01*
X1696873Y-190843D01*
X1701951D01*
X1704491Y-193382D01*
Y-201000D01*
X1727343Y-190843D02*
X1732422D01*
X1734961Y-193382D01*
Y-201000D01*
X1727343D01*
X1724804Y-198461D01*
X1727343Y-195922D01*
X1734961D01*
X1740039Y-201000D02*
X1747657D01*
X1750196Y-198461D01*
X1747657Y-195922D01*
X1742578D01*
X1740039Y-193382D01*
X1742578Y-190843D01*
X1750196D01*
X1770509Y-206078D02*
Y-190843D01*
X1778127D01*
X1780666Y-193382D01*
Y-198461D01*
X1778127Y-201000D01*
X1770509D01*
X1785744Y-190843D02*
Y-198461D01*
X1788283Y-201000D01*
X1795901D01*
Y-190843D01*
X1800979Y-185765D02*
Y-201000D01*
X1808597D01*
X1811136Y-198461D01*
Y-195922D01*
Y-193382D01*
X1808597Y-190843D01*
X1800979D01*
X1816214Y-201000D02*
X1821293D01*
X1818754D01*
Y-185765D01*
X1816214D01*
X1828910Y-201000D02*
X1833989D01*
X1831449D01*
Y-190843D01*
X1828910D01*
X1851763D02*
X1844145D01*
X1841606Y-193382D01*
Y-198461D01*
X1844145Y-201000D01*
X1851763D01*
X1856841D02*
X1861920D01*
X1859380D01*
Y-190843D01*
X1856841D01*
X1872076Y-188304D02*
Y-190843D01*
X1869537D01*
X1874615D01*
X1872076D01*
Y-198461D01*
X1874615Y-201000D01*
X1882233Y-190843D02*
Y-198461D01*
X1884772Y-201000D01*
X1892390D01*
Y-203539D01*
X1889850Y-206078D01*
X1887311D01*
X1892390Y-201000D02*
Y-190843D01*
X1900007Y-203539D02*
X1902546Y-201000D01*
Y-198461D01*
X1900007D01*
Y-201000D01*
X1902546D01*
X1900007Y-203539D01*
X1897468Y-206078D01*
X1927938D02*
Y-190843D01*
X1935556D01*
X1938095Y-193382D01*
Y-198461D01*
X1935556Y-201000D01*
X1927938D01*
X1943173Y-190843D02*
Y-201000D01*
Y-195922D01*
X1945712Y-193382D01*
X1948252Y-190843D01*
X1950791D01*
X1958408Y-201000D02*
X1963487D01*
X1960948D01*
Y-190843D01*
X1958408D01*
X1971104D02*
X1976183Y-201000D01*
X1981261Y-190843D01*
X1988878D02*
X1993957D01*
X1996496Y-193382D01*
Y-201000D01*
X1988878D01*
X1986339Y-198461D01*
X1988878Y-195922D01*
X1996496D01*
X2011731Y-190843D02*
X2004114D01*
X2001574Y-193382D01*
Y-198461D01*
X2004114Y-201000D01*
X2011731D01*
X2016810Y-190843D02*
Y-198461D01*
X2019349Y-201000D01*
X2026966D01*
Y-203539D01*
X2024427Y-206078D01*
X2021888D01*
X2026966Y-201000D02*
Y-190843D01*
X2034584Y-203539D02*
X2037123Y-201000D01*
Y-198461D01*
X2034584D01*
Y-201000D01*
X2037123D01*
X2034584Y-203539D01*
X2032045Y-206078D01*
X2065054Y-201000D02*
X2070132D01*
X2072671Y-198461D01*
Y-193382D01*
X2070132Y-190843D01*
X2065054D01*
X2062515Y-193382D01*
Y-198461D01*
X2065054Y-201000D01*
X2077750Y-190843D02*
Y-201000D01*
Y-195922D01*
X2080289Y-193382D01*
X2082828Y-190843D01*
X2085367D01*
X2108220Y-201000D02*
Y-190843D01*
X2110759D01*
X2113298Y-193382D01*
Y-201000D01*
Y-193382D01*
X2115837Y-190843D01*
X2118377Y-193382D01*
Y-201000D01*
X2125994D02*
X2131073D01*
X2133612Y-198461D01*
Y-193382D01*
X2131073Y-190843D01*
X2125994D01*
X2123455Y-193382D01*
Y-198461D01*
X2125994Y-201000D01*
X2138690Y-190843D02*
Y-201000D01*
Y-195922D01*
X2141229Y-193382D01*
X2143768Y-190843D01*
X2146308D01*
X2156464D02*
X2161543D01*
X2164082Y-193382D01*
Y-201000D01*
X2156464D01*
X2153925Y-198461D01*
X2156464Y-195922D01*
X2164082D01*
X2169160Y-201000D02*
X2174238D01*
X2171699D01*
Y-185765D01*
X2169160D01*
X2197091Y-190843D02*
Y-201000D01*
Y-195922D01*
X2199630Y-193382D01*
X2202169Y-190843D01*
X2204709D01*
X2212326Y-201000D02*
X2217405D01*
X2214865D01*
Y-190843D01*
X2212326D01*
X2230100Y-206078D02*
X2232640D01*
X2235179Y-203539D01*
Y-190843D01*
X2227561D01*
X2225022Y-193382D01*
Y-198461D01*
X2227561Y-201000D01*
X2235179D01*
X2240257Y-185765D02*
Y-201000D01*
Y-193382D01*
X2242796Y-190843D01*
X2247875D01*
X2250414Y-193382D01*
Y-201000D01*
X2258031Y-188304D02*
Y-190843D01*
X2255492D01*
X2260571D01*
X2258031D01*
Y-198461D01*
X2260571Y-201000D01*
X2268188D02*
X2275806D01*
X2278345Y-198461D01*
X2275806Y-195922D01*
X2270727D01*
X2268188Y-193382D01*
X2270727Y-190843D01*
X2278345D01*
X2298658Y-201000D02*
Y-190843D01*
X2301198D01*
X2303737Y-193382D01*
Y-201000D01*
Y-193382D01*
X2306276Y-190843D01*
X2308815Y-193382D01*
Y-201000D01*
X2316432Y-190843D02*
X2321511D01*
X2324050Y-193382D01*
Y-201000D01*
X2316432D01*
X2313893Y-198461D01*
X2316432Y-195922D01*
X2324050D01*
X2329128Y-190843D02*
Y-198461D01*
X2331668Y-201000D01*
X2339285D01*
Y-203539D01*
X2336746Y-206078D01*
X2334207D01*
X2339285Y-201000D02*
Y-190843D01*
X2359599Y-201000D02*
X2364677D01*
X2362138D01*
Y-185765D01*
X2359599D01*
X2372294Y-201000D02*
X2377373D01*
X2374834D01*
Y-190843D01*
X2372294D01*
X2384990Y-201000D02*
Y-190843D01*
X2387529D01*
X2390069Y-193382D01*
Y-201000D01*
Y-193382D01*
X2392608Y-190843D01*
X2395147Y-193382D01*
Y-201000D01*
X2400225D02*
X2405304D01*
X2402765D01*
Y-190843D01*
X2400225D01*
X2415461Y-188304D02*
Y-190843D01*
X2412921D01*
X2418000D01*
X2415461D01*
Y-198461D01*
X2418000Y-201000D01*
X2440852Y-185765D02*
Y-201000D01*
Y-193382D01*
X2443391Y-190843D01*
X2448470D01*
X2451009Y-193382D01*
Y-201000D01*
X2458627D02*
X2463705D01*
X2466244Y-198461D01*
Y-193382D01*
X2463705Y-190843D01*
X2458627D01*
X2456087Y-193382D01*
Y-198461D01*
X2458627Y-201000D01*
X2471322Y-190843D02*
Y-198461D01*
X2473862Y-201000D01*
X2476401Y-198461D01*
X2478940Y-201000D01*
X2481479Y-198461D01*
Y-190843D01*
X2501792D02*
Y-198461D01*
X2504332Y-201000D01*
X2511949D01*
Y-203539D01*
X2509410Y-206078D01*
X2506871D01*
X2511949Y-201000D02*
Y-190843D01*
X2519567Y-201000D02*
X2524645D01*
X2527184Y-198461D01*
Y-193382D01*
X2524645Y-190843D01*
X2519567D01*
X2517028Y-193382D01*
Y-198461D01*
X2519567Y-201000D01*
X2532263Y-190843D02*
Y-198461D01*
X2534802Y-201000D01*
X2542419D01*
Y-190843D01*
X1057000Y-215843D02*
Y-223461D01*
X1059539Y-226000D01*
X1067157D01*
Y-215843D01*
X1072235Y-226000D02*
X1079853D01*
X1082392Y-223461D01*
X1079853Y-220922D01*
X1074774D01*
X1072235Y-218382D01*
X1074774Y-215843D01*
X1082392D01*
X1095088Y-226000D02*
X1090009D01*
X1087470Y-223461D01*
Y-218382D01*
X1090009Y-215843D01*
X1095088D01*
X1097627Y-218382D01*
Y-220922D01*
X1087470D01*
X1120480Y-213304D02*
Y-215843D01*
X1117940D01*
X1123019D01*
X1120480D01*
Y-223461D01*
X1123019Y-226000D01*
X1130636Y-210765D02*
Y-226000D01*
Y-218382D01*
X1133175Y-215843D01*
X1138254D01*
X1140793Y-218382D01*
Y-226000D01*
X1153489D02*
X1148410D01*
X1145871Y-223461D01*
Y-218382D01*
X1148410Y-215843D01*
X1153489D01*
X1156028Y-218382D01*
Y-220922D01*
X1145871D01*
X1176341Y-226000D02*
Y-215843D01*
X1178881D01*
X1181420Y-218382D01*
Y-226000D01*
Y-218382D01*
X1183959Y-215843D01*
X1186498Y-218382D01*
Y-226000D01*
X1194116Y-215843D02*
X1199194D01*
X1201733Y-218382D01*
Y-226000D01*
X1194116D01*
X1191577Y-223461D01*
X1194116Y-220922D01*
X1201733D01*
X1209351Y-213304D02*
Y-215843D01*
X1206812D01*
X1211890D01*
X1209351D01*
Y-223461D01*
X1211890Y-226000D01*
X1227125D02*
X1222047D01*
X1219507Y-223461D01*
Y-218382D01*
X1222047Y-215843D01*
X1227125D01*
X1229664Y-218382D01*
Y-220922D01*
X1219507D01*
X1234743Y-215843D02*
Y-226000D01*
Y-220922D01*
X1237282Y-218382D01*
X1239821Y-215843D01*
X1242360D01*
X1249978Y-226000D02*
X1255056D01*
X1252517D01*
Y-215843D01*
X1249978D01*
X1265213D02*
X1270291D01*
X1272830Y-218382D01*
Y-226000D01*
X1265213D01*
X1262673Y-223461D01*
X1265213Y-220922D01*
X1272830D01*
X1277908Y-226000D02*
X1282987D01*
X1280448D01*
Y-210765D01*
X1277908D01*
X1290604Y-226000D02*
Y-223461D01*
X1293144D01*
Y-226000D01*
X1290604D01*
X1069697Y66382D02*
X1062079D01*
X1059540Y63842D01*
Y58764D01*
X1062079Y56225D01*
X1069697D01*
X1077314D02*
X1082393D01*
X1084932Y58764D01*
Y63842D01*
X1082393Y66382D01*
X1077314D01*
X1074775Y63842D01*
Y58764D01*
X1077314Y56225D01*
X1090010D02*
Y66382D01*
X1097628D01*
X1100167Y63842D01*
Y56225D01*
X1107784Y68921D02*
Y66382D01*
X1105245D01*
X1110324D01*
X1107784D01*
Y58764D01*
X1110324Y56225D01*
X1117941Y66382D02*
Y56225D01*
Y61303D01*
X1120480Y63842D01*
X1123019Y66382D01*
X1125559D01*
X1133176Y56225D02*
X1138254D01*
X1135715D01*
Y66382D01*
X1133176D01*
X1145872Y71460D02*
Y56225D01*
X1153490D01*
X1156029Y58764D01*
Y61303D01*
Y63842D01*
X1153490Y66382D01*
X1145872D01*
X1161107D02*
Y58764D01*
X1163646Y56225D01*
X1171264D01*
Y66382D01*
X1178881Y68921D02*
Y66382D01*
X1176342D01*
X1181421D01*
X1178881D01*
Y58764D01*
X1181421Y56225D01*
X1189038D02*
X1194116D01*
X1191577D01*
Y66382D01*
X1189038D01*
X1204273Y56225D02*
X1209352D01*
X1211891Y58764D01*
Y63842D01*
X1209352Y66382D01*
X1204273D01*
X1201734Y63842D01*
Y58764D01*
X1204273Y56225D01*
X1216969D02*
Y66382D01*
X1224587D01*
X1227126Y63842D01*
Y56225D01*
X1232204D02*
X1239822D01*
X1242361Y58764D01*
X1239822Y61303D01*
X1234743D01*
X1232204Y63842D01*
X1234743Y66382D01*
X1242361D01*
X1262674D02*
Y58764D01*
X1265213Y56225D01*
X1272831D01*
Y66382D01*
X1277909Y56225D02*
Y66382D01*
X1285527D01*
X1288066Y63842D01*
Y56225D01*
X1303301Y71460D02*
Y56225D01*
X1295684D01*
X1293144Y58764D01*
Y63842D01*
X1295684Y66382D01*
X1303301D01*
X1315997Y56225D02*
X1310919D01*
X1308380Y58764D01*
Y63842D01*
X1310919Y66382D01*
X1315997D01*
X1318536Y63842D01*
Y61303D01*
X1308380D01*
X1323615Y66382D02*
Y56225D01*
Y61303D01*
X1326154Y63842D01*
X1328693Y66382D01*
X1331232D01*
X1356624Y68921D02*
Y66382D01*
X1354085D01*
X1359163D01*
X1356624D01*
Y58764D01*
X1359163Y56225D01*
X1366781Y71460D02*
Y56225D01*
Y63842D01*
X1369320Y66382D01*
X1374398D01*
X1376937Y63842D01*
Y56225D01*
X1389633D02*
X1384555D01*
X1382016Y58764D01*
Y63842D01*
X1384555Y66382D01*
X1389633D01*
X1392172Y63842D01*
Y61303D01*
X1382016D01*
X1412486Y56225D02*
X1420103D01*
X1422643Y58764D01*
X1420103Y61303D01*
X1415025D01*
X1412486Y63842D01*
X1415025Y66382D01*
X1422643D01*
X1430260D02*
X1435338D01*
X1437878Y63842D01*
Y56225D01*
X1430260D01*
X1427721Y58764D01*
X1430260Y61303D01*
X1437878D01*
X1442956Y56225D02*
Y66382D01*
X1445495D01*
X1448034Y63842D01*
Y56225D01*
Y63842D01*
X1450573Y66382D01*
X1453113Y63842D01*
Y56225D01*
X1465809D02*
X1460730D01*
X1458191Y58764D01*
Y63842D01*
X1460730Y66382D01*
X1465809D01*
X1468348Y63842D01*
Y61303D01*
X1458191D01*
X1488661Y56225D02*
X1493739D01*
X1491200D01*
Y71460D01*
X1488661D01*
X1501357Y56225D02*
X1506435D01*
X1503896D01*
Y66382D01*
X1501357D01*
X1524210D02*
X1516592D01*
X1514053Y63842D01*
Y58764D01*
X1516592Y56225D01*
X1524210D01*
X1536906D02*
X1531827D01*
X1529288Y58764D01*
Y63842D01*
X1531827Y66382D01*
X1536906D01*
X1539445Y63842D01*
Y61303D01*
X1529288D01*
X1544523Y56225D02*
Y66382D01*
X1552141D01*
X1554680Y63842D01*
Y56225D01*
X1559758D02*
X1567376D01*
X1569915Y58764D01*
X1567376Y61303D01*
X1562297D01*
X1559758Y63842D01*
X1562297Y66382D01*
X1569915D01*
X1582611Y56225D02*
X1577532D01*
X1574993Y58764D01*
Y63842D01*
X1577532Y66382D01*
X1582611D01*
X1585150Y63842D01*
Y61303D01*
X1574993D01*
X1608002Y66382D02*
X1613081D01*
X1615620Y63842D01*
Y56225D01*
X1608002D01*
X1605463Y58764D01*
X1608002Y61303D01*
X1615620D01*
X1620698Y56225D02*
X1628316D01*
X1630855Y58764D01*
X1628316Y61303D01*
X1623238D01*
X1620698Y63842D01*
X1623238Y66382D01*
X1630855D01*
X1653708Y68921D02*
Y66382D01*
X1651169D01*
X1656247D01*
X1653708D01*
Y58764D01*
X1656247Y56225D01*
X1663864Y71460D02*
Y56225D01*
Y63842D01*
X1666404Y66382D01*
X1671482D01*
X1674021Y63842D01*
Y56225D01*
X1686717D02*
X1681639D01*
X1679099Y58764D01*
Y63842D01*
X1681639Y66382D01*
X1686717D01*
X1689256Y63842D01*
Y61303D01*
X1679099D01*
X1712109Y56225D02*
X1717187D01*
X1719726Y58764D01*
Y63842D01*
X1717187Y66382D01*
X1712109D01*
X1709570Y63842D01*
Y58764D01*
X1712109Y56225D01*
X1724805Y66382D02*
Y56225D01*
Y61303D01*
X1727344Y63842D01*
X1729883Y66382D01*
X1732422D01*
X1740040Y56225D02*
X1745118D01*
X1742579D01*
Y66382D01*
X1740040D01*
X1757814Y51147D02*
X1760353D01*
X1762892Y53686D01*
Y66382D01*
X1755275D01*
X1752736Y63842D01*
Y58764D01*
X1755275Y56225D01*
X1762892D01*
X1767971D02*
X1773049D01*
X1770510D01*
Y66382D01*
X1767971D01*
X1780667Y56225D02*
Y66382D01*
X1788284D01*
X1790823Y63842D01*
Y56225D01*
X1798441Y66382D02*
X1803519D01*
X1806059Y63842D01*
Y56225D01*
X1798441D01*
X1795902Y58764D01*
X1798441Y61303D01*
X1806059D01*
X1811137Y56225D02*
X1816215D01*
X1813676D01*
Y71460D01*
X1811137D01*
X1823833Y56225D02*
Y58764D01*
X1826372D01*
Y56225D01*
X1823833D01*
X1069697Y93921D02*
X1067158Y96460D01*
X1062079D01*
X1059540Y93921D01*
Y91382D01*
X1062079Y88842D01*
X1067158D01*
X1069697Y86303D01*
Y83764D01*
X1067158Y81225D01*
X1062079D01*
X1059540Y83764D01*
X1074775Y96460D02*
Y81225D01*
Y88842D01*
X1077314Y91382D01*
X1082393D01*
X1084932Y88842D01*
Y81225D01*
X1092549Y91382D02*
X1097628D01*
X1100167Y88842D01*
Y81225D01*
X1092549D01*
X1090010Y83764D01*
X1092549Y86303D01*
X1100167D01*
X1105245Y91382D02*
Y81225D01*
Y86303D01*
X1107784Y88842D01*
X1110324Y91382D01*
X1112863D01*
X1128098Y81225D02*
X1123019D01*
X1120480Y83764D01*
Y88842D01*
X1123019Y91382D01*
X1128098D01*
X1130637Y88842D01*
Y86303D01*
X1120480D01*
X1135715Y81225D02*
Y91382D01*
X1140794Y96460D01*
X1145872Y91382D01*
Y81225D01*
Y88842D01*
X1135715D01*
X1150950Y81225D02*
X1156029D01*
X1153490D01*
Y96460D01*
X1150950D01*
X1163646Y81225D02*
X1168725D01*
X1166186D01*
Y91382D01*
X1163646D01*
X1176342Y81225D02*
Y96460D01*
Y86303D02*
X1183960Y91382D01*
X1176342Y86303D02*
X1183960Y81225D01*
X1199195D02*
X1194117D01*
X1191577Y83764D01*
Y88842D01*
X1194117Y91382D01*
X1199195D01*
X1201734Y88842D01*
Y86303D01*
X1191577D01*
X1222047Y88842D02*
X1232204D01*
X1252518Y96460D02*
X1257596D01*
X1255057D01*
Y81225D01*
X1252518D01*
X1257596D01*
X1267753D02*
Y93921D01*
Y88842D01*
X1265213D01*
X1270292D01*
X1267753D01*
Y93921D01*
X1270292Y96460D01*
X1293144Y91382D02*
Y83764D01*
X1295684Y81225D01*
X1303301D01*
Y78686D01*
X1300762Y76147D01*
X1298223D01*
X1303301Y81225D02*
Y91382D01*
X1310919Y81225D02*
X1315997D01*
X1318536Y83764D01*
Y88842D01*
X1315997Y91382D01*
X1310919D01*
X1308380Y88842D01*
Y83764D01*
X1310919Y81225D01*
X1323615Y91382D02*
Y83764D01*
X1326154Y81225D01*
X1333771D01*
Y91382D01*
X1354085D02*
Y81225D01*
Y86303D01*
X1356624Y88842D01*
X1359163Y91382D01*
X1361702D01*
X1376937Y81225D02*
X1371859D01*
X1369320Y83764D01*
Y88842D01*
X1371859Y91382D01*
X1376937D01*
X1379476Y88842D01*
Y86303D01*
X1369320D01*
X1384555Y81225D02*
Y91382D01*
X1387094D01*
X1389633Y88842D01*
Y81225D01*
Y88842D01*
X1392172Y91382D01*
X1394712Y88842D01*
Y81225D01*
X1399790D02*
X1404868D01*
X1402329D01*
Y91382D01*
X1399790D01*
X1412486D02*
X1422643Y81225D01*
X1417564Y86303D01*
X1422643Y91382D01*
X1412486Y81225D01*
X1430260Y78686D02*
X1432799Y81225D01*
Y83764D01*
X1430260D01*
Y81225D01*
X1432799D01*
X1430260Y78686D01*
X1427721Y76147D01*
X1460730Y93921D02*
Y91382D01*
X1458191D01*
X1463269D01*
X1460730D01*
Y83764D01*
X1463269Y81225D01*
X1470887Y91382D02*
Y81225D01*
Y86303D01*
X1473426Y88842D01*
X1475965Y91382D01*
X1478504D01*
X1488661D02*
X1493739D01*
X1496279Y88842D01*
Y81225D01*
X1488661D01*
X1486122Y83764D01*
X1488661Y86303D01*
X1496279D01*
X1501357Y81225D02*
Y91382D01*
X1508975D01*
X1511514Y88842D01*
Y81225D01*
X1516592D02*
X1524210D01*
X1526749Y83764D01*
X1524210Y86303D01*
X1519131D01*
X1516592Y88842D01*
X1519131Y91382D01*
X1526749D01*
X1534366Y81225D02*
Y93921D01*
Y88842D01*
X1531827D01*
X1536906D01*
X1534366D01*
Y93921D01*
X1536906Y96460D01*
X1547062Y81225D02*
X1552141D01*
X1554680Y83764D01*
Y88842D01*
X1552141Y91382D01*
X1547062D01*
X1544523Y88842D01*
Y83764D01*
X1547062Y81225D01*
X1559758Y91382D02*
Y81225D01*
Y86303D01*
X1562297Y88842D01*
X1564836Y91382D01*
X1567376D01*
X1574993Y81225D02*
Y91382D01*
X1577532D01*
X1580072Y88842D01*
Y81225D01*
Y88842D01*
X1582611Y91382D01*
X1585150Y88842D01*
Y81225D01*
X1592767Y78686D02*
X1595307Y81225D01*
Y83764D01*
X1592767D01*
Y81225D01*
X1595307D01*
X1592767Y78686D01*
X1590228Y76147D01*
X1623238Y81225D02*
X1628316D01*
X1630855Y83764D01*
Y88842D01*
X1628316Y91382D01*
X1623238D01*
X1620698Y88842D01*
Y83764D01*
X1623238Y81225D01*
X1635934Y91382D02*
Y81225D01*
Y86303D01*
X1638473Y88842D01*
X1641012Y91382D01*
X1643551D01*
X1666404Y96460D02*
Y81225D01*
X1674021D01*
X1676560Y83764D01*
Y86303D01*
Y88842D01*
X1674021Y91382D01*
X1666404D01*
X1681639D02*
Y83764D01*
X1684178Y81225D01*
X1691795D01*
Y91382D01*
X1696874Y81225D02*
X1701952D01*
X1699413D01*
Y91382D01*
X1696874D01*
X1709570Y81225D02*
X1714648D01*
X1712109D01*
Y96460D01*
X1709570D01*
X1732422D02*
Y81225D01*
X1724805D01*
X1722266Y83764D01*
Y88842D01*
X1724805Y91382D01*
X1732422D01*
X1752736D02*
Y83764D01*
X1755275Y81225D01*
X1762892D01*
Y91382D01*
X1767971Y76147D02*
Y91382D01*
X1775588D01*
X1778127Y88842D01*
Y83764D01*
X1775588Y81225D01*
X1767971D01*
X1785745D02*
X1790823D01*
X1793363Y83764D01*
Y88842D01*
X1790823Y91382D01*
X1785745D01*
X1783206Y88842D01*
Y83764D01*
X1785745Y81225D01*
X1798441D02*
Y91382D01*
X1806059D01*
X1808598Y88842D01*
Y81225D01*
X1831450Y93921D02*
Y91382D01*
X1828911D01*
X1833989D01*
X1831450D01*
Y83764D01*
X1833989Y81225D01*
X1841607Y96460D02*
Y81225D01*
Y88842D01*
X1844146Y91382D01*
X1849225D01*
X1851764Y88842D01*
Y81225D01*
X1864460D02*
X1859381D01*
X1856842Y83764D01*
Y88842D01*
X1859381Y91382D01*
X1864460D01*
X1866999Y88842D01*
Y86303D01*
X1856842D01*
X1887312Y81225D02*
Y91382D01*
X1889851D01*
X1892390Y88842D01*
Y81225D01*
Y88842D01*
X1894930Y91382D01*
X1897469Y88842D01*
Y81225D01*
X1905086Y91382D02*
X1910165D01*
X1912704Y88842D01*
Y81225D01*
X1905086D01*
X1902547Y83764D01*
X1905086Y86303D01*
X1912704D01*
X1920322Y93921D02*
Y91382D01*
X1917782D01*
X1922861D01*
X1920322D01*
Y83764D01*
X1922861Y81225D01*
X1938096D02*
X1933017D01*
X1930478Y83764D01*
Y88842D01*
X1933017Y91382D01*
X1938096D01*
X1940635Y88842D01*
Y86303D01*
X1930478D01*
X1945713Y91382D02*
Y81225D01*
Y86303D01*
X1948253Y88842D01*
X1950792Y91382D01*
X1953331D01*
X1960948Y81225D02*
X1966027D01*
X1963488D01*
Y91382D01*
X1960948D01*
X1976183D02*
X1981262D01*
X1983801Y88842D01*
Y81225D01*
X1976183D01*
X1973644Y83764D01*
X1976183Y86303D01*
X1983801D01*
X1988879Y81225D02*
X1993958D01*
X1991418D01*
Y96460D01*
X1988879D01*
X2004114Y78686D02*
X2006653Y81225D01*
Y83764D01*
X2004114D01*
Y81225D01*
X2006653D01*
X2004114Y78686D01*
X2001575Y76147D01*
X2032045Y91382D02*
Y83764D01*
X2034585Y81225D01*
X2042202D01*
Y78686D01*
X2039663Y76147D01*
X2037124D01*
X2042202Y81225D02*
Y91382D01*
X2049820Y81225D02*
X2054898D01*
X2057437Y83764D01*
Y88842D01*
X2054898Y91382D01*
X2049820D01*
X2047280Y88842D01*
Y83764D01*
X2049820Y81225D01*
X2062516Y91382D02*
Y83764D01*
X2065055Y81225D01*
X2072672D01*
Y91382D01*
X2092986Y81225D02*
Y91382D01*
X2095525D01*
X2098064Y88842D01*
Y81225D01*
Y88842D01*
X2100603Y91382D01*
X2103142Y88842D01*
Y81225D01*
X2108221Y91382D02*
Y83764D01*
X2110760Y81225D01*
X2118377D01*
Y91382D01*
X2123456Y81225D02*
X2131073D01*
X2133613Y83764D01*
X2131073Y86303D01*
X2125995D01*
X2123456Y88842D01*
X2125995Y91382D01*
X2133613D01*
X2141230Y93921D02*
Y91382D01*
X2138691D01*
X2143769D01*
X2141230D01*
Y83764D01*
X2143769Y81225D01*
X2176779Y96460D02*
Y81225D01*
X2169161D01*
X2166622Y83764D01*
Y88842D01*
X2169161Y91382D01*
X2176779D01*
X2181857Y81225D02*
X2186935D01*
X2184396D01*
Y91382D01*
X2181857D01*
X2194553Y81225D02*
X2202170D01*
X2204709Y83764D01*
X2202170Y86303D01*
X2197092D01*
X2194553Y88842D01*
X2197092Y91382D01*
X2204709D01*
X2212327Y93921D02*
Y91382D01*
X2209788D01*
X2214866D01*
X2212327D01*
Y83764D01*
X2214866Y81225D01*
X2222484Y91382D02*
Y81225D01*
Y86303D01*
X2225023Y88842D01*
X2227562Y91382D01*
X2230101D01*
X2237719Y81225D02*
X2242797D01*
X2240258D01*
Y91382D01*
X2237719D01*
X2250415Y96460D02*
Y81225D01*
X2258032D01*
X2260571Y83764D01*
Y86303D01*
Y88842D01*
X2258032Y91382D01*
X2250415D01*
X2265650D02*
Y83764D01*
X2268189Y81225D01*
X2275806D01*
Y91382D01*
X2283424Y93921D02*
Y91382D01*
X2280885D01*
X2285963D01*
X2283424D01*
Y83764D01*
X2285963Y81225D01*
X2301198D02*
X2296120D01*
X2293581Y83764D01*
Y88842D01*
X2296120Y91382D01*
X2301198D01*
X2303737Y88842D01*
Y86303D01*
X2293581D01*
X2324051Y91382D02*
Y83764D01*
X2326590Y81225D01*
X2334208D01*
Y78686D01*
X2331668Y76147D01*
X2329129D01*
X2334208Y81225D02*
Y91382D01*
X2341825Y81225D02*
X2346904D01*
X2349443Y83764D01*
Y88842D01*
X2346904Y91382D01*
X2341825D01*
X2339286Y88842D01*
Y83764D01*
X2341825Y81225D01*
X2354521Y91382D02*
Y83764D01*
X2357060Y81225D01*
X2364678D01*
Y91382D01*
X2369756D02*
Y81225D01*
Y86303D01*
X2372295Y88842D01*
X2374834Y91382D01*
X2377374D01*
X1059000Y395235D02*
Y392696D01*
X1064078Y387617D01*
X1069157Y392696D01*
Y395235D01*
X1064078Y387617D02*
Y380000D01*
X1076774D02*
X1081853D01*
X1084392Y382539D01*
Y387617D01*
X1081853Y390157D01*
X1076774D01*
X1074235Y387617D01*
Y382539D01*
X1076774Y380000D01*
X1089470Y390157D02*
Y382539D01*
X1092009Y380000D01*
X1099627D01*
Y390157D01*
X1122479D02*
X1127558D01*
X1130097Y387617D01*
Y380000D01*
X1122479D01*
X1119940Y382539D01*
X1122479Y385078D01*
X1130097D01*
X1135175Y390157D02*
Y380000D01*
Y385078D01*
X1137715Y387617D01*
X1140254Y390157D01*
X1142793D01*
X1158028Y380000D02*
X1152950D01*
X1150410Y382539D01*
Y387617D01*
X1152950Y390157D01*
X1158028D01*
X1160567Y387617D01*
Y385078D01*
X1150410D01*
X1183420Y380000D02*
Y392696D01*
Y387617D01*
X1180881D01*
X1185959D01*
X1183420D01*
Y392696D01*
X1185959Y395235D01*
X1193577Y390157D02*
Y380000D01*
Y385078D01*
X1196116Y387617D01*
X1198655Y390157D01*
X1201194D01*
X1216429Y380000D02*
X1211351D01*
X1208812Y382539D01*
Y387617D01*
X1211351Y390157D01*
X1216429D01*
X1218968Y387617D01*
Y385078D01*
X1208812D01*
X1231664Y380000D02*
X1226586D01*
X1224047Y382539D01*
Y387617D01*
X1226586Y390157D01*
X1231664D01*
X1234203Y387617D01*
Y385078D01*
X1224047D01*
X1257056Y392696D02*
Y390157D01*
X1254517D01*
X1259595D01*
X1257056D01*
Y382539D01*
X1259595Y380000D01*
X1269752D02*
X1274830D01*
X1277369Y382539D01*
Y387617D01*
X1274830Y390157D01*
X1269752D01*
X1267213Y387617D01*
Y382539D01*
X1269752Y380000D01*
X1282448Y390157D02*
X1284987D01*
Y387617D01*
X1282448D01*
Y390157D01*
Y382539D02*
X1284987D01*
Y380000D01*
X1282448D01*
Y382539D01*
X1057000Y-260765D02*
Y-276000D01*
X1064617D01*
X1067157Y-273461D01*
Y-270922D01*
X1064617Y-268382D01*
X1057000D01*
X1064617D01*
X1067157Y-265843D01*
Y-263304D01*
X1064617Y-260765D01*
X1057000D01*
X1074774Y-265843D02*
X1079853D01*
X1082392Y-268382D01*
Y-276000D01*
X1074774D01*
X1072235Y-273461D01*
X1074774Y-270922D01*
X1082392D01*
X1087470Y-276000D02*
X1095088D01*
X1097627Y-273461D01*
X1095088Y-270922D01*
X1090009D01*
X1087470Y-268382D01*
X1090009Y-265843D01*
X1097627D01*
X1110323Y-276000D02*
X1105244D01*
X1102705Y-273461D01*
Y-268382D01*
X1105244Y-265843D01*
X1110323D01*
X1112862Y-268382D01*
Y-270922D01*
X1102705D01*
X1128097Y-260765D02*
Y-276000D01*
X1120480D01*
X1117940Y-273461D01*
Y-268382D01*
X1120480Y-265843D01*
X1128097D01*
X1150950Y-276000D02*
X1156028D01*
X1158567Y-273461D01*
Y-268382D01*
X1156028Y-265843D01*
X1150950D01*
X1148410Y-268382D01*
Y-273461D01*
X1150950Y-276000D01*
X1163645D02*
Y-265843D01*
X1171263D01*
X1173802Y-268382D01*
Y-276000D01*
X1194116D02*
Y-265843D01*
X1199194Y-260765D01*
X1204272Y-265843D01*
Y-276000D01*
Y-268382D01*
X1194116D01*
X1209351Y-265843D02*
Y-276000D01*
Y-270922D01*
X1211890Y-268382D01*
X1214429Y-265843D01*
X1216968D01*
X1234743Y-260765D02*
Y-276000D01*
X1227125D01*
X1224586Y-273461D01*
Y-268382D01*
X1227125Y-265843D01*
X1234743D01*
X1239821D02*
Y-273461D01*
X1242360Y-276000D01*
X1249978D01*
Y-265843D01*
X1255056Y-276000D02*
X1260134D01*
X1257595D01*
Y-265843D01*
X1255056D01*
X1267752Y-276000D02*
Y-265843D01*
X1275369D01*
X1277908Y-268382D01*
Y-276000D01*
X1285526D02*
X1290604D01*
X1293144Y-273461D01*
Y-268382D01*
X1290604Y-265843D01*
X1285526D01*
X1282987Y-268382D01*
Y-273461D01*
X1285526Y-276000D01*
X1298222Y-265843D02*
X1300761D01*
Y-268382D01*
X1298222D01*
Y-265843D01*
Y-273461D02*
X1300761D01*
Y-276000D01*
X1298222D01*
Y-273461D01*
X1326153Y-260765D02*
Y-276000D01*
Y-268382D01*
X1328692Y-265843D01*
X1333770D01*
X1336310Y-268382D01*
Y-276000D01*
X1343927Y-263304D02*
Y-265843D01*
X1341388D01*
X1346466D01*
X1343927D01*
Y-273461D01*
X1346466Y-276000D01*
X1356623Y-263304D02*
Y-265843D01*
X1354084D01*
X1359162D01*
X1356623D01*
Y-273461D01*
X1359162Y-276000D01*
X1366780Y-281078D02*
Y-265843D01*
X1374397D01*
X1376936Y-268382D01*
Y-273461D01*
X1374397Y-276000D01*
X1366780D01*
X1382015Y-265843D02*
X1384554D01*
Y-268382D01*
X1382015D01*
Y-265843D01*
Y-273461D02*
X1384554D01*
Y-276000D01*
X1382015D01*
Y-273461D01*
X1394711Y-276000D02*
X1404867Y-265843D01*
X1409946Y-276000D02*
X1420103Y-265843D01*
X1425181D02*
Y-273461D01*
X1427720Y-276000D01*
X1430259Y-273461D01*
X1432798Y-276000D01*
X1435338Y-273461D01*
Y-265843D01*
X1440416D02*
Y-273461D01*
X1442955Y-276000D01*
X1445494Y-273461D01*
X1448033Y-276000D01*
X1450573Y-273461D01*
Y-265843D01*
X1455651D02*
Y-273461D01*
X1458190Y-276000D01*
X1460729Y-273461D01*
X1463268Y-276000D01*
X1465808Y-273461D01*
Y-265843D01*
X1470886Y-276000D02*
Y-273461D01*
X1473425D01*
Y-276000D01*
X1470886D01*
X1486121Y-265843D02*
X1491199D01*
X1493739Y-268382D01*
Y-276000D01*
X1486121D01*
X1483582Y-273461D01*
X1486121Y-270922D01*
X1493739D01*
X1498817Y-265843D02*
Y-276000D01*
Y-270922D01*
X1501356Y-268382D01*
X1503895Y-265843D01*
X1506435D01*
X1524209Y-260765D02*
Y-276000D01*
X1516591D01*
X1514052Y-273461D01*
Y-268382D01*
X1516591Y-265843D01*
X1524209D01*
X1529287D02*
Y-273461D01*
X1531826Y-276000D01*
X1539444D01*
Y-265843D01*
X1544522Y-276000D02*
X1549601D01*
X1547061D01*
Y-265843D01*
X1544522D01*
X1557218Y-276000D02*
Y-265843D01*
X1564836D01*
X1567375Y-268382D01*
Y-276000D01*
X1574992D02*
X1580071D01*
X1582610Y-273461D01*
Y-268382D01*
X1580071Y-265843D01*
X1574992D01*
X1572453Y-268382D01*
Y-273461D01*
X1574992Y-276000D01*
X1587688D02*
Y-273461D01*
X1590228D01*
Y-276000D01*
X1587688D01*
X1610541Y-265843D02*
X1602923D01*
X1600384Y-268382D01*
Y-273461D01*
X1602923Y-276000D01*
X1610541D01*
X1625776Y-265843D02*
X1618158D01*
X1615619Y-268382D01*
Y-273461D01*
X1618158Y-276000D01*
X1625776D01*
X1630854D02*
X1641011Y-265843D01*
M02*
